<svg xmlns="http://www.w3.org/2000/svg" xmlns:xlink="http://www.w3.org/1999/xlink" viewBox="0 0 774.21 600.42"><defs><style>.cls-1{fill:none;}.cls-2{isolation:isolate;}.cls-3{opacity:0.12;fill:url(#linear-gradient);}.cls-4{fill:url(#linear-gradient-2);}.cls-5{mix-blend-mode:multiply;}.cls-15,.cls-6{mix-blend-mode:overlay;}.cls-7{fill:url(#linear-gradient-3);}.cls-8{fill:url(#linear-gradient-4);}.cls-9{fill:#fff;opacity:0.5;}.cls-10{fill:url(#linear-gradient-5);}.cls-11{fill:url(#linear-gradient-6);}.cls-12{fill:url(#linear-gradient-7);}.cls-13{clip-path:url(#clip-path);}.cls-14{fill:url(#linear-gradient-8);}.cls-16{fill:url(#linear-gradient-9);}.cls-17{fill:url(#linear-gradient-10);}.cls-18{fill:url(#linear-gradient-11);}.cls-19{fill:url(#linear-gradient-12);}.cls-20{clip-path:url(#clip-path-2);}.cls-21{fill:url(#linear-gradient-13);}.cls-22{fill:url(#linear-gradient-14);}.cls-23{fill:url(#linear-gradient-15);}.cls-24{fill:url(#linear-gradient-16);}.cls-25{fill:url(#linear-gradient-17);}.cls-26{fill:url(#linear-gradient-18);}.cls-27{fill:url(#linear-gradient-19);}.cls-28{fill:url(#linear-gradient-20);}.cls-29{fill:url(#linear-gradient-21);}.cls-30{fill:url(#linear-gradient-22);}</style><linearGradient id="linear-gradient" x1="61.65" y1="313.39" x2="774.21" y2="313.39" gradientUnits="userSpaceOnUse"><stop offset="0" stop-color="#3841f2"/><stop offset="0.99" stop-color="#468af5"/></linearGradient><linearGradient id="linear-gradient-2" x1="456.47" y1="269.94" x2="490.58" y2="269.94" gradientUnits="userSpaceOnUse"><stop offset="0" stop-color="#b2b2b2"/><stop offset="1" stop-color="#e5e5e5"/></linearGradient><linearGradient id="linear-gradient-3" x1="490.58" y1="6.05" x2="490.58" y2="136.29" xlink:href="#linear-gradient-2"/><linearGradient id="linear-gradient-4" x1="645.61" y1="391.31" x2="599.78" y2="505.2" gradientUnits="userSpaceOnUse"><stop offset="0" stop-color="#ff512f"/><stop offset="1" stop-color="#ef9719"/></linearGradient><linearGradient id="linear-gradient-5" x1="319.19" y1="583.77" x2="183.93" y2="484.8" gradientTransform="matrix(-1, 0, 0, 1, 911.21, 0)" gradientUnits="userSpaceOnUse"><stop offset="0" stop-color="#dbe25b"/><stop offset="1" stop-color="#45b549"/></linearGradient><linearGradient id="linear-gradient-6" x1="356.83" y1="547.09" x2="459.28" y2="547.09" xlink:href="#linear-gradient-2"/><linearGradient id="linear-gradient-7" x1="571.71" y1="544.83" x2="595.19" y2="544.06" xlink:href="#linear-gradient-2"/><clipPath id="clip-path"><path class="cls-1" d="M455.71,25.87C449.42,15.28,410.31-.39,363.15,0s-86,16.71-92.11,27.4a5.64,5.64,0,0,0-.84,2.78l0,2.95,4,478.12,186.4-1.55-4-481.08A5.46,5.46,0,0,0,455.71,25.87Zm-94-20.52,1.51,0Z"/></clipPath><linearGradient id="linear-gradient-8" x1="284.8" y1="333.68" x2="471.2" y2="333.68" gradientTransform="translate(-15.47 -72.61) rotate(-0.48)" xlink:href="#linear-gradient-2"/><linearGradient id="linear-gradient-9" x1="461.51" y1="85.11" x2="486.45" y2="85.11" xlink:href="#linear-gradient-2"/><linearGradient id="linear-gradient-10" x1="528.94" y1="265.3" x2="499.56" y2="265.3" xlink:href="#linear-gradient-2"/><linearGradient id="linear-gradient-11" x1="524.69" y1="498.53" x2="592.54" y2="498.53" xlink:href="#linear-gradient-2"/><linearGradient id="linear-gradient-12" x1="363.41" y1="1.42" x2="363.41" y2="-21.23" xlink:href="#linear-gradient-2"/><clipPath id="clip-path-2"><path class="cls-1" d="M361.69,482.5c-59.22,0-106.18,24.57-106.18,24.57V593H467.87V505.3C467.87,503.65,420.91,482.5,361.69,482.5Z"/></clipPath><linearGradient id="linear-gradient-13" x1="359.86" y1="483.5" x2="363.62" y2="614.42" xlink:href="#linear-gradient-2"/><linearGradient id="linear-gradient-14" x1="88.19" y1="141.14" x2="239.65" y2="141.14" gradientTransform="matrix(1, 0.09, -0.09, 1, 36.71, 271.22)" xlink:href="#linear-gradient-4"/><linearGradient id="linear-gradient-15" x1="182.19" y1="569.73" x2="46.92" y2="470.77" gradientTransform="matrix(1, 0, 0, 1, 0, 0)" xlink:href="#linear-gradient-5"/><linearGradient id="linear-gradient-16" x1="87.56" y1="595.31" x2="774.21" y2="595.31" gradientUnits="userSpaceOnUse"><stop offset="0" stop-color="#1d966c"/><stop offset="1" stop-color="#92f8b8"/></linearGradient><linearGradient id="linear-gradient-17" x1="108.54" y1="566.22" x2="132.28" y2="566.22" gradientUnits="userSpaceOnUse"><stop offset="0" stop-color="#c9c431"/><stop offset="0.99" stop-color="#f2f886"/></linearGradient><linearGradient id="linear-gradient-18" x1="163.86" y1="556.86" x2="187.6" y2="556.86" xlink:href="#linear-gradient-17"/><linearGradient id="linear-gradient-19" x1="208.56" y1="556.86" x2="232.29" y2="556.86" xlink:href="#linear-gradient-17"/><linearGradient id="linear-gradient-20" x1="174.51" y1="566.22" x2="91.22" y2="566.22" xlink:href="#linear-gradient-17"/><linearGradient id="linear-gradient-21" x1="220.1" y1="556.86" x2="163.74" y2="556.86" xlink:href="#linear-gradient-17"/><linearGradient id="linear-gradient-22" x1="263.75" y1="557.01" x2="191.23" y2="556.29" xlink:href="#linear-gradient-17"/></defs><title>2</title><g class="cls-2"><g id="Layer_2" data-name="Layer 2"><g id="Layer_7" data-name="Layer 7"><path class="cls-3" d="M72.73,597.89s-43.68-76,42.39-145.66c37.77-35.12,26.63-60.92,8.65-76.25s-40.22-116.3,35.39-151.46c56.05-28.39,41.79-62.11,46.24-112.6s66.63-97.8,182-82.69c93.84,14.23,78.67,49.24,145.38,72.68S651.1,153.3,639.53,245.25c-5.34,46.89,51.6,92,80.06,112.7,97,51.17,35.27,242.47,35.27,242.47Z"/><rect class="cls-4" x="456.47" y="29.39" width="34.11" height="481.09"/><g class="cls-5"><rect class="cls-6" x="458.61" y="29.39" width="4.48" height="481.09" transform="translate(921.69 539.88) rotate(180)"/><rect class="cls-6" x="465.48" y="29.39" width="4.48" height="481.09" transform="translate(935.44 539.88) rotate(180)"/><rect class="cls-6" x="472.36" y="29.39" width="4.48" height="481.09" transform="translate(949.19 539.88) rotate(180)"/><rect class="cls-6" x="479.23" y="29.39" width="4.48" height="481.09" transform="translate(962.94 539.88) rotate(180)"/><rect class="cls-6" x="486.11" y="29.39" width="4.48" height="481.09" transform="translate(976.69 539.88) rotate(180)"/></g><path class="cls-7" d="M472.62,11h35.92a16.15,16.15,0,0,1,16.15,16.15v2.26a0,0,0,0,1,0,0H456.47a0,0,0,0,1,0,0V27.14A16.15,16.15,0,0,1,472.62,11Z"/><path class="cls-8" d="M581.37,535s-16.64-42.47,8-96.72,54-73.24,54-73.24,29.16,67.5,4.55,112.39S581.37,535,581.37,535Z"/><polygon class="cls-9" points="590.55 518.17 604.28 478.56 598.29 439.67 607.2 474.74 624.62 422.06 620.72 401.56 625.75 416.47 635.32 393.16 618.8 449.28 638.68 429.48 616.24 455.29 592.87 518.91 590.55 518.17"/><path class="cls-10" d="M664.85,589.94s50.38,22.53,72.09-51.2c11-71.83,37.27-55.42,37.27-55.42s-10.24-35.5-99.94-28.95S563.69,589.12,563.69,589.12,585.8,566.6,664.85,589.94Z"/><path class="cls-9" d="M597.85,569.53l47.73-40.43,54.12-.3-48.18-4.43s43-32.35,81.39-46.85c0,0-36.1,6.55-59.78,25.32l9.62-27.39-16,31.41S615.35,540.42,597.85,569.53Z"/><rect class="cls-11" x="467.93" y="501.21" width="109" height="91.75"/><polygon class="cls-12" points="592.54 583.52 576.93 592.96 576.93 501.21 592.54 495.85 592.54 583.52"/><g class="cls-13"><path class="cls-14" d="M453.72,28.66C443.37,18.28,406.71,5,363.2,5.33s-79.95,14.28-90.12,24.83l-2.88,0,4,481.07,186.4-1.55-4-481.08Z"/><g class="cls-5"><g class="cls-15"><path class="cls-6" d="M284.54,28.84l.21,25.84q-8.38,3-16.56,6.63L268,35.49Q276.15,31.82,284.54,28.84Z"/><path class="cls-6" d="M282.61,52.19c-4.16,1.52-8.3,3.18-12.39,5l-.15-19.32q6.14-2.69,12.39-5Z"/><path class="cls-6" d="M270.07,37.83l.15,19.32q-1,2.07-2,4.16L268,35.49Z"/><path class="cls-6" d="M268,35.49l2.09,2.34q6.14-2.69,12.39-5,1-2,2.08-4Q276.15,31.82,268,35.49Z"/><path class="cls-6" d="M282.61,52.19l2.14,2.49-.21-25.84q-1.05,2-2.08,4Z"/><path class="cls-6" d="M270.22,57.15l-2,4.16q8.18-3.66,16.57-6.63l-2.14-2.49C278.45,53.71,274.31,55.37,270.22,57.15Z"/></g><g class="cls-15"><path class="cls-6" d="M309.76,21.52q.11,12.93.22,25.87-8.62,1.95-17.09,4.58l-.21-25.85Q301.14,23.48,309.76,21.52Z"/><path class="cls-6" d="M307.78,44.63q-6.43,1.53-12.78,3.43-.09-9.66-.16-19.34,6.35-1.91,12.78-3.44Q307.7,35,307.78,44.63Z"/><path class="cls-6" d="M294.84,28.72q.07,9.68.16,19.34c-.71,1.3-1.41,2.61-2.11,3.91l-.21-25.85Z"/><path class="cls-6" d="M292.68,26.12l2.16,2.6q6.35-1.91,12.78-3.44c.71-1.26,1.43-2.51,2.14-3.76Q301.15,23.49,292.68,26.12Z"/><path class="cls-6" d="M307.78,44.63l2.2,2.75q-.12-12.93-.22-25.86c-.71,1.25-1.43,2.5-2.14,3.76Q307.7,35,307.78,44.63Z"/><path class="cls-6" d="M295,48.06c-.71,1.3-1.41,2.61-2.11,3.91q8.46-2.64,17.09-4.59l-2.2-2.75Q301.35,46.16,295,48.06Z"/></g><g class="cls-15"><path class="cls-6" d="M335.55,17.22l.21,25.89Q327,44,318.33,45.66q-.1-12.93-.22-25.87Q326.78,18.16,335.55,17.22Z"/><path class="cls-6" d="M333.53,40.1q-6.54.75-13,1.91-.09-9.69-.17-19.36,6.49-1.16,13.05-1.92Q333.45,30.41,333.53,40.1Z"/><path class="cls-6" d="M320.32,22.65q.09,9.68.17,19.36l-2.16,3.65q-.1-12.93-.22-25.87C318.85,20.74,319.59,21.69,320.32,22.65Z"/><path class="cls-6" d="M318.11,19.79c.74.95,1.48,1.9,2.21,2.86q6.49-1.16,13.05-1.92c.72-1.17,1.45-2.34,2.18-3.51Q326.79,18.17,318.11,19.79Z"/><path class="cls-6" d="M333.53,40.1c.74,1,1.49,2,2.23,3l-.21-25.89c-.73,1.17-1.46,2.34-2.18,3.51Q333.45,30.41,333.53,40.1Z"/><path class="cls-6" d="M320.49,42l-2.16,3.65Q327,44,335.76,43.11c-.74-1-1.49-2-2.23-3Q327,40.85,320.49,42Z"/></g><g class="cls-15"><path class="cls-6" d="M361.63,15.94q.11,12.94.22,25.91-8.82-.08-17.61.52-.11-12.94-.22-25.9Q352.81,15.85,361.63,15.94Z"/><path class="cls-6" d="M359.6,38.58c-4.39,0-8.79.13-13.17.39q-.09-9.69-.17-19.38,6.58-.39,13.18-.4Q359.52,28.88,359.6,38.58Z"/><path class="cls-6" d="M346.26,19.59q.09,9.69.17,19.38l-2.19,3.4q-.11-12.94-.22-25.9Z"/><path class="cls-6" d="M344,16.47l2.24,3.12q6.58-.39,13.18-.4l2.19-3.26Q352.81,15.87,344,16.47Z"/><path class="cls-6" d="M359.6,38.58c.75,1.08,1.5,2.18,2.25,3.27q-.11-13-.22-25.92l-2.19,3.26Q359.52,28.88,359.6,38.58Z"/><path class="cls-6" d="M346.43,39l-2.19,3.4q8.79-.6,17.61-.52c-.75-1.09-1.5-2.19-2.25-3.27C355.21,38.58,350.81,38.71,346.43,39Z"/></g><g class="cls-15"><path class="cls-6" d="M387.76,17.65q.11,13,.22,26-8.79-1.1-17.61-1.51l-.22-25.92Q379,16.58,387.76,17.65Z"/><path class="cls-6" d="M385.74,40.06q-6.58-.75-13.18-1.12-.07-9.7-.16-19.4,6.6.38,13.17,1.12Q385.66,30.37,385.74,40.06Z"/><path class="cls-6" d="M372.4,19.54q.08,9.71.16,19.4l-2.19,3.15-.22-25.92Z"/><path class="cls-6" d="M370.15,16.17l2.25,3.37q6.6.38,13.17,1.12l2.19-3Q379,16.57,370.15,16.17Z"/><path class="cls-6" d="M385.74,40.06,388,43.59q-.11-13-.22-25.94l-2.19,3Q385.66,30.37,385.74,40.06Z"/><path class="cls-6" d="M372.56,38.94l-2.19,3.15q8.82.4,17.61,1.5l-2.24-3.53Q379.16,39.31,372.56,38.94Z"/></g><g class="cls-15"><path class="cls-6" d="M413.67,22.37q.12,13,.22,26-8.67-2.12-17.43-3.53-.1-13-.22-25.95Q405,20.27,413.67,22.37Z"/><path class="cls-6" d="M411.68,44.55q-6.49-1.52-13.05-2.64-.08-9.7-.16-19.41,6.55,1.13,13,2.62Q411.6,34.84,411.68,44.55Z"/><path class="cls-6" d="M398.47,22.5l.17,19.41c-.73,1-1.46,1.93-2.18,2.9q-.1-13-.22-25.95C397,20.07,397.73,21.28,398.47,22.5Z"/><path class="cls-6" d="M396.24,18.86c.74,1.21,1.49,2.42,2.23,3.64q6.55,1.13,13,2.62l2.15-2.75Q405,20.27,396.24,18.86Z"/><path class="cls-6" d="M411.68,44.55l2.21,3.78q-.11-13-.22-26l-2.15,2.75Q411.6,34.84,411.68,44.55Z"/><path class="cls-6" d="M398.63,41.91l-2.17,2.9q8.76,1.42,17.43,3.52l-2.21-3.78Q405.19,43,398.63,41.91Z"/></g><g class="cls-15"><path class="cls-6" d="M439.11,30.07l.21,26q-8.46-3.11-17.08-5.54l-.21-26Q430.64,27,439.11,30.07Z"/><path class="cls-6" d="M437.16,52q-6.35-2.27-12.78-4.14-.08-9.72-.16-19.44,6.43,1.88,12.78,4.13Q437.09,42.29,437.16,52Z"/><path class="cls-6" d="M424.22,28.44q.09,9.72.16,19.44l-2.14,2.64-.21-26Z"/><path class="cls-6" d="M422,24.55l2.19,3.89q6.43,1.88,12.78,4.13l2.11-2.5Q430.65,27,422,24.55Z"/><path class="cls-6" d="M437.16,52l2.16,4-.21-26c-.7.83-1.4,1.67-2.11,2.5Q437.09,42.29,437.16,52Z"/><path class="cls-6" d="M424.38,47.88l-2.14,2.64q8.61,2.43,17.08,5.54l-2.16-4Q430.82,49.76,424.38,47.88Z"/></g><g class="cls-15"><path class="cls-6" d="M463.82,40.75q.1,13,.2,26-8.17-4.11-16.56-7.54l-.2-26Q455.63,36.66,463.82,40.75Z"/><path class="cls-6" d="M461.93,62.46q-6.14-3-12.39-5.64l-.15-19.45Q455.65,40,461.78,43Z"/><path class="cls-6" d="M449.39,37.37l.15,19.45-2.08,2.4-.2-26Z"/><path class="cls-6" d="M447.26,33.22l2.13,4.15Q455.65,40,461.78,43l2-2.25Q455.65,36.64,447.26,33.22Z"/><path class="cls-6" d="M461.93,62.46c.7,1.43,1.4,2.87,2.09,4.3q-.11-13-.2-26l-2,2.25Z"/><path class="cls-6" d="M449.54,56.82l-2.08,2.4q8.39,3.44,16.56,7.54c-.69-1.43-1.39-2.87-2.09-4.3Q455.79,59.46,449.54,56.82Z"/></g><g class="cls-15"><path class="cls-6" d="M284.83,64.23,285,90.07q-8.39,3-16.56,6.63l-.21-25.83Q276.45,67.21,284.83,64.23Z"/><path class="cls-6" d="M282.9,87.57c-4.16,1.53-8.3,3.18-12.39,5l-.15-19.32q6.13-2.67,12.39-5Z"/><path class="cls-6" d="M270.36,73.21l.15,19.32q-1,2.09-2,4.17l-.21-25.83Z"/><path class="cls-6" d="M268.27,70.87l2.09,2.34q6.13-2.67,12.39-5l2.08-4Q276.45,67.2,268.27,70.87Z"/><path class="cls-6" d="M282.9,87.57c.72.83,1.43,1.66,2.14,2.5l-.21-25.84-2.08,4Z"/><path class="cls-6" d="M270.51,92.53c-.68,1.39-1.36,2.77-2,4.17Q276.65,93,285,90.07c-.71-.84-1.42-1.67-2.14-2.5C278.74,89.1,274.6,90.75,270.51,92.53Z"/></g><g class="cls-15"><path class="cls-6" d="M310.05,56.9q.1,12.95.22,25.87-8.62,2-17.09,4.59L293,61.51Q301.43,58.86,310.05,56.9Z"/><path class="cls-6" d="M308.07,80q-6.44,1.53-12.78,3.44-.07-9.67-.16-19.34c4.23-1.28,8.5-2.43,12.78-3.45Q308,70.34,308.07,80Z"/><path class="cls-6" d="M295.13,64.11q.08,9.66.16,19.34c-.7,1.3-1.41,2.6-2.11,3.91L293,61.51Z"/><path class="cls-6" d="M293,61.51l2.16,2.6c4.23-1.28,8.5-2.43,12.78-3.45.72-1.25,1.43-2.51,2.14-3.76Q301.44,58.87,293,61.51Z"/><path class="cls-6" d="M308.07,80l2.2,2.76q-.11-12.93-.22-25.87c-.71,1.25-1.42,2.51-2.14,3.76Q308,70.34,308.07,80Z"/><path class="cls-6" d="M295.29,83.45c-.7,1.3-1.41,2.6-2.11,3.91q8.46-2.64,17.09-4.59L308.07,80Q301.64,81.54,295.29,83.45Z"/></g><g class="cls-15"><path class="cls-6" d="M335.84,52.6l.21,25.9q-8.74.93-17.43,2.54-.11-12.93-.22-25.87Q327.07,53.55,335.84,52.6Z"/><path class="cls-6" d="M333.82,75.48q-6.54.76-13,1.91-.09-9.67-.16-19.36,6.5-1.16,13-1.92Q333.73,65.8,333.82,75.48Z"/><path class="cls-6" d="M320.62,58q.08,9.68.16,19.36L318.62,81q-.11-12.93-.22-25.87Z"/><path class="cls-6" d="M318.4,55.17,320.62,58q6.5-1.16,13-1.92c.72-1.17,1.45-2.34,2.18-3.51Q327.08,53.54,318.4,55.17Z"/><path class="cls-6" d="M333.82,75.48c.75,1,1.49,2,2.23,3l-.21-25.89c-.73,1.17-1.46,2.34-2.18,3.51Q333.73,65.8,333.82,75.48Z"/><path class="cls-6" d="M320.78,77.39,318.62,81q8.67-1.61,17.43-2.55c-.74-1-1.48-2-2.23-3Q327.28,76.24,320.78,77.39Z"/></g><g class="cls-15"><path class="cls-6" d="M361.92,51.32q.12,13,.22,25.91-8.82-.08-17.61.52l-.21-25.89C350.17,51.45,356.05,51.27,361.92,51.32Z"/><path class="cls-6" d="M359.89,74c-4.39,0-8.79.13-13.17.39q-.09-9.69-.16-19.38,6.57-.39,13.17-.4Q359.8,64.28,359.89,74Z"/><path class="cls-6" d="M346.56,55q.07,9.69.16,19.38l-2.19,3.4-.21-25.89Z"/><path class="cls-6" d="M344.31,51.86,346.56,55q6.57-.39,13.17-.4l2.19-3.25Q353.12,51.25,344.31,51.86Z"/><path class="cls-6" d="M359.89,74l2.25,3.27q-.11-12.95-.22-25.91l-2.19,3.25Q359.8,64.28,359.89,74Z"/><path class="cls-6" d="M346.72,74.35l-2.19,3.4q8.79-.6,17.61-.52L359.89,74C355.5,74,351.1,74.09,346.72,74.35Z"/></g><g class="cls-15"><path class="cls-6" d="M388.05,53q.12,13,.22,25.94-8.79-1.1-17.61-1.51l-.22-25.92Q379.26,52,388.05,53Z"/><path class="cls-6" d="M386,75.45q-6.58-.75-13.17-1.13-.09-9.69-.17-19.39,6.6.36,13.18,1.11Q385.95,65.75,386,75.45Z"/><path class="cls-6" d="M372.69,54.93q.09,9.69.17,19.39l-2.2,3.15-.22-25.92Z"/><path class="cls-6" d="M370.44,51.55l2.25,3.38q6.6.36,13.18,1.11l2.18-3Q379.28,51.95,370.44,51.55Z"/><path class="cls-6" d="M386,75.45c.75,1.17,1.49,2.35,2.24,3.53q-.11-13-.22-25.94l-2.18,3Q385.95,65.75,386,75.45Z"/><path class="cls-6" d="M372.86,74.32l-2.2,3.15q8.82.42,17.61,1.51c-.75-1.18-1.49-2.36-2.24-3.53Q379.45,74.7,372.86,74.32Z"/></g><g class="cls-15"><path class="cls-6" d="M414,57.75l.21,26q-8.67-2.1-17.43-3.52-.11-13-.22-25.95Q405.29,55.66,414,57.75Z"/><path class="cls-6" d="M412,79.93q-6.5-1.5-13-2.63-.09-9.72-.17-19.42,6.56,1.13,13.05,2.63Q411.89,70.22,412,79.93Z"/><path class="cls-6" d="M398.76,57.88l.17,19.42c-.73,1-1.45,1.93-2.18,2.9q-.11-13-.22-25.95C397.28,55.45,398,56.67,398.76,57.88Z"/><path class="cls-6" d="M396.53,54.25c.75,1.2,1.49,2.42,2.23,3.63q6.56,1.13,13.05,2.63c.72-.93,1.44-1.84,2.16-2.76Q405.3,55.67,396.53,54.25Z"/><path class="cls-6" d="M412,79.93l2.21,3.79-.21-26c-.72.92-1.44,1.83-2.16,2.76Q411.89,70.22,412,79.93Z"/><path class="cls-6" d="M398.93,77.3l-2.18,2.89q8.76,1.43,17.43,3.53L412,79.93Q405.48,78.43,398.93,77.3Z"/></g><g class="cls-15"><path class="cls-6" d="M439.41,65.45l.21,26q-8.47-3.1-17.09-5.53l-.21-26Q430.93,62.36,439.41,65.45Z"/><path class="cls-6" d="M437.45,87.4q-6.34-2.27-12.78-4.14-.07-9.72-.16-19.43,6.44,1.88,12.79,4.13Z"/><path class="cls-6" d="M424.51,63.83q.09,9.7.16,19.43l-2.14,2.65-.21-26Z"/><path class="cls-6" d="M422.32,59.93l2.19,3.9q6.44,1.88,12.79,4.13c.7-.84,1.4-1.68,2.11-2.51Q430.93,62.36,422.32,59.93Z"/><path class="cls-6" d="M437.45,87.4q1.1,2,2.17,4l-.21-26c-.71.83-1.41,1.67-2.11,2.51Z"/><path class="cls-6" d="M424.67,83.26l-2.14,2.65q8.61,2.43,17.09,5.53-1.08-2-2.17-4Q431.11,85.14,424.67,83.26Z"/></g><g class="cls-15"><path class="cls-6" d="M464.11,76.13q.11,13,.2,26-8.18-4.11-16.55-7.54l-.21-26Q455.92,72,464.11,76.13Z"/><path class="cls-6" d="M462.22,97.85q-6.14-3-12.38-5.64-.09-9.73-.16-19.46,6.26,2.63,12.39,5.64Z"/><path class="cls-6" d="M449.68,72.75q.07,9.73.16,19.46c-.7.79-1.39,1.59-2.08,2.4l-.21-26Z"/><path class="cls-6" d="M447.55,68.61l2.13,4.14q6.26,2.63,12.39,5.64l2-2.26Q455.94,72,447.55,68.61Z"/><path class="cls-6" d="M462.22,97.85q1,2.15,2.09,4.3-.1-13-.2-26l-2,2.26Z"/><path class="cls-6" d="M449.84,92.21c-.7.79-1.39,1.59-2.08,2.39q8.37,3.44,16.55,7.55-1-2.16-2.09-4.3Q456.09,94.84,449.84,92.21Z"/></g><g class="cls-15"><path class="cls-6" d="M285.12,99.61l.21,25.84q-8.38,3-16.56,6.63-.11-12.92-.2-25.82C274,103.81,279.54,101.6,285.12,99.61Z"/><path class="cls-6" d="M283.2,123q-6.26,2.3-12.39,5-.09-9.66-.16-19.32,6.14-2.68,12.39-5Q283.11,113.29,283.2,123Z"/><path class="cls-6" d="M270.65,108.6q.08,9.66.16,19.32l-2,4.16q-.11-12.92-.2-25.82C269.26,107,270,107.81,270.65,108.6Z"/><path class="cls-6" d="M268.57,106.26c.69.77,1.39,1.55,2.08,2.34q6.14-2.68,12.39-5c.69-1.35,1.39-2.69,2.08-4C279.54,101.6,274,103.81,268.57,106.26Z"/><path class="cls-6" d="M283.2,123l2.13,2.5-.21-25.84c-.69,1.33-1.39,2.67-2.08,4Q283.11,113.29,283.2,123Z"/><path class="cls-6" d="M270.81,127.92c-.69,1.38-1.36,2.77-2,4.16q8.18-3.66,16.56-6.63L283.2,123Q276.94,125.25,270.81,127.92Z"/></g><g class="cls-15"><path class="cls-6" d="M310.34,92.29q.12,12.93.22,25.86-8.61,1.95-17.09,4.59l-.21-25.85Q301.74,94.25,310.34,92.29Z"/><path class="cls-6" d="M308.36,115.4c-4.28,1-8.55,2.16-12.78,3.43q-.07-9.67-.16-19.34,6.36-1.9,12.78-3.44Q308.29,105.73,308.36,115.4Z"/><path class="cls-6" d="M295.42,99.49q.09,9.67.16,19.34c-.7,1.3-1.41,2.6-2.11,3.91l-.21-25.85Z"/><path class="cls-6" d="M293.26,96.89l2.16,2.6q6.36-1.9,12.78-3.44l2.14-3.76Q301.73,94.24,293.26,96.89Z"/><path class="cls-6" d="M308.36,115.4l2.2,2.75q-.1-12.93-.22-25.86l-2.14,3.76Q308.29,105.73,308.36,115.4Z"/><path class="cls-6" d="M295.58,118.83c-.7,1.3-1.41,2.6-2.11,3.91q8.47-2.64,17.09-4.59l-2.2-2.75C304.08,116.41,299.81,117.56,295.58,118.83Z"/></g><g class="cls-15"><path class="cls-6" d="M336.13,88q.11,12.95.22,25.89-8.76.93-17.44,2.55l-.21-25.87Q327.37,88.93,336.13,88Z"/><path class="cls-6" d="M334.11,110.86q-6.54.77-13,1.91-.07-9.67-.16-19.35,6.49-1.15,13-1.92Q334,101.18,334.11,110.86Z"/><path class="cls-6" d="M320.91,93.42q.07,9.67.16,19.35l-2.16,3.66-.21-25.87Z"/><path class="cls-6" d="M318.7,90.56l2.21,2.86q6.49-1.15,13-1.92c.73-1.18,1.45-2.35,2.18-3.51Q327.37,88.94,318.7,90.56Z"/><path class="cls-6" d="M334.11,110.86c.75,1,1.49,2,2.24,3q-.12-12.94-.22-25.89c-.73,1.16-1.45,2.33-2.18,3.51Q334,101.18,334.11,110.86Z"/><path class="cls-6" d="M321.07,112.77l-2.16,3.66q8.67-1.62,17.44-2.55l-2.24-3Q327.57,111.63,321.07,112.77Z"/></g><g class="cls-15"><path class="cls-6" d="M362.21,86.7q.12,13,.22,25.92c-5.87-.06-11.75.12-17.6.52q-.12-13-.22-25.9C350.46,86.83,356.34,86.65,362.21,86.7Z"/><path class="cls-6" d="M360.19,109.34q-6.6,0-13.18.39-.08-9.67-.16-19.37c4.38-.26,8.78-.4,13.17-.4Q360.11,99.65,360.19,109.34Z"/><path class="cls-6" d="M346.85,90.36q.07,9.69.16,19.38c-.73,1.13-1.46,2.26-2.18,3.4q-.12-13-.22-25.9Z"/><path class="cls-6" d="M344.61,87.24l2.24,3.12c4.38-.26,8.78-.4,13.17-.4l2.19-3.26C356.34,86.65,350.46,86.83,344.61,87.24Z"/><path class="cls-6" d="M360.19,109.34l2.24,3.28q-.1-13-.22-25.92L360,90Q360.11,99.65,360.19,109.34Z"/><path class="cls-6" d="M347,109.73l-2.19,3.41q8.79-.6,17.61-.52l-2.24-3.28Q353.59,109.35,347,109.73Z"/></g><g class="cls-15"><path class="cls-6" d="M388.34,88.42q.12,13,.22,25.94c-5.85-.73-11.73-1.23-17.6-1.5l-.22-25.93C376.61,87.2,382.49,87.7,388.34,88.42Z"/><path class="cls-6" d="M386.32,110.83c-4.38-.5-8.78-.88-13.17-1.12q-.09-9.7-.17-19.4,6.6.38,13.18,1.12Q386.23,101.12,386.32,110.83Z"/><path class="cls-6" d="M373,90.31q.09,9.7.17,19.4L371,112.86l-.22-25.93Z"/><path class="cls-6" d="M370.74,86.93c.74,1.13,1.49,2.25,2.24,3.38q6.6.38,13.18,1.12l2.18-3C382.49,87.7,376.61,87.2,370.74,86.93Z"/><path class="cls-6" d="M386.32,110.83c.75,1.17,1.5,2.35,2.24,3.53q-.1-13-.22-25.94l-2.18,3Q386.23,101.12,386.32,110.83Z"/><path class="cls-6" d="M373.15,109.71l-2.2,3.15q8.82.4,17.61,1.5c-.74-1.18-1.49-2.36-2.24-3.53C381.94,110.33,377.54,110,373.15,109.71Z"/></g><g class="cls-15"><path class="cls-6" d="M414.26,93.14l.21,26Q405.8,117,397,115.58q-.1-13-.22-25.95Q405.58,91,414.26,93.14Z"/><path class="cls-6" d="M412.26,115.31q-6.5-1.5-13-2.63-.09-9.71-.16-19.42,6.54,1.13,13,2.63Q412.17,105.6,412.26,115.31Z"/><path class="cls-6" d="M399.06,93.27l.16,19.41c-.73,1-1.45,1.93-2.18,2.9q-.1-13-.22-25.95Z"/><path class="cls-6" d="M396.82,89.63l2.24,3.63q6.54,1.13,13,2.63l2.16-2.75Q405.59,91,396.82,89.63Z"/><path class="cls-6" d="M412.26,115.31l2.21,3.79-.21-26-2.16,2.75Q412.17,105.6,412.26,115.31Z"/><path class="cls-6" d="M399.22,112.68c-.73,1-1.45,1.93-2.18,2.9q8.76,1.42,17.43,3.52l-2.21-3.79Q405.77,113.81,399.22,112.68Z"/></g><g class="cls-15"><path class="cls-6" d="M439.7,100.84l.21,26q-8.48-3.1-17.08-5.54-.12-13-.22-26Q431.22,97.74,439.7,100.84Z"/><path class="cls-6" d="M437.75,122.78q-6.36-2.25-12.79-4.14-.07-9.7-.16-19.43,6.43,1.88,12.79,4.13Q437.67,113.06,437.75,122.78Z"/><path class="cls-6" d="M424.81,99.21q.07,9.72.16,19.43c-.72.88-1.43,1.77-2.14,2.65q-.12-13-.22-26Z"/><path class="cls-6" d="M422.61,95.32l2.19,3.89q6.43,1.88,12.79,4.13c.7-.84,1.4-1.67,2.11-2.5Q431.23,97.73,422.61,95.32Z"/><path class="cls-6" d="M437.75,122.78l2.16,4-.21-26c-.71.83-1.41,1.66-2.11,2.5Q437.67,113.06,437.75,122.78Z"/><path class="cls-6" d="M425,118.64c-.71.88-1.42,1.77-2.14,2.65q8.63,2.43,17.09,5.54l-2.16-4Q431.39,120.53,425,118.64Z"/></g><g class="cls-15"><path class="cls-6" d="M464.4,111.52q.11,13,.2,26-8.16-4.11-16.55-7.54l-.21-26Q456.23,107.41,464.4,111.52Z"/><path class="cls-6" d="M462.52,133.23q-6.13-3-12.39-5.64-.08-9.72-.16-19.45,6.25,2.63,12.39,5.63Q462.45,123.51,462.52,133.23Z"/><path class="cls-6" d="M450,108.14q.07,9.72.16,19.45l-2.08,2.4-.21-26Z"/><path class="cls-6" d="M447.84,104l2.13,4.15q6.25,2.63,12.39,5.63l2-2.25Q456.23,107.41,447.84,104Z"/><path class="cls-6" d="M462.52,133.23c.69,1.43,1.39,2.86,2.08,4.3q-.09-13-.2-26l-2,2.25Q462.45,123.51,462.52,133.23Z"/><path class="cls-6" d="M450.13,127.59l-2.08,2.4q8.37,3.44,16.55,7.54c-.69-1.44-1.39-2.87-2.08-4.3Q456.39,130.22,450.13,127.59Z"/></g><g class="cls-15"><path class="cls-6" d="M285.41,135l.21,25.84q-8.39,3-16.56,6.63-.1-12.9-.2-25.82Q277,138,285.41,135Z"/><path class="cls-6" d="M283.49,158.34q-6.25,2.28-12.39,5-.08-9.66-.16-19.32c4.09-1.78,8.23-3.44,12.39-5Q283.4,148.67,283.49,158.34Z"/><path class="cls-6" d="M270.94,144q.09,9.66.16,19.32l-2,4.16q-.1-12.9-.2-25.82Z"/><path class="cls-6" d="M268.86,141.64l2.08,2.34c4.09-1.78,8.23-3.44,12.39-5q1.05-2,2.08-4C279.83,137,274.3,139.2,268.86,141.64Z"/><path class="cls-6" d="M283.49,158.34l2.13,2.49L285.41,135q-1,2-2.08,4Q283.4,148.67,283.49,158.34Z"/><path class="cls-6" d="M271.1,163.3l-2,4.16q8.18-3.66,16.56-6.63l-2.13-2.49Q277.24,160.62,271.1,163.3Z"/></g><g class="cls-15"><path class="cls-6" d="M310.64,127.67l.21,25.87q-8.61,2-17.09,4.58l-.21-25.84Q302,129.63,310.64,127.67Z"/><path class="cls-6" d="M308.66,150.78q-6.44,1.53-12.79,3.43-.08-9.66-.16-19.33,6.36-1.92,12.79-3.45Q308.58,141.1,308.66,150.78Z"/><path class="cls-6" d="M295.72,134.88l.15,19.34c-.7,1.29-1.4,2.6-2.11,3.9l-.21-25.84Z"/><path class="cls-6" d="M293.55,132.28l2.16,2.6q6.36-1.92,12.79-3.45c.71-1.25,1.42-2.51,2.14-3.76Q302,129.64,293.55,132.28Z"/><path class="cls-6" d="M308.66,150.78l2.19,2.76-.21-25.87c-.72,1.25-1.43,2.51-2.14,3.76Q308.58,141.1,308.66,150.78Z"/><path class="cls-6" d="M295.87,154.21c-.7,1.3-1.4,2.61-2.11,3.91q8.48-2.62,17.09-4.58l-2.19-2.76Q302.23,152.31,295.87,154.21Z"/></g><g class="cls-15"><path class="cls-6" d="M336.42,123.37q.1,12.94.22,25.89-8.76.93-17.44,2.55L319,125.94Q327.66,124.32,336.42,123.37Z"/><path class="cls-6" d="M334.41,146.25q-6.56.76-13.05,1.91-.08-9.69-.16-19.36,6.49-1.16,13-1.92Q334.33,136.57,334.41,146.25Z"/><path class="cls-6" d="M321.2,128.8q.07,9.67.16,19.36l-2.16,3.65L319,125.94Z"/><path class="cls-6" d="M319,125.94l2.21,2.86q6.49-1.16,13-1.92l2.18-3.51Q327.66,124.32,319,125.94Z"/><path class="cls-6" d="M334.41,146.25l2.23,3q-.12-12.94-.22-25.89l-2.18,3.51Q334.33,136.57,334.41,146.25Z"/><path class="cls-6" d="M321.36,148.16l-2.16,3.65q8.67-1.62,17.44-2.55l-2.23-3Q327.86,147,321.36,148.16Z"/></g><g class="cls-15"><path class="cls-6" d="M362.51,122.09q.11,13,.22,25.91-8.82-.08-17.61.52-.12-12.95-.22-25.9Q353.69,122,362.51,122.09Z"/><path class="cls-6" d="M360.48,144.73q-6.6,0-13.18.39-.07-9.69-.16-19.38c4.38-.26,8.78-.39,13.17-.4Q360.4,135,360.48,144.73Z"/><path class="cls-6" d="M347.14,125.74q.08,9.69.16,19.38l-2.18,3.4q-.12-12.95-.22-25.9Z"/><path class="cls-6" d="M344.9,122.62l2.24,3.12c4.38-.26,8.78-.39,13.17-.4.73-1.09,1.47-2.17,2.2-3.25Q353.69,122,344.9,122.62Z"/><path class="cls-6" d="M360.48,144.73l2.25,3.27q-.12-13-.22-25.91c-.73,1.08-1.47,2.16-2.2,3.25Q360.4,135,360.48,144.73Z"/><path class="cls-6" d="M347.3,145.12c-.73,1.13-1.46,2.26-2.18,3.4q8.78-.6,17.61-.52l-2.25-3.27Q353.88,144.73,347.3,145.12Z"/></g><g class="cls-15"><path class="cls-6" d="M388.64,123.81l.21,25.94c-5.85-.73-11.73-1.23-17.6-1.51L371,122.32Q379.84,122.73,388.64,123.81Z"/><path class="cls-6" d="M386.61,146.22c-4.38-.51-8.78-.88-13.17-1.13q-.09-9.69-.17-19.4,6.6.38,13.18,1.12Q386.53,136.51,386.61,146.22Z"/><path class="cls-6" d="M373.28,125.7q.08,9.69.16,19.39l-2.19,3.15L371,122.32Z"/><path class="cls-6" d="M371,122.32l2.24,3.37q6.6.38,13.18,1.12l2.19-3Q379.85,122.72,371,122.32Z"/><path class="cls-6" d="M386.61,146.22c.75,1.17,1.5,2.35,2.24,3.53l-.21-25.94-2.19,3Q386.53,136.51,386.61,146.22Z"/><path class="cls-6" d="M373.44,145.09l-2.19,3.15c5.87.28,11.75.78,17.6,1.51-.74-1.18-1.49-2.36-2.24-3.53C382.23,145.71,377.83,145.34,373.44,145.09Z"/></g><g class="cls-15"><path class="cls-6" d="M414.55,128.52q.1,13,.22,26-8.67-2.1-17.44-3.53L397.12,125Q405.87,126.43,414.55,128.52Z"/><path class="cls-6" d="M412.55,150.7q-6.49-1.51-13-2.64-.08-9.7-.16-19.41,6.54,1.13,13,2.62Q412.48,141,412.55,150.7Z"/><path class="cls-6" d="M399.35,128.65q.07,9.71.16,19.41l-2.18,2.9L397.12,125Z"/><path class="cls-6" d="M397.11,125l2.24,3.64q6.54,1.13,13,2.62l2.16-2.75Q405.88,126.43,397.11,125Z"/><path class="cls-6" d="M412.55,150.7l2.22,3.79q-.12-13-.22-26l-2.16,2.75Q412.48,141,412.55,150.7Z"/><path class="cls-6" d="M399.51,148.06l-2.18,2.9q8.76,1.42,17.44,3.53l-2.22-3.79Q406.06,149.19,399.51,148.06Z"/></g><g class="cls-15"><path class="cls-6" d="M440,136.22l.21,26q-8.46-3.11-17.08-5.53-.11-13-.22-26Q431.51,133.13,440,136.22Z"/><path class="cls-6" d="M438,158.17c-4.23-1.51-8.5-2.89-12.78-4.14q-.09-9.72-.16-19.44c4.28,1.25,8.55,2.63,12.78,4.13Q438,148.46,438,158.17Z"/><path class="cls-6" d="M425.1,134.59q.07,9.72.16,19.44c-.72.88-1.43,1.76-2.14,2.65q-.11-13-.22-26Z"/><path class="cls-6" d="M422.9,130.7l2.2,3.89c4.28,1.25,8.55,2.63,12.78,4.13l2.11-2.5Q431.52,133.13,422.9,130.7Z"/><path class="cls-6" d="M438,158.17l2.16,4-.21-26-2.11,2.5Q438,148.46,438,158.17Z"/><path class="cls-6" d="M425.26,154c-.72.88-1.43,1.76-2.14,2.65q8.61,2.43,17.08,5.53l-2.16-4C433.81,156.66,429.54,155.28,425.26,154Z"/></g><g class="cls-15"><path class="cls-6" d="M464.69,146.9l.21,26q-8.17-4.11-16.56-7.55l-.21-26Q456.52,142.81,464.69,146.9Z"/><path class="cls-6" d="M462.81,168.61q-6.13-3-12.39-5.64-.07-9.72-.16-19.45,6.25,2.63,12.4,5.63Z"/><path class="cls-6" d="M450.26,143.52q.09,9.73.16,19.45l-2.08,2.4-.21-26Z"/><path class="cls-6" d="M448.13,139.37l2.13,4.15q6.25,2.63,12.4,5.63l2-2.25Q456.52,142.8,448.13,139.37Z"/><path class="cls-6" d="M462.81,168.61c.7,1.43,1.39,2.87,2.09,4.3l-.21-26-2,2.25Z"/><path class="cls-6" d="M450.42,163l-2.08,2.4q8.37,3.44,16.56,7.54c-.7-1.43-1.39-2.87-2.09-4.3Q456.68,165.61,450.42,163Z"/></g><g class="cls-15"><path class="cls-6" d="M285.71,170.38q.1,12.92.2,25.84-8.37,3-16.56,6.63-.11-12.91-.2-25.82Q277.33,173.36,285.71,170.38Z"/><path class="cls-6" d="M283.78,193.72q-6.25,2.29-12.39,5l-.15-19.32q6.13-2.69,12.38-5Q283.71,184.07,283.78,193.72Z"/><path class="cls-6" d="M271.24,179.37l.15,19.32-2,4.16q-.11-12.91-.2-25.82Z"/><path class="cls-6" d="M269.15,177l2.09,2.34q6.13-2.69,12.38-5c.7-1.34,1.39-2.68,2.09-4Q277.33,173.35,269.15,177Z"/><path class="cls-6" d="M283.78,193.72l2.13,2.5q-.11-12.93-.2-25.84c-.7,1.33-1.39,2.67-2.09,4Q283.71,184.07,283.78,193.72Z"/><path class="cls-6" d="M271.39,198.69l-2,4.16q8.17-3.66,16.56-6.63l-2.13-2.5Q277.53,196,271.39,198.69Z"/></g><g class="cls-15"><path class="cls-6" d="M310.93,163.06l.21,25.86q-8.61,2-17.08,4.59l-.21-25.85Q302.31,165,310.93,163.06Z"/><path class="cls-6" d="M309,186.17q-6.43,1.52-12.79,3.43L296,170.26q6.35-1.92,12.78-3.44Q308.86,176.5,309,186.17Z"/><path class="cls-6" d="M296,170.26l.15,19.34-2.1,3.91-.21-25.85Z"/><path class="cls-6" d="M293.85,167.66l2.16,2.6q6.35-1.92,12.78-3.44c.71-1.26,1.42-2.51,2.14-3.76Q302.32,165,293.85,167.66Z"/><path class="cls-6" d="M309,186.17l2.19,2.75-.21-25.86c-.72,1.25-1.43,2.5-2.14,3.76Q308.86,176.5,309,186.17Z"/><path class="cls-6" d="M296.16,189.6l-2.1,3.91q8.46-2.64,17.08-4.59L309,186.17Q302.52,187.69,296.16,189.6Z"/></g><g class="cls-15"><path class="cls-6" d="M336.71,158.76q.1,12.94.22,25.89-8.76.93-17.43,2.55-.12-12.94-.22-25.88Q328,159.7,336.71,158.76Z"/><path class="cls-6" d="M334.7,181.63q-6.56.76-13.05,1.91-.07-9.67-.16-19.36,6.5-1.14,13-1.92Q334.62,172,334.7,181.63Z"/><path class="cls-6" d="M321.49,164.18q.09,9.69.16,19.36c-.72,1.22-1.44,2.44-2.15,3.66q-.12-12.94-.22-25.88Z"/><path class="cls-6" d="M319.28,161.32l2.21,2.86q6.5-1.14,13-1.92l2.18-3.5Q328,159.69,319.28,161.32Z"/><path class="cls-6" d="M334.7,181.63l2.23,3q-.1-12.94-.22-25.89l-2.18,3.5Q334.62,172,334.7,181.63Z"/><path class="cls-6" d="M321.65,183.54c-.72,1.22-1.44,2.43-2.16,3.66q8.67-1.62,17.44-2.55l-2.23-3Q328.15,182.4,321.65,183.54Z"/></g><g class="cls-15"><path class="cls-6" d="M362.8,157.47q.1,13,.22,25.92-8.82-.09-17.61.52-.11-13-.22-25.9Q354,157.39,362.8,157.47Z"/><path class="cls-6" d="M360.77,180.11q-6.6,0-13.18.39-.07-9.69-.16-19.37,6.58-.39,13.18-.4Q360.69,170.42,360.77,180.11Z"/><path class="cls-6" d="M347.43,161.13q.09,9.69.16,19.37l-2.18,3.41q-.11-13-.22-25.9C345.94,159,346.68,160.08,347.43,161.13Z"/><path class="cls-6" d="M345.19,158c.75,1,1.49,2.07,2.24,3.12q6.58-.39,13.18-.4l2.19-3.26Q354,157.39,345.19,158Z"/><path class="cls-6" d="M360.77,180.11l2.25,3.28q-.12-13-.22-25.92l-2.19,3.26Q360.69,170.42,360.77,180.11Z"/><path class="cls-6" d="M347.59,180.5l-2.18,3.41q8.79-.61,17.61-.52l-2.25-3.28Q354.17,180.13,347.59,180.5Z"/></g><g class="cls-15"><path class="cls-6" d="M388.93,159.19q.1,13,.22,25.94-8.79-1.09-17.61-1.5l-.22-25.93Q380.14,158.11,388.93,159.19Z"/><path class="cls-6" d="M386.9,181.6q-6.57-.75-13.17-1.13-.08-9.69-.16-19.39c4.39.24,8.79.62,13.17,1.11Q386.83,171.9,386.9,181.6Z"/><path class="cls-6" d="M373.57,161.08q.07,9.69.16,19.4-1.1,1.56-2.19,3.15l-.22-25.93Z"/><path class="cls-6" d="M371.32,157.7l2.25,3.38c4.39.24,8.79.62,13.17,1.11l2.19-3Q380.14,158.11,371.32,157.7Z"/><path class="cls-6" d="M386.9,181.6l2.25,3.53q-.12-13-.22-25.94l-2.19,3Q386.83,171.9,386.9,181.6Z"/><path class="cls-6" d="M373.73,180.47l-2.19,3.15q8.81.42,17.61,1.51l-2.25-3.53Q380.33,180.85,373.73,180.47Z"/></g><g class="cls-15"><path class="cls-6" d="M414.84,163.91q.11,13,.22,26-8.67-2.1-17.44-3.52l-.21-25.95Q406.17,161.81,414.84,163.91Z"/><path class="cls-6" d="M412.84,186.08q-6.49-1.5-13-2.63-.07-9.7-.16-19.42,6.54,1.13,13,2.63Q412.77,176.37,412.84,186.08Z"/><path class="cls-6" d="M399.64,164q.08,9.71.16,19.42l-2.18,2.9-.21-25.95Z"/><path class="cls-6" d="M397.41,160.4l2.23,3.63q6.54,1.13,13,2.63l2.16-2.76Q406.17,161.82,397.41,160.4Z"/><path class="cls-6" d="M412.84,186.08l2.22,3.79q-.1-13-.22-26l-2.16,2.76Q412.77,176.37,412.84,186.08Z"/><path class="cls-6" d="M399.8,183.45l-2.18,2.9q8.76,1.41,17.44,3.52l-2.22-3.79Q406.35,184.58,399.8,183.45Z"/></g><g class="cls-15"><path class="cls-6" d="M440.28,171.61l.21,26q-8.46-3.1-17.08-5.54-.11-13-.22-26Q431.82,168.51,440.28,171.61Z"/><path class="cls-6" d="M438.33,193.55q-6.34-2.27-12.78-4.14-.09-9.72-.16-19.43,6.44,1.88,12.78,4.13Q438.25,183.83,438.33,193.55Z"/><path class="cls-6" d="M425.39,170q.08,9.72.16,19.43c-.71.88-1.43,1.76-2.14,2.65q-.11-13-.22-26Q424.3,168,425.39,170Z"/><path class="cls-6" d="M423.19,166.09q1.11,1.93,2.2,3.89,6.44,1.88,12.78,4.13l2.11-2.5Q431.82,168.51,423.19,166.09Z"/><path class="cls-6" d="M438.33,193.55l2.16,4-.21-26-2.11,2.5Q438.25,183.83,438.33,193.55Z"/><path class="cls-6" d="M425.55,189.41c-.71.88-1.43,1.76-2.14,2.65q8.61,2.43,17.08,5.54l-2.16-4Q432,191.28,425.55,189.41Z"/></g><g class="cls-15"><path class="cls-6" d="M465,182.28l.21,26q-8.18-4.11-16.56-7.54l-.21-26Q456.8,178.18,465,182.28Z"/><path class="cls-6" d="M463.1,204q-6.14-3-12.39-5.64l-.15-19.45q6.24,2.63,12.39,5.63Z"/><path class="cls-6" d="M450.56,178.91l.15,19.45-2.08,2.4-.21-26C449.13,176.14,449.85,177.52,450.56,178.91Z"/><path class="cls-6" d="M448.42,174.76c.71,1.38,1.43,2.76,2.14,4.15q6.24,2.63,12.39,5.63l2-2.26Q456.8,178.19,448.42,174.76Z"/><path class="cls-6" d="M463.1,204c.7,1.43,1.39,2.86,2.09,4.3l-.21-26-2,2.26Z"/><path class="cls-6" d="M450.71,198.36c-.69.79-1.39,1.59-2.08,2.4q8.39,3.44,16.56,7.54c-.7-1.44-1.39-2.87-2.09-4.3Q457,201,450.71,198.36Z"/></g><g class="cls-15"><path class="cls-6" d="M286.37,205.09V231q-8.39,2.9-16.56,6.5V211.6Q278,208,286.37,205.09Z"/><path class="cls-6" d="M284.26,228.49q-6.25,2.23-12.39,4.86V214q6.13-2.62,12.39-4.86Z"/><path class="cls-6" d="M271.87,214v19.39c-.69,1.38-1.37,2.77-2.06,4.16V211.6C270.5,212.38,271.18,213.17,271.87,214Z"/><path class="cls-6" d="M269.81,211.6l2.06,2.36q6.13-2.62,12.39-4.86l2.11-4Q278,208,269.81,211.6Z"/><path class="cls-6" d="M284.26,228.49l2.11,2.52V205.09l-2.11,4Z"/><path class="cls-6" d="M271.87,233.35q-1,2.07-2.06,4.16,8.18-3.6,16.56-6.5l-2.11-2.52Q278,230.72,271.87,233.35Z"/></g><g class="cls-15"><path class="cls-6" d="M311.59,198V223.9q-8.61,1.89-17.08,4.46V202.45Q303,199.87,311.59,198Z"/><path class="cls-6" d="M309.42,221.12c-4.28,1-8.55,2.1-12.78,3.34V205.07c4.23-1.24,8.5-2.35,12.78-3.33Z"/><path class="cls-6" d="M296.64,205.07v19.39l-2.13,3.9V202.45Z"/><path class="cls-6" d="M294.51,202.45l2.13,2.62c4.23-1.24,8.5-2.35,12.78-3.33.73-1.25,1.45-2.5,2.17-3.75Q303,199.88,294.51,202.45Z"/><path class="cls-6" d="M309.42,221.12l2.17,2.78V198c-.72,1.25-1.44,2.5-2.17,3.75Z"/><path class="cls-6" d="M296.64,224.46l-2.13,3.9q8.46-2.58,17.08-4.46l-2.17-2.78C305.14,222.11,300.87,223.22,296.64,224.46Z"/></g><g class="cls-15"><path class="cls-6" d="M337.38,193.91v25.92q-8.76.85-17.44,2.41V196.33Q328.61,194.79,337.38,193.91Z"/><path class="cls-6" d="M335.17,216.79q-6.54.72-13,1.81V199.21q6.5-1.1,13-1.81Z"/><path class="cls-6" d="M322.13,199.21V218.6l-2.19,3.64V196.33Z"/><path class="cls-6" d="M319.94,196.33l2.19,2.88q6.5-1.1,13-1.81l2.21-3.49Q328.62,194.78,319.94,196.33Z"/><path class="cls-6" d="M335.17,216.79l2.21,3V193.91l-2.21,3.49Z"/><path class="cls-6" d="M322.13,218.6l-2.19,3.64q8.67-1.55,17.44-2.41l-2.21-3Q328.63,217.51,322.13,218.6Z"/></g><g class="cls-15"><path class="cls-6" d="M363.46,192.85v25.92c-5.87-.1-11.75,0-17.6.38V193.24C351.71,192.88,357.59,192.75,363.46,192.85Z"/><path class="cls-6" d="M361.24,215.48c-4.39,0-8.79.06-13.17.28V196.38c4.38-.23,8.78-.32,13.17-.29Z"/><path class="cls-6" d="M348.07,196.38v19.38c-.74,1.13-1.48,2.26-2.21,3.39V193.24Z"/><path class="cls-6" d="M345.86,193.24l2.21,3.14c4.38-.23,8.78-.32,13.17-.29l2.22-3.24C357.59,192.75,351.71,192.88,345.86,193.24Z"/><path class="cls-6" d="M361.24,215.48l2.22,3.29V192.85l-2.22,3.24Z"/><path class="cls-6" d="M348.07,215.76c-.74,1.13-1.48,2.26-2.21,3.39,5.85-.36,11.73-.48,17.6-.38l-2.22-3.29C356.85,215.44,352.45,215.54,348.07,215.76Z"/></g><g class="cls-15"><path class="cls-6" d="M389.59,194.8v25.91c-5.85-.77-11.73-1.32-17.6-1.64V193.16C377.86,193.48,383.74,194,389.59,194.8Z"/><path class="cls-6" d="M387.38,217.17c-4.38-.54-8.78-.95-13.17-1.23V196.55c4.39.29,8.79.7,13.17,1.23Z"/><path class="cls-6" d="M374.21,196.55v19.39L372,219.07V193.16Z"/><path class="cls-6" d="M372,193.16l2.22,3.39c4.39.29,8.79.7,13.17,1.23l2.21-3C383.74,194,377.86,193.48,372,193.16Z"/><path class="cls-6" d="M387.38,217.17c.74,1.18,1.48,2.36,2.21,3.54V194.8l-2.21,3Z"/><path class="cls-6" d="M374.21,215.94,372,219.07c5.87.32,11.75.87,17.6,1.64-.73-1.18-1.47-2.36-2.21-3.54C383,216.63,378.6,216.22,374.21,215.94Z"/></g><g class="cls-15"><path class="cls-6" d="M415.51,199.75v25.91q-8.67-2.17-17.44-3.66V196.08Q406.83,197.58,415.51,199.75Z"/><path class="cls-6" d="M413.32,221.86q-6.49-1.56-13-2.74V199.73q6.54,1.19,13,2.75Z"/><path class="cls-6" d="M400.28,199.73v19.39L398.07,222V196.08Z"/><path class="cls-6" d="M398.07,196.08l2.21,3.65q6.54,1.19,13,2.75,1.1-1.38,2.19-2.73Q406.84,197.58,398.07,196.08Z"/><path class="cls-6" d="M413.32,221.86l2.19,3.8V199.75q-1.1,1.35-2.19,2.73Z"/><path class="cls-6" d="M400.28,219.12c-.74.95-1.47,1.91-2.21,2.88q8.76,1.49,17.44,3.66l-2.19-3.8Q406.83,220.3,400.28,219.12Z"/></g><g class="cls-15"><path class="cls-6" d="M440.94,207.68V233.6q-8.46-3.18-17.08-5.68V202Q432.47,204.5,440.94,207.68Z"/><path class="cls-6" d="M438.81,229.54c-4.23-1.54-8.5-3-12.78-4.24V205.91c4.28,1.29,8.55,2.71,12.78,4.25Z"/><path class="cls-6" d="M426,205.91V225.3c-.73.87-1.45,1.74-2.17,2.62V202C424.58,203.3,425.3,204.61,426,205.91Z"/><path class="cls-6" d="M423.86,202l2.17,3.9c4.28,1.29,8.55,2.71,12.78,4.25l2.13-2.48Q432.48,204.52,423.86,202Z"/><path class="cls-6" d="M438.81,229.54l2.13,4.06V207.68l-2.13,2.48Z"/><path class="cls-6" d="M426,225.3c-.73.87-1.45,1.74-2.17,2.62q8.61,2.49,17.08,5.68l-2.13-4.06C434.58,228,430.31,226.58,426,225.3Z"/></g><g class="cls-15"><path class="cls-6" d="M465.64,218.6v25.91q-8.17-4.17-16.56-7.68V210.91Q457.47,214.42,465.64,218.6Z"/><path class="cls-6" d="M463.58,240.21q-6.13-3.08-12.39-5.75V215.07q6.26,2.69,12.39,5.75Z"/><path class="cls-6" d="M451.19,215.07v19.39l-2.11,2.37V210.91Z"/><path class="cls-6" d="M449.08,210.91l2.11,4.16q6.26,2.69,12.39,5.75l2.06-2.22Q457.47,214.42,449.08,210.91Z"/><path class="cls-6" d="M463.58,240.21c.69,1.43,1.37,2.86,2.06,4.3V218.6l-2.06,2.22Z"/><path class="cls-6" d="M451.19,234.46l-2.11,2.37q8.39,3.49,16.56,7.68c-.69-1.44-1.37-2.87-2.06-4.3Q457.45,237.14,451.19,234.46Z"/></g><g class="cls-15"><path class="cls-6" d="M286.29,241.15,286.5,267q-8.38,3-16.56,6.63l-.21-25.83Q277.9,244.13,286.29,241.15Z"/><path class="cls-6" d="M284.36,264.49c-4.16,1.53-8.3,3.18-12.39,5l-.15-19.32q6.14-2.67,12.39-5Z"/><path class="cls-6" d="M271.82,250.13l.15,19.32q-1,2.08-2,4.17l-.21-25.83Z"/><path class="cls-6" d="M269.73,247.79l2.09,2.34q6.14-2.67,12.39-5,1-2,2.08-4Q277.9,244.12,269.73,247.79Z"/><path class="cls-6" d="M284.36,264.49l2.14,2.5-.21-25.84q-1.05,2-2.08,4Z"/><path class="cls-6" d="M272,269.45l-2,4.17Q278.11,270,286.5,267l-2.14-2.5C280.2,266,276.06,267.67,272,269.45Z"/></g><g class="cls-15"><path class="cls-6" d="M311.51,233.82q.11,12.94.22,25.87-8.62,1.95-17.09,4.59l-.21-25.85Q302.89,235.77,311.51,233.82Z"/><path class="cls-6" d="M309.53,256.93q-6.43,1.53-12.78,3.44-.08-9.68-.16-19.34,6.35-1.92,12.78-3.45Q309.45,247.26,309.53,256.93Z"/><path class="cls-6" d="M296.59,241q.07,9.66.16,19.34-1.06,2-2.11,3.91l-.21-25.85Z"/><path class="cls-6" d="M294.43,238.43l2.16,2.6q6.35-1.92,12.78-3.45l2.14-3.76Q302.9,235.79,294.43,238.43Z"/><path class="cls-6" d="M309.53,256.93l2.2,2.76q-.12-12.93-.22-25.87l-2.14,3.76Q309.45,247.26,309.53,256.93Z"/><path class="cls-6" d="M296.75,260.37q-1.06,2-2.11,3.91,8.46-2.64,17.09-4.59l-2.2-2.76Q303.1,258.46,296.75,260.37Z"/></g><g class="cls-15"><path class="cls-6" d="M337.29,229.52q.12,12.94.22,25.89-8.76.95-17.43,2.55-.1-12.93-.22-25.87Q328.53,230.47,337.29,229.52Z"/><path class="cls-6" d="M335.28,252.4q-6.54.76-13,1.91-.09-9.67-.17-19.36,6.49-1.15,13.05-1.92Q335.2,242.72,335.28,252.4Z"/><path class="cls-6" d="M322.07,235q.09,9.68.17,19.36L320.08,258q-.1-12.93-.22-25.87C320.6,233,321.34,234,322.07,235Z"/><path class="cls-6" d="M319.86,232.09c.74.95,1.48,1.9,2.21,2.86q6.49-1.15,13.05-1.92l2.17-3.51Q328.54,230.47,319.86,232.09Z"/><path class="cls-6" d="M335.28,252.4l2.23,3q-.11-12.94-.22-25.89L335.12,233Q335.2,242.72,335.28,252.4Z"/><path class="cls-6" d="M322.24,254.31,320.08,258q8.67-1.6,17.43-2.55l-2.23-3Q328.74,253.17,322.24,254.31Z"/></g><g class="cls-15"><path class="cls-6" d="M363.38,228.24q.11,13,.22,25.91-8.82-.08-17.61.52-.11-12.94-.22-25.89Q354.56,228.17,363.38,228.24Z"/><path class="cls-6" d="M361.35,250.88c-4.39,0-8.79.13-13.17.39q-.09-9.69-.17-19.38,6.58-.39,13.18-.4Q361.27,241.2,361.35,250.88Z"/><path class="cls-6" d="M348,231.89q.09,9.69.17,19.38l-2.19,3.4q-.11-12.94-.22-25.89C346.52,229.81,347.27,230.85,348,231.89Z"/><path class="cls-6" d="M345.77,228.77l2.24,3.12q6.58-.39,13.18-.4l2.19-3.25Q354.56,228.17,345.77,228.77Z"/><path class="cls-6" d="M361.35,250.88l2.25,3.27q-.11-12.94-.22-25.91l-2.19,3.25Q361.27,241.2,361.35,250.88Z"/><path class="cls-6" d="M348.18,251.27l-2.19,3.4q8.79-.6,17.61-.52l-2.25-3.27C357,250.88,352.56,251,348.18,251.27Z"/></g><g class="cls-15"><path class="cls-6" d="M389.51,230q.11,13,.22,25.94-8.79-1.1-17.61-1.51-.11-13-.22-25.92Q380.72,228.88,389.51,230Z"/><path class="cls-6" d="M387.49,252.37q-6.58-.75-13.18-1.13-.07-9.69-.16-19.39,6.6.36,13.17,1.11Q387.41,242.67,387.49,252.37Z"/><path class="cls-6" d="M374.15,231.85q.08,9.69.16,19.39l-2.19,3.15q-.11-13-.22-25.92Z"/><path class="cls-6" d="M371.9,228.47l2.25,3.38q6.6.36,13.17,1.11l2.19-3Q380.72,228.86,371.9,228.47Z"/><path class="cls-6" d="M387.49,252.37c.75,1.17,1.49,2.35,2.24,3.53q-.11-13-.22-25.94l-2.19,3Q387.41,242.67,387.49,252.37Z"/><path class="cls-6" d="M374.31,251.24l-2.19,3.15q8.82.42,17.61,1.51c-.75-1.18-1.49-2.36-2.24-3.53Q380.91,251.62,374.31,251.24Z"/></g><g class="cls-15"><path class="cls-6" d="M415.42,234.67q.12,13,.22,26-8.67-2.1-17.43-3.53-.1-13-.22-25.94Q406.75,232.58,415.42,234.67Z"/><path class="cls-6" d="M413.43,256.85q-6.49-1.52-13.05-2.63-.08-9.72-.16-19.42,6.55,1.13,13,2.63Q413.35,247.14,413.43,256.85Z"/><path class="cls-6" d="M400.22,234.8q.09,9.7.17,19.42l-2.18,2.89q-.1-13-.22-25.94Z"/><path class="cls-6" d="M398,231.17l2.23,3.63q6.55,1.13,13,2.63l2.15-2.76Q406.75,232.59,398,231.17Z"/><path class="cls-6" d="M413.43,256.85l2.21,3.79q-.11-13-.22-26l-2.15,2.76Q413.35,247.14,413.43,256.85Z"/><path class="cls-6" d="M400.38,254.22c-.72,1-1.45,1.92-2.17,2.89q8.76,1.42,17.43,3.53l-2.21-3.79Q406.94,255.33,400.38,254.22Z"/></g><g class="cls-15"><path class="cls-6" d="M440.86,242.37l.21,26q-8.46-3.11-17.08-5.53l-.21-26Q432.39,239.28,440.86,242.37Z"/><path class="cls-6" d="M438.91,264.32q-6.35-2.26-12.78-4.14-.08-9.72-.16-19.43,6.43,1.88,12.78,4.13Q438.84,254.6,438.91,264.32Z"/><path class="cls-6" d="M426,240.75q.09,9.7.16,19.43L424,262.83l-.21-26Z"/><path class="cls-6" d="M423.78,236.85l2.19,3.9q6.43,1.88,12.78,4.13l2.11-2.51Q432.4,239.28,423.78,236.85Z"/><path class="cls-6" d="M438.91,264.32l2.16,4-.21-26-2.11,2.51Q438.84,254.6,438.91,264.32Z"/><path class="cls-6" d="M426.13,260.18,424,262.83q8.61,2.43,17.08,5.53l-2.16-4Q432.57,262.06,426.13,260.18Z"/></g><g class="cls-15"><path class="cls-6" d="M465.57,253.05q.1,13,.2,26-8.17-4.11-16.56-7.54-.1-13-.2-26Q457.38,249,465.57,253.05Z"/><path class="cls-6" d="M463.68,274.77q-6.14-3-12.39-5.64l-.15-19.46q6.25,2.63,12.39,5.64Z"/><path class="cls-6" d="M451.14,249.67l.15,19.46-2.08,2.4q-.1-13-.2-26Z"/><path class="cls-6" d="M449,245.53c.71,1.37,1.42,2.76,2.13,4.14q6.25,2.63,12.39,5.64l2-2.26Q457.4,249,449,245.53Z"/><path class="cls-6" d="M463.68,274.77q1.05,2.14,2.09,4.3-.11-13-.2-26l-2,2.26Z"/><path class="cls-6" d="M451.29,269.13l-2.08,2.39q8.39,3.44,16.56,7.55-1-2.16-2.09-4.3Q457.54,271.76,451.29,269.13Z"/></g><g class="cls-15"><path class="cls-6" d="M286.58,276.53l.21,25.84q-8.39,3-16.56,6.63L270,283.18Q278.2,279.51,286.58,276.53Z"/><path class="cls-6" d="M284.65,299.87c-4.16,1.53-8.3,3.18-12.39,5l-.15-19.32q6.13-2.68,12.39-5Z"/><path class="cls-6" d="M272.11,285.52l.15,19.32q-1,2.07-2,4.16L270,283.18C270.72,284,271.41,284.73,272.11,285.52Z"/><path class="cls-6" d="M270,283.18c.7.77,1.39,1.55,2.09,2.34q6.13-2.68,12.39-5c.69-1.35,1.39-2.69,2.08-4Q278.2,279.52,270,283.18Z"/><path class="cls-6" d="M284.65,299.87c.72.83,1.43,1.66,2.14,2.5l-.21-25.84c-.69,1.33-1.39,2.67-2.08,4Z"/><path class="cls-6" d="M272.26,304.84q-1,2.07-2,4.16,8.17-3.66,16.56-6.63c-.71-.84-1.42-1.67-2.14-2.5C280.49,301.4,276.35,303.05,272.26,304.84Z"/></g><g class="cls-15"><path class="cls-6" d="M311.8,269.21q.1,12.93.22,25.86-8.62,1.95-17.09,4.59l-.21-25.85Q303.18,271.17,311.8,269.21Z"/><path class="cls-6" d="M309.82,292.32q-6.44,1.51-12.78,3.43-.07-9.67-.16-19.34c4.23-1.27,8.5-2.42,12.78-3.44Q309.75,282.65,309.82,292.32Z"/><path class="cls-6" d="M296.88,276.41q.08,9.68.16,19.34c-.7,1.3-1.41,2.6-2.11,3.91l-.21-25.85Z"/><path class="cls-6" d="M294.72,273.81l2.16,2.6c4.23-1.27,8.5-2.42,12.78-3.44l2.14-3.76Q303.19,271.16,294.72,273.81Z"/><path class="cls-6" d="M309.82,292.32l2.2,2.75q-.11-12.93-.22-25.86L309.66,273Q309.75,282.65,309.82,292.32Z"/><path class="cls-6" d="M297,295.75c-.7,1.3-1.41,2.6-2.11,3.91q8.46-2.64,17.09-4.59l-2.2-2.75Q303.39,293.83,297,295.75Z"/></g><g class="cls-15"><path class="cls-6" d="M337.59,264.91l.21,25.89q-8.74.93-17.43,2.55-.11-12.94-.22-25.87Q328.82,265.84,337.59,264.91Z"/><path class="cls-6" d="M335.57,287.78q-6.54.77-13,1.91-.09-9.68-.16-19.35,6.5-1.15,13-1.92Q335.48,278.1,335.57,287.78Z"/><path class="cls-6" d="M322.37,270.34q.08,9.68.16,19.35l-2.16,3.66q-.11-12.94-.22-25.87Z"/><path class="cls-6" d="M320.15,267.48c.74.94,1.48,1.9,2.22,2.86q6.5-1.15,13-1.92c.72-1.18,1.45-2.35,2.18-3.51Q328.83,265.86,320.15,267.48Z"/><path class="cls-6" d="M335.57,287.78c.75,1,1.49,2,2.23,3l-.21-25.89c-.73,1.16-1.46,2.33-2.18,3.51Q335.48,278.1,335.57,287.78Z"/><path class="cls-6" d="M322.53,289.69l-2.16,3.66q8.67-1.62,17.43-2.55c-.74-1-1.48-2-2.23-3Q329,288.55,322.53,289.69Z"/></g><g class="cls-15"><path class="cls-6" d="M363.67,263.62q.12,13,.22,25.92-8.81-.09-17.61.52l-.21-25.9C351.92,263.75,357.8,263.57,363.67,263.62Z"/><path class="cls-6" d="M361.64,286.26c-4.39,0-8.79.14-13.17.39q-.08-9.67-.16-19.37,6.57-.39,13.17-.4Q361.55,276.57,361.64,286.26Z"/><path class="cls-6" d="M348.31,267.28q.07,9.69.16,19.38l-2.19,3.4-.21-25.9Z"/><path class="cls-6" d="M346.06,264.16l2.25,3.12q6.57-.39,13.17-.4l2.19-3.26Q354.87,263.54,346.06,264.16Z"/><path class="cls-6" d="M361.64,286.26l2.25,3.28q-.11-13-.22-25.92l-2.19,3.26Q361.55,276.57,361.64,286.26Z"/><path class="cls-6" d="M348.47,286.65l-2.19,3.41q8.79-.6,17.61-.52l-2.25-3.28C357.25,286.27,352.85,286.4,348.47,286.65Z"/></g><g class="cls-15"><path class="cls-6" d="M389.8,265.34q.12,13,.22,25.94-8.79-1.09-17.61-1.5-.11-13-.22-25.93Q381,264.26,389.8,265.34Z"/><path class="cls-6" d="M387.78,287.75q-6.58-.75-13.17-1.12-.09-9.7-.17-19.4,6.6.38,13.18,1.12Q387.7,278,387.78,287.75Z"/><path class="cls-6" d="M374.44,267.23q.09,9.7.17,19.4c-.74,1-1.47,2.09-2.2,3.15q-.11-13-.22-25.93Z"/><path class="cls-6" d="M372.19,263.85l2.25,3.38q6.6.38,13.18,1.12l2.18-3Q381,264.26,372.19,263.85Z"/><path class="cls-6" d="M387.78,287.75c.75,1.17,1.49,2.35,2.24,3.53q-.11-13-.22-25.94l-2.18,3Q387.7,278,387.78,287.75Z"/><path class="cls-6" d="M374.61,286.63c-.74,1-1.47,2.09-2.2,3.15q8.82.41,17.61,1.5c-.75-1.18-1.49-2.36-2.24-3.53Q381.2,287,374.61,286.63Z"/></g><g class="cls-15"><path class="cls-6" d="M415.72,270.06l.21,26q-8.67-2.1-17.43-3.52-.11-13-.22-25.95Q407,268,415.72,270.06Z"/><path class="cls-6" d="M413.72,292.23q-6.5-1.5-13-2.63-.09-9.71-.17-19.42,6.56,1.13,13.05,2.63Q413.64,282.52,413.72,292.23Z"/><path class="cls-6" d="M400.51,270.18q.09,9.72.17,19.42c-.73,1-1.45,1.93-2.18,2.9q-.11-13-.22-25.95C399,267.76,399.77,269,400.51,270.18Z"/><path class="cls-6" d="M398.28,266.55c.75,1.21,1.49,2.42,2.23,3.63q6.56,1.13,13.05,2.63l2.16-2.75Q407,268,398.28,266.55Z"/><path class="cls-6" d="M413.72,292.23l2.21,3.79-.21-26-2.16,2.75Q413.64,282.52,413.72,292.23Z"/><path class="cls-6" d="M400.68,289.6c-.73,1-1.45,1.93-2.18,2.9q8.76,1.42,17.43,3.52l-2.21-3.79Q407.23,290.73,400.68,289.6Z"/></g><g class="cls-15"><path class="cls-6" d="M441.16,277.76l.21,26q-8.47-3.11-17.09-5.54l-.21-26Q432.68,274.66,441.16,277.76Z"/><path class="cls-6" d="M439.2,299.7q-6.34-2.25-12.78-4.14-.07-9.71-.16-19.43,6.44,1.88,12.79,4.13Z"/><path class="cls-6" d="M426.26,276.13q.09,9.72.16,19.43c-.71.88-1.42,1.77-2.14,2.65l-.21-26Z"/><path class="cls-6" d="M424.07,272.24l2.19,3.89q6.44,1.88,12.79,4.13c.7-.84,1.4-1.67,2.11-2.5Q432.68,274.65,424.07,272.24Z"/><path class="cls-6" d="M439.2,299.7q1.1,2,2.17,4.05l-.21-26c-.71.83-1.41,1.66-2.11,2.5Z"/><path class="cls-6" d="M426.42,295.56c-.71.88-1.42,1.77-2.14,2.65q8.61,2.43,17.09,5.54-1.08-2-2.17-4.05Q432.86,297.45,426.42,295.56Z"/></g><g class="cls-15"><path class="cls-6" d="M465.86,288.44l.2,26q-8.18-4.11-16.55-7.54l-.21-26Q457.67,284.33,465.86,288.44Z"/><path class="cls-6" d="M464,310.15q-6.14-3-12.38-5.64-.09-9.72-.16-19.45,6.26,2.63,12.39,5.63Z"/><path class="cls-6" d="M451.43,285.06q.07,9.72.16,19.45l-2.08,2.4-.21-26Z"/><path class="cls-6" d="M449.3,280.91l2.13,4.15q6.26,2.63,12.39,5.63l2-2.25Q457.69,284.33,449.3,280.91Z"/><path class="cls-6" d="M464,310.15q1,2.14,2.09,4.3l-.2-26-2,2.25Z"/><path class="cls-6" d="M451.59,304.51l-2.08,2.4q8.37,3.43,16.55,7.54-1-2.16-2.09-4.3Q457.84,307.14,451.59,304.51Z"/></g><g class="cls-15"><path class="cls-6" d="M286.87,311.91l.21,25.84q-8.38,3-16.56,6.63-.11-12.9-.2-25.82C275.76,316.12,281.29,313.9,286.87,311.91Z"/><path class="cls-6" d="M285,335.26q-6.26,2.28-12.4,5l-.15-19.32q6.14-2.68,12.39-5Q284.86,325.59,285,335.26Z"/><path class="cls-6" d="M272.4,320.9q.08,9.66.16,19.32l-2,4.16q-.11-12.9-.2-25.82Z"/><path class="cls-6" d="M270.31,318.56l2.09,2.34q6.14-2.68,12.39-5l2.08-4Q278.5,314.9,270.31,318.56Z"/><path class="cls-6" d="M285,335.26l2.13,2.49-.21-25.84-2.08,4Q284.86,325.59,285,335.26Z"/><path class="cls-6" d="M272.55,340.22l-2,4.16q8.18-3.66,16.56-6.63L285,335.26Q278.69,337.54,272.55,340.22Z"/></g><g class="cls-15"><path class="cls-6" d="M312.09,304.59q.12,12.93.22,25.87-8.61,1.95-17.09,4.58L295,309.2Q303.49,306.55,312.09,304.59Z"/><path class="cls-6" d="M310.11,327.7c-4.28,1-8.55,2.16-12.78,3.43q-.07-9.66-.16-19.33,6.36-1.92,12.78-3.45Q310,318,310.11,327.7Z"/><path class="cls-6" d="M297.17,311.8q.09,9.66.16,19.34l-2.11,3.9L295,309.2Z"/><path class="cls-6" d="M295,309.2l2.16,2.6q6.36-1.92,12.78-3.45c.72-1.25,1.43-2.51,2.14-3.76Q303.48,306.55,295,309.2Z"/><path class="cls-6" d="M310.11,327.7c.73.92,1.47,1.83,2.2,2.76q-.1-12.94-.22-25.87c-.71,1.25-1.42,2.51-2.14,3.76Q310,318,310.11,327.7Z"/><path class="cls-6" d="M297.33,331.13,295.22,335q8.47-2.62,17.09-4.58c-.73-.93-1.47-1.84-2.2-2.76C305.83,328.72,301.56,329.86,297.33,331.13Z"/></g><g class="cls-15"><path class="cls-6" d="M337.88,300.29q.11,12.94.22,25.89-8.76.93-17.44,2.55l-.21-25.87Q329.12,301.24,337.88,300.29Z"/><path class="cls-6" d="M335.86,323.17q-6.54.76-13,1.91-.07-9.69-.16-19.36,6.49-1.16,13-1.92Q335.79,313.49,335.86,323.17Z"/><path class="cls-6" d="M322.66,305.72q.07,9.67.16,19.36l-2.16,3.65-.21-25.87Z"/><path class="cls-6" d="M320.45,302.86l2.21,2.86q6.49-1.16,13-1.92l2.18-3.51Q329.12,301.24,320.45,302.86Z"/><path class="cls-6" d="M335.86,323.17l2.24,3q-.12-12.94-.22-25.89l-2.18,3.51Q335.79,313.49,335.86,323.17Z"/><path class="cls-6" d="M322.82,325.08l-2.16,3.65q8.67-1.62,17.44-2.55l-2.24-3Q329.32,323.94,322.82,325.08Z"/></g><g class="cls-15"><path class="cls-6" d="M364,299q.12,13,.22,25.91c-5.87-.05-11.75.12-17.6.52q-.12-12.94-.22-25.9C352.21,299.14,358.09,299,364,299Z"/><path class="cls-6" d="M361.94,321.65q-6.6,0-13.18.39-.08-9.69-.16-19.38c4.38-.26,8.78-.39,13.17-.4Q361.86,312,361.94,321.65Z"/><path class="cls-6" d="M348.6,302.66q.07,9.69.16,19.38c-.73,1.13-1.46,2.26-2.18,3.4q-.12-12.94-.22-25.9Z"/><path class="cls-6" d="M346.36,299.54l2.24,3.12c4.38-.26,8.78-.39,13.17-.4L364,299C358.09,299,352.21,299.14,346.36,299.54Z"/><path class="cls-6" d="M361.94,321.65l2.24,3.27q-.1-13-.22-25.91l-2.19,3.25Q361.86,312,361.94,321.65Z"/><path class="cls-6" d="M348.76,322l-2.19,3.4q8.79-.6,17.61-.52l-2.24-3.27Q355.34,321.65,348.76,322Z"/></g><g class="cls-15"><path class="cls-6" d="M390.09,300.73q.12,13,.22,25.94c-5.85-.73-11.73-1.23-17.6-1.51q-.12-13-.22-25.92C378.36,299.51,384.24,300,390.09,300.73Z"/><path class="cls-6" d="M388.07,323.14c-4.38-.51-8.78-.88-13.17-1.13q-.09-9.69-.17-19.4,6.6.38,13.18,1.12Q388,313.43,388.07,323.14Z"/><path class="cls-6" d="M374.73,302.62q.09,9.69.17,19.39l-2.19,3.15q-.12-13-.22-25.92C373.24,300.36,374,301.49,374.73,302.62Z"/><path class="cls-6" d="M372.49,299.24l2.24,3.37q6.6.38,13.18,1.12l2.18-3C384.24,300,378.36,299.51,372.49,299.24Z"/><path class="cls-6" d="M388.07,323.14c.75,1.17,1.5,2.35,2.24,3.53q-.1-13-.22-25.94l-2.18,3Q388,313.43,388.07,323.14Z"/><path class="cls-6" d="M374.9,322l-2.2,3.15q8.82.42,17.61,1.51c-.74-1.18-1.49-2.36-2.24-3.53C383.69,322.63,379.29,322.26,374.9,322Z"/></g><g class="cls-15"><path class="cls-6" d="M416,305.44l.21,26q-8.67-2.1-17.43-3.53-.1-13-.22-25.95Q407.33,303.36,416,305.44Z"/><path class="cls-6" d="M414,327.62q-6.5-1.51-13-2.64l-.16-19.41q6.54,1.13,13,2.62Q413.92,317.91,414,327.62Z"/><path class="cls-6" d="M400.81,305.57q.07,9.71.16,19.41l-2.18,2.9q-.1-13-.22-25.95Z"/><path class="cls-6" d="M398.57,301.93l2.24,3.64q6.54,1.13,13,2.62l2.16-2.75Q407.34,303.36,398.57,301.93Z"/><path class="cls-6" d="M414,327.62q1.11,1.89,2.21,3.79l-.21-26-2.16,2.75Q413.92,317.91,414,327.62Z"/><path class="cls-6" d="M401,325l-2.18,2.9q8.76,1.42,17.43,3.53-1.1-1.91-2.21-3.79Q407.52,326.11,401,325Z"/></g><g class="cls-15"><path class="cls-6" d="M441.45,313.14l.21,26q-8.48-3.11-17.08-5.53-.12-13-.22-26Q433,310.05,441.45,313.14Z"/><path class="cls-6" d="M439.5,335.09q-6.36-2.26-12.79-4.14-.07-9.72-.16-19.44,6.43,1.88,12.79,4.13Q439.42,325.38,439.5,335.09Z"/><path class="cls-6" d="M426.56,311.51q.07,9.72.16,19.44c-.72.88-1.43,1.76-2.14,2.65q-.12-13-.22-26Z"/><path class="cls-6" d="M424.36,307.62l2.19,3.89q6.43,1.88,12.79,4.13c.7-.83,1.4-1.67,2.11-2.5Q433,310,424.36,307.62Z"/><path class="cls-6" d="M439.5,335.09l2.16,4-.21-26c-.71.83-1.41,1.67-2.11,2.5Q439.42,325.38,439.5,335.09Z"/><path class="cls-6" d="M426.71,331l-2.14,2.65q8.63,2.43,17.09,5.53l-2.16-4Q433.14,332.83,426.71,331Z"/></g><g class="cls-15"><path class="cls-6" d="M466.15,323.82l.2,26q-8.16-4.11-16.55-7.55l-.21-26Q458,319.72,466.15,323.82Z"/><path class="cls-6" d="M464.27,345.53q-6.13-3-12.39-5.64-.08-9.72-.16-19.45,6.25,2.63,12.39,5.63Q464.19,335.81,464.27,345.53Z"/><path class="cls-6" d="M451.72,320.44q.07,9.74.16,19.45l-2.08,2.4-.21-26Z"/><path class="cls-6" d="M449.59,316.29l2.13,4.15q6.25,2.63,12.39,5.63l2-2.25Q458,319.72,449.59,316.29Z"/><path class="cls-6" d="M464.27,345.53l2.08,4.3-.2-26-2,2.25Q464.19,335.81,464.27,345.53Z"/><path class="cls-6" d="M451.88,339.89l-2.08,2.4q8.37,3.43,16.55,7.54l-2.08-4.3Q458.14,342.53,451.88,339.89Z"/></g><g class="cls-15"><path class="cls-6" d="M287.16,347.3l.21,25.84q-8.37,3-16.56,6.63-.1-12.91-.2-25.82Q278.78,350.28,287.16,347.3Z"/><path class="cls-6" d="M285.24,370.64q-6.25,2.3-12.39,5-.08-9.66-.16-19.32c4.09-1.78,8.23-3.44,12.39-5Q285.15,361,285.24,370.64Z"/><path class="cls-6" d="M272.69,356.29q.09,9.66.16,19.32l-2,4.16q-.1-12.91-.2-25.82C271.3,354.72,272,355.5,272.69,356.29Z"/><path class="cls-6" d="M270.61,354l2.08,2.33c4.09-1.78,8.23-3.44,12.39-5l2.08-4C281.58,349.28,276.05,351.5,270.61,354Z"/><path class="cls-6" d="M285.24,370.64l2.13,2.5-.21-25.84-2.08,4Q285.15,361,285.24,370.64Z"/><path class="cls-6" d="M272.85,375.6l-2,4.17q8.18-3.66,16.56-6.63l-2.13-2.5Q279,372.94,272.85,375.6Z"/></g><g class="cls-15"><path class="cls-6" d="M312.39,340l.21,25.86q-8.61,1.95-17.09,4.59l-.21-25.85Q303.77,341.94,312.39,340Z"/><path class="cls-6" d="M310.41,363.09q-6.44,1.52-12.79,3.43-.08-9.67-.16-19.34,6.36-1.92,12.79-3.44Q310.33,353.42,310.41,363.09Z"/><path class="cls-6" d="M297.47,347.18l.15,19.34-2.11,3.91-.21-25.85Z"/><path class="cls-6" d="M295.3,344.58l2.16,2.6q6.36-1.92,12.79-3.44c.71-1.26,1.42-2.51,2.14-3.76Q303.77,341.93,295.3,344.58Z"/><path class="cls-6" d="M310.41,363.09l2.19,2.75L312.39,340c-.72,1.25-1.43,2.5-2.14,3.76Q310.33,353.42,310.41,363.09Z"/><path class="cls-6" d="M297.62,366.52l-2.11,3.91q8.48-2.64,17.09-4.59l-2.19-2.75Q304,364.61,297.62,366.52Z"/></g><g class="cls-15"><path class="cls-6" d="M338.17,335.68q.1,12.94.22,25.89-8.76.93-17.44,2.55l-.21-25.88Q329.41,336.62,338.17,335.68Z"/><path class="cls-6" d="M336.16,358.55q-6.56.76-13.05,1.91-.08-9.68-.16-19.36,6.49-1.14,13-1.92Q336.08,348.87,336.16,358.55Z"/><path class="cls-6" d="M323,341.1q.07,9.69.16,19.36L321,364.12l-.21-25.88Z"/><path class="cls-6" d="M320.74,338.24,323,341.1q6.49-1.14,13-1.92c.73-1.17,1.45-2.34,2.18-3.5Q329.41,336.61,320.74,338.24Z"/><path class="cls-6" d="M336.16,358.55l2.23,3q-.11-12.94-.22-25.89c-.73,1.16-1.45,2.33-2.18,3.5Q336.08,348.87,336.16,358.55Z"/><path class="cls-6" d="M323.11,360.46,321,364.12q8.67-1.62,17.44-2.55l-2.23-3Q329.61,359.32,323.11,360.46Z"/></g><g class="cls-15"><path class="cls-6" d="M364.26,334.39q.11,13,.22,25.92-8.82-.09-17.61.52-.12-13-.22-25.9Q355.44,334.31,364.26,334.39Z"/><path class="cls-6" d="M362.23,357q-6.6,0-13.18.39-.07-9.69-.16-19.37c4.38-.26,8.78-.4,13.17-.4Q362.15,347.34,362.23,357Z"/><path class="cls-6" d="M348.89,338.05q.08,9.69.16,19.37c-.73,1.13-1.45,2.27-2.18,3.41q-.12-13-.22-25.9C347.4,336,348.14,337,348.89,338.05Z"/><path class="cls-6" d="M346.65,334.93l2.24,3.12c4.38-.26,8.78-.4,13.17-.4l2.2-3.26Q355.44,334.31,346.65,334.93Z"/><path class="cls-6" d="M362.23,357l2.25,3.28q-.12-13-.22-25.92l-2.2,3.26Q362.15,347.34,362.23,357Z"/><path class="cls-6" d="M349.05,357.42c-.73,1.13-1.46,2.27-2.18,3.41q8.78-.61,17.61-.52L362.23,357Q355.63,357,349.05,357.42Z"/></g><g class="cls-15"><path class="cls-6" d="M390.39,336.11l.21,25.94c-5.85-.73-11.73-1.23-17.6-1.5q-.12-13-.22-25.93Q381.59,335,390.39,336.11Z"/><path class="cls-6" d="M388.36,358.52c-4.38-.5-8.78-.88-13.17-1.13Q375.1,347.7,375,338c4.4.24,8.79.62,13.18,1.11Q388.28,348.81,388.36,358.52Z"/><path class="cls-6" d="M375,338q.08,9.69.16,19.4L373,360.55q-.12-13-.22-25.93Z"/><path class="cls-6" d="M372.78,334.62c.75,1.12,1.5,2.25,2.24,3.38,4.4.24,8.79.62,13.18,1.11l2.19-3Q381.6,335,372.78,334.62Z"/><path class="cls-6" d="M388.36,358.52c.75,1.17,1.5,2.35,2.24,3.53l-.21-25.94-2.19,3Q388.28,348.81,388.36,358.52Z"/><path class="cls-6" d="M375.19,357.39,373,360.54c5.87.28,11.75.78,17.6,1.51-.74-1.18-1.49-2.36-2.24-3.53C384,358,379.58,357.64,375.19,357.39Z"/></g><g class="cls-15"><path class="cls-6" d="M416.3,340.83q.1,13,.22,26-8.67-2.1-17.44-3.52l-.21-25.95Q407.62,338.73,416.3,340.83Z"/><path class="cls-6" d="M414.3,363q-6.49-1.5-13-2.63-.08-9.71-.16-19.42,6.54,1.13,13,2.63Q414.23,353.29,414.3,363Z"/><path class="cls-6" d="M401.1,341q.07,9.71.16,19.42c-.73,1-1.45,1.93-2.18,2.9l-.21-25.95C399.61,338.53,400.35,339.74,401.1,341Z"/><path class="cls-6" d="M398.86,337.32,401.1,341q6.54,1.13,13,2.63l2.16-2.76Q407.63,338.74,398.86,337.32Z"/><path class="cls-6" d="M414.3,363l2.22,3.79q-.12-13-.22-26l-2.16,2.76Q414.23,353.29,414.3,363Z"/><path class="cls-6" d="M401.26,360.37c-.73,1-1.45,1.93-2.18,2.9q8.76,1.41,17.44,3.52L414.3,363Q407.81,361.5,401.26,360.37Z"/></g><g class="cls-15"><path class="cls-6" d="M441.74,348.53l.21,26q-8.46-3.11-17.08-5.54-.11-13-.22-26Q433.26,345.43,441.74,348.53Z"/><path class="cls-6" d="M439.79,370.47c-4.23-1.51-8.5-2.89-12.78-4.14q-.09-9.72-.16-19.43c4.28,1.25,8.55,2.63,12.78,4.13Q439.71,360.75,439.79,370.47Z"/><path class="cls-6" d="M426.85,346.9q.07,9.72.16,19.43c-.72.88-1.43,1.76-2.14,2.65q-.11-13-.22-26Z"/><path class="cls-6" d="M424.65,343l2.2,3.89c4.28,1.25,8.55,2.63,12.78,4.13.7-.84,1.41-1.67,2.11-2.5Q433.27,345.42,424.65,343Z"/><path class="cls-6" d="M439.79,370.47l2.16,4-.21-26c-.7.83-1.41,1.66-2.11,2.5Q439.71,360.75,439.79,370.47Z"/><path class="cls-6" d="M427,366.33c-.72.88-1.43,1.76-2.14,2.65q8.61,2.43,17.08,5.54l-2.16-4C435.56,369,431.29,367.58,427,366.33Z"/></g><g class="cls-15"><path class="cls-6" d="M466.44,359.2l.21,26q-8.17-4.11-16.56-7.54l-.21-26Q458.27,355.1,466.44,359.2Z"/><path class="cls-6" d="M464.56,380.92q-6.13-3-12.39-5.64-.07-9.73-.16-19.45,6.25,2.63,12.4,5.63Z"/><path class="cls-6" d="M452,355.83q.09,9.72.16,19.45c-.69.79-1.39,1.59-2.08,2.4l-.21-26Z"/><path class="cls-6" d="M449.88,351.68l2.13,4.15q6.25,2.63,12.4,5.63l2-2.26Q458.27,355.11,449.88,351.68Z"/><path class="cls-6" d="M464.56,380.92c.7,1.43,1.39,2.86,2.09,4.3l-.21-26-2,2.26Z"/><path class="cls-6" d="M452.17,375.28c-.69.79-1.39,1.59-2.08,2.4q8.37,3.44,16.56,7.54c-.7-1.44-1.39-2.87-2.09-4.3Q458.43,377.91,452.17,375.28Z"/></g><g class="cls-15"><path class="cls-6" d="M287.46,382.68l.2,25.84q-8.37,3-16.56,6.63-.11-12.91-.2-25.82Q279.08,385.66,287.46,382.68Z"/><path class="cls-6" d="M285.53,406q-6.25,2.28-12.39,5L273,391.67q6.13-2.69,12.38-5Q285.46,396.36,285.53,406Z"/><path class="cls-6" d="M273,391.67l.15,19.32-2,4.16q-.11-12.91-.2-25.82Z"/><path class="cls-6" d="M270.9,389.33l2.09,2.34q6.13-2.69,12.38-5l2.09-4Q279.08,385.67,270.9,389.33Z"/><path class="cls-6" d="M285.53,406l2.13,2.49-.2-25.84-2.09,4Q285.46,396.36,285.53,406Z"/><path class="cls-6" d="M273.14,411l-2,4.16q8.17-3.66,16.56-6.63L285.53,406Q279.28,408.31,273.14,411Z"/></g><g class="cls-15"><path class="cls-6" d="M312.68,375.36l.21,25.86q-8.61,1.95-17.08,4.59L295.6,380Q304.06,377.32,312.68,375.36Z"/><path class="cls-6" d="M310.7,398.47q-6.43,1.53-12.79,3.43l-.15-19.34q6.35-1.9,12.78-3.44Q310.61,388.79,310.7,398.47Z"/><path class="cls-6" d="M297.76,382.56l.15,19.34-2.1,3.91L295.6,380Z"/><path class="cls-6" d="M295.6,380c.71.87,1.44,1.73,2.16,2.6q6.35-1.9,12.78-3.44c.71-1.26,1.42-2.51,2.14-3.76Q304.07,377.33,295.6,380Z"/><path class="cls-6" d="M310.7,398.47l2.19,2.75-.21-25.86c-.72,1.25-1.43,2.5-2.14,3.76Q310.61,388.79,310.7,398.47Z"/><path class="cls-6" d="M297.91,401.9l-2.1,3.91q8.46-2.64,17.08-4.59l-2.19-2.75Q304.27,400,297.91,401.9Z"/></g><g class="cls-15"><path class="cls-6" d="M338.46,371.06q.1,12.94.22,25.89-8.76.93-17.44,2.55L321,373.63Q329.7,372,338.46,371.06Z"/><path class="cls-6" d="M336.45,393.94q-6.56.75-13.05,1.9-.07-9.68-.16-19.35,6.5-1.15,13-1.92Z"/><path class="cls-6" d="M323.24,376.49q.09,9.67.16,19.36l-2.16,3.65L321,373.63Z"/><path class="cls-6" d="M321,373.63l2.21,2.86q6.5-1.15,13-1.92c.73-1.17,1.46-2.34,2.18-3.51Q329.7,372,321,373.63Z"/><path class="cls-6" d="M336.45,393.94l2.23,3q-.1-12.94-.22-25.89c-.72,1.17-1.45,2.34-2.18,3.51Z"/><path class="cls-6" d="M323.4,395.84l-2.16,3.66q8.67-1.62,17.44-2.55l-2.23-3Q329.9,394.69,323.4,395.84Z"/></g><g class="cls-15"><path class="cls-6" d="M364.55,369.78q.1,12.95.22,25.91-8.82-.07-17.61.52l-.22-25.9Q355.73,369.69,364.55,369.78Z"/><path class="cls-6" d="M362.52,392.42q-6.6,0-13.18.39-.07-9.69-.16-19.38,6.58-.39,13.18-.4Q362.44,382.72,362.52,392.42Z"/><path class="cls-6" d="M349.18,373.43q.09,9.69.16,19.38l-2.18,3.4-.22-25.9Z"/><path class="cls-6" d="M346.94,370.31l2.24,3.12q6.58-.39,13.18-.4l2.19-3.26Q355.73,369.71,346.94,370.31Z"/><path class="cls-6" d="M362.52,392.42l2.25,3.27q-.12-13-.22-25.92L362.36,373Q362.44,382.72,362.52,392.42Z"/><path class="cls-6" d="M349.34,392.81l-2.18,3.4q8.79-.6,17.61-.52l-2.25-3.27Q355.92,392.42,349.34,392.81Z"/></g><g class="cls-15"><path class="cls-6" d="M390.68,371.49q.1,13,.22,25.95-8.79-1.1-17.61-1.51-.1-13-.22-25.92Q381.89,370.4,390.68,371.49Z"/><path class="cls-6" d="M388.65,393.9q-6.57-.75-13.17-1.12-.08-9.7-.16-19.4c4.39.25,8.79.62,13.17,1.12Q388.58,384.21,388.65,393.9Z"/><path class="cls-6" d="M375.32,373.38q.07,9.71.16,19.4l-2.19,3.15q-.1-13-.22-25.92Z"/><path class="cls-6" d="M373.07,370l2.25,3.37c4.39.25,8.79.62,13.17,1.12l2.19-3Q381.89,370.41,373.07,370Z"/><path class="cls-6" d="M388.65,393.9l2.25,3.53q-.12-13-.22-25.94l-2.19,3Q388.58,384.21,388.65,393.9Z"/><path class="cls-6" d="M375.48,392.78l-2.19,3.15q8.81.4,17.61,1.5l-2.25-3.53Q382.08,393.15,375.48,392.78Z"/></g><g class="cls-15"><path class="cls-6" d="M416.59,376.21q.11,13,.22,26-8.67-2.1-17.44-3.52l-.21-25.95Q407.92,374.11,416.59,376.21Z"/><path class="cls-6" d="M414.59,398.39q-6.49-1.51-13-2.64-.07-9.71-.16-19.41,6.54,1.11,13,2.62Q414.52,388.68,414.59,398.39Z"/><path class="cls-6" d="M401.39,376.34q.08,9.71.16,19.41l-2.18,2.9-.21-25.95C399.9,373.91,400.65,375.12,401.39,376.34Z"/><path class="cls-6" d="M399.16,372.7c.74,1.21,1.49,2.42,2.23,3.64q6.54,1.11,13,2.62l2.16-2.75Q407.92,374.11,399.16,372.7Z"/><path class="cls-6" d="M414.59,398.39l2.22,3.78q-.1-13-.22-26L414.43,379Q414.52,388.68,414.59,398.39Z"/><path class="cls-6" d="M401.55,395.75l-2.18,2.9q8.76,1.43,17.44,3.52l-2.22-3.78Q408.1,396.88,401.55,395.75Z"/></g><g class="cls-15"><path class="cls-6" d="M442,383.91l.21,26q-8.46-3.11-17.08-5.54-.11-13-.22-26Q433.57,380.81,442,383.91Z"/><path class="cls-6" d="M440.08,405.86c-4.23-1.51-8.5-2.89-12.78-4.14q-.09-9.72-.16-19.44,6.44,1.88,12.78,4.13Q440,396.13,440.08,405.86Z"/><path class="cls-6" d="M427.14,382.28q.08,9.72.16,19.44l-2.14,2.64q-.11-13-.22-26Q426.05,380.33,427.14,382.28Z"/><path class="cls-6" d="M424.94,378.39q1.11,1.94,2.2,3.89,6.44,1.88,12.78,4.13l2.11-2.5Q433.57,380.8,424.94,378.39Z"/><path class="cls-6" d="M440.08,405.86l2.16,4-.21-26-2.11,2.5Q440,396.13,440.08,405.86Z"/><path class="cls-6" d="M427.3,401.72l-2.14,2.64q8.61,2.43,17.08,5.54l-2.16-4C435.85,404.35,431.58,403,427.3,401.72Z"/></g><g class="cls-15"><path class="cls-6" d="M466.73,394.59l.21,26q-8.18-4.11-16.56-7.54l-.21-26Q458.55,390.5,466.73,394.59Z"/><path class="cls-6" d="M464.85,416.3q-6.14-3-12.39-5.64l-.15-19.45q6.24,2.63,12.39,5.63Z"/><path class="cls-6" d="M452.31,391.21l.15,19.45-2.08,2.4-.21-26C450.88,388.44,451.6,389.82,452.31,391.21Z"/><path class="cls-6" d="M450.17,387.06c.71,1.38,1.43,2.76,2.14,4.15q6.24,2.63,12.39,5.63l2-2.25Q458.55,390.48,450.17,387.06Z"/><path class="cls-6" d="M464.85,416.3c.7,1.43,1.39,2.87,2.09,4.3l-.21-26-2,2.25Z"/><path class="cls-6" d="M452.46,410.66l-2.08,2.4q8.39,3.44,16.56,7.54c-.7-1.43-1.39-2.87-2.09-4.3Q458.72,413.3,452.46,410.66Z"/></g><g class="cls-15"><path class="cls-6" d="M287.75,418.07l.21,25.84q-8.38,3-16.57,6.63-.09-12.92-.2-25.83Q279.37,421.05,287.75,418.07Z"/><path class="cls-6" d="M285.82,441.41q-6.26,2.29-12.39,5l-.15-19.32q6.14-2.67,12.39-5Z"/><path class="cls-6" d="M273.28,427.05l.15,19.32-2,4.17q-.09-12.92-.2-25.83Z"/><path class="cls-6" d="M271.19,424.71l2.09,2.34q6.14-2.67,12.39-5,1-2,2.08-4Q279.37,421,271.19,424.71Z"/><path class="cls-6" d="M285.82,441.41l2.14,2.5-.21-25.84q-1,2-2.08,4Z"/><path class="cls-6" d="M273.43,446.37c-.68,1.39-1.36,2.77-2,4.17q8.17-3.66,16.57-6.63l-2.14-2.5Q279.56,443.71,273.43,446.37Z"/></g><g class="cls-15"><path class="cls-6" d="M313,410.74l.21,25.87q-8.61,2-17.08,4.59l-.21-25.85Q304.35,412.69,313,410.74Z"/><path class="cls-6" d="M311,433.85q-6.44,1.53-12.78,3.44-.09-9.68-.16-19.34,6.34-1.92,12.78-3.45Q310.9,424.17,311,433.85Z"/><path class="cls-6" d="M298.05,418q.07,9.66.16,19.34-1.06,1.95-2.11,3.91l-.21-25.85Z"/><path class="cls-6" d="M295.89,415.35l2.16,2.6q6.34-1.92,12.78-3.45l2.14-3.76Q304.36,412.71,295.89,415.35Z"/><path class="cls-6" d="M311,433.85l2.19,2.76L313,410.74l-2.14,3.76Q310.9,424.17,311,433.85Z"/><path class="cls-6" d="M298.21,437.29q-1.06,1.95-2.11,3.91,8.46-2.64,17.08-4.59L311,433.85Q304.55,435.38,298.21,437.29Z"/></g><g class="cls-15"><path class="cls-6" d="M338.75,406.44q.12,12.94.22,25.89-8.76.94-17.43,2.55-.12-12.93-.22-25.87Q330,407.39,338.75,406.44Z"/><path class="cls-6" d="M336.74,429.32q-6.56.76-13.05,1.91-.07-9.68-.16-19.36,6.5-1.15,13.05-1.92Q336.66,419.64,336.74,429.32Z"/><path class="cls-6" d="M323.53,411.87q.09,9.67.16,19.36c-.72,1.21-1.43,2.43-2.15,3.65q-.12-12.93-.22-25.87C322.06,410,322.8,410.91,323.53,411.87Z"/><path class="cls-6" d="M321.32,409l2.21,2.86q6.5-1.15,13.05-1.92l2.17-3.51Q330,407.39,321.32,409Z"/><path class="cls-6" d="M336.74,429.32l2.23,3q-.11-12.94-.22-25.89L336.58,410Q336.66,419.64,336.74,429.32Z"/><path class="cls-6" d="M323.69,431.23c-.72,1.21-1.44,2.43-2.15,3.65q8.67-1.61,17.43-2.55l-2.23-3Q330.19,430.09,323.69,431.23Z"/></g><g class="cls-15"><path class="cls-6" d="M364.84,405.16q.11,13,.22,25.91-8.82-.07-17.61.52-.1-12.94-.22-25.89Q356,405.09,364.84,405.16Z"/><path class="cls-6" d="M362.81,427.8q-6.6,0-13.17.39-.09-9.69-.17-19.38,6.58-.39,13.18-.4Q362.73,418.12,362.81,427.8Z"/><path class="cls-6" d="M349.47,408.81q.09,9.69.17,19.38l-2.19,3.4q-.1-12.94-.22-25.89C348,406.73,348.73,407.77,349.47,408.81Z"/><path class="cls-6" d="M347.23,405.69l2.24,3.12q6.58-.39,13.18-.4l2.19-3.25Q356,405.09,347.23,405.69Z"/><path class="cls-6" d="M362.81,427.8l2.25,3.27q-.1-12.94-.22-25.91l-2.19,3.25Q362.73,418.12,362.81,427.8Z"/><path class="cls-6" d="M349.64,428.19l-2.19,3.4q8.79-.6,17.61-.52l-2.25-3.27Q356.21,427.8,349.64,428.19Z"/></g><g class="cls-15"><path class="cls-6" d="M391,406.88q.11,13,.22,25.94-8.79-1.1-17.61-1.51-.1-13-.22-25.92Q382.18,405.8,391,406.88Z"/><path class="cls-6" d="M389,429.29q-6.58-.75-13.18-1.13-.07-9.69-.16-19.39c4.39.24,8.79.61,13.17,1.11Q388.87,419.59,389,429.29Z"/><path class="cls-6" d="M375.61,408.77q.08,9.69.16,19.39l-2.19,3.15q-.1-13-.22-25.92Z"/><path class="cls-6" d="M373.36,405.39l2.25,3.38c4.39.24,8.79.61,13.17,1.11l2.19-3Q382.18,405.79,373.36,405.39Z"/><path class="cls-6" d="M389,429.29l2.24,3.53L391,406.88l-2.19,3Q388.87,419.59,389,429.29Z"/><path class="cls-6" d="M375.77,428.16l-2.19,3.15q8.82.42,17.61,1.51L389,429.29Q382.37,428.54,375.77,428.16Z"/></g><g class="cls-15"><path class="cls-6" d="M416.88,411.59q.11,13,.22,26-8.67-2.1-17.43-3.53-.12-13-.22-25.94Q408.21,409.5,416.88,411.59Z"/><path class="cls-6" d="M414.89,433.77c-4.33-1-8.68-1.88-13.05-2.64q-.07-9.7-.16-19.41,6.54,1.13,13,2.63Q414.81,424.05,414.89,433.77Z"/><path class="cls-6" d="M401.68,411.72q.09,9.7.16,19.42c-.72,1-1.45,1.92-2.17,2.89q-.12-13-.22-25.94Z"/><path class="cls-6" d="M399.45,408.09l2.23,3.63q6.54,1.13,13,2.63l2.16-2.76Q408.21,409.51,399.45,408.09Z"/><path class="cls-6" d="M414.89,433.77l2.21,3.79q-.11-13-.22-26l-2.16,2.76Q414.81,424.05,414.89,433.77Z"/><path class="cls-6" d="M401.84,431.13l-2.17,2.9q8.74,1.43,17.43,3.53l-2.21-3.79C410.56,432.76,406.21,431.89,401.84,431.13Z"/></g><g class="cls-15"><path class="cls-6" d="M442.32,419.29l.21,26q-8.46-3.11-17.08-5.53l-.21-26Q433.85,416.2,442.32,419.29Z"/><path class="cls-6" d="M440.37,441.24Q434,439,427.59,437.1q-.07-9.72-.16-19.43,6.44,1.88,12.78,4.13Q440.3,431.52,440.37,441.24Z"/><path class="cls-6" d="M427.43,417.67q.07,9.7.16,19.43c-.71.88-1.43,1.76-2.14,2.65l-.21-26Z"/><path class="cls-6" d="M425.24,413.77l2.19,3.9q6.44,1.88,12.78,4.13l2.11-2.51Q433.86,416.2,425.24,413.77Z"/><path class="cls-6" d="M440.37,441.24l2.16,4-.21-26-2.11,2.51Q440.3,431.52,440.37,441.24Z"/><path class="cls-6" d="M427.59,437.1c-.71.88-1.43,1.76-2.14,2.65q8.61,2.43,17.08,5.53l-2.16-4Q434,439,427.59,437.1Z"/></g><g class="cls-15"><path class="cls-6" d="M467,430l.2,26q-8.18-4.11-16.56-7.54l-.21-26Q458.85,425.87,467,430Z"/><path class="cls-6" d="M465.14,451.69q-6.13-3-12.39-5.64l-.15-19.46q6.25,2.63,12.39,5.64Z"/><path class="cls-6" d="M452.6,426.59l.15,19.46-2.08,2.4-.21-26Q451.54,424.52,452.6,426.59Z"/><path class="cls-6" d="M450.46,422.45c.72,1.37,1.43,2.76,2.14,4.14q6.25,2.63,12.39,5.64l2-2.26Q458.86,425.88,450.46,422.45Z"/><path class="cls-6" d="M465.14,451.69c.7,1.43,1.39,2.86,2.09,4.3l-.2-26-2,2.26Z"/><path class="cls-6" d="M452.75,446.05l-2.08,2.39q8.38,3.44,16.56,7.55c-.7-1.44-1.39-2.87-2.09-4.3Q459,448.68,452.75,446.05Z"/></g><g class="cls-15"><path class="cls-6" d="M288,453.45l.21,25.84q-8.38,3-16.56,6.63l-.21-25.82Q279.65,456.42,288,453.45Z"/><path class="cls-6" d="M286.11,476.79c-4.16,1.53-8.3,3.18-12.39,5l-.15-19.32q6.14-2.69,12.39-5Z"/><path class="cls-6" d="M273.57,462.44l.15,19.32q-1,2.07-2,4.16l-.21-25.82C272.18,460.87,272.87,461.65,273.57,462.44Z"/><path class="cls-6" d="M271.48,460.1c.7.77,1.39,1.55,2.09,2.34q6.14-2.69,12.39-5,1-2,2.08-4Q279.65,456.44,271.48,460.1Z"/><path class="cls-6" d="M286.11,476.79l2.14,2.5L288,453.45q-1.05,2-2.08,4Z"/><path class="cls-6" d="M273.72,481.76l-2,4.16q8.18-3.66,16.57-6.63l-2.14-2.5C282,478.32,277.81,480,273.72,481.76Z"/></g><g class="cls-15"><path class="cls-6" d="M313.26,446.13q.11,12.93.22,25.86-8.62,2-17.09,4.59l-.21-25.85Q304.64,448.09,313.26,446.13Z"/><path class="cls-6" d="M311.28,469.24q-6.43,1.51-12.78,3.43-.09-9.68-.16-19.34,6.35-1.9,12.78-3.44Q311.2,459.56,311.28,469.24Z"/><path class="cls-6" d="M298.34,453.33q.07,9.68.16,19.34-1.06,1.95-2.11,3.91l-.21-25.85Z"/><path class="cls-6" d="M296.18,450.73l2.16,2.6q6.35-1.9,12.78-3.44c.71-1.26,1.43-2.51,2.14-3.76Q304.65,448.08,296.18,450.73Z"/><path class="cls-6" d="M311.28,469.24l2.2,2.75q-.12-12.93-.22-25.86c-.71,1.25-1.43,2.5-2.14,3.76Q311.2,459.56,311.28,469.24Z"/><path class="cls-6" d="M298.5,472.67q-1.06,1.95-2.11,3.91,8.46-2.64,17.09-4.59l-2.2-2.75Q304.85,470.76,298.5,472.67Z"/></g><g class="cls-15"><path class="cls-6" d="M339,441.83q.12,12.94.22,25.89-8.76.93-17.43,2.55-.1-12.94-.22-25.87Q330.28,442.77,339,441.83Z"/><path class="cls-6" d="M337,464.7q-6.54.76-13,1.91-.09-9.67-.17-19.36,6.49-1.14,13.05-1.91Z"/><path class="cls-6" d="M323.82,447.26q.09,9.67.17,19.35l-2.16,3.66q-.1-12.94-.22-25.87C322.35,445.35,323.09,446.3,323.82,447.26Z"/><path class="cls-6" d="M321.61,444.4c.74.94,1.48,1.9,2.21,2.85q6.49-1.14,13.05-1.91c.72-1.18,1.45-2.35,2.17-3.51Q330.29,442.78,321.61,444.4Z"/><path class="cls-6" d="M337,464.7l2.23,3q-.11-12.95-.22-25.89c-.72,1.16-1.45,2.33-2.17,3.51Z"/><path class="cls-6" d="M324,466.61l-2.16,3.66q8.67-1.62,17.43-2.55l-2.23-3Q330.49,465.47,324,466.61Z"/></g><g class="cls-15"><path class="cls-6" d="M365.13,440.54q.11,13,.22,25.92-8.82-.09-17.61.52-.11-13-.22-25.9Q356.31,440.47,365.13,440.54Z"/><path class="cls-6" d="M363.1,463.18c-4.39,0-8.79.14-13.17.39q-.09-9.68-.17-19.37,6.58-.39,13.18-.4Q363,453.49,363.1,463.18Z"/><path class="cls-6" d="M349.76,444.2q.09,9.69.17,19.38l-2.19,3.4q-.11-13-.22-25.9C348.27,442.12,349,443.15,349.76,444.2Z"/><path class="cls-6" d="M347.52,441.08c.75,1,1.5,2.07,2.24,3.12q6.58-.39,13.18-.4l2.19-3.26Q356.31,440.47,347.52,441.08Z"/><path class="cls-6" d="M363.1,463.18l2.25,3.28q-.11-13-.22-25.92l-2.19,3.26Q363,453.49,363.1,463.18Z"/><path class="cls-6" d="M349.93,463.57,347.74,467q8.79-.6,17.61-.52l-2.25-3.28C358.71,463.19,354.31,463.32,349.93,463.57Z"/></g><g class="cls-15"><path class="cls-6" d="M391.26,442.26q.11,13,.22,25.94-8.79-1.09-17.61-1.5-.11-13-.22-25.93Q382.47,441.18,391.26,442.26Z"/><path class="cls-6" d="M389.24,464.67q-6.58-.75-13.18-1.12-.07-9.71-.16-19.4,6.6.38,13.17,1.12Q389.16,455,389.24,464.67Z"/><path class="cls-6" d="M375.9,444.15q.08,9.71.16,19.4-1.1,1.56-2.19,3.15-.11-13-.22-25.93Z"/><path class="cls-6" d="M373.65,440.77l2.25,3.38q6.6.38,13.17,1.12l2.19-3Q382.47,441.18,373.65,440.77Z"/><path class="cls-6" d="M389.24,464.67c.75,1.17,1.49,2.35,2.24,3.53q-.11-13-.22-25.94l-2.19,3Q389.16,455,389.24,464.67Z"/><path class="cls-6" d="M376.06,463.55q-1.1,1.56-2.19,3.15,8.82.41,17.61,1.5c-.75-1.18-1.49-2.36-2.24-3.53Q382.66,463.92,376.06,463.55Z"/></g><g class="cls-15"><path class="cls-6" d="M417.17,447q.12,13,.22,26-8.67-2.1-17.43-3.52-.1-13-.22-25.95Q408.5,444.88,417.17,447Z"/><path class="cls-6" d="M415.18,469.15q-6.49-1.5-13.05-2.63L402,447.1q6.55,1.13,13,2.63Q415.1,459.43,415.18,469.15Z"/><path class="cls-6" d="M402,447.1q.09,9.72.16,19.42l-2.17,2.9q-.1-13-.22-25.95Z"/><path class="cls-6" d="M399.74,443.47,402,447.1q6.55,1.13,13,2.63l2.15-2.75Q408.5,444.88,399.74,443.47Z"/><path class="cls-6" d="M415.18,469.15l2.21,3.79q-.11-13-.22-26L415,449.73Q415.1,459.43,415.18,469.15Z"/><path class="cls-6" d="M402.13,466.52l-2.17,2.9q8.76,1.43,17.43,3.52l-2.21-3.79Q408.69,467.65,402.13,466.52Z"/></g><g class="cls-15"><path class="cls-6" d="M442.61,454.68l.21,26q-8.46-3.1-17.08-5.54l-.21-26Q434.14,451.57,442.61,454.68Z"/><path class="cls-6" d="M440.66,476.62q-6.35-2.25-12.78-4.14-.08-9.71-.16-19.43,6.43,1.88,12.78,4.13Q440.59,466.9,440.66,476.62Z"/><path class="cls-6" d="M427.72,453.05q.07,9.72.16,19.43c-.71.88-1.42,1.77-2.14,2.65l-.21-26Z"/><path class="cls-6" d="M425.53,449.16l2.19,3.89q6.43,1.88,12.78,4.13l2.11-2.5Q434.15,451.58,425.53,449.16Z"/><path class="cls-6" d="M440.66,476.62l2.16,4.05-.21-26-2.11,2.5Q440.59,466.9,440.66,476.62Z"/><path class="cls-6" d="M427.88,472.48c-.71.88-1.42,1.77-2.14,2.65q8.61,2.43,17.08,5.54l-2.16-4.05Q434.32,474.37,427.88,472.48Z"/></g><g class="cls-15"><path class="cls-6" d="M467.32,465.36q.1,13,.2,26-8.17-4.11-16.56-7.54-.1-13-.2-26Q459.13,461.25,467.32,465.36Z"/><path class="cls-6" d="M465.43,487.07q-6.14-3-12.39-5.64L452.89,462q6.25,2.63,12.39,5.63Z"/><path class="cls-6" d="M452.89,462l.15,19.45-2.08,2.4q-.1-13-.2-26Z"/><path class="cls-6" d="M450.76,457.83l2.13,4.15q6.25,2.63,12.39,5.63l2-2.25Q459.15,461.25,450.76,457.83Z"/><path class="cls-6" d="M465.43,487.07q1.05,2.15,2.09,4.3l-.2-26-2,2.25Z"/><path class="cls-6" d="M453,481.43l-2.08,2.4q8.39,3.44,16.56,7.54-1-2.16-2.09-4.3Q459.29,484.06,453,481.43Z"/></g><g class="cls-15"><path class="cls-6" d="M288.33,488.83l.21,25.84q-8.39,3-16.56,6.63l-.21-25.82Q279.95,491.82,288.33,488.83Z"/><path class="cls-6" d="M286.4,512.18c-4.16,1.52-8.3,3.18-12.39,5l-.15-19.32q6.13-2.69,12.39-5Z"/><path class="cls-6" d="M273.86,497.82l.15,19.32c-.68,1.39-1.36,2.77-2,4.16l-.21-25.82Z"/><path class="cls-6" d="M271.77,495.48l2.09,2.34q6.13-2.69,12.39-5l2.08-4Q279.95,491.82,271.77,495.48Z"/><path class="cls-6" d="M286.4,512.18l2.14,2.49-.21-25.84-2.08,4Z"/><path class="cls-6" d="M274,517.14c-.68,1.39-1.36,2.77-2,4.16q8.17-3.66,16.56-6.63l-2.14-2.49C282.24,513.7,278.1,515.36,274,517.14Z"/></g><g class="cls-15"><path class="cls-6" d="M313.55,481.51q.1,12.93.22,25.87-8.62,2-17.09,4.58l-.21-25.84Q304.93,483.47,313.55,481.51Z"/><path class="cls-6" d="M311.57,504.62q-6.44,1.53-12.78,3.43l-.16-19.33c4.23-1.28,8.5-2.43,12.78-3.45Q311.5,494.95,311.57,504.62Z"/><path class="cls-6" d="M298.63,488.72q.08,9.66.16,19.34l-2.11,3.9-.21-25.84Z"/><path class="cls-6" d="M296.47,486.12l2.16,2.6c4.23-1.28,8.5-2.43,12.78-3.45.72-1.25,1.43-2.51,2.14-3.76Q304.94,483.48,296.47,486.12Z"/><path class="cls-6" d="M311.57,504.62l2.2,2.76q-.11-12.94-.22-25.87c-.71,1.25-1.42,2.51-2.14,3.76Q311.5,494.95,311.57,504.62Z"/><path class="cls-6" d="M298.79,508.05,296.68,512q8.46-2.64,17.09-4.58l-2.2-2.76Q305.14,506.15,298.79,508.05Z"/></g><g class="cls-15"><path class="cls-6" d="M339.34,477.21l.21,25.89q-8.74.93-17.43,2.55-.11-12.93-.22-25.87Q330.57,478.16,339.34,477.21Z"/><path class="cls-6" d="M337.32,500.09q-6.54.77-13,1.91-.09-9.69-.16-19.36,6.5-1.15,13-1.92Q337.23,490.41,337.32,500.09Z"/><path class="cls-6" d="M324.12,482.64q.08,9.67.16,19.36l-2.16,3.65q-.11-12.93-.22-25.87Z"/><path class="cls-6" d="M321.9,479.78l2.22,2.86q6.5-1.15,13-1.92c.72-1.17,1.45-2.34,2.18-3.51Q330.58,478.16,321.9,479.78Z"/><path class="cls-6" d="M337.32,500.09c.75,1,1.49,2,2.23,3l-.21-25.89c-.73,1.17-1.46,2.34-2.18,3.51Q337.23,490.41,337.32,500.09Z"/><path class="cls-6" d="M324.28,502l-2.16,3.65q8.67-1.62,17.43-2.55c-.74-1-1.48-2-2.23-3Q330.78,500.86,324.28,502Z"/></g><g class="cls-15"><path class="cls-6" d="M365.42,475.93q.12,13,.22,25.91-8.82-.07-17.61.52l-.21-25.9C353.67,476.06,359.55,475.88,365.42,475.93Z"/><path class="cls-6" d="M363.39,498.57c-4.39,0-8.79.13-13.17.39q-.09-9.69-.16-19.38,6.57-.39,13.17-.4Q363.3,488.87,363.39,498.57Z"/><path class="cls-6" d="M350.06,479.58q.07,9.69.16,19.38l-2.19,3.4-.21-25.9Z"/><path class="cls-6" d="M347.81,476.46l2.25,3.12q6.57-.39,13.17-.4l2.19-3.25Q356.62,475.86,347.81,476.46Z"/><path class="cls-6" d="M363.39,498.57l2.25,3.27q-.11-13-.22-25.91l-2.19,3.25Q363.3,488.87,363.39,498.57Z"/><path class="cls-6" d="M350.22,499l-2.19,3.4q8.79-.6,17.61-.52l-2.25-3.27C359,498.57,354.6,498.7,350.22,499Z"/></g><g class="cls-15"><path class="cls-6" d="M391.55,477.65q.12,13,.22,25.94-8.79-1.09-17.61-1.51-.11-13-.22-25.92Q382.76,476.57,391.55,477.65Z"/><path class="cls-6" d="M389.53,500.06q-6.58-.76-13.17-1.13-.09-9.69-.17-19.4,6.6.38,13.18,1.12Q389.45,490.36,389.53,500.06Z"/><path class="cls-6" d="M376.19,479.54q.09,9.69.17,19.39l-2.2,3.15q-.11-13-.22-25.92Z"/><path class="cls-6" d="M373.94,476.16l2.25,3.37q6.6.38,13.18,1.12c.73-1,1.45-2,2.18-3Q382.76,476.56,373.94,476.16Z"/><path class="cls-6" d="M389.53,500.06c.75,1.17,1.49,2.35,2.24,3.53q-.11-13-.22-25.94c-.73,1-1.45,2-2.18,3Q389.45,490.36,389.53,500.06Z"/><path class="cls-6" d="M376.36,498.93l-2.2,3.15q8.82.42,17.61,1.51c-.75-1.18-1.49-2.36-2.24-3.53Q382.95,499.3,376.36,498.93Z"/></g><g class="cls-15"><path class="cls-6" d="M417.47,482.36l.21,26q-8.67-2.1-17.43-3.53-.11-13-.22-25.95Q408.79,480.28,417.47,482.36Z"/><path class="cls-6" d="M415.47,504.54q-6.5-1.52-13-2.64-.09-9.7-.17-19.41,6.56,1.13,13.05,2.62Q415.39,494.83,415.47,504.54Z"/><path class="cls-6" d="M402.26,482.49q.09,9.7.17,19.41l-2.18,2.9q-.11-13-.22-25.95C400.78,480.06,401.52,481.27,402.26,482.49Z"/><path class="cls-6" d="M400,478.85c.75,1.21,1.49,2.42,2.23,3.64q6.56,1.13,13.05,2.62l2.16-2.75Q408.8,480.28,400,478.85Z"/><path class="cls-6" d="M415.47,504.54l2.21,3.79-.21-26-2.16,2.75Q415.39,494.83,415.47,504.54Z"/><path class="cls-6" d="M402.43,501.9l-2.18,2.9q8.76,1.43,17.43,3.53l-2.21-3.79Q409,503,402.43,501.9Z"/></g><g class="cls-15"><path class="cls-6" d="M442.91,490.06l.21,26q-8.47-3.1-17.09-5.53l-.21-26Q434.43,487,442.91,490.06Z"/><path class="cls-6" d="M441,512q-6.34-2.26-12.78-4.14-.07-9.72-.16-19.44,6.44,1.88,12.79,4.13Z"/><path class="cls-6" d="M428,488.43q.09,9.72.16,19.44L426,510.52l-.21-26Z"/><path class="cls-6" d="M425.82,484.54l2.19,3.89q6.44,1.88,12.79,4.13c.7-.83,1.4-1.67,2.11-2.5Q434.43,487,425.82,484.54Z"/><path class="cls-6" d="M441,512q1.1,2,2.17,4l-.21-26c-.71.83-1.41,1.67-2.11,2.5Z"/><path class="cls-6" d="M428.17,507.87,426,510.52q8.61,2.43,17.09,5.53-1.08-2-2.17-4Q434.61,509.75,428.17,507.87Z"/></g><g class="cls-15"><path class="cls-6" d="M467.61,500.74q.11,13,.2,26-8.18-4.11-16.55-7.55l-.21-26Q459.42,496.65,467.61,500.74Z"/><path class="cls-6" d="M465.72,522.45q-6.14-3-12.38-5.64-.09-9.72-.16-19.45,6.26,2.63,12.39,5.63Z"/><path class="cls-6" d="M453.18,497.36q.07,9.74.16,19.45l-2.08,2.4-.21-26Z"/><path class="cls-6" d="M451.05,493.21l2.13,4.15q6.26,2.63,12.39,5.63l2-2.25Q459.44,496.65,451.05,493.21Z"/><path class="cls-6" d="M465.72,522.45c.7,1.43,1.4,2.87,2.09,4.3l-.2-26-2,2.25Z"/><path class="cls-6" d="M453.34,516.81l-2.09,2.4q8.38,3.43,16.56,7.54c-.69-1.43-1.39-2.87-2.09-4.3Q459.59,519.45,453.34,516.81Z"/></g></g><path class="cls-1" d="M453.72,28.66C443.37,18.28,406.71,5,363.2,5.33s-79.95,14.28-90.12,24.83l-2.88,0,4,481.07,186.4-1.55-4-481.08Z"/></g><rect class="cls-16" x="461.51" y="52.26" width="24.95" height="65.69" rx="10.95"/><rect class="cls-6" x="465.49" y="57.41" width="16.98" height="55.4" rx="7.45"/><polygon class="cls-17" points="490.58 29.39 490.58 41.42 490.58 53.45 490.58 65.47 490.58 77.5 490.58 89.53 490.58 101.56 490.58 113.58 490.58 125.61 490.58 137.64 490.58 149.67 490.58 161.69 490.58 173.72 490.58 185.75 490.58 197.78 490.58 209.8 490.58 221.83 490.58 233.86 490.58 245.88 490.58 257.91 490.58 269.94 490.58 281.97 490.58 293.99 490.58 306.02 490.58 318.05 490.58 330.07 490.58 342.1 490.58 354.13 490.58 366.16 490.58 378.18 490.58 390.21 490.58 402.24 490.58 414.27 490.58 426.29 490.58 438.32 490.58 450.35 490.58 462.38 490.58 474.4 490.58 486.43 490.58 501.21 524.69 501.21 524.69 486.43 524.69 474.4 524.69 462.38 524.69 450.35 524.69 438.32 524.69 426.29 524.69 414.27 524.69 402.24 524.69 390.21 524.69 378.18 524.69 366.16 524.69 354.13 524.69 342.1 524.69 330.07 524.69 318.05 524.69 306.02 524.69 293.99 524.69 281.97 524.69 269.94 524.69 257.91 524.69 245.88 524.69 233.86 524.69 221.83 524.69 209.8 524.69 197.78 524.69 185.75 524.69 173.72 524.69 161.69 524.69 149.67 524.69 137.64 524.69 125.61 524.69 113.58 524.69 101.56 524.69 89.53 524.69 77.5 524.69 65.47 524.69 53.45 524.69 41.42 524.69 29.39 490.58 29.39"/><polygon class="cls-18" points="592.54 495.85 524.69 495.85 524.69 501.21 576.93 501.21 592.54 495.85"/><path class="cls-19" d="M456.59,28.63l0,2.48C446.27,20.73,406.71,5,363.2,5.33s-82.8,17.26-93,27.81l0-2.95a5.64,5.64,0,0,1,.84-2.78C277.15,16.72,316,.4,363.15,0s86.27,15.27,92.56,25.86A5.46,5.46,0,0,1,456.59,28.63Z"/><g class="cls-20"><path class="cls-21" d="M361.69,482.5c-59.22,0-106.18,17.06-106.18,18.71h0V593H467.87V501.22C467.87,499.58,420.91,482.5,361.69,482.5Z"/><g class="cls-5"><rect class="cls-6" x="255.51" y="482.97" width="11.4" height="109.99"/><rect class="cls-6" x="284.22" y="482.97" width="11.4" height="109.99"/><rect class="cls-6" x="312.93" y="482.97" width="11.4" height="109.99"/><rect class="cls-6" x="341.63" y="482.97" width="11.4" height="109.99"/><rect class="cls-6" x="370.34" y="482.97" width="11.4" height="109.99"/><rect class="cls-6" x="399.05" y="482.97" width="11.4" height="109.99"/><rect class="cls-6" x="427.76" y="482.97" width="11.4" height="109.99"/><rect class="cls-6" x="456.47" y="482.97" width="11.4" height="109.99"/></g></g><path class="cls-22" d="M123,296.48s-7.55,89,16.36,141.47S185,525.27,242.25,555.54c0,0,26.11-50.73,10.84-120.92S157.44,313.44,123,296.48Z"/><polygon class="cls-9" points="231.62 554.59 199.04 479.28 153.71 435.34 198.12 471.08 159.06 380.4 137.84 362.92 156.74 374.49 143.87 339.1 182.79 422.34 186.41 377.15 185.74 430.85 244.52 555.74 231.62 554.59"/><path class="cls-23" d="M109.36,575.91S68,594.41,44.07,543a105.23,105.23,0,0,1-8-25.53C24.5,454,0,469.28,0,469.28s10.24-35.5,99.94-28.94S210.52,575.09,210.52,575.09,188.4,552.56,109.36,575.91Z"/><path class="cls-9" d="M154.74,557.1l-38.85-38.63-54.07-2.53,48.32-2.43s-41.64-34.1-79.39-50.17c0,0,35.8,8,58.69,27.76L81,463.34l14.66,32S138.45,527.29,154.74,557.1Z"/><polyline class="cls-24" points="87.56 597.43 87.56 593.18 774.21 593.18 774.21 597.43"/><rect class="cls-25" x="108.54" y="539.14" width="23.73" height="54.17"/><rect class="cls-26" x="163.86" y="520.41" width="23.73" height="72.89"/><rect class="cls-27" x="208.56" y="520.41" width="23.73" height="72.89"/><rect class="cls-28" x="132.28" y="539.14" width="49.48" height="54.17"/><rect class="cls-29" x="187.6" y="520.41" width="34.45" height="72.89"/><rect class="cls-30" x="231.29" y="520.41" width="34.45" height="72.89"/></g></g></g></svg>