<svg xmlns="http://www.w3.org/2000/svg" xmlns:xlink="http://www.w3.org/1999/xlink" viewBox="0 0 752.99 594.2"><defs><style>.cls-1{opacity:0.12;fill:url(#linear-gradient);}.cls-2,.cls-29{opacity:0.05;}.cls-3{fill:url(#linear-gradient-2);}.cls-4{fill:#007000;opacity:0.5;}.cls-5{fill:url(#linear-gradient-3);}.cls-6{fill:url(#linear-gradient-4);}.cls-7{fill:url(#linear-gradient-5);}.cls-8{fill:url(#linear-gradient-6);}.cls-9{fill:url(#linear-gradient-7);}.cls-10{fill:url(#linear-gradient-8);}.cls-11{fill:url(#linear-gradient-9);}.cls-12{fill:url(#linear-gradient-10);}.cls-13{fill:url(#linear-gradient-11);}.cls-14{fill:url(#linear-gradient-12);}.cls-15{fill:url(#linear-gradient-13);}.cls-16{fill:url(#linear-gradient-14);}.cls-17{fill:url(#linear-gradient-15);}.cls-18{fill:url(#linear-gradient-16);}.cls-19{fill:url(#linear-gradient-17);}.cls-20{fill:url(#linear-gradient-18);}.cls-21{fill:url(#linear-gradient-19);}.cls-22{fill:url(#linear-gradient-20);}.cls-23{fill:url(#linear-gradient-21);}.cls-24{fill:url(#linear-gradient-22);}.cls-25{fill:url(#linear-gradient-23);}.cls-26{fill:url(#linear-gradient-24);}.cls-27{fill:url(#linear-gradient-25);}.cls-28{fill:url(#linear-gradient-26);}.cls-30{fill:url(#linear-gradient-27);}.cls-31{fill:url(#linear-gradient-28);}.cls-32{fill:url(#linear-gradient-29);}.cls-33{fill:url(#linear-gradient-30);}.cls-34{fill:url(#linear-gradient-31);}.cls-35{fill:url(#linear-gradient-32);}.cls-36{fill:url(#linear-gradient-33);}.cls-37{fill:url(#linear-gradient-34);}.cls-38{fill:url(#linear-gradient-35);}.cls-39{fill:url(#linear-gradient-36);}.cls-40{fill:url(#linear-gradient-37);}.cls-41{fill:url(#linear-gradient-38);}.cls-42{fill:url(#linear-gradient-39);}.cls-43{fill:url(#linear-gradient-40);}.cls-44{fill:url(#linear-gradient-41);}.cls-45{fill:url(#linear-gradient-42);}.cls-46{fill:url(#linear-gradient-43);}.cls-47{fill:url(#linear-gradient-44);}.cls-48{fill:url(#linear-gradient-45);}.cls-49{fill:url(#linear-gradient-46);}.cls-50{fill:url(#linear-gradient-47);}.cls-51{fill:url(#linear-gradient-48);}.cls-52{fill:url(#linear-gradient-49);}.cls-53{fill:url(#linear-gradient-50);}.cls-54{fill:url(#linear-gradient-51);}.cls-55{fill:url(#linear-gradient-52);}.cls-56{fill:url(#linear-gradient-53);}.cls-57{fill:url(#linear-gradient-54);}.cls-58{fill:url(#linear-gradient-55);}.cls-59{fill:url(#linear-gradient-56);}.cls-60{fill:url(#linear-gradient-57);}.cls-61{fill:url(#linear-gradient-58);}.cls-62{fill:#31164b;}.cls-63{fill:url(#linear-gradient-59);}.cls-64{fill:url(#linear-gradient-60);}.cls-65{fill:#e74465;}.cls-66{fill:url(#linear-gradient-61);}.cls-67{fill:url(#linear-gradient-62);}.cls-68{fill:url(#linear-gradient-63);}.cls-69{fill:url(#linear-gradient-64);}.cls-70{fill:url(#linear-gradient-65);}.cls-71{fill:#f1f2f2;}.cls-72{fill:#4f3854;}.cls-73{fill:#4f3855;}.cls-74{fill:#a7a9ac;}.cls-75{fill:url(#linear-gradient-66);}.cls-76{fill:#523b58;}.cls-77{fill:url(#linear-gradient-67);}.cls-78{fill:#fff;}.cls-79{fill:url(#linear-gradient-68);}.cls-80{fill:url(#linear-gradient-69);}.cls-81{fill:url(#linear-gradient-70);}.cls-82{fill:url(#linear-gradient-71);}.cls-83{fill:url(#linear-gradient-72);}.cls-84{fill:url(#linear-gradient-73);}</style><linearGradient id="linear-gradient" y1="393.09" x2="752.99" y2="393.09" gradientUnits="userSpaceOnUse"><stop offset="0" stop-color="#3841f2"/><stop offset="0.99" stop-color="#468af5"/></linearGradient><linearGradient id="linear-gradient-2" x1="508.31" y1="340.73" x2="526.62" y2="340.73" gradientUnits="userSpaceOnUse"><stop offset="0" stop-color="#b2b2b2"/><stop offset="1" stop-color="#e5e5e5"/></linearGradient><linearGradient id="linear-gradient-3" x1="356.84" y1="468" x2="580.2" y2="468" xlink:href="#linear-gradient-2"/><linearGradient id="linear-gradient-4" x1="508.31" y1="421.96" x2="527.12" y2="421.96" xlink:href="#linear-gradient-2"/><linearGradient id="linear-gradient-5" x1="508.06" y1="417.85" x2="501.95" y2="417.85" xlink:href="#linear-gradient-2"/><linearGradient id="linear-gradient-6" x1="507" y1="367.76" x2="496.56" y2="378.2" xlink:href="#linear-gradient-2"/><linearGradient id="linear-gradient-7" x1="646.65" y1="509.61" x2="646.65" y2="580.44" xlink:href="#linear-gradient-2"/><linearGradient id="linear-gradient-8" x1="630.2" y1="522.5" x2="607.31" y2="566.06" xlink:href="#linear-gradient-2"/><linearGradient id="linear-gradient-9" x1="615.43" y1="365.03" x2="645.42" y2="365.03" xlink:href="#linear-gradient-2"/><linearGradient id="linear-gradient-10" x1="596.36" y1="367.64" x2="620.63" y2="367.64" xlink:href="#linear-gradient-2"/><linearGradient id="linear-gradient-11" x1="639.49" y1="98.58" x2="639.49" y2="213.21" xlink:href="#linear-gradient-2"/><linearGradient id="linear-gradient-12" x1="624.27" y1="133.03" x2="624.27" y2="224.24" xlink:href="#linear-gradient-2"/><linearGradient id="linear-gradient-13" x1="479.64" y1="370.53" x2="489.48" y2="535.24" xlink:href="#linear-gradient-2"/><linearGradient id="linear-gradient-14" x1="187.06" y1="340.73" x2="205.36" y2="340.73" xlink:href="#linear-gradient-2"/><linearGradient id="linear-gradient-15" x1="352.69" y1="396.51" x2="166.3" y2="558.18" xlink:href="#linear-gradient-2"/><linearGradient id="linear-gradient-16" x1="186.55" y1="421.96" x2="205.36" y2="421.96" xlink:href="#linear-gradient-2"/><linearGradient id="linear-gradient-17" x1="205.91" y1="417.83" x2="211.05" y2="417.64" xlink:href="#linear-gradient-2"/><linearGradient id="linear-gradient-18" x1="202.13" y1="365.39" x2="217.52" y2="373.73" xlink:href="#linear-gradient-2"/><linearGradient id="linear-gradient-19" x1="67.02" y1="513.19" x2="67.02" y2="557.08" xlink:href="#linear-gradient-2"/><linearGradient id="linear-gradient-20" x1="97.88" y1="519.95" x2="97.88" y2="566.93" xlink:href="#linear-gradient-2"/><linearGradient id="linear-gradient-21" x1="42.26" y1="365.49" x2="87.51" y2="364.83" xlink:href="#linear-gradient-2"/><linearGradient id="linear-gradient-22" x1="86.55" y1="367.64" x2="102.62" y2="367.64" xlink:href="#linear-gradient-2"/><linearGradient id="linear-gradient-23" x1="59.55" y1="151.04" x2="88.81" y2="151.04" xlink:href="#linear-gradient-2"/><linearGradient id="linear-gradient-24" x1="85.3" y1="155.92" x2="98.5" y2="155.92" xlink:href="#linear-gradient-2"/><linearGradient id="linear-gradient-25" x1="158.34" y1="494.01" x2="555.34" y2="494.01" xlink:href="#linear-gradient-2"/><linearGradient id="linear-gradient-26" x1="223.06" y1="385.86" x2="232.9" y2="550.57" xlink:href="#linear-gradient-2"/><linearGradient id="linear-gradient-27" x1="356.84" y1="582.98" x2="356.84" y2="603.78" xlink:href="#linear-gradient-2"/><linearGradient id="linear-gradient-28" x1="151.4" y1="546.83" x2="203.72" y2="546.83" gradientUnits="userSpaceOnUse"><stop offset="0" stop-color="#dbe25b"/><stop offset="1" stop-color="#45b549"/></linearGradient><linearGradient id="linear-gradient-29" x1="516.48" y1="501.73" x2="546.47" y2="501.73" xlink:href="#linear-gradient-28"/><linearGradient id="linear-gradient-30" x1="519.66" y1="541.03" x2="541.69" y2="541.03" gradientUnits="userSpaceOnUse"><stop offset="0.42" stop-color="#e38156"/><stop offset="1" stop-color="#efde78"/></linearGradient><linearGradient id="linear-gradient-31" x1="512.17" y1="573.16" x2="575.38" y2="573.16" gradientUnits="userSpaceOnUse"><stop offset="0" stop-color="#c9c431"/><stop offset="0.99" stop-color="#f2f886"/></linearGradient><linearGradient id="linear-gradient-32" x1="548.72" y1="573.16" x2="584.46" y2="573.16" xlink:href="#linear-gradient-31"/><linearGradient id="linear-gradient-33" x1="301.12" y1="495.25" x2="313.46" y2="495.25" gradientUnits="userSpaceOnUse"><stop offset="0" stop-color="#e2c290"/><stop offset="0.99" stop-color="#de6678"/></linearGradient><linearGradient id="linear-gradient-34" x1="280.89" y1="493.3" x2="296.68" y2="493.3" xlink:href="#linear-gradient-33"/><linearGradient id="linear-gradient-35" x1="293.17" y1="509.6" x2="317.52" y2="509.6" xlink:href="#linear-gradient-2"/><linearGradient id="linear-gradient-36" x1="298.17" y1="536.16" x2="303.89" y2="523.56" gradientUnits="userSpaceOnUse"><stop offset="0" stop-color="#ffd100"/><stop offset="1" stop-color="#efde78"/></linearGradient><linearGradient id="linear-gradient-37" x1="380.23" y1="437.85" x2="411.52" y2="437.85" xlink:href="#linear-gradient-33"/><linearGradient id="linear-gradient-38" x1="432.73" y1="458.8" x2="479.55" y2="458.8" xlink:href="#linear-gradient-33"/><linearGradient id="linear-gradient-39" x1="406.92" y1="472.04" x2="435.55" y2="472.04" xlink:href="#linear-gradient-28"/><linearGradient id="linear-gradient-40" x1="410.16" y1="541.05" x2="448.67" y2="541.05" xlink:href="#linear-gradient-33"/><linearGradient id="linear-gradient-41" x1="239.63" y1="473.83" x2="254.66" y2="473.83" xlink:href="#linear-gradient-33"/><linearGradient id="linear-gradient-42" x1="459.2" y1="530.57" x2="497.19" y2="530.57" xlink:href="#linear-gradient-31"/><linearGradient id="linear-gradient-43" x1="446.24" y1="570.57" x2="522.81" y2="570.57" xlink:href="#linear-gradient-31"/><linearGradient id="linear-gradient-44" x1="494.37" y1="530.57" x2="529.07" y2="530.57" xlink:href="#linear-gradient-31"/><linearGradient id="linear-gradient-45" x1="496.1" y1="570.57" x2="536.67" y2="570.57" xlink:href="#linear-gradient-31"/><linearGradient id="linear-gradient-46" x1="459.46" y1="518.43" x2="475.31" y2="518.43" gradientUnits="userSpaceOnUse"><stop offset="0" stop-color="#f6961e"/><stop offset="1" stop-color="#ffd100"/></linearGradient><linearGradient id="linear-gradient-47" x1="476.81" y1="514.08" x2="501.6" y2="514.08" xlink:href="#linear-gradient-46"/><linearGradient id="linear-gradient-48" x1="244.74" y1="562.52" x2="311.46" y2="562.52" xlink:href="#linear-gradient-31"/><linearGradient id="linear-gradient-49" x1="322.33" y1="562.52" x2="384.92" y2="562.52" xlink:href="#linear-gradient-31"/><linearGradient id="linear-gradient-50" x1="246.18" y1="476.19" x2="262.44" y2="474.77" gradientTransform="translate(37.03 -18.07) rotate(4.38)" xlink:href="#linear-gradient-31"/><linearGradient id="linear-gradient-51" x1="229.17" y1="476.69" x2="247.66" y2="476.69" gradientTransform="translate(37.08 -16.81) rotate(4.38)" xlink:href="#linear-gradient-31"/><linearGradient id="linear-gradient-52" x1="203.16" y1="541.2" x2="241.7" y2="541.2" xlink:href="#linear-gradient-36"/><linearGradient id="linear-gradient-53" x1="212.95" y1="452.46" x2="233.53" y2="452.46" xlink:href="#linear-gradient-33"/><linearGradient id="linear-gradient-54" x1="198.19" y1="475.92" x2="242.98" y2="475.92" xlink:href="#linear-gradient-28"/><linearGradient id="linear-gradient-55" x1="205.41" y1="479.46" x2="219.49" y2="478.56" gradientTransform="translate(37.18 -14.88) rotate(4.38)" xlink:href="#linear-gradient-31"/><linearGradient id="linear-gradient-56" x1="185.22" y1="480.29" x2="206.54" y2="480.29" gradientTransform="translate(37.23 -13.55) rotate(4.38)" xlink:href="#linear-gradient-31"/><linearGradient id="linear-gradient-57" x1="192.06" y1="470.75" x2="209.13" y2="485.13" xlink:href="#linear-gradient-33"/><linearGradient id="linear-gradient-58" x1="400.62" y1="505.01" x2="426.26" y2="505.01" xlink:href="#linear-gradient-36"/><linearGradient id="linear-gradient-59" x1="397.76" y1="551.08" x2="411.22" y2="551.08" xlink:href="#linear-gradient-33"/><linearGradient id="linear-gradient-60" x1="415.4" y1="456.54" x2="425.63" y2="456.54" xlink:href="#linear-gradient-33"/><linearGradient id="linear-gradient-61" x1="287.37" y1="542.51" x2="298.01" y2="542.51" xlink:href="#linear-gradient-33"/><linearGradient id="linear-gradient-62" x1="304.42" y1="542.51" x2="315.06" y2="542.51" xlink:href="#linear-gradient-33"/><linearGradient id="linear-gradient-63" x1="311.21" y1="520.34" x2="328.12" y2="520.34" xlink:href="#linear-gradient-33"/><linearGradient id="linear-gradient-64" x1="166.17" y1="581.45" x2="191.24" y2="581.45" xlink:href="#linear-gradient-30"/><linearGradient id="linear-gradient-65" x1="269.92" y1="18.93" x2="328.8" y2="18.93" gradientUnits="userSpaceOnUse"><stop offset="0" stop-color="#ff512f"/><stop offset="1" stop-color="#ef9719"/></linearGradient><linearGradient id="linear-gradient-66" x1="431.76" y1="73.84" x2="471.22" y2="73.84" xlink:href="#linear-gradient-65"/><linearGradient id="linear-gradient-67" x1="293.35" y1="53.47" x2="317.17" y2="53.47" xlink:href="#linear-gradient-65"/><linearGradient id="linear-gradient-68" x1="878.72" y1="130.71" x2="946.97" y2="130.71" gradientTransform="translate(-664.9 157.34) rotate(-5.51)" xlink:href="#linear-gradient-65"/><linearGradient id="linear-gradient-69" x1="243.34" y1="265.98" x2="258.01" y2="265.98" gradientTransform="translate(26.71 -22.85) rotate(5.51)" xlink:href="#linear-gradient-31"/><linearGradient id="linear-gradient-70" x1="255.87" y1="265.17" x2="321.28" y2="260.33" gradientTransform="translate(26.63 -24.64) rotate(5.51)" xlink:href="#linear-gradient-31"/><linearGradient id="linear-gradient-71" x1="-563.94" y1="145.91" x2="-474" y2="145.91" gradientTransform="translate(999.78 194.43) rotate(13.74)" xlink:href="#linear-gradient-65"/><linearGradient id="linear-gradient-72" x1="413.21" y1="292.83" x2="437.3" y2="292.83" gradientTransform="translate(-57.39 109.4) rotate(-13.74)" xlink:href="#linear-gradient-31"/><linearGradient id="linear-gradient-73" x1="431.2" y1="295.87" x2="493.9" y2="305.66" gradientTransform="translate(-58.09 115.23) rotate(-13.74)" xlink:href="#linear-gradient-31"/></defs><title>3</title><g id="Layer_2" data-name="Layer 2"><g id="Layer_7" data-name="Layer 7"><path class="cls-1" d="M4.36,593.66s-13.2-21.34,6.32-35.94S31.91,517.3,17,486.42-13.1,402.77,39.13,406.7,108,362.91,97.67,302.84s71.16-84.77,135.44-56.7,144.62,32.56,223.82-18,182.5-50.53,200.29,15.16S601.55,359,664.11,380.88s98.63,48.84,86.58,81.4S707.76,594.2,707.76,594.2Z"/><polygon class="cls-2" points="384.53 418.56 326.52 418.56 136 573.39 575.05 573.39 384.53 418.56"/><path class="cls-3" d="M526.62,379.39H508.31V352L513,302.31l0-.24h4.09C519.79,323.07,525,365.86,526.62,379.39Z"/><polygon class="cls-4" points="544.76 564.29 521.33 564.29 520.82 547.09 544.76 564.29"/><path class="cls-5" d="M580.2,564.29H555.34L356.84,423.73v-29.1c2.26,0,3.52-7.18,3.52-7.18l7.56-15.74,2.9,4.15,3.15,36Z"/><path class="cls-6" d="M527.12,383.59v81l-15.28-6.7-3.53-1.54V379.39h18.31l.3,2.51c.05.41.09.77.12,1C527.1,383.36,527.12,383.59,527.12,383.59Z"/><polygon class="cls-7" points="508.31 379.39 508.31 456.3 506.97 455.72 505.29 455.12 505.29 383.92 505.3 383.9 508.31 379.39"/><polygon class="cls-8" points="508.31 352 508.31 379.39 505.3 383.9 505.29 383.92 508.31 352"/><polygon class="cls-9" points="621.09 564.29 625.87 518.7 625.86 516.43 659.12 516.43 672.22 564.29 621.09 564.29"/><polygon class="cls-10" points="625.87 518.7 621.09 564.29 605.72 564.29 617.81 521.64 625.86 516.43 625.87 518.7"/><polygon class="cls-11" points="659.12 516.43 625.86 516.43 624.89 222.39 624.89 222.2 624.86 213.64 654.13 213.64 659.12 516.43"/><polygon class="cls-12" points="625.86 516.43 617.81 521.64 617.81 223.38 624.86 213.64 624.89 222.2 624.92 230.72 625.86 516.43"/><path class="cls-13" d="M654.13,213.64H624.86l5.87-125.19h6.47c5.59,39.28,16.88,122.84,16.88,122.84Z"/><polygon class="cls-14" points="630.73 88.45 624.88 213.13 624.86 213.64 617.81 223.38 617.9 222.39 629.9 89.02 629.95 88.45 630.73 88.45"/><polygon class="cls-15" points="572.47 541.79 527.13 464.54 511.84 457.85 508.31 456.3 506.97 455.72 505.29 455.12 379.93 410.71 373.97 372.59 370.82 375.86 373.97 411.89 580.2 564.29 594.63 564.29 600.35 564.29 572.47 541.79"/><path class="cls-16" d="M187.06,379.39h18.3V352l-4.7-49.67,0-.24h-4.09C193.89,323.07,188.7,365.86,187.06,379.39Z"/><path class="cls-17" d="M133.48,564.29h24.86l198.5-140.56v-29.1c-2.27,0-3.53-7.18-3.53-7.18l-7.55-15.74-2.91,4.15-3.14,36Z"/><path class="cls-18" d="M186.55,383.59v81l15.29-6.7,3.52-1.54V379.39h-18.3c-.13,1-.23,1.85-.31,2.51-.05.41-.09.77-.12,1C186.57,383.36,186.55,383.59,186.55,383.59Z"/><polygon class="cls-19" points="205.36 379.39 205.36 456.3 206.7 455.72 208.39 455.12 208.39 383.92 208.38 383.9 205.36 379.39"/><polygon class="cls-20" points="205.36 352 205.36 382 208.38 383.9 208.39 383.92 205.36 352"/><polygon class="cls-21" points="92.59 564.29 87.81 518.7 87.81 516.43 54.55 516.43 41.45 564.29 92.59 564.29"/><polygon class="cls-22" points="87.81 518.7 92.59 564.29 107.96 564.29 95.87 521.64 87.81 516.43 87.81 518.7"/><polygon class="cls-23" points="54.55 516.43 87.81 516.43 88.78 222.39 88.78 222.2 88.81 213.64 59.55 213.64 54.55 516.43"/><polygon class="cls-24" points="87.81 516.43 95.87 521.64 95.87 223.38 88.81 213.64 88.78 222.2 88.75 230.72 87.81 516.43"/><path class="cls-25" d="M59.55,213.64H88.81L83,88.45H76.48c-5.59,39.28-16.89,122.84-16.89,122.84Z"/><polygon class="cls-26" points="82.95 88.45 88.79 213.13 88.81 213.64 95.87 223.38 95.78 222.39 83.77 89.02 83.72 88.45 82.95 88.45"/><polygon class="cls-27" points="356.84 423.73 356.84 423.73 356.84 423.73 356.84 423.73 356.84 423.73 158.34 564.29 168.92 564.29 192.86 547.09 201.65 540.78 213.82 532.03 217.58 529.33 229.58 520.71 233.35 518 245.61 509.19 245.61 509.18 249.19 506.61 260.91 498.19 265.38 494.99 276.36 487.1 276.36 487.09 280.87 483.85 293.53 474.75 296.97 472.28 309.94 462.96 313.26 460.58 325.79 451.59 329.3 449.06 344.9 437.85 344.9 437.84 356.84 429.27 368.78 437.84 368.78 437.85 384.38 449.06 387.89 451.59 400.42 460.58 403.73 462.96 416.71 472.28 420.14 474.75 432.81 483.85 437.31 487.09 437.31 487.1 448.3 494.99 452.76 498.19 464.48 506.61 468.07 509.18 468.07 509.19 480.33 518 484.1 520.71 496.1 529.33 499.86 532.03 512.03 540.78 520.82 547.09 544.76 564.29 555.34 564.29 356.84 423.73"/><polygon class="cls-28" points="339.71 372.59 333.75 410.71 208.39 455.12 206.7 455.72 205.36 456.3 201.84 457.85 186.55 464.54 141.21 541.79 113.33 564.29 119.04 564.29 133.48 564.29 339.71 411.89 342.85 375.86 339.71 372.59"/><g class="cls-29"><polygon points="355.32 397.15 354.32 403.95 359.23 403.95 358.22 397.15 355.32 397.15"/></g><g class="cls-29"><polygon points="354.32 406.33 351.29 424.17 356.84 420.5 362.25 424.17 359.23 406.33 354.32 406.33"/></g><path class="cls-2" d="M369.43,329.2a21.38,21.38,0,0,0-2.32-3.2c-.19-.24-.4-.46-.61-.7.19.39.4.75.58,1.13a14.24,14.24,0,0,1,1.33,7.27,11.84,11.84,0,0,1-5.2,9.35,11.07,11.07,0,0,1-7.7,2.06,12.07,12.07,0,0,1-8.85-5,11.7,11.7,0,0,1-2.27-5.33,15.94,15.94,0,0,1-.18-4.36,9.77,9.77,0,0,1,1.87-4.55c-.05.06-.12.11-.17.17-.41.53-.83,1.05-1.22,1.59a14.12,14.12,0,0,0-2.7,7.66,13.54,13.54,0,0,0,.4,4.44,13.79,13.79,0,0,0,2.86,5.26,15.13,15.13,0,0,0,9.82,5.11c0,2.36-.41,10.46-.8,18.53-.46,9.44-1,18.81-1,18.81s1.26,7.17,3.53,7.18h0c2.26,0,3.52-7.18,3.52-7.18s-.49-9.37-.95-18.81c-.4-8.11-.78-16.25-.81-18.56a11.39,11.39,0,0,0,2.28-.52,15.93,15.93,0,0,0,5.54-3.23,15,15,0,0,0,2.76-3.24,13.94,13.94,0,0,0,.25-13.89Z"/><rect class="cls-30" x="25.41" y="564.29" width="662.85" height="29.91"/><path class="cls-31" d="M177.83,571.71s-2.43-9.57-14.27-5c-8.35,3.49-13.75-6.92-2.78-8.94s6.44-9.86-.35-13.51c-8.88-5.4-12-9.92-5.81-15.15s14.69-1.59,19,6.25,8.18,4.2,10.09-2.24,12.36-15.3,17.58-9,.17,11.27-7.31,16.55-2.63,13.11,2.78,11.19,11.23,6.56,2.31,8.68S184.45,560.05,177.83,571.71Z"/><path class="cls-32" d="M528.3,532.05s1.09-7.71-5.54-12.16c-4.34-3-7.06-5.33-6.08-8.48s8.36-.87,8.25-7.27c-.21-4.68-10.1-11.74-6.19-27.27,3.15-10,10.76-4.24,11.08,1.3s.76,15.86,5.87,13.15,11.84-4.57,10.65,3.8-11.74,10.54-11.3,18c.54,5,7.21,1.09,6.65,7.17S528.3,532.05,528.3,532.05Z"/><path class="cls-33" d="M519.66,531.81s11.32-4.59,22,0c0,0-.16,16.69-4.74,20.28l-12.07.2S519.51,547.11,519.66,531.81Z"/><rect class="cls-34" x="509.54" y="552.12" width="32.99" height="42.09"/><rect class="cls-35" x="542.53" y="552.12" width="19.75" height="42.09"/><path class="cls-36" d="M301.12,498.13h2.44l.52-1.38a4.2,4.2,0,0,1-1.1-5.67c1.91-3.7,3-6.22,3-6.22s2.9,1.29,4.69,1.15l1.48,4.5s3.13,1.31-.34,2.79a12.83,12.83,0,0,0-2.71,6.57l1.33.32v3.49l-4.57,2-4.75-3.18Z"/><path class="cls-37" d="M293.17,501.74A29.49,29.49,0,0,1,282,491.46c-3-4.31.71-7.07,2.23-6.54s1.23,2.4,1.23,2.4l10.36,8.18.84,4.72Z"/><path class="cls-38" d="M296.35,494.9s-3.63,3.92-3.14,7.54l3.63,1.47s-3.29,10.59-2.58,17.14l5.12,3.25h10.36l1-1.63a94.68,94.68,0,0,1,0-12.4s5,.79,6.76-1.37c0,0,.88-6.16-7.05-8.71,0,0-2.06,4.11-6,2.94s-2.4-5.29-2.4-5.29A10.11,10.11,0,0,1,296.35,494.9Z"/><path class="cls-39" d="M294.26,521.05a9.83,9.83,0,0,0-6.09,10s7,2,10.89.72c1.69-.52,3.59.42,5.36.4s7.41.7,9.68-.73a15,15,0,0,0-3.37-8.75S301.2,525.78,294.26,521.05Z"/><path class="cls-40" d="M407.34,455.52s-9.94-18.73-20.59-29.6c0,0-4.45-.91-6.26-3.85s6.49.76,6.49.76a5.59,5.59,0,0,0-.3-2.65,6.47,6.47,0,0,1,2,5.21s20,20,22.81,27.66Z"/><path class="cls-41" d="M435.54,467.22s22.78-10.5,35.09-12.23c0,0,7.39,2.26,8.75,0s-6.26-2.8-6.26-2.8a3.09,3.09,0,0,1,1.88-1.82s-3.32,1-4.75,3c0,0-30.43,3.39-37.52,9.13Z"/><path class="cls-42" d="M435.45,467.85s-11.89,5.45-13.1,22.53c0,0-8,2.63-12.84-1.6,0,0,1-8.65-.55-13.45s-.74-5.53.87-8.86-1.34-8.12-2.91-10.71l4.9-2.86,6.36,10.65a6.67,6.67,0,0,0-2.3-.55c0,2.14.28,5.29,2,5.59,2.68.46,4.71-5.54,4.71-5.54l10-1.38S436.18,465.45,435.45,467.85Z"/><path class="cls-43" d="M411.22,520.74s-1.77,14.79-.74,19.71,13.74,9.73,18.43,12.24,17.28,10.5,17.28,10.5l2.48-1.91s-14.38-16.71-30.4-25.06c0,0,4.87-11.83,5.23-17.3Z"/><path d="M420.52,457.47s-10.54,3-10-6.66c.34-5.05,7.8-5.63,9.53-9.3s3.11-4.71,5.6-4.54,2.84,4.6,5.71,4.71,6.43-3.62,10.16,4.31-3.1,17.8-7.87,17.8-5.14-1.32-7.1-3.56S422.91,457.06,420.52,457.47Z"/><path class="cls-44" d="M243,457.76s7.12,4.68,9.76,9.45,1.79,19.38,1.79,19.38-3,6.22-8.58,1.61l-3.39-21-2.93-3Z"/><rect class="cls-45" x="458.12" y="514.21" width="29.38" height="32.72"/><rect class="cls-46" x="447.11" y="546.93" width="43.89" height="47.27"/><rect class="cls-47" x="487.5" y="514.21" width="14.69" height="32.72"/><rect class="cls-48" x="491" y="546.93" width="20.25" height="47.27"/><path class="cls-49" d="M475.31,514.21s-9-9.75-13.35-2.82-2.69,16.91,2,16.55,5.91-4.87,3.58-9.47S469.15,514.08,475.31,514.21Z"/><path class="cls-50" d="M476.81,514.21s.88-4.43,6.57-3.77,5.25.95,9-2.33,10.21,5.76,9,9-1.24,5.32-5.54,1.68c-2.34-1.75-3.51,2.84-6.57-.08S488.91,513.88,476.81,514.21Z"/><rect class="cls-51" x="257.93" y="530.84" width="58.05" height="63.37"/><rect class="cls-52" x="315.98" y="530.84" width="27.17" height="63.37"/><path d="M204.42,584.14s-1.74,7.51-.63,8.53,13.26,2.46,16.42.72c1.19-1-1.18-3.4-4.74-4.59s-4-3.24-4-3.24S206.71,586.12,204.42,584.14Z"/><path d="M229.22,584.14s-1.74,7.51-.64,8.53,13.27,2.46,16.43.72c1.18-1-1.18-3.4-4.74-4.59s-4-3.24-4-3.24S231.51,586.12,229.22,584.14Z"/><rect class="cls-53" x="246.7" y="463.11" width="16.51" height="24.63" transform="translate(-35.55 20.85) rotate(-4.38)"/><rect class="cls-54" x="230.09" y="464.38" width="16.66" height="24.63" transform="translate(-35.69 19.59) rotate(-4.38)"/><path class="cls-55" d="M204.26,584.67s-1.74.87-.84-4.64,7.44-63.56,3.82-83.54c0,0,22.53,2.76,30.22-.52,0,0,4.41,32.21,4.23,46.68s-1.94,38.5-3.27,41.28-3.49,2.67-6.54,2.3-4.57.69-3.66-8.44,0-53.92-3.26-63.74c0,0-7.38,62.53-11.34,68.73C212,586.42,207.81,585.51,204.26,584.67Z"/><path class="cls-56" d="M216,454.93a6.71,6.71,0,0,1,3.5-.64v-4.16s-2.34-2.4-2.48-4.49c0,0-3-2.08-.69-3.1l2.53-4.82,6.71,1s3.94,8.16,1,11.28l.44,4.16,3.57.4,3,7.37-5.76,5.31L213,464.06Z"/><path class="cls-57" d="M198.19,457.12s2.19,7.74,7.56,10.65l-.37,28.2s21.67,4.94,33.87-.43l-.91-31,.91.45,3.73-7.19s-4-4.89-15.09-3.53c0,0,3.66,9.17-5,8.9-6.21-.19-4.55-7.79-3.36-8.84C219.52,454.29,207.21,452,198.19,457.12Z"/><path d="M216.89,443.56s-2.24-2.82.48-6.26c.81-.86-.66-.71-.6-1.72s.76-1.86,4.68-1,3.47-1.87,3.52-3.21,3.1-3,4.49-.38-2.68,7.84-2.68,7.84l.11,3.27-1.3-3.41-7-.34A5.52,5.52,0,0,1,216.89,443.56Z"/><rect class="cls-58" x="205.65" y="467.7" width="15.21" height="22.52" transform="translate(-35.94 17.68) rotate(-4.38)"/><rect class="cls-59" x="186.06" y="469.03" width="19.65" height="22.52" transform="translate(-36.09 16.35) rotate(-4.38)"/><path class="cls-60" d="M198.7,458.59l-9.82,8.31s4.22,24,8.24,25.78,5.28-1.34,5.28-1.34l-3.66-.21-.21-19.44,7.22-3.92Z"/><path class="cls-61" d="M409.51,488.79s-7.38,5.47-8.89,28c0,0,14.65,8.39,22.88,2.14,0,0,6.92-11.64-1.15-28.54A26.57,26.57,0,0,1,409.51,488.79Z"/><path class="cls-62" d="M399.74,585.58a6.54,6.54,0,0,1-2.9,4.08c-4.09,1.76-3.58,4.43-.74,4.54s7.33-3.35,7.22-7.27a2.73,2.73,0,0,0-1.16-2.55A1.67,1.67,0,0,0,399.74,585.58Z"/><path class="cls-62" d="M445.46,561.92a8.23,8.23,0,0,1,1.37,6.1c-.74,3.27,1.26,5.16,3.9,2.64s1.26-8.64-2.64-10.85S445.46,561.92,445.46,561.92Z"/><path class="cls-63" d="M400.07,584.85s-3.26-21.36-2-40.07,2.59-28,2.59-28l10.6,4s-8,46.81-8,64.65Z"/><path class="cls-64" d="M425.29,452.21c-2,3.91-2.29,6-2.67,10.84,0,0-2,6-4.71,5.54-1.75-.3-2-3.45-2-5.59a12.42,12.42,0,0,0,2.34-5.76s-2.76.75-2.82-3.44c0-3.26,4.39-4.45,4.32-9.33C419.72,444.47,427.3,448.31,425.29,452.21Z"/><path class="cls-65" d="M297.45,570.23c-7.22,1.39-5.85-11.35-5.85-11.35,4,4.64,4.84-1,4.84-1S304.67,568.83,297.45,570.23Z"/><path class="cls-66" d="M296.82,536.74c-.79,7.23-1.42,16.33-.38,21.16,0,0-.87,5.62-4.84,1,0,0-5.65-9.78-3.9-20.16s4.25-15.16,7.71-14.33C299.65,525.49,297.61,529.52,296.82,536.74Z"/><path class="cls-65" d="M305,570.23c7.22,1.39,5.85-11.35,5.85-11.35-4,4.64-4.84-1-4.84-1S297.76,568.83,305,570.23Z"/><path class="cls-67" d="M305.61,536.74c.79,7.23,1.42,16.33.38,21.16,0,0,.87,5.62,4.84,1,0,0,5.64-9.78,3.89-20.16s-4.25-15.16-7.71-14.33C302.78,525.49,304.82,529.52,305.61,536.74Z"/><path class="cls-68" d="M311.21,510.33s1.37,11.85,9.16,18.49c0,0-1.42,3.33,2.72,2.92,2.62-.26,4-.44,4.69-.53a.4.4,0,0,0,.28-.6c-.53-.89-2.07-2.64-6-2.74l-4.58-19Z"/><path d="M304.43,488.19l.5-3.89s-3.53-4.13.29-6.32,3.7,3.41,5.21,4.43,4.74,2.12,3.35,5.41-2,3.47-2,3.47a4.83,4.83,0,0,1-1.9-4.83l-4.05-1.33Z"/><path class="cls-69" d="M166.17,571s12.88-5.22,25.07,0c0,0-.18,19-5.4,23.07l-13.57.11S166,588.42,166.17,571Z"/><polygon class="cls-70" points="283.4 37.87 269.92 0 289.74 0 328.8 37.47 283.4 37.87"/><path class="cls-71" d="M536.72,57.45c.27,11.33-24,9.48-47.15,10.27l-1.47,0-1.07,0h-1.19c-29.46.71-139,1.17-165.85,1l-3,0c-.58,0-1.16,0-1.74,0C305,68.36,296,65.84,289.34,61.84a29.42,29.42,0,0,1-5.25-4,24.8,24.8,0,0,1-1.93-2.07,17.41,17.41,0,0,1-4.13-9.7C278,35.85,296,38,334.67,36.64c0,0,97.65-2,116.27-1.76,19.49-4,44.95-8.25,54.7,7.55,0,0,30.08,3.6,31.05,14.61A2.83,2.83,0,0,1,536.72,57.45Z"/><rect class="cls-72" x="333.69" y="44.35" width="51.7" height="6.12"/><rect class="cls-72" x="393.25" y="44.35" width="51.7" height="6.12"/><path class="cls-73" d="M498.69,42.33H476.77V37.44H493c3.12,0,6.74,2.19,6.74,4.89Z"/><rect class="cls-72" x="341.15" y="67.4" width="71.76" height="3.95" rx="1.89"/><path class="cls-74" d="M536.72,57.45c.27,11.33-24,9.48-47.15,10.27l-1.47,0-1.07,0h-1.19c-24.95.54-117.5.88-170.56.91C305,68.36,296,65.84,289.34,61.84c41.18-.44,169-.6,192.49-.6A359.53,359.53,0,0,0,536.69,57,2.83,2.83,0,0,1,536.72,57.45Z"/><rect class="cls-71" x="456.23" y="65.19" width="17.26" height="17.39"/><polygon class="cls-75" points="454.56 88.45 441.26 88.45 431.76 59.22 471.22 59.22 454.56 88.45"/><ellipse class="cls-76" cx="473.49" cy="74.01" rx="2.48" ry="8.82"/><path class="cls-77" d="M305.83,64.08H301.6a3.5,3.5,0,0,1-3.22-2.8l-5-18.42h23.82l-8.34,19A3.37,3.37,0,0,1,305.83,64.08Z"/><path class="cls-78" d="M255.8,250.64l.63.66c-1,.09-1.81.2-2.66.23-.19,0-.41-.22-.58-.38q-8-8.25-16-16.52l-12.63-13a2,2,0,0,1-.56-1.07q.9-.6,1.86-1.17a.82.82,0,0,0,.29.66Q241,235.32,255.8,250.64Z"/><path class="cls-78" d="M259.36,250.37c.09.18.17.37.28.62a20,20,0,0,1-2.11.18c-.16,0-.39-.29-.49-.5-1.7-3.48-3.39-7-5.08-10.47l-.45-.93q-5.22-10.8-10.45-21.61a5.86,5.86,0,0,0-.3-.55c.74-.57,1.5-1.1,2.28-1.6a1.09,1.09,0,0,0,0,1.13l10.74,22.19Z"/><path class="cls-79" d="M282.83,193.28a33.35,33.35,0,0,0-22.72-11.09c-1.14-.09-2.28-.1-3.42-.14l-4.15.4a3.53,3.53,0,0,1-.46.15A32,32,0,0,0,236,190.24c-9,8-12.87,18.06-12.05,30a1.26,1.26,0,0,0,0,.28q.9-.6,1.86-1.17a1.11,1.11,0,0,1,.05-.3A8.17,8.17,0,0,1,237.45,214a8,8,0,0,1,3.31,3.12c.74-.57,1.5-1.1,2.28-1.6h0l.06-.1a8.1,8.1,0,0,1,8.57-3.69,8,8,0,0,1,4.54,2.69,2.29,2.29,0,0,1,.3.5l2.49-.24a1.59,1.59,0,0,1,.16-.43,8,8,0,0,1,4.09-3.67,8.09,8.09,0,0,1,8.89,1.89c1,.34,1.9.72,2.82,1.15a8.16,8.16,0,0,1,3.74-4.23,7.86,7.86,0,0,1,2.86-.91,8.19,8.19,0,0,1,7.12,2.71c1.06.28,2.08.57,3.07.88A34.76,34.76,0,0,0,282.83,193.28Z"/><path class="cls-78" d="M259,214.67a2.19,2.19,0,0,0-.05.67q1.07,11.22,2.15,22.43l1.25,12.93-2.21.22L258.89,238q-1.08-11.22-2.18-22.42a2.06,2.06,0,0,0-.2-.7Z"/><path class="cls-78" d="M275,213.61a7.41,7.41,0,0,0-.25.8q-3,11.42-6,22.83-1.67,6.28-3.31,12.58c-.13.49-.32.71-.85.71s-1,.1-1.68.16c.08-.33.14-.6.21-.86q1.63-6.24,3.29-12.49,3.11-11.84,6.24-23.68a.9.9,0,0,0-.19-.94c-.09-.09-.17-.18-.26-.26C273.1,212.8,274,213.18,275,213.61Z"/><path class="cls-78" d="M292,213.79a2,2,0,0,1-.29,1.2q-11.25,17.35-22.53,34.71a.91.91,0,0,1-.78.47c-.73,0-1.46.13-2.31.21.17-.28.29-.48.42-.68q11.58-17.83,23.2-35.66a1.14,1.14,0,0,0,.05-1.32,8.25,8.25,0,0,0-1.06-1.54c1.06.28,2.08.57,3.07.88C291.84,212.63,291.92,213.21,292,213.79Z"/><rect class="cls-80" x="244.63" y="252.19" width="12.08" height="27.57" transform="translate(-24.39 25.31) rotate(-5.51)"/><rect class="cls-81" x="256.63" y="250.4" width="25.19" height="27.57" transform="translate(-24.14 27.09) rotate(-5.51)"/><path class="cls-78" d="M438.3,276l.5,1.09c-1.25-.3-2.34-.53-3.41-.86-.24-.07-.42-.45-.55-.72q-6.37-13.75-12.72-27.5-5-10.86-10-21.7a2.55,2.55,0,0,1-.24-1.57c.92-.24,1.87-.46,2.83-.66a1.14,1.14,0,0,0,.07,1Q426.55,250.49,438.3,276Z"/><path class="cls-78" d="M442.84,277.2c0,.26.06.52.09.89-1-.23-1.86-.4-2.71-.69-.2-.07-.36-.54-.4-.84q-.9-7.6-1.76-15.23l-.15-1.35q-1.82-15.71-3.62-31.42a7.94,7.94,0,0,0-.13-.83c1.17-.38,2.35-.71,3.53-1a1.44,1.44,0,0,0-.49,1.41q1.88,16.13,3.71,32.26Q441.89,268.81,442.84,277.2Z"/><path class="cls-82" d="M496.85,216.37A44,44,0,0,0,473.4,192.7c-1.37-.6-2.79-1.11-4.18-1.66l-5.35-1.3a4.47,4.47,0,0,1-.63,0A42.21,42.21,0,0,0,440,192.26c-14.63,6-23.86,16.87-28,32.09a2.45,2.45,0,0,0-.08.37c.92-.24,1.87-.46,2.83-.66a2.18,2.18,0,0,1,.2-.35,10.75,10.75,0,0,1,16.52-1.29,10.45,10.45,0,0,1,2.77,5.31c1.17-.38,2.35-.71,3.53-1h0l.12-.1a10.69,10.69,0,0,1,12.26-.87,10.56,10.56,0,0,1,4.48,5.32,3,3,0,0,1,.16.76l3.2.78a2.23,2.23,0,0,1,.38-.47,10.53,10.53,0,0,1,6.69-2.78,10.66,10.66,0,0,1,10.24,6.21,40,40,0,0,1,3,2.66,10.76,10.76,0,0,1,6.49-3.65,10.26,10.26,0,0,1,3.94.12,10.76,10.76,0,0,1,7.69,6.47c1.19.79,2.34,1.61,3.44,2.43A45.85,45.85,0,0,0,496.85,216.37Z"/><path class="cls-78" d="M457.91,232.63a2.79,2.79,0,0,0-.36.81q-3.54,14.42-7.06,28.83l-4.07,16.64-2.85-.7,4.06-16.57q3.53-14.43,7-28.84a3,3,0,0,0,0-1Z"/><path class="cls-78" d="M478.23,238.25a9.71,9.71,0,0,0-.67.88q-8.7,12.88-17.4,25.79-4.8,7.09-9.58,14.2c-.38.56-.71.76-1.37.53s-1.35-.34-2.17-.54l.64-1q4.76-7,9.52-14.1,9-13.38,18.06-26.76a1.17,1.17,0,0,0,.16-1.24,3.49,3.49,0,0,0-.2-.44A40,40,0,0,1,478.23,238.25Z"/><path class="cls-78" d="M499.32,245.86a2.65,2.65,0,0,1-.88,1.37q-21.54,16.71-43.11,33.39a1.18,1.18,0,0,1-1.18.24c-.93-.26-1.86-.46-3-.73l.81-.67q22.17-17.15,44.36-34.29a1.48,1.48,0,0,0,.64-1.61,10.91,10.91,0,0,0-.65-2.37c1.19.79,2.34,1.61,3.44,2.43C499.65,244.37,499.49,245.11,499.32,245.86Z"/><rect class="cls-83" x="417.3" y="274.67" width="15.92" height="36.33" transform="translate(81.73 -92.64) rotate(13.74)"/><rect class="cls-84" x="432.51" y="280.5" width="33.19" height="36.33" transform="translate(83.8 -98.13) rotate(13.74)"/></g></g></svg>