<svg xmlns="http://www.w3.org/2000/svg" xmlns:xlink="http://www.w3.org/1999/xlink" viewBox="0 0 754.77 428.26"><defs><style>.cls-1{opacity:0.12;fill:url(#linear-gradient);}.cls-2{fill:url(#linear-gradient-2);}.cls-3{opacity:0.2;}.cls-4{fill:url(#linear-gradient-3);}.cls-5{fill:url(#linear-gradient-4);}.cls-6{fill:url(#linear-gradient-5);}.cls-7{fill:url(#linear-gradient-6);}.cls-8{fill:url(#linear-gradient-7);}.cls-9{fill:url(#linear-gradient-8);}.cls-10{fill:url(#linear-gradient-9);}.cls-11{fill:url(#linear-gradient-10);}.cls-12{fill:#6d6e71;}.cls-13{fill:#a9a9a9;}.cls-14{fill:#606060;}.cls-15{fill:url(#linear-gradient-13);}.cls-16{fill:url(#linear-gradient-14);}.cls-17{fill:url(#linear-gradient-15);}.cls-18{fill:url(#linear-gradient-16);}.cls-19{fill:url(#linear-gradient-17);}.cls-20{fill:#3c274e;}.cls-21{fill:url(#linear-gradient-18);}.cls-22{fill:url(#linear-gradient-19);}.cls-23{fill:url(#linear-gradient-20);}.cls-24{fill:url(#linear-gradient-21);}.cls-25{fill:url(#linear-gradient-22);}.cls-26{fill:url(#linear-gradient-23);}.cls-27{fill:url(#linear-gradient-24);}.cls-28{fill:url(#linear-gradient-25);}.cls-29{fill:none;stroke:#fff;stroke-miterlimit:10;opacity:0.5;}</style><linearGradient id="linear-gradient" y1="214.13" x2="754.77" y2="214.13" gradientUnits="userSpaceOnUse"><stop offset="0" stop-color="#3841f2"/><stop offset="0.99" stop-color="#468af5"/></linearGradient><linearGradient id="linear-gradient-2" x1="597.01" y1="251.2" x2="684.52" y2="251.2" gradientUnits="userSpaceOnUse"><stop offset="0" stop-color="#ffd100"/><stop offset="1" stop-color="#efde78"/></linearGradient><linearGradient id="linear-gradient-3" x1="661.98" y1="288.03" x2="735.99" y2="288.03" gradientUnits="userSpaceOnUse"><stop offset="0" stop-color="#dbe25b"/><stop offset="1" stop-color="#45b549"/></linearGradient><linearGradient id="linear-gradient-4" x1="17.91" y1="255.01" x2="159.2" y2="255.01" xlink:href="#linear-gradient-2"/><linearGradient id="linear-gradient-5" x1="94.05" y1="163.26" x2="214.32" y2="163.26" xlink:href="#linear-gradient-3"/><linearGradient id="linear-gradient-6" x1="375.71" y1="7145.35" x2="375.71" y2="-1244.19" gradientUnits="userSpaceOnUse"><stop offset="0" stop-color="#b2b2b2"/><stop offset="1" stop-color="#e5e5e5"/></linearGradient><linearGradient id="linear-gradient-7" x1="621.34" y1="395.13" x2="490.97" y2="395.13" xlink:href="#linear-gradient-6"/><linearGradient id="linear-gradient-8" x1="229.7" y1="388.25" x2="126.25" y2="402.74" xlink:href="#linear-gradient-6"/><linearGradient id="linear-gradient-9" x1="490.95" y1="247.81" x2="214.33" y2="247.81" xlink:href="#linear-gradient-6"/><linearGradient id="linear-gradient-10" x1="490.95" y1="260.38" x2="214.33" y2="260.38" xlink:href="#linear-gradient-6"/><linearGradient id="linear-gradient-13" x1="-1826.45" y1="365.62" x2="-1814.88" y2="365.62" gradientTransform="translate(1723.49 1227.36) rotate(43.57)" gradientUnits="userSpaceOnUse"><stop offset="0" stop-color="#52c134"/><stop offset="1" stop-color="#065d00"/></linearGradient><linearGradient id="linear-gradient-14" x1="162.35" y1="221.4" x2="179.03" y2="221.4" gradientUnits="userSpaceOnUse"><stop offset="0" stop-color="#e2c290"/><stop offset="0.99" stop-color="#de6678"/></linearGradient><linearGradient id="linear-gradient-15" x1="123.64" y1="312.48" x2="126.86" y2="312.48" xlink:href="#linear-gradient-14"/><linearGradient id="linear-gradient-16" x1="138.66" y1="312.48" x2="141.88" y2="312.48" xlink:href="#linear-gradient-14"/><linearGradient id="linear-gradient-17" x1="120.62" y1="206.67" x2="135.19" y2="206.67" xlink:href="#linear-gradient-14"/><linearGradient id="linear-gradient-18" x1="111.01" y1="250.7" x2="122.92" y2="250.7" xlink:href="#linear-gradient-14"/><linearGradient id="linear-gradient-19" x1="119.91" y1="281.3" x2="130.59" y2="281.3" xlink:href="#linear-gradient-2"/><linearGradient id="linear-gradient-20" x1="126.26" y1="282.3" x2="142.87" y2="282.3" xlink:href="#linear-gradient-2"/><linearGradient id="linear-gradient-21" x1="105.46" y1="231.23" x2="116.55" y2="231.23" xlink:href="#linear-gradient-3"/><linearGradient id="linear-gradient-22" x1="116.63" y1="198.95" x2="134.57" y2="198.95" xlink:href="#linear-gradient-3"/><linearGradient id="linear-gradient-23" x1="27.3" y1="137.58" x2="96.64" y2="137.58" gradientTransform="translate(143.11 45.54) rotate(1.8)" xlink:href="#linear-gradient-2"/><linearGradient id="linear-gradient-24" x1="-1848.22" y1="319.5" x2="-1790.23" y2="319.5" gradientTransform="translate(2004.36 -114.47)" xlink:href="#linear-gradient-13"/><linearGradient id="linear-gradient-25" x1="114.63" y1="233.51" x2="166.86" y2="233.51" xlink:href="#linear-gradient-3"/></defs><title>4</title><g id="Layer_2" data-name="Layer 2"><g id="Layer_7" data-name="Layer 7"><path class="cls-1" d="M350.44,425s-213.61,27.84-310-78.31S14.74-85.61,307.19,21.2c56,19.6,91.19,111.44,262.13,70.71s198.59,103.92,180.8,156.8S669.47,400.92,350.44,425Z"/><path class="cls-2" d="M646.11,364.14s-38.68,4.51-46.53-32S603.77,277.77,610,249s2.61-58.55-7.84-78.94,12-45.33,40.78-23.53c16.11,15.13,11.5,48.62,15.16,64.83s28.43,60.13,26.24,93.06S686.37,364.25,646.11,364.14Z"/><g class="cls-3"><path d="M635.56,394.08c2.22-10.07,3.93-20.32,5.37-30.57s2.56-20.57,3.4-30.91a495.75,495.75,0,0,0,1.21-62.15c-.43-10.36-1.3-20.7-2.53-31s-2.9-20.55-5-30.7l-1.65-7.61-1.89-7.54c-.59-2.53-1.35-5-2.07-7.5l-1.08-3.74-.54-1.87-.61-1.85-2.45-7.38c-.81-2.47-1.8-4.87-2.69-7.3l-1.38-3.64c-.46-1.22-1-2.4-1.5-3.59l-3.06-7.16,3.12,7.13c.5,1.2,1.06,2.37,1.53,3.58l1.4,3.63c.92,2.43,1.92,4.83,2.76,7.28l2.51,7.38.62,1.84.56,1.87,1.11,3.73c.74,2.49,1.52,5,2.13,7.49l2,7.54,1.7,7.6c2.19,10.16,4,20.4,5.26,30.71s2.27,20.67,2.78,31a496.56,496.56,0,0,1-.72,62.32q-1.12,15.55-3.16,31c-1.36,10.32-3,20.57-5.15,30.79a1,1,0,0,1-2-.41h0Z"/></g><path class="cls-4" d="M663.12,312.36a81.56,81.56,0,0,1,13.62-33.21c6.38-9.28,16.51-27.29,18.44-50.32,2.86-34.12,33.52-30.45,38-8.78s2.86,61.72,0,83.39,2,53.55-31.89,67C674,381.33,657.35,348.45,663.12,312.36Z"/><g class="cls-3"><path d="M685.31,394c4.51-14.3,8.39-28.87,11.88-43.49s6.47-29.38,9-44.21c.61-3.71,1.33-7.4,1.85-11.13L709.73,284c.55-3.73.94-7.47,1.42-11.2l.69-5.6c.22-1.87.37-3.75.55-5.62l1.07-11.23.72-11.27.36-5.63.17-5.65.33-11.28-.2,11.29-.11,5.64-.3,5.64-.6,11.28-.94,11.26c-.17,1.88-.29,3.76-.49,5.63l-.63,5.61c-.43,3.74-.79,7.49-1.29,11.23L709,295.3c-.49,3.74-1.16,7.44-1.73,11.17q-3.62,22.3-8.57,44.38c-3.33,14.7-7,29.3-11.44,43.77a1,1,0,0,1-1.91-.58h0Z"/></g><path class="cls-5" d="M121.81,297.42c-8.68-18.92,11.83-25.64,13.79-54.36S95.54,228.89,89.72,202c-8.36-38.69,25.79-32.65,20-64.31C100.81,108.27,66.25,108,54.34,112c-7.8,1.49-45.09,24.15-34.57,57.63,12.27,36.43,36,13.85,40.83,41s-36.19,33.22-24.85,54.19C49.51,290,84.83,287.43,84.83,308.25c0,17.57-25.26,16.41-31.49,35.66a25.9,25.9,0,0,0,2,20c20.55,38.95,63.91,34.8,63.92,34.8l-1.69,1.15s42-27,41.63-66.16C158.88,313.38,130.5,316.34,121.81,297.42Z"/><g class="cls-3"><path d="M131.08,378.08l.24.46a.39.39,0,0,1,.05.13c-.08,0-.07-.06-.1-.08l-.14-.23-.52-.9-1-1.82-2-3.68c-1.27-2.46-2.51-4.95-3.73-7.44q-3.66-7.49-7.09-15.07Q110,334.24,104,318.7c-8.09-20.7-15.07-41.83-21.16-63.2s-11.14-43.05-15-64.93q-2.89-16.42-5-32.94c-1.3-11-2.42-22.08-3.06-33.16,1.32,11,2.73,22,4.52,32.95s3.63,21.86,5.83,32.72,4.55,21.67,7.2,32.42,5.39,21.48,8.43,32.12c6,21.32,12.88,42.38,20.43,63.21q5.66,15.62,12,31,3.14,7.69,6.47,15.32,1.67,3.8,3.41,7.58l1.76,3.77.9,1.87.47.93.12.22s.08.09,0,.1l-.05-.11Z"/></g><path class="cls-6" d="M181.29,209c-6.43-19.8,14.73-24.09,20-52.39s-38.14-18.73-40.79-46.17C156.68,71,189.9,81,187.78,48.86c-5.39-30.19-39.69-34.45-52-31.94-7.93.57-47.59,18.75-41,53.23,8,37.61,34.14,17.93,35.79,45.45s-39.79,28.8-31,50.93c10.73,26.71,46.11,28.23,43.7,48.91-2,17.44-27,13.36-35.42,31.76a25.87,25.87,0,0,0-.33,20.07c15.88,41.07,57.61,42.8,57.62,42.8v.13s44.85-22,49-60.87C216.25,229.12,187.72,228.77,181.29,209Z"/><g class="cls-3"><path d="M177.7,292.15c-1.94-5.21-3.7-10.5-5.33-15.82-.85-2.65-1.63-5.33-2.41-8s-1.59-5.34-2.3-8c-1.43-5.38-2.87-10.76-4.14-16.19l-2-8.12-1.79-8.16c-4.74-21.78-8.42-43.79-11.16-65.9-.4-2.76-.65-5.54-1-8.31l-.86-8.31-.87-8.31c-.28-2.78-.45-5.56-.66-8.33L144.06,112c-.31-5.57-.49-11.14-.7-16.7-.57-11.13-.44-22.27-.56-33.41V57.72c0-1.39.08-2.78.11-4.18l.27-8.34q.26-8.36.6-16.69.15,8.35.2,16.69l.07,8.34c0,1.39,0,2.78.05,4.17l.16,4.17c.42,11.11.55,22.23,1.4,33.31l1,16.63,1.42,16.61c.25,2.76.42,5.53.71,8.29l.9,8.29.9,8.28c.3,2.76.57,5.52,1,8.27l2.16,16.52c.74,5.5,1.69,11,2.5,16.47S158,205.51,159,211l1.45,8.2,1.58,8.18,1.59,8.18,1.75,8.15c1.12,5.44,2.45,10.83,3.72,16.24C171.63,270.75,174.46,281.51,177.7,292.15Z"/></g><path class="cls-7" d="M632.33,398.92V388.48l-.9-.22c-1.75-.41-3.51-.77-5.28-1l-.69-.1-.3,0-.31,0-.3,0-.28,0h-.17l-.32,0-.37,0h-.53l.16,0c-.06-.44-.11-.88-.16-1.32s-.07-.57-.1-.85a4.48,4.48,0,0,0-.08-.64s0-.1,0-.12h0l-.64-5.38a1.39,1.39,0,0,0,0-.15.12.12,0,0,0-.07-.07H622c-.06-.53-.12-1.06-.19-1.6l-.3-2.52c0-.33-.08-.66-.11-1a1.93,1.93,0,0,0-.06-.49h0l-.58-4.88a2.15,2.15,0,0,0-.08-.62v-.11l-.09-.76-.51-4.31a1.51,1.51,0,0,0-.06-.52h0a.17.17,0,0,1,0-.07l-.65-5.46h0a.2.2,0,0,1,0-.07l-.54-4.57s0-.08,0-.12a3.66,3.66,0,0,0-.09-.81h0a.13.13,0,0,0-.05-.09h0c0-.29-.07-.59-.1-.88s-.07-.58-.11-.87l0-.28,0-.29-.12-.95c0-.31-.07-.62-.11-.94s-.07-.62-.11-.93v0a1.65,1.65,0,0,0,0-.32v-.09c0-.22,0-.43-.08-.65l-.15-1.22c-.13-1.16-.27-2.31-.41-3.47,0-.08,0-.2,0-.25a0,0,0,0,0,0,0h0l-.06-.55c-.11-.87-.21-1.73-.31-2.6l-.06-.51c-.06-.43-.11-.86-.16-1.29v-.05a1.49,1.49,0,0,0-.07-.59h0v0l-.63-5.33a.54.54,0,0,0,0-.23h0c-.18-1.48-.35-3-.53-4.45l-.09-.73a1.42,1.42,0,0,0,0-.36.18.18,0,0,0-.07-.08h.06c-.12-1-.24-2.08-.37-3.12,0-.38-.09-.75-.13-1.12a10.08,10.08,0,0,0-.15-1.23s0-.08,0-.13l-.21-1.73c-.13-1.13-.26-2.25-.4-3.38a1.67,1.67,0,0,0-.05-.39h0v-.09c0-.2,0-.4-.07-.59-.19-1.58-.37-3.17-.56-4.75v0a.86.86,0,0,0,0-.16.13.13,0,0,1,0-.06l0,0h0v-.06c-.14-1.14-.27-2.29-.41-3.44l-.08-.7-.1-.85v0a1.32,1.32,0,0,0-.06-.5l0,0h0l-.51-4.32c-.05-.38-.09-.77-.14-1.15v0a.28.28,0,0,1,0-.09l0,0h0c-.11-1-.23-1.95-.34-2.92-.08-.68-.16-1.36-.25-2v0a2,2,0,0,0-.06-.55h0a.22.22,0,0,0,0-.08l0,0c-.06-.51-.13-1-.19-1.54l-.45-3.86a1.1,1.1,0,0,1,0-.18l0,0h0c0-.14,0-.29-.05-.43-.18-1.49-.35-3-.53-4.47a2.73,2.73,0,0,0-.07-.64h0a.1.1,0,0,0,0-.07l0,0c-.07-.54-.13-1.07-.19-1.6-.1-.85-.2-1.7-.31-2.55,0-.33-.07-.67-.12-1a1.38,1.38,0,0,0,0-.45h0l-.61-5.1a1.6,1.6,0,0,0,0-.49h0c-.07-.53-.13-1.06-.19-1.59l-.3-2.52-.12-1a1.61,1.61,0,0,0-.06-.49h0c0-.36-.09-.72-.13-1.08l-.45-3.79c0-.19-.05-.38-.07-.56a.26.26,0,0,0-.09-.21l.07,0c0-.23,0-.45-.08-.68-.18-1.51-.36-3-.53-4.53a1.67,1.67,0,0,0,0-.39c-.07-.55-.13-1.1-.2-1.65l-.3-2.51-.12-1a1.27,1.27,0,0,0-.05-.43l-.59-5a3,3,0,0,0-.06-.51.3.3,0,0,0-.08-.17l.07,0-.65-5.44a.29.29,0,0,0-.13-.23l.11.07c-.06-.54-.13-1.1-.19-1.64-.1-.86-.2-1.72-.31-2.57,0-.33-.07-.66-.11-1a1.67,1.67,0,0,0-.05-.39h0l-.6-5a2.32,2.32,0,0,0-.06-.46v0a.29.29,0,0,0-.08-.14l.07.05-.62-5.2a1.72,1.72,0,0,0,0-.39l-.21-1.7-.3-2.57-.12-1a1.42,1.42,0,0,0,0-.36l-.6-5.05a3.71,3.71,0,0,0-.05-.48h0c0-.07,0,0,0-.1l0,0-.21-1.76c-.1-.87-.21-1.74-.31-2.61,0-.31-.08-.62-.11-.93s0-.28-.14-.39l.1.09-.27-2.3c-.11-.94-.22-1.89-.34-2.83a1.42,1.42,0,0,0,0-.36v0l-.06-.13s0,0,0,.05c0-.23-.06-.46-.08-.69l-.57-4.76a.42.42,0,0,0-.12-.25l.1.1-.21-1.81c-.11-.9-.22-1.8-.32-2.7,0-.28-.07-.57-.1-.86a1.52,1.52,0,0,0,0-.21h0c-.2-1.63-.39-3.26-.58-4.89l0-.21a2.12,2.12,0,0,0,0-.44.29.29,0,0,0-.06-.11l0,.06c-.13-1.09-.25-2.18-.38-3.27,0-.2,0-.41-.07-.62-.06-.52-.09-1.07-.19-1.59h0a.47.47,0,0,0-.06-.15.12.12,0,0,1,0,.05l-.21-1.78c-.11-.9-.22-1.81-.32-2.72,0-.29-.07-.58-.11-.87a.57.57,0,0,0-.11-.31l.09.08-.09-.7c0-.41-.1-.81-.14-1.22l-.39-3.24a2.58,2.58,0,0,0,0-.4v0c-.05-.46-.11-.92-.16-1.38-.15-1.2-.29-2.4-.43-3.6a2.79,2.79,0,0,0-.07-.58l0-.05a0,0,0,0,0,0,0c0-.36-.09-.72-.13-1.08-.07-.6-.15-1.2-.21-1.8-.05-.4-.06-.84-.15-1.24a1.63,1.63,0,0,0-.38-.57l-.91-1.14q-1-1.23-2.16-2.37V146l0,0v0h0a.05.05,0,0,0,0,0h-.12l0,0,0,0v0l-1.06,1.21-.48.55-.13.13a2.71,2.71,0,0,0-.36.41c0-1.2,0-2.39,0-3.58v-.21a1.61,1.61,0,0,0,0-.31c0-.13,0-.15-.14-.23l-.06-.05-.52-.43-1.16-.89,0,0-.06,0-.48-.35-.27-.18-.85-.58h0c-.94-.61-1.9-1.17-2.89-1.69l-.35-.18-.25-.12-.07,0-.62-.3c-.88-.42-1.78-.79-2.71-1.13l-1.1-.38-.72-.23-.61-.18-.42-.12-.53-.14-.52-.13-.45-.11h-.05l-.6-.13-.58-.12-.74-.14-.61-.1v-.16l-.12,0h-.08a.05.05,0,0,0,0,0h0l-5,4.66-2,1.87a.47.47,0,0,0-.15.43v5.49a.55.55,0,0,0,0,.18l-1.19,0-.91,0c0-.25,0-.51-.07-.76l-.33-3.27c0-.46-.09-.92-.14-1.38,0-.08,0-.45-.09-.49h0a1.94,1.94,0,0,1,0-.24l-.42-4.18c0-.51-.1-1-.16-1.52a6,6,0,0,0-.11-1.12s0-.08,0-.1-.37,0-.44,0l-1.41.07c-1.06.06-2.12.14-3.17.23-3.92.35-7.83.82-11.72,1.37-1,.13-1.94.28-2.9.44l-1.54.27a11.78,11.78,0,0,0-1.46.29c-.17.06-.1,0-.13.13a1.76,1.76,0,0,0,0,.33c0,.38-.07.76-.11,1.14l-.42,4.71s0,.07,0,.09a2.52,2.52,0,0,0,0,.48c0,.25,0,.51-.07.77l-.18,2c-.08.9-.16,1.79-.24,2.7h0l-1.29.29q-1.24.3-2.46.63l-.41.08a.37.37,0,0,0,0-.11v-5.82l-.08,0L530,144l-3.6-2-.06,0a.44.44,0,0,0-.33-.11.21.21,0,0,0-.15.12.2.2,0,0,0,0,.11c-1.49.63-3,1.34-4.4,2.09l-1.11.6c-.1.06-.31.13-.35.22v0a50,50,0,0,0-4.62,2.86c-.68.46-1.34.93-2,1.42-.34.25-.68.5-1,.76l-.45.35c-.06.05-.23.14-.27.21s-.29.18-.33.29a1.13,1.13,0,0,0,0,.26l0,1,.06,1.6h-3a1.82,1.82,0,0,0-.33,0c-.13,0-.21.14-.31.23-.27.26-.33.25-.33.57v-.26q-1.64,1.55-3.16,3.2c-.87.94-1.71,1.91-2.52,2.9-.21.25-.41.5-.61.76s-.43.41-.49.61a1.61,1.61,0,0,0,0,.38v3.22l0,0a.13.13,0,0,0,0,.05,1.22,1.22,0,0,0,0,.33v4.89a1.61,1.61,0,0,0,0,.49v.41a6.88,6.88,0,0,0-.52.46c-.28.26-.55.53-.81.8l-.41.41-.53.54,0,0a.37.37,0,0,0-.12.17,1.54,1.54,0,0,0,0,.61c0,.08,0,.16,0,.22v7.16a.62.62,0,0,1,0,.12,1.39,1.39,0,0,0,0,.55H498l-5.31,0c-.08,0-.07,0-.08,0s0-.06,0-.12a1.17,1.17,0,0,1,0-.27s0-.06,0-.09h0l0-.13c-.07-.33-.13-.66-.2-1v0a.59.59,0,0,1,0-.13,1.26,1.26,0,0,0-.08-.42s0,0,0,0h0c0-.12-.05-.23-.07-.35-.27-1.32-.54-2.63-.8-3.94-.2-.94-.39-1.89-.58-2.83-.07-.33-.14-.66-.2-1,0,0,0,0,0-.06a1.33,1.33,0,0,0-.11-.52l0,0s0,0-.05,0H467.19v-.26l-.25.22-.38.3-.3.24-.29.24-.72.58-.83.67-.21.17h-.1v.08l0,0v8a1.15,1.15,0,0,1,0,.18,1.47,1.47,0,0,0,0,.47v.07l-6.23-.44a.72.72,0,0,0,0-.17c0-.15,0-.3-.08-.45s-.09-.55-.14-.82c0-.09,0-.33-.08-.37h0l-.06-.37-.69-3.92c-.27-1.48-.53-3-.79-4.45H432.83c-.23,0-.42,0-.49.14h-.07a.29.29,0,0,0,0-.14l-.14.14h0v0l-2,2-.09.09,0,0h-.15v8.57a.14.14,0,0,0,0,.11h-7.2a.08.08,0,0,1-.07,0,0,0,0,0,0,0,0s0,0,0-.06h0a1.56,1.56,0,0,1-.05-.44v-.05c0-.13,0-.25,0-.38s0-.25,0-.38l-.06-.58v-.19a.43.43,0,0,1,0-.05.07.07,0,0,0,0-.05s0,0,0,0h0l-.47-4.29c-.13-1.16-.25-2.32-.38-3.48l-.09-.81v0s0-.07,0-.1v0h0c-.06-.05-.35,0-.42,0H397a2.93,2.93,0,0,0-.42,0h-.06s0,0-.05,0l0,0v-.24l-.27.36a1,1,0,0,0-.08.11l-.27.38-.26.36-.51.73-.07.08a1.65,1.65,0,0,0-.2.31.73.73,0,0,0-.09.35v7.6c0,.2,0,.4,0,.59v.21a.31.31,0,0,0,0,.09h-6.74l-.17,0h0a.48.48,0,0,1-.26,0h0a0,0,0,0,1,0,0h0a.2.2,0,0,1,0-.05.36.36,0,0,1,0-.11v-.05s0-.08,0-.12v-.17s0-.07,0-.11c0-.47-.07-1-.15-1.41h0a.28.28,0,0,0,0-.13,0,0,0,0,0,0,0v0l0,0h0l0-.28c-.14-1.33-.29-2.67-.44-4-.06-.53-.11-1.07-.17-1.61s-.14-1.3-.22-1.95c0-.14,0-.28,0-.42l0-.26c0-.06,0-.14,0-.21h-10.5a.08.08,0,0,0-.07,0h0a.11.11,0,0,0-.08,0h-10.5c0,.07,0,.15,0,.21l0,.26c0,.14,0,.28,0,.42-.08.65-.15,1.3-.22,1.95s-.11,1.08-.17,1.61c-.15,1.34-.3,2.68-.44,4l0,.28h0l0,0s0,0,0,0a0,0,0,0,0,0,0,.5.5,0,0,0,0,.13h0a10.74,10.74,0,0,0-.12,1.14l0,.27v0s0,.06,0,.09,0,.21,0,.34a.36.36,0,0,1,0,.11.2.2,0,0,1,0,.05h0a0,0,0,0,1,0,0h0a.53.53,0,0,1-.27,0l-.18,0h-6.74a.31.31,0,0,0,0-.09v-.21c0-.19,0-.39,0-.59V174a.8.8,0,0,0-.09-.36,1.43,1.43,0,0,0-.2-.3l-.58-.81-.26-.36-.27-.38a1,1,0,0,0-.08-.11l-.27-.36v.24l0,0s0,0-.05,0h-.06a2.93,2.93,0,0,0-.42,0h-24c-.07,0-.36-.05-.42,0h0v0a.34.34,0,0,1,0,.1v0l-.09.81c-.13,1.16-.25,2.32-.38,3.48l-.46,4.29h0v0a.07.07,0,0,0,0,.05v.05a.57.57,0,0,0,0,.12v.07l-.06.58c0,.13,0,.26-.05.38s0,.25,0,.38v.05a1.56,1.56,0,0,1-.05.44h0s0,.06,0,.06h0a.08.08,0,0,1-.07,0h-7.19a.37.37,0,0,0,0-.11v-8.57h-.15l0,0-.15-.16c-.63-.65-1.27-1.32-1.91-2v0h0l-.14-.14a.29.29,0,0,0,0,.14h-.07c-.07-.17-.26-.14-.49-.14H295.41l-.78,4.45c-.23,1.31-.47,2.61-.7,3.92l-.06.37h0c-.06,0-.07.28-.08.37-.05.27-.09.55-.14.82s-.06.3-.08.45,0,.1,0,.17l-6.23.44a0,0,0,0,0,0,0l0-.06a1.77,1.77,0,0,0,0-.46,1.15,1.15,0,0,1,0-.18v-8l0,0v-.09h-.09a1.81,1.81,0,0,1-.23-.18l-.82-.66-.72-.58-.29-.24-.31-.25-.34-.27-.27-.24v.26H261.16s0,0-.05,0,0,0,0,0v0a.3.3,0,0,0,0,.1c0,.14-.05.35-.07.46-.07.33-.14.66-.2,1-.2.94-.39,1.89-.59,2.83-.26,1.31-.53,2.62-.8,3.94,0,.12-.05.23-.07.35h0s0,0,0,0a1.26,1.26,0,0,0-.08.42.59.59,0,0,1,0,.13v0c-.06.33-.13.66-.2,1l0,.13h0s0,.06,0,.09a.68.68,0,0,0,0,.14.61.61,0,0,1,0,.13.17.17,0,0,1,0,.12s0,0-.08,0l-5.31,0h-.17a1.69,1.69,0,0,0,0-.55s0-.1,0-.12v-7.16c0-.06,0-.14,0-.22a1.54,1.54,0,0,0,0-.61.37.37,0,0,0-.12-.17l-.56-.56-.41-.41c-.26-.27-.53-.54-.81-.8a6.88,6.88,0,0,0-.52-.46V171a1.61,1.61,0,0,0,0-.49v-4.89a1.22,1.22,0,0,0,0-.33.13.13,0,0,0,0-.05l0,0V162a1.61,1.61,0,0,0,0-.38c-.06-.2-.35-.44-.48-.61l-.62-.76c-.81-1-1.65-2-2.52-2.9-1-1.1-2.07-2.17-3.16-3.2v.26c0-.32-.06-.31-.33-.57-.1-.09-.18-.2-.31-.23a1.71,1.71,0,0,0-.32,0h-3l.06-1.6,0-1a1.13,1.13,0,0,0,0-.26c0-.11-.24-.22-.33-.29s-.21-.16-.27-.21l-.45-.35c-.33-.26-.67-.51-1-.76-.66-.49-1.32-1-2-1.42a50,50,0,0,0-4.62-2.86v0c0-.09-.25-.16-.35-.22l-1.11-.6c-1.44-.75-2.91-1.46-4.4-2.09a.2.2,0,0,0,0-.11.21.21,0,0,0-.15-.12.46.46,0,0,0-.33.11l-.06,0-3.6,2-2.89,1.61-.07,0v5.82a.37.37,0,0,0,0,.11l-.41-.08c-.81-.22-1.63-.43-2.45-.63l-1.29-.29h0c-.09-.91-.17-1.8-.25-2.7l-.18-2c0-.26,0-.52-.07-.77a2.52,2.52,0,0,0,0-.48s0-.07,0-.09l-.42-4.71c0-.38-.07-.76-.11-1.14a1.76,1.76,0,0,0,0-.33c0-.13,0-.07-.12-.13a12.32,12.32,0,0,0-1.47-.29l-1.53-.27c-1-.16-1.94-.31-2.91-.44-3.89-.55-7.8-1-11.72-1.37-1-.09-2.11-.17-3.16-.23l-1.42-.07c-.07,0-.4-.05-.44,0s0,.08,0,.1a6,6,0,0,0-.11,1.12c-.05.51-.11,1-.16,1.52-.14,1.4-.27,2.79-.42,4.18a1.94,1.94,0,0,1,0,.24h0c-.11,0-.08.41-.09.49,0,.46-.09.92-.14,1.38-.11,1.09-.22,2.18-.32,3.27,0,.25-.06.51-.08.76l-.91,0-1.19,0a.55.55,0,0,0,0-.18v-5.49a.47.47,0,0,0-.15-.43l-2-1.87-5-4.66h0l0,0h-.08l-.13,0v.16l-.61.1-.74.14-.58.12-.59.13h-.06l-.45.11-.52.13-.53.14-.42.12-.61.18-.72.23-1.1.38c-.92.34-1.83.71-2.71,1.13l-.62.3-.07,0-.25.12-.35.18c-1,.52-1.95,1.08-2.89,1.69h0l-.85.58-.27.18-.47.35-.07,0,0,0-1.16.89-.52.43-.06.05c-.1.08-.13.1-.14.23a1.61,1.61,0,0,0,0,.31v.21c0,1.18,0,2.38,0,3.57a3.33,3.33,0,0,0-.36-.4l-.13-.13-.48-.55-1.05-1.21,0,0,0,0,0,0h0a.09.09,0,0,0-.1,0,.05.05,0,0,0-.05,0l0,0,0,0v.22q-1.14,1.14-2.16,2.37l-.91,1.14a1.6,1.6,0,0,0-.37.57,8.74,8.74,0,0,0-.15,1.24c-.07.6-.15,1.2-.22,1.8,0,.36-.08.72-.13,1.08a0,0,0,0,0,0,0l0,.05a2.79,2.79,0,0,0-.07.58c-.14,1.2-.28,2.4-.43,3.6,0,.46-.11.92-.16,1.38h0s0,0,0,0a1.75,1.75,0,0,0,0,.4l-.39,3.24c0,.41-.09.81-.14,1.22l-.09.7.09-.08a.57.57,0,0,0-.11.31c0,.29-.07.58-.1.87l-.33,2.72-.21,1.78a.12.12,0,0,1,0-.05.47.47,0,0,0-.06.15h0c-.1.52-.12,1.07-.18,1.59,0,.21,0,.42-.08.62-.12,1.09-.25,2.18-.38,3.27l0-.06a.29.29,0,0,0-.06.11,3.12,3.12,0,0,0,0,.44l0,.21c-.19,1.63-.38,3.26-.58,4.89h0l0,0a1.49,1.49,0,0,0,0,.21c0,.29-.07.58-.11.86-.1.9-.21,1.8-.32,2.7l-.21,1.81a.94.94,0,0,0,.1-.1.48.48,0,0,0-.12.25l-.57,4.76c0,.23-.05.46-.08.69,0,0,0,0,0-.05l-.06.13v0a1.42,1.42,0,0,0,0,.36c-.11.94-.22,1.89-.34,2.83l-.27,2.3.1-.09c-.11.11-.11.16-.14.39s-.07.62-.11.93c-.1.87-.2,1.74-.31,2.61l-.21,1.76.05,0c-.05.07,0,0-.05.1a2.52,2.52,0,0,0-.06.48l-.6,5.05a1.42,1.42,0,0,0,0,.36l-.12,1-.3,2.57-.21,1.7a1.72,1.72,0,0,0,0,.39l-.62,5.2.07-.05a.64.64,0,0,0-.08.14v0a3.4,3.4,0,0,0-.06.46l-.6,5h0a1.67,1.67,0,0,0-.05.39c0,.33-.07.66-.11,1-.1.85-.21,1.71-.31,2.57-.06.54-.13,1.1-.19,1.64l.11-.07a.29.29,0,0,0-.13.23l-.65,5.44.07,0a.38.38,0,0,0-.08.17,4.43,4.43,0,0,0-.06.51l-.59,5a1.27,1.27,0,0,0,0,.43l-.12,1-.3,2.51c-.06.55-.13,1.1-.2,1.65a1.26,1.26,0,0,0,0,.39l-.54,4.53c0,.23,0,.45-.08.68l.07,0a.26.26,0,0,0-.09.21c0,.18-.05.37-.07.56l-.45,3.79c0,.36-.08.72-.13,1.08h0a2,2,0,0,0-.06.49l-.12,1c-.09.84-.2,1.68-.3,2.52l-.18,1.59h0a1.6,1.6,0,0,0-.05.49l-.61,5.1h0a1.38,1.38,0,0,0-.05.45l-.12,1c-.1.85-.21,1.7-.31,2.55-.06.53-.12,1.06-.19,1.6l.05,0s0,0-.05.07h0a3.39,3.39,0,0,0-.07.64c-.18,1.49-.35,3-.53,4.47,0,.14,0,.29-.05.43h0l0,0a1.1,1.1,0,0,0,0,.18c-.16,1.28-.31,2.57-.46,3.86-.06.51-.13,1-.19,1.54l0,0a.22.22,0,0,0,0,.08,1.66,1.66,0,0,0-.07.55v0c-.08.67-.17,1.35-.25,2-.11,1-.23,1.95-.34,2.92h0l0,0a.28.28,0,0,1,0,.09v0c-.05.38-.09.77-.14,1.15l-.51,4.32h0l0,0a1.56,1.56,0,0,0-.06.5v0l-.11.85-.08.7-.12,1-.28,2.4v.05h0l0,0a.13.13,0,0,1,0,.06.86.86,0,0,0,0,.16v0c-.18,1.58-.37,3.17-.56,4.75,0,.19-.05.39-.07.59a.28.28,0,0,0,0,.09h0a1.67,1.67,0,0,0,0,.39l-.4,3.38-.21,1.73v.13a10.08,10.08,0,0,0-.15,1.23c0,.37-.08.74-.13,1.12-.12,1-.25,2.08-.37,3.12h.06a.27.27,0,0,0-.07.08,1.42,1.42,0,0,0,0,.36l-.09.73c-.17,1.49-.35,3-.53,4.45h0a.55.55,0,0,0,0,.23c-.22,1.77-.43,3.55-.64,5.33v0h0a1.7,1.7,0,0,0-.07.59v.05c-.05.43-.1.86-.16,1.29,0,.17,0,.34-.06.51l-.3,2.6c0,.18,0,.37-.07.55h0a0,0,0,0,0,0,0s0,.17,0,.25c-.14,1.16-.28,2.31-.41,3.47l-.15,1.22c0,.22-.05.43-.07.65v.09a1.65,1.65,0,0,0,0,.32v0c0,.31-.08.62-.11.93l0,.45-.06.49L133,348l-.07.57c0,.29-.07.58-.11.87s-.07.59-.1.88h.05s0,0-.06.09h0a3.66,3.66,0,0,0-.09.81s0,.08,0,.12c-.18,1.52-.35,3-.54,4.57v.09s0,.06,0,.08q-.31,2.69-.64,5.37v0a.07.07,0,0,1,0,.05h0a1.81,1.81,0,0,0-.06.52l-.51,4.31-.09.76a.28.28,0,0,0,0,.09v0a2.41,2.41,0,0,0-.08.65h0c-.11.95-.22,1.9-.34,2.85l-.23,2h0a1.57,1.57,0,0,0-.05.49l-.12,1-.3,2.52c-.07.54-.13,1.07-.19,1.6h.06a.12.12,0,0,0-.07.07,1.39,1.39,0,0,0,0,.15l-.64,5.38h0s0,.1,0,.12a4.48,4.48,0,0,0-.08.64c0,.28-.07.56-.1.85s-.1.88-.16,1.32l.16,0H128l-.37,0-.31,0h-.18l-.28,0-.3,0-.3,0-.3,0-.7.1c-1.77.27-3.53.63-5.27,1l-.91.22V399c0,.07,0,.07.17.09l.11,0h0l1.17.14,2.69.32,1.23.14c1.7.19,3.41.36,5.12.53l1.32.13h0l1.21.11h.05l2.15.18.4,0,1.83.15.44,0,.92.08,2,.15,2.32.16,2.86.19,2.59.15h.23l2.36.13,2.14.11,1.18,0,1.86.09,2.64.11,1.18,0,2,.07,2,.07,1.61,0,1.87.05h.41l2.88.07h.54l1.68,0,1.56,0,2.47,0h.17l2,0h3.53c1.91,0,3.81,0,5.71,0l5.72,0,4,0h.09l1.61,0,3.8-.07,1.92,0,5.71-.14h.27l2.12-.07,3.33-.11,1.8-.06,2.54-.09,1.38,0h.17l2.43-.1,3.11-.13c1.9-.08,3.81-.17,5.71-.27l.89,0,4-.21.79-.05c1.9-.1,3.8-.22,5.7-.34l2-.12h0l3.68-.24,7.5-.52,2.11-.16.73-.06,2.06-.16.79-.07c.36,0,.72-.06,1.07-.09l.41,0,1.18-.1h.11l.68-.06h.07l.09,0s0,0,0-.14V388.48h0l-.07-.06a.71.71,0,0,0-.15-.08,3.59,3.59,0,0,0-.41-.11l-.05,0-.1,0-.39-.08-.55-.1-.55-.09-.12,0c-1.47-.22-2.95-.38-4.43-.53l-2-.19h0l-1.05-.09-1-.09-.18,0-.24,0-1.68-.13a.17.17,0,0,0,0-.09c0-.09,0-.22,0-.25,0-.83,0-1.67,0-2.5h0s0-.09,0-.14c0-1.18,0-2.35,0-3.52l0-1.52c0-.1,0-.12-.05-.16h.05l-.07-5.17v-.09a.1.1,0,0,0,0-.08h0l-.06-4.43a3.74,3.74,0,0,0,0-.82c0-.05,0-.06,0-.09h0l-.07-5.1s0-.19,0-.23l-.06-4.48c0-.16,0-.31,0-.47a1.14,1.14,0,0,0,0-.32s0,0,0-.05,0,0-.07,0h.09l-.06-4c0-.32,0-.63,0-.95a1.22,1.22,0,0,0,0-.27s0-.05,0-.06,0,0-.05,0H254l-.07-4.76a1.77,1.77,0,0,0,0-.51s0-.06,0-.07h0l-.06-4.67c0-.22,0-.44,0-.67h-.06s.06,0,.06,0,0-.09,0-.16l-.07-5.13h-.06s0,0,.06-.11a3.51,3.51,0,0,0,0-.56c0-.31,0-.62,0-.93,0-1.25,0-2.5-.05-3.74a.4.4,0,0,0,0-.11l-.07-5.23h0a.43.43,0,0,0,0-.11,3.85,3.85,0,0,0,0-.59c0-.31,0-.61,0-.92,0-1.24,0-2.47,0-3.71h0s0,0,0-.06v0a2.17,2.17,0,0,0,0-.44l-.06-4.81h0c.05,0,0-.17,0-.23,0-.54,0-1.08,0-1.61,0-1.17,0-2.33,0-3.49h0s0,0,0,0,0-.51,0-.62l0-4.07c0-.11.06-.53,0-.61s0,0-.06,0h.06c0-1.33,0-2.66-.05-4,0-.32,0-.64,0-1,0-.07,0-.33,0-.38h0l-.06-4.76a2.55,2.55,0,0,0,0-.48h0c0-.07,0-.09-.06-.09h.06c0-1.31,0-2.62-.05-3.93,0-.33,0-.66,0-1,0-.06,0-.37,0-.41l-.06-4.72a2.75,2.75,0,0,0,0-.5v0c0-.07,0-.09-.05-.09h.05l-.06-4c0-.33,0-.66,0-1,0-.08,0-.31,0-.35h0l-.07-4.72a2.9,2.9,0,0,0,0-.51h0c0-.07,0-.09,0-.1h0c0-1.24,0-2.47-.05-3.71a4.09,4.09,0,0,0,0-.7.34.34,0,0,0-.05-.14l.05.06,0-2.71c0-.35,0-.69,0-1l0-.41c0-.15,0-.29-.05-.43s-.05-.34-.08-.52,0-.15-.05-.23l-.06-.26a8.56,8.56,0,0,1,.23,1.12,5.29,5.29,0,0,1,.05.56v0c0,.11,0,.23,0,.35l.67-.28c1-.4,1.95-.78,2.94-1.15s1.83-.66,2.75-1q3.52-1.2,7.11-2.22c2.59-.74,5.19-1.42,7.8-2.06s5.5-1.31,8.27-1.9,5.78-1.2,8.68-1.75,5.92-1.08,8.88-1.58,6-1,9-1.44,6-.88,8.95-1.29,5.87-.78,8.81-1.15,5.67-.69,8.51-1l8-.88.59-.06,5.32-.53c.51-.06,1-.1,1.54-.15l3.77-.36,3-.28,2.32-.2,3.58-.31,1.73-.14,3.17-.25,2.15-.16,1.62-.12,2.53-.18.74,0a1.2,1.2,0,0,0,.38,0,0,0,0,1,1,.08,0,1.22,1.22,0,0,0,.38,0l.74,0,2.53.18,1.62.12,2.15.16,3.17.25,1.73.14,3.58.31,2.33.2,3,.28,3.77.36c.51.05,1,.09,1.54.15l5.32.53.59.06,8,.88c2.84.33,5.67.67,8.51,1s5.88.75,8.81,1.15,6,.84,8.95,1.29,6,.94,9,1.44,5.93,1,8.88,1.58,5.8,1.13,8.68,1.75,5.53,1.22,8.27,1.9,5.21,1.32,7.8,2.06c2.39.68,4.77,1.42,7.12,2.22.92.32,1.83.64,2.74,1s2,.75,2.94,1.15l.68.28c0-.12,0-.24,0-.35v0a5.29,5.29,0,0,1,.05-.56,7.15,7.15,0,0,1,.22-1.12c0,.09,0,.18-.05.26s0,.16-.05.23-.06.35-.08.52,0,.28-.05.43l0,.41c0,.35,0,.69,0,1l0,2.71.05-.06a.34.34,0,0,0-.05.14,4.09,4.09,0,0,0,0,.7c0,1.24,0,2.47-.05,3.71h0s0,0,0,.1h0a2.9,2.9,0,0,0,0,.51l-.06,4.72h0s0,.27,0,.35c0,.33,0,.66,0,1l-.06,4h.05s0,0-.05.09v0a2.78,2.78,0,0,0,0,.5L498.3,288s0,.35,0,.41c0,.33,0,.66,0,1,0,1.31,0,2.62,0,3.93h.06s0,0-.06.09h0a2.55,2.55,0,0,0,0,.48l-.06,4.76h0c0,.05,0,.31,0,.38,0,.32,0,.64,0,1,0,1.33,0,2.66-.05,4h.06s0,0-.06,0,0,.5,0,.61l-.05,4.07c0,.11-.08.54,0,.62s0,0,0,0h0c0,1.16,0,2.32,0,3.49,0,.53,0,1.07,0,1.61,0,.06,0,.2,0,.23h0l-.07,4.81a2.17,2.17,0,0,0,0,.44v0l0,.06h0c0,1.24,0,2.47-.05,3.71,0,.31,0,.61,0,.92a2.91,2.91,0,0,0,0,.59.24.24,0,0,0,0,.11h0l-.07,5.23a.4.4,0,0,0,0,.11c0,1.24,0,2.49-.05,3.74,0,.31,0,.62,0,.93a3.51,3.51,0,0,0,0,.56c0,.07,0,.1.06.11h-.06l-.07,5.13c0,.07,0,.12,0,.16a.06.06,0,0,0,.06,0h-.06c0,.23,0,.45,0,.67l-.06,4.67h.05s0,0-.05.07a1.77,1.77,0,0,0,0,.51l-.06,4.76h.06s-.05,0-.05,0a.21.21,0,0,1,0,.06.83.83,0,0,0,0,.27c0,.32,0,.63,0,.95l-.06,4h.09s-.07,0-.07,0,0,0,0,.05a1.14,1.14,0,0,0,0,.32c0,.16,0,.31,0,.47l-.06,4.48a.89.89,0,0,0,0,.23l-.07,5.1h0s0,0,0,.09a3.74,3.74,0,0,0,0,.82l-.06,4.43h0a.1.1,0,0,0,0,.08v.09l-.07,5.17h.05c-.07,0-.05.06-.05.16,0,.51,0,1,0,1.52,0,1.17-.06,2.34-.05,3.52v.08a.07.07,0,0,0,0,.06h0c0,.83,0,1.67,0,2.5,0,0,0,.16,0,.25a.17.17,0,0,0,0,.09l-1.68.13-.24,0-.18,0-1,.09-1,.09h0l-2,.19c-1.48.15-3,.31-4.43.53l-.11,0-.56.09-.55.1-.39.08-.09,0-.06,0a3.59,3.59,0,0,0-.41.11.71.71,0,0,0-.15.08l-.08.06V399c0,.1,0,.12,0,.14l.09,0h.08l.68.06h.1l1.18.1.41,0,1.07.09.79.07,2.06.16.73.06,2.11.16,7.5.52,3.68.24h0l2,.12c1.9.12,3.8.24,5.7.34l.79.05,4,.21.89,0,5.71.27,3.11.13,2.43.1h.17l1.38,0,2.54.09,1.8.06,3.34.11,2.11.07h.27l5.72.14,1.91,0,3.8.07,1.61,0h.1l4,0,5.72,0c1.9,0,3.8,0,5.71,0h3.53l2,0H575l2.47,0,1.56,0,1.68,0h.54l2.89-.07h.41l1.86-.05,1.61,0,2-.07,2-.07,1.18,0,2.64-.11,1.87-.09,1.17,0,2.14-.11,2.37-.13h.22l2.59-.15,2.86-.19,2.32-.16,2-.15.92-.08.44,0,1.83-.15.4,0,2.15-.18h0l1.21-.11h0l1.32-.13c1.71-.17,3.42-.34,5.12-.53l1.23-.14,2.69-.32,1.17-.14h0l.11,0C632.37,399.1,632.33,399.11,632.33,398.92Zm-380-137.47,0-.09a.24.24,0,0,0,0-.08l.06.2A0,0,0,0,1,252.38,261.45Zm246.71-.17a.31.31,0,0,1,0,.08l0,.09s0,0,0,0A1.29,1.29,0,0,1,499.09,261.28Z"/><path class="cls-8" d="M632.16,398.69l-.11,0h0l-1.17.14-2.69.32-1.23.14c-1.7.19-3.41.36-5.12.53l-1.32.13h0l-1.21.11h0l-2.15.18-.4,0-1.83.15-.44,0-.92.08-2,.15-2.32.16-2.86.19-2.59.15h-.22l-2.37.13-2.14.11-1.17,0-1.87.09-2.64.11-1.18,0-2,.07-2,.07-1.61,0-1.86.05h-.41l-2.89.07h-.54l-1.68,0-1.56,0-2.47,0h-.17l-2,0h-3.53c-1.91,0-3.81,0-5.71,0l-5.72,0-4,0h-.1l-1.61,0-3.8-.07-1.91,0-5.72-.14h-.27l-2.11-.07-3.34-.11-1.8-.06-2.54-.09-1.38,0h-.17l-2.43-.1-3.11-.13-5.71-.27-.89,0-4-.21-.79-.05c-1.9-.1-3.8-.22-5.7-.34l-2-.12h0l-3.68-.24-7.5-.52-2.11-.16-.73-.06-2.06-.16-.79-.07-1.07-.09-.41,0-1.18-.1h-.1l-.68-.06h-.08l-.09,0s0,0,0-.14V388h0l.43,0,1.31.09,1,.07,1.13.07,3,.18,3.77.2,1.45.07.4,0,.41,0,.25,0,1.15.05,1.38.07.89,0h.34l.87,0c1.59.08,3.18.14,4.77.2,1.26.06,2.53.1,3.8.14l.8,0h.13l.91,0h.56l.42,0h.49l.54,0h0l.54,0,.88,0h0l.85,0,1.31,0h.45c1.73.06,3.46.1,5.19.14l1.79,0h.08l2.14.05h.71l.56,0h.36l3.5.07,2.15,0h1l3.72.05h1.1l3,0,1.78,0H565.6l3,0h.85l3.48,0h1.31l3,0,2.64,0h.53l1.5,0,2.44,0h2.08l4.48-.1h.25c1.79-.05,3.57-.09,5.35-.15h.28l2.45-.07,2.61-.08.56,0h.53l2.34-.08h.25l2-.07h.69l.54,0,1.31-.05,1.11,0,2.44-.1.41,0h.23l3.21-.14.6,0,1.15-.06h0l.57,0,1,0,.39,0,.4,0,4.68-.23,1.68-.09.69,0h0l3.64-.19v10.44C632.33,398.67,632.37,398.66,632.16,398.69Z"/><path class="cls-9" d="M267.47,388v10.48c0,.1,0,.12,0,.14l-.09,0h-.07l-.68.06h-.11l-1.18.1-.41,0c-.35,0-.71.07-1.07.09l-.79.07-2.06.16-.73.06-2.11.16-7.5.52-3.68.24h0l-2,.12c-1.9.12-3.8.24-5.7.34l-.79.05-4,.21-.89,0c-1.9.1-3.81.19-5.71.27l-3.11.13-2.43.1h-.17l-1.38,0-2.54.09-1.8.06-3.33.11-2.12.07h-.27L205,402,203,402l-3.8.07-1.61,0h-.09l-4,0-5.72,0c-1.9,0-3.8,0-5.71,0h-3.53l-2,0h-.17l-2.47,0-1.56,0-1.68,0h-.54l-2.88-.07h-.41l-1.87-.05-1.61,0-2-.07-2-.07-1.18,0-2.64-.11-1.86-.09-1.18,0-2.14-.11-2.36-.13h-.23l-2.59-.15-2.86-.19-2.32-.16-2-.15-.92-.08-.44,0-1.83-.15-.4,0-2.15-.18h-.05l-1.21-.11h0l-1.32-.13c-1.71-.17-3.42-.34-5.12-.53l-1.23-.14-2.69-.32-1.17-.14h0l-.11,0c-.15,0-.17,0-.17-.09V388l3.64.19h0l.7,0,1.68.09,4.68.23.39,0,.4,0,1,0,.57,0h0l1.16.06.59,0,3.21.14h.24l.4,0,2.44.1,1.11,0,1.32.05.53,0h.69l2,.07h.26l2.33.08h.53l.56,0,2.62.08,2.44.07H155c1.78.06,3.56.1,5.35.15h.25l4.48.1h2.08l2.45,0,1.49,0h.54l2.63,0,3,0h1.31l3.48,0h.85l3,0h20.26l1.78,0c1,0,2,0,3,0H212l3.73-.05h1l2.16,0,3.48-.07h.37l.55,0H224l2.14-.05h.08l1.79,0c1.74,0,3.47-.08,5.19-.14h.45l1.31,0,.85,0h0l.88,0,.54,0h0l.54,0h.49l.42,0h.56l.91,0h.13c1.53-.05,3.07-.1,4.6-.17s3.18-.12,4.77-.2l.87,0h.34l.89,0,1.38-.07,1.15-.05.26,0,.4,0,.4,0,1.45-.07,3.77-.2,3-.18,1.13-.07,1-.07,1.31-.09.44,0Z"/><path class="cls-10" d="M515.83,253.75c-.73,0-1.45,0-2.18,0l-.6,0h-.14l-.51,0h-.15a3,3,0,0,0-.42,0l-.2,0c-.46.05-.92.11-1.37.19l-.68.11-.36.07-.37.07h-.07l-.2,0-.34.08-.39.09-.12,0-.43.1-.43.12-.95.29-.45.16h0l-.28.11-.37.15-.37.16a5.51,5.51,0,0,0-.61.28h0l-.09.05-.22.11-.21.11a10.7,10.7,0,0,0-1.13.7,2.92,2.92,0,0,0-.29.23,7.33,7.33,0,0,0-1.63,1.61,6.28,6.28,0,0,0-.38.52,4.48,4.48,0,0,0-.35.6l0,0-.15.31-.1.24-.09.23,0,.08a7.52,7.52,0,0,0-.4,1.7,5.29,5.29,0,0,0-.05.56v0c0,.11,0,.23,0,.35l-.68-.28c-1-.4-1.95-.78-2.94-1.15s-1.82-.66-2.74-1c-2.35-.8-4.73-1.54-7.12-2.22-2.59-.74-5.18-1.42-7.8-2.06s-5.5-1.31-8.27-1.9-5.78-1.2-8.68-1.75-5.92-1.08-8.88-1.58-6-1-9-1.44-6-.88-8.95-1.29-5.87-.78-8.81-1.15-5.67-.69-8.51-1l-8-.88-.59-.06-5.32-.53c-.51-.06-1-.1-1.54-.15l-3.77-.36-3-.28-2.33-.2-3.58-.31-1.73-.14-3.17-.25-2.15-.16-1.62-.12-2.53-.18-.74,0a1.22,1.22,0,0,1-.38,0,.09.09,0,0,1,0-.06V232.14h.07a1.65,1.65,0,0,0,.55,0l.46,0,.46,0,.92,0,.62,0,2.23.11c.21,0,.41,0,.61,0q1.74.07,3.48.18l1.23.07,1,0,.31,0,2.93.17.55,0,.54,0,.6,0,.59,0,.46,0,1.78.12,1.89.12,1.29.09,2.22.16,1.8.13,5.32.41,1,.09,3,.24.3,0,1,.08,2.21.2.26,0h0l2.42.21.39,0,2,.19,1.3.13h.2l1.79.18.46,0,1.39.15,3.35.34h.12l.84.09.63.07,2.49.27,1.35.16c1.78.2,3.55.4,5.32.62l1.39.16,3.87.49h.05c1.31.16,2.62.34,3.93.52l1.39.19.64.08,4.67.67,3.44.51,1.88.3.15,0,4.05.65,1.11.19.89.15,4.43.77.34.07,1.69.31,2,.38.39.07.67.13.19,0c1.41.27,2.81.55,4.22.84l1.1.23.8.17,1.73.37.27.06,1.52.34,1,.22,1.18.27,1,.24,2,.47,1.16.29c1.13.27,2.27.56,3.4.86l1.91.51,2.31.64,1.81.53.14,0,1.06.31.79.24,1,.31,1,.31,2,.65.55.19.06,0,1.36.46,1,.35.91.33.07,0,1.41.53,1.16.45.65.26Z"/><path class="cls-11" d="M515.83,253.75l-.21.1-.07,0-.42.19-.65.3c-.53.25-1.06.52-1.58.81a1.4,1.4,0,0,0-.29.16.8.8,0,0,0-.22.12,41.48,41.48,0,0,0-3.81,2.35,45.45,45.45,0,0,0-4.32,3.4c-.29.24-.57.49-.85.76a1.49,1.49,0,0,0-.14.12c-.52.47-1,1-1.51,1.44l-.26.26-.38.39-.32.33-.06.06c-.19.19-.37.39-.55.59l-.08.08c-.29.31-.56.62-.84.94l-.22.26-.42.52-.05.06,0-2.71c0-.35,0-.69,0-1l0-.41c0-.15,0-.29.05-.43s0-.34.08-.52,0-.15.05-.23.05-.21.07-.32.07-.24.11-.35l0-.09a.31.31,0,0,0,0-.08l0-.08.09-.23.1-.24.15-.31,0,0a4.48,4.48,0,0,1,.35-.6,6.28,6.28,0,0,1,.38-.52,8.51,8.51,0,0,1,1.36-1.39l.27-.22.29-.2h0a11.92,11.92,0,0,1,1.13-.71l.43-.23.09-.05h0l.61-.28.37-.16.37-.15.28-.11h0l.45-.16.95-.29.43-.12.43-.1.12,0,.39-.09.34-.08.2,0h.07l.37-.07.36-.07.68-.11c.45-.08.91-.14,1.37-.19l.2,0,.42,0h.15l.51,0h.14l.6,0C514.38,253.74,515.1,253.73,515.83,253.75Z"/><path class="cls-10" d="M375.71,232.14v10.77a.09.09,0,0,1,0,.06,1.2,1.2,0,0,1-.38,0l-.74,0-2.53.18-1.62.12-2.15.16-3.17.25-1.73.14-3.58.31-2.32.2-3,.28-3.77.36c-.51.05-1,.09-1.54.15l-5.32.53-.59.06-8,.88c-2.84.33-5.67.67-8.51,1s-5.88.75-8.81,1.15-6,.84-8.95,1.29-6,.94-9,1.44-5.92,1-8.88,1.58-5.8,1.13-8.68,1.75-5.53,1.22-8.27,1.9-5.21,1.32-7.8,2.06q-3.58,1-7.11,2.22c-.92.32-1.84.64-2.75,1s-2,.75-2.94,1.15l-.67.28c0-.12,0-.24,0-.35v0a5.29,5.29,0,0,0-.05-.56,7.52,7.52,0,0,0-.4-1.7l0-.08-.09-.23-.1-.24L252,260l0,0a5.82,5.82,0,0,0-.34-.6c-.12-.18-.25-.35-.38-.52a8.62,8.62,0,0,0-1.92-1.84h0a10.7,10.7,0,0,0-1.13-.7l-.21-.11-.22-.11-.09-.05-.63-.29-.38-.16-.37-.15-.28-.11h0l-.45-.16-.95-.29-.43-.12-.42-.1-.13,0-.39-.09-.34-.08-.2,0h-.06l-.38-.07-.35-.07-.68-.11c-.46-.08-.92-.14-1.38-.19l-.2,0a3,3,0,0,0-.42,0H239l-.51,0h-.14l-.6,0c-.73,0-1.45,0-2.18,0l.64-.26.65-.26,1.16-.45,1.41-.53.07,0,.91-.33,1-.35,1.36-.46.06,0,.55-.19,2-.65,1-.31,1-.31.79-.24,1.06-.31.15,0,1.8-.53,2.31-.64,1.91-.51c1.13-.3,2.27-.59,3.4-.86l1.16-.29,2-.47,1-.24,1.17-.27,1-.22,1.52-.34.27-.06,1.73-.37.8-.17,1.11-.23c1.4-.29,2.8-.57,4.21-.84l.2,0,.66-.13.39-.07,2-.38,1.7-.31L280,242l4.44-.77.88-.15,1.12-.19,4-.65.15,0,1.88-.3,3.44-.51,4.68-.67.63-.08,1.4-.19c1.3-.18,2.61-.36,3.92-.52h.05l3.87-.49,1.39-.16c1.77-.22,3.55-.42,5.32-.62l1.35-.16,2.5-.27.62-.07.84-.09h.12l3.35-.34,1.39-.15.46,0,1.79-.18h.2l1.3-.13,2-.19.39,0,2.42-.21h.05l.25,0,2.21-.2,1-.08.29,0,3-.24,1-.09,5.32-.41,1.8-.13,2.22-.16,1.29-.09,1.89-.12,1.78-.12.46,0,.59,0,.6,0,.54,0,.55,0,2.93-.17.31,0,1,0,1.23-.07q1.74-.11,3.48-.18l.61,0,2.23-.11.62,0,.92,0,.46,0,.46,0a1.72,1.72,0,0,0,.56,0Z"/><path class="cls-11" d="M252.84,267l-.05-.06-.42-.52-.22-.26c-.27-.32-.55-.63-.84-.94l-.07-.08c-.19-.2-.37-.4-.56-.59l-.06-.06-.32-.33-.38-.39-.26-.26c-.49-.49-1-1-1.51-1.44-.33-.3-.66-.6-1-.88a45.45,45.45,0,0,0-4.32-3.4,41.48,41.48,0,0,0-3.81-2.35.8.8,0,0,0-.22-.12,1.4,1.4,0,0,0-.29-.16c-.52-.29-1.05-.56-1.58-.81l-.65-.3-.42-.19-.07,0-.21-.1c.73,0,1.45,0,2.18,0l.6,0h.14l.51,0h.15l.42,0,.2,0c.46.05.92.11,1.38.19l.68.11.35.07.38.07h.06l.2,0,.34.08.39.09.13,0,.42.1.43.12.95.29.45.16h0l.28.11.37.15.38.16.63.29.09.05.43.23a11.92,11.92,0,0,1,1.13.71h0c.19.13.37.27.55.42a9,9,0,0,1,1.37,1.39c.13.17.26.34.38.52a5.82,5.82,0,0,1,.34.6l0,0,.15.31.1.24.09.23,0,.08a.24.24,0,0,1,0,.08l0,.09a1.42,1.42,0,0,1,.07.22l0,.13c0,.11,0,.22.07.32s0,.16.05.23.06.35.08.52,0,.28.05.43l0,.41c0,.35,0,.69,0,1Z"/><path class="cls-12" d="M392.2,205.48l-.06,0,0,0-.39.68.91.72.42-.72Zm1.09-3.85-.53,1,.56,1.14a1,1,0,0,1-.52.14,2.79,2.79,0,0,1-.42,0h-1.15v.88h1.25l.19,0a2.83,2.83,0,0,0,.4-.17,1.34,1.34,0,0,0,.31-.27l.14-.18.05-.09,0-.09a1.66,1.66,0,0,0,.22-.89A2.64,2.64,0,0,0,393.29,201.63Z"/><path class="cls-12" d="M393.4,196.46v.23a.15.15,0,0,1,0,.12c0,.06-.1.13-.22.2l-1.59.91a.68.68,0,0,1,.07-.33,1.37,1.37,0,0,1,.29-.26l1.49-.87Z"/><path class="cls-12" d="M391.41,204.85h-.59a.3.3,0,0,1-.2-.08c-.13-.07-.25-.3-.37-.68l0-.26v-.33l0-6.32a.3.3,0,0,0,0-.13l-.07-.08-.1-.09-.08-.11,0-.1.44-.74.05,0,.09.07.12.11.1.14.09.14,0,.2v6.76a3.08,3.08,0,0,0,0,.33.92.92,0,0,0,.12.16l.19.07.3,0v.87Z"/><path class="cls-12" d="M385.56,205.49l-.42.71.93.72.42-.72Zm3.13-3.32a4.09,4.09,0,0,0-.45-1l-.23-.3-.14.3-.17.36.05.16.16.31.21.34.14.29c0,.24-.39.51-1.2.8l-.6.23-.12,0-.47.15a11.77,11.77,0,0,1-1.32.37l-.37.1-.26.05-.29.07-.18,0-.62.09h-.78l-.3,0-.48-.08-.52-.2a2.78,2.78,0,0,1-.42-.2,2.11,2.11,0,0,1-.91-2,.61.61,0,0,0-.21.43l0,.28v.23l0,.28.06.27a2.19,2.19,0,0,0,.67,1,3.66,3.66,0,0,0,1.45.64.71.71,0,0,0,.18,0l.17,0h.62a7.26,7.26,0,0,0,2.17-.31c.54-.15.95-.28,1.22-.38l.61-.23,0,0,.67-.28.23-.1.26-.11.3-.16.26-.15.24-.21a2.51,2.51,0,0,0,.24-.26,1.08,1.08,0,0,0,.11-.32,1.55,1.55,0,0,0,.05-.34A1.91,1.91,0,0,0,388.69,202.17Z"/><path class="cls-12" d="M381.56,200.61l-.54,0-.19,0-.69-.08-.69-.17-1.64-.47-.65-.17-.36-.08h-.2l-.21,0h-.89l-.53.13-.86.85,1,0,.1-.07.16-.07a.6.6,0,0,1,.22,0h.31l.45,0,.53.11.65.21.77.31-.15.06-.2.07h0l-.19.06-.59.15-.3.07-.74.14-.43.07-.35.05-.31,0s-.07,0-.09,0h-.34l-.39.06h-1v.89h1.28l.62,0,.54-.07.15,0a7.69,7.69,0,0,0,1.54-.36l1.39-.47,1-.35.22,0,.22,0,.18,0h.81l.35,0,.29,0,.19,0,.27-.27.59-.6Zm-4.61-3.7-.21-.16-.09.16-.33.55.94.72.41-.72Z"/><path class="cls-12" d="M372.07,203.35l-.32.57-.81-.62-.44.73.93.7.35-.59.81.65.41-.72Zm1.2-1.45a.87.87,0,0,1-.7-.29,1,1,0,0,1-.09-.17,1.07,1.07,0,0,1-.05-.21l0,0a.27.27,0,0,1,0-.08.49.49,0,0,1,0-.14v-.2a1.07,1.07,0,0,0-.32.16l-.16.12-.13.14,0,0-.14.16-.14.15-.3.21a2.36,2.36,0,0,1-.41.12l-.15,0h-.48v.89h.58a1.08,1.08,0,0,0,.48-.16,4.11,4.11,0,0,0,.61-.53,1.32,1.32,0,0,0,1,.69h.56v-.87Z"/><path class="cls-12" d="M368.38,203.7l-.42.72.92.72.43-.72Zm1.74-1.79a.9.9,0,0,1-.74-.3,1,1,0,0,1-.09-.17,1.07,1.07,0,0,1-.05-.21l0,0a.27.27,0,0,1,0-.08.49.49,0,0,1,0-.14v-.2l-.13,0-.12.07-.24.17-.09.1,0,0-.15.16-.1.11a.76.76,0,0,1-.23.17l-.31.14-.08.05h-.08l-.22,0-.14,0h-.39v.89h.65a1,1,0,0,0,.47-.16,4.1,4.1,0,0,0,.62-.53,1.32,1.32,0,0,0,1,.69h.57v-.87Z"/><path class="cls-12" d="M367.08,202.78l-.87,0-.25,0a.73.73,0,0,1,.18.22.86.86,0,0,1,0,.28,1,1,0,0,1-.14.51,2,2,0,0,1-.5.55c-.14.12-.38.29-.7.53l-.41.24-.48.25a8,8,0,0,1-.94.44l-.47.2-.46.18-.81.29-.71.21-.22.06-.31.06-1.73.25-.7.08.32-.11.46-.14.37-.14.2-.06.36-.14,1.91-.73,1.32-.57c.23-.1.65-.3,1.26-.62a7.18,7.18,0,0,0,1.81-1.2l-.72-1.32.48-1.25.06.1,0,.11,0,.09.05.11.14.2.05.08.09.08a2.08,2.08,0,0,0,.46.26l.35.07.42,0v.87Z"/><path class="cls-12" d="M363.63,197.43a.59.59,0,0,0-1,.06,1.33,1.33,0,0,0-.2.71,1.49,1.49,0,0,0,.06.31.48.48,0,0,0,.53.35.89.89,0,0,0,.83-.9A1.08,1.08,0,0,0,363.63,197.43Zm-.58.89c-.32,0-.48-.12-.48-.33s.12-.36.33-.36a.64.64,0,0,1,.38.18c.15.11.22.21.22.28S363.32,198.32,363.05,198.32Z"/><path class="cls-13" d="M591.32,146v9.38c-.55-.44-1.08-.84-1.61-1.21l-.13-.08h0a1.66,1.66,0,0,1-.35-.25v0a.2.2,0,0,1,0-.08,2,2,0,0,1,0-.35v-4.78a.39.39,0,0,1,0-.18l.06-.1h0a5,5,0,0,1,.49-.54l.48-.55Z"/><path class="cls-13" d="M591.44,145.93s0,0,0,0h0a.05.05,0,0,0,0,0h-.12l0,0,0,0v0l-1.06,1.21-.48.55-.13.13a2.71,2.71,0,0,0-.36.41l0,0v0l-.06.1s0,0,0,0a.39.39,0,0,0-.05.2v4.89a.67.67,0,0,0,0,.2v.08a.5.5,0,0,0,.05.13l0,0h0a1.47,1.47,0,0,0,.39.29l.12.07c.52.35,1.06.76,1.61,1.2l.24.19V146S591.46,145.94,591.44,145.93Zm-2.12,7.83-.11.07.11-.11a.6.6,0,0,1,0-.19v-4.91a.3.3,0,0,1,0-.1l0-.08s0,0,0,0,.22-.25.34-.38l.14-.14.49-.56.8-.92v8.66c-.47-.37-.94-.71-1.39-1l-.14-.09a1.23,1.23,0,0,1-.31-.22Z"/><path class="cls-13" d="M571.61,136.07V148.8l-4.83-.13-2-.06c-.27,0-.32.07-.32-.18V143c0-.19,0-.27.1-.4,1-1,2-1.88,3-2.82l3.92-3.65Z"/><path class="cls-13" d="M571.64,135.92h-.08l0,0a0,0,0,0,0,0,0h0l-5,4.66-2,1.87a.47.47,0,0,0-.15.43v5.49a.55.55,0,0,0,0,.18.21.21,0,0,0,.06.1.28.28,0,0,0,.25.06h.13l1.43,0h0l4.21.11h0l1.29,0v-13Zm-.18,12.73-6.64-.19h-.17v-5.55c0-.11,0-.13.06-.19.66-.63,1.33-1.25,2-1.87l4.75-4.44Z"/><path class="cls-13" d="M532.78,145.71v5.65c0,.22,0,.25-.17.32l-1.26.42-2.82,1c-.86.28-1.72.59-2.58.86V142.39a1.21,1.21,0,0,1,0-.38c.07-.12.23,0,.33.09l1.13.63,1.18.65Z"/><path class="cls-13" d="M532.85,145.58,530,144l-3.6-2-.06,0a.44.44,0,0,0-.33-.11.21.21,0,0,0-.15.12.2.2,0,0,0,0,.11,1,1,0,0,0,0,.25.25.25,0,0,1,0,.08V154.1l.19,0,1.76-.58.76-.26.07,0,4.08-1.37h0c.17-.07.21-.14.22-.26a.37.37,0,0,0,0-.11v-5.82Zm-4.37,7.32-.83.28c-.51.18-1,.36-1.55.52V142.38a.54.54,0,0,0,0-.11s0-.08,0-.13l0,0,.08,0,3.6,2,2.82,1.57v5.65s0,.06,0,.06l-.08,0Z"/><path class="cls-13" d="M396.3,182.28v.09s0,.06,0,.08h-1.18a.83.83,0,0,1-.22,0h-.05s0-.08,0-.14v-.16h0c0-.3,0-.61,0-.92V174a.73.73,0,0,1,.07-.3,2.47,2.47,0,0,1,.26-.36l.52-.73c.16-.23.33-.46.49-.7h0l.1-.15v4.17h0v5.91C396.27,181.9,396.3,182.12,396.3,182.28Z"/><path class="cls-13" d="M396.43,182c0-.05,0-.1,0-.12V171.31l-.27.36a1,1,0,0,0-.08.11l-.27.38-.26.36-.51.73-.07.08a1.65,1.65,0,0,0-.2.31.73.73,0,0,0-.09.35v7.6c0,.2,0,.4,0,.59v.21a.31.31,0,0,0,0,.09.23.23,0,0,0,.08.13l.12,0h1l.07.07.05-.06h.29l.06,0,0,0h0l0-.11a.36.36,0,0,0,0-.11v-.1A3,3,0,0,0,396.43,182Zm-.5.39h-1v-.17c0-.2,0-.39,0-.58V174a.46.46,0,0,1,.06-.22,1.23,1.23,0,0,1,.17-.25l.59-.83.25-.35.08-.11v9.61s0,.08,0,.15a2.64,2.64,0,0,1,0,.29v.08h-.22Z"/><path class="cls-13" d="M501.69,182.44v0a0,0,0,0,1,0,0s-.33,0-.39,0h-3c-.07-.08,0-.58,0-.68v-7.15a3,3,0,0,1,0-.79.67.67,0,0,1,.11-.14l.54-.53c.41-.41.8-.82,1.21-1.21a11.21,11.21,0,0,1,.91-.77l0,0,0,0,.13-.09,0,0,.18-.12.2-.14h0v11.26C501.67,182.11,501.7,182.34,501.69,182.44Z"/><path class="cls-13" d="M501.83,182.13a.32.32,0,0,1,0-.08V170.73l-.1-.1h-.12l0,.05-.19.13-.17.12-.17.12.09.12-.12-.1,0,0c-.14.1-.27.2-.41.32a6.88,6.88,0,0,0-.52.46c-.28.26-.55.53-.81.8l-.41.41-.53.54,0,0a.37.37,0,0,0-.12.17,1.54,1.54,0,0,0,0,.61c0,.08,0,.16,0,.22v7.16a.62.62,0,0,1,0,.12,1.39,1.39,0,0,0,0,.55h0a.2.2,0,0,0,.06.11l.05,0h0a.35.35,0,0,0,.15,0h3.13a.32.32,0,0,0,.22-.06.25.25,0,0,0,0-.07l0,0v-.05A1.81,1.81,0,0,0,501.83,182.13Zm-.66-10.81.21-.15a.71.71,0,0,0,.14-.1v11a.46.46,0,0,0,0,.1s0,.14,0,.2h-3.13a2.48,2.48,0,0,1,0-.39,1,1,0,0,0,0-.15v-7.16c0-.07,0-.15,0-.25a1.28,1.28,0,0,1,0-.48s0,0,.05,0l.57-.57.4-.41.8-.8A8.8,8.8,0,0,1,501.17,171.32Z"/><path class="cls-13" d="M467.05,182.44s0,0,0,0a.2.2,0,0,1-.12,0h-2.31c-.05,0-.32,0-.36,0s0-.05,0-.07v0a3.3,3.3,0,0,1,0-.63V173.8h0l0,0,.22-.19,1.17-.94.37-.3.6-.48,0,0,.31-.25h0l0,0v10.6h0v.05h0v0s0,0,0,0v0h0Z"/><path class="cls-13" d="M467.19,182.23v-11l-.25.22-.38.3-.3.24-.29.24-.72.58-.83.67-.21.17h-.1v.08l0,0v8a1.15,1.15,0,0,1,0,.18,1.47,1.47,0,0,0,0,.47v.07h0a.17.17,0,0,0,0,.12.3.3,0,0,0,.2.05h2.57a.25.25,0,0,0,.24-.08.42.42,0,0,0,0-.1v-.19S467.2,182.24,467.19,182.23Zm-2.58.1h-.23a1.6,1.6,0,0,1,0-.38,1.62,1.62,0,0,0,0-.21v-7.82h0v-.08l.2-.16.83-.66.72-.59.29-.24.3-.24.14-.11v10.44h0v.05Z"/><path class="cls-13" d="M432.32,182.31a.13.13,0,0,1,0,.06.07.07,0,0,1,0,0s0,0,0,0v0h-.22c-.15,0-.3,0-.45,0h-1.53s0-.05,0-.15V173.8l0,0,.09-.09,1.08-1.05.42-.41.36-.34.11-.11a.17.17,0,0,0,.07-.08l.08-.07V181.9C432.3,182,432.33,182.18,432.32,182.31Z"/><path class="cls-13" d="M432.44,182.49l0,.11-.14,0h0l-.22,0h-1.79c-.12,0-.19,0-.25-.06a.12.12,0,0,1,0-.09.14.14,0,0,1,0-.11V173.8h.3v8.53h1.6a1.43,1.43,0,0,0,.36,0v-.07a1.21,1.21,0,0,0,0-.2c0-.06,0-.12,0-.16V171.78h0v-.15h.3V181.9s0,.08,0,.13A1,1,0,0,1,432.44,182.49Z"/><path class="cls-13" d="M529.67,161.45v8.06a2.66,2.66,0,0,1,0,.63c0,.12,0,.08-.2.14l-1.41.44c-.93.31-1.84.66-2.77.95l-.3-4.75c0-.43,0-.86-.08-1.29s0-1-.08-1.44c0-.24,0-.48-.05-.72a2.32,2.32,0,0,1,0-.45c0-.21.53-.32.73-.41a14.59,14.59,0,0,1,1.45-.5A19.87,19.87,0,0,1,529.67,161.45Z"/><path class="cls-13" d="M529.83,169.69c0-.07,0-.13,0-.19v-8.23l-.17,0a20.84,20.84,0,0,0-2.77.66c-.51.15-1,.33-1.46.51l-.14.05c-.28.1-.62.21-.67.47a.83.83,0,0,0,0,.35s0,.09,0,.13l.16,2.55h0l.35,5.69h0v.14l.19-.06,1.51-.51c.41-.15.83-.3,1.26-.44l.86-.27.54-.17.1,0a.22.22,0,0,0,.2-.19v0A1.28,1.28,0,0,0,529.83,169.69Zm-.3.4v0l-.09,0c-.48.14-.95.29-1.42.45l-1.27.43-1.31.46-.5-8s0-.09,0-.15a.76.76,0,0,1,0-.25c0-.09.35-.2.47-.24l.17-.06a14.87,14.87,0,0,1,1.43-.5,21.61,21.61,0,0,1,2.55-.63v7.88c0,.07,0,.14,0,.21A1.6,1.6,0,0,1,529.53,170.09Z"/><path class="cls-13" d="M547.51,166.56l-4.41.69-1.07.16c-.2-2.64-.41-5.27-.61-7.91l0-.51c0-.16,0-.19.06-.28a2.66,2.66,0,0,1,1-.41,12.26,12.26,0,0,1,1.34-.28c.81-.12,1.63-.18,2.45-.22.1,0,.7-.1.78,0s0,.16,0,.2l.18,3.64C547.34,163.27,547.42,164.91,547.51,166.56Z"/><path class="cls-13" d="M547.36,160.8h0l-.14-2.82v0a.4.4,0,0,0-.06-.27c-.1-.1-.31-.09-.77,0h-.13l-.6,0a17.51,17.51,0,0,0-1.86.18,12,12,0,0,0-1.36.28l-.12,0a2.43,2.43,0,0,0-1,.41.32.32,0,0,0-.13.33s0,.05,0,.08l0,.5c.05.69.1,1.38.16,2.07h0c.08,1,.15,2,.23,3.07l.21,2.78v.15l.16,0,.55-.09.52-.08,3-.46h0l1.19-.19.16,0h.06l.13,0Zm-4.29,6.3-.51.08-.39.06-.2-2.62c-.14-1.71-.27-3.42-.4-5.14l0-.51a.25.25,0,0,1,0-.08.1.1,0,0,1,0,0l0,0a2.64,2.64,0,0,1,.84-.34l.13,0a9.86,9.86,0,0,1,1.32-.27,24.35,24.35,0,0,1,2.43-.22l.15,0,.46,0h0V158l.43,8.44Z"/><path class="cls-13" d="M565.92,166.31l-4.19-.06c-.17,0-.73.07-.82,0s0-.19,0-.23l-.12-1.17-.51-4.76c0-.51-.1-1-.16-1.53a10.45,10.45,0,0,1-.14-1.36s0-.09,0-.12.38-.17.46-.2a6,6,0,0,1,1.51-.3,9.1,9.1,0,0,1,2.6.23l.6.16c.07,0,.26,0,.3.1s0,.24,0,.31c0,.51.05,1,.08,1.52s.07,1.19.1,1.78l.31,5.51Z"/><path class="cls-13" d="M566.07,166.34v0l-.33-5.89h0l-.17-3.07s0,0,0-.07a.6.6,0,0,0-.05-.32.45.45,0,0,0-.31-.14l-.07,0-.61-.16a9.52,9.52,0,0,0-1.93-.24h0a5.24,5.24,0,0,0-.69,0,5.84,5.84,0,0,0-1.55.31l-.06,0c-.29.08-.43.14-.48.25a.28.28,0,0,0,0,.18,6,6,0,0,0,.08.94,3.47,3.47,0,0,1,.06.45l.19,1.75v0l.6,5.68v0a.53.53,0,0,0,0,.19.19.19,0,0,0,0,.09c.1.11.3.11.74.08h.19l4.35.07Zm-4.55-.24a4.35,4.35,0,0,1-.49,0V166l-.79-7.46c0-.14,0-.3-.06-.45a5.55,5.55,0,0,1-.08-.89.13.13,0,0,0,0-.06,2.43,2.43,0,0,1,.28-.1l.07,0a5.64,5.64,0,0,1,1.47-.29,8.78,8.78,0,0,1,2.55.22l.6.16.09,0,.12,0v.22l.49,8.81-4-.07h-.21Z"/><path class="cls-13" d="M581.7,167.42c-.94-.2-1.89-.35-2.84-.47-.49-.07-1-.12-1.47-.17-.16,0-.62,0-.7-.1s0-.19,0-.26,0-.32-.07-.49l-.21-1.39-.69-4.67c0-.31-.09-.63-.14-.94a5.31,5.31,0,0,1-.1-.68c0-.09,0-.05,0-.12s.29-.15.41-.19a6.5,6.5,0,0,1,2.45-.09c.45,0,.9.1,1.35.17l.58.1s.16,0,.18,0,0,.24,0,.3l.09.61.21,1.57L581,162l.72,5.28Z"/><path class="cls-13" d="M581.85,167.47v0l-.8-5.93h0l-.42-3.08v-.06a.45.45,0,0,0-.07-.31.34.34,0,0,0-.24-.09h0l-.58-.1c-.5-.08-.94-.14-1.37-.17a6.69,6.69,0,0,0-2.51.1h0a1.15,1.15,0,0,0-.29.11h0a.33.33,0,0,0-.14.12.2.2,0,0,0-.06.17v0a2,2,0,0,0,.07.49c0,.08,0,.15,0,.22l.27,1.81h0l.22,1.53,0,.09.59,4.05v.06a.79.79,0,0,0,0,.2s0,0,0,0,0,0,0,.06.33.15.65.15h.15l1.47.16q1,.12,1.83.27h0l1,.19.2,0Zm-5-.88a.41.41,0,0,0,0-.11v-.08l-1.11-7.5a1.7,1.7,0,0,0,0-.22,2.33,2.33,0,0,1-.06-.43v0a1,1,0,0,1,.28-.11l0,0a6.71,6.71,0,0,1,2.4-.09c.42,0,.85.1,1.34.18l.57.1h.1v.11a.19.19,0,0,0,0,.08l1.18,8.75c-.83-.17-1.7-.31-2.64-.43l-1.48-.16h-.18A1.8,1.8,0,0,1,576.81,166.59Z"/><path class="cls-13" d="M592,171.74c-.78-.51-1.59-1-2.41-1.43-.13-.07-.4-.14-.46-.26a1,1,0,0,1,0-.24c-.06-.82-.13-1.65-.19-2.48-.1-1.28-.21-2.57-.31-3.86-.06-.85-.13-1.7-.2-2.54a5.69,5.69,0,0,1,2.16.89,4.26,4.26,0,0,1,.54.41c.11.09.31.22.37.35a.42.42,0,0,1,0,.2c.05.9.09,1.8.14,2.7.08,1.37.15,2.73.22,4.1Z"/><path class="cls-13" d="M592.2,171.85l-.3-5.48v0l-.19-3.58v0a.63.63,0,0,0-.05-.22,1.33,1.33,0,0,0-.33-.34l-.08-.06a6.2,6.2,0,0,0-.55-.42,5.76,5.76,0,0,0-2.12-.88h0l-.09,0-.19,0,.28,3.52v0l.43,5.54v.06a.45.45,0,0,0,0,.11s0,0,0,0a.2.2,0,0,0,0,.11c.07.14.25.21.4.28l.12.05c.79.42,1.6.9,2.4,1.42l.25.17Zm-3.58-10.74a5.67,5.67,0,0,1,1.91.83,5.27,5.27,0,0,1,.53.4l.08.07a1,1,0,0,1,.25.23.56.56,0,0,1,0,.1l.47,8.71c-.73-.46-1.46-.89-2.18-1.27l-.14-.07a.94.94,0,0,1-.25-.13.31.31,0,0,1,0-.1v-.08Z"/><path class="cls-13" d="M160.1,146v9.38c.55-.44,1.08-.84,1.61-1.21l.13-.08h0a1.87,1.87,0,0,0,.34-.25v0a.2.2,0,0,0,0-.08,2,2,0,0,0,0-.35v-4.78a.39.39,0,0,0,0-.18l-.06-.1h0a5,5,0,0,0-.49-.54l-.48-.55Z"/><path class="cls-13" d="M162.4,153.51v-4.89a.39.39,0,0,0-.05-.2s0,0,0,0a.93.93,0,0,0-.05-.1l0,0h0a3.33,3.33,0,0,0-.36-.4,1.59,1.59,0,0,0-.13-.13l-.48-.55-1.05-1.21,0,0,0,0,0,0h0a.09.09,0,0,0-.1,0,.05.05,0,0,0-.05,0,0,0,0,0,0,0,0l0,0v9.74l.24-.19c.55-.44,1.1-.85,1.6-1.2l.14-.08a1.14,1.14,0,0,0,.37-.27l0,0,0,0a.29.29,0,0,0,0-.13v0a.13.13,0,0,0,0-.06A.66.66,0,0,0,162.4,153.51Zm-.77.55q-.67.47-1.38,1v-8.66l.8.92.48.55h0a1.85,1.85,0,0,1,.14.14c.12.13.25.26.35.39h0a.3.3,0,0,1,0,.08.17.17,0,0,1,0,.09v4.91a1.48,1.48,0,0,1,0,.2h0l0,0a1.38,1.38,0,0,1-.31.22Zm.48-5.52h0a.21.21,0,0,0-.06-.08.3.3,0,0,1,0,.08.17.17,0,0,1,0,.09v.29a.71.71,0,0,1,0-.14A1.76,1.76,0,0,0,162.11,148.54Z"/><path class="cls-13" d="M179.81,136.07V148.8l4.83-.13,2-.06c.27,0,.32.07.32-.18V143c0-.19,0-.27-.1-.4-1-1-2-1.88-3-2.82l-3.92-3.65Z"/><path class="cls-13" d="M186.92,142.5l-2-1.87-5-4.66h0l0,0h-.08l-.13,0v13l1.29,0h0l4.21-.11h0l1.43,0h.13a.28.28,0,0,0,.25-.06.21.21,0,0,0,.06-.1.55.55,0,0,0,0-.18v-5.49A.47.47,0,0,0,186.92,142.5Zm-7,6.15V136.41l4.75,4.44c.67.62,1.34,1.24,2,1.87.07.06.07.08.06.19v5.55h-.17Z"/><path class="cls-13" d="M218.65,145.71v5.65c0,.22,0,.25.16.32l1.26.42,2.82,1c.86.28,1.72.59,2.58.86V142.39a1.21,1.21,0,0,0,0-.38c-.07-.12-.23,0-.33.09l-1.13.63-1.17.65Z"/><path class="cls-13" d="M225.6,141.94a.21.21,0,0,0-.15-.12.46.46,0,0,0-.33.11l-.06,0-3.6,2-2.89,1.61-.07,0v5.82a.37.37,0,0,0,0,.11c0,.12.06.19.22.25l.05,0,4.08,1.37.06,0,.76.26,1.76.58.19,0V142.38s0,0,0-.08a1,1,0,0,0,0-.25A.2.2,0,0,0,225.6,141.94Zm-.27.33s0,.09,0,.11V153.7l-1.55-.52-.83-.28-4.08-1.36-.07,0V145.8l2.81-1.57,3.6-2,.08,0,.05,0C225.34,142.19,225.33,142.24,225.33,142.27Z"/><path class="cls-13" d="M355.12,182.28v.09s0,.06,0,.08h1.18a.83.83,0,0,0,.22,0h.05s0-.08,0-.14v-.16h0c0-.3,0-.61,0-.92V174a.73.73,0,0,0-.07-.3,2.47,2.47,0,0,0-.26-.36l-.52-.73c-.16-.23-.33-.46-.49-.7h0l-.1-.15v4.17h0v5.91C355.15,181.9,355.12,182.12,355.12,182.28Z"/><path class="cls-13" d="M356.66,173.63a1.43,1.43,0,0,0-.2-.3l-.58-.81-.26-.36-.27-.38a1,1,0,0,0-.08-.11l-.27-.36v10.53a.62.62,0,0,1,0,.12,3,3,0,0,0,0,.32v.08a.37.37,0,0,0,0,.12h0l0,.11h.06s.07,0,.07,0l.05,0h.24l.06.06.07-.07h1l.12-.05a.21.21,0,0,0,.07-.12.31.31,0,0,0,0-.09v-.21c0-.19,0-.39,0-.59V174A.8.8,0,0,0,356.66,173.63Zm-1.2,8.72h-.17v-.06h0v0a2.64,2.64,0,0,1,0-.29c0-.07,0-.12,0-.15v-9.61l.08.11.25.35.53.74.06.09a1.23,1.23,0,0,1,.17.25.46.46,0,0,1,.06.22v7.61c0,.19,0,.38,0,.6v.15h-1Z"/><path class="cls-13" d="M249.73,182.44v0a0,0,0,0,0,0,0s.33,0,.39,0h3c.08-.08,0-.58,0-.68v-7.15a3,3,0,0,0,0-.79.67.67,0,0,0-.11-.14l-.54-.53c-.41-.41-.8-.82-1.21-1.21a11.21,11.21,0,0,0-.91-.77l0,0,0,0-.13-.09,0,0-.18-.12-.2-.14h0v11.26C249.75,182.11,249.72,182.34,249.73,182.44Z"/><path class="cls-13" d="M253.29,181.92s0-.1,0-.12v-7.16c0-.06,0-.14,0-.22a1.54,1.54,0,0,0,0-.61.37.37,0,0,0-.12-.17l-.56-.56-.41-.41c-.26-.27-.53-.54-.81-.8a6.88,6.88,0,0,0-.52-.46c-.13-.12-.27-.22-.4-.32l0,0-.08.12-.06.14a9.4,9.4,0,0,1,.9.75c.27.26.54.53.8.8s.27.27.41.41l.53.54,0,0,0,0a1.51,1.51,0,0,1,0,.48c0,.1,0,.18,0,.25v7.16s0,.08,0,.15a2.48,2.48,0,0,1,0,.39h-3.13c0-.06,0-.15,0-.2a.46.46,0,0,0,0-.1v-11l.15.11,0,0,.14.1.1-.11.06-.14-.17-.12-.17-.12-.19-.13,0,0-.14,0-.1.1v11.32a.32.32,0,0,1,0,.08,1.7,1.7,0,0,0,0,.32v.06l0,0s0,0,0,.06a.34.34,0,0,0,.22.06H253a.39.39,0,0,0,.16,0h0l.05,0a.29.29,0,0,0,.06-.1h0A1.69,1.69,0,0,0,253.29,181.92Z"/><path class="cls-13" d="M284.37,182.44s0,0,0,0a.2.2,0,0,0,.12,0h2.31c.05,0,.32,0,.36,0s0-.05,0-.07v0a3.3,3.3,0,0,0,0-.63V173.8h0l0,0-.22-.19c-.39-.31-.78-.62-1.16-.94l-.38-.3-.6-.48,0,0-.31-.25h0l0,0v10.6h0v.05h0v0s0,0,0,0v0h0Z"/><path class="cls-13" d="M287.34,181.93a1.15,1.15,0,0,1,0-.18v-8l0,0v-.09h-.09a1.81,1.81,0,0,1-.23-.18l-.82-.66-.72-.58-.29-.24-.31-.25-.34-.27-.27-.24v11a0,0,0,0,0,0,0v.2a.45.45,0,0,0,.06.13.29.29,0,0,0,.23,0h.1l0-.13.05.13h2.43a.33.33,0,0,0,.21-.06.15.15,0,0,0,.05-.11h0v0l0-.06A1.77,1.77,0,0,0,287.34,181.93Zm-2.82.37h0V171.85l.14.11.3.24.29.24.73.59.81.66.2.15v0h0v.06h0v7.82a1.62,1.62,0,0,0,0,.21,1.69,1.69,0,0,1,0,.39h-2.52Z"/><path class="cls-13" d="M319.12,171.63V181.9a1.57,1.57,0,0,0,0,.53c0,.08,0,0,.11.06a3.74,3.74,0,0,0,.58,0h1.4c.18,0,.15,0,.15-.16V173.8Z"/><path class="cls-13" d="M321.52,182.37a.37.37,0,0,1,0,.11.2.2,0,0,1-.05.09.28.28,0,0,1-.22.06h-1.82l-.22,0H319l-.05-.12a1,1,0,0,1,0-.48c0-.05,0-.1,0-.13V171.62h.3v.15h0V181.9s0,.1,0,.16a1.24,1.24,0,0,0,0,.27l.21,0h1.76V173.8h.29Z"/><path class="cls-13" d="M221.75,161.45v8.06a2.66,2.66,0,0,0,0,.63c0,.12,0,.08.2.14l1.41.44c.93.31,1.84.66,2.77.95l.3-4.75c0-.43,0-.86.08-1.29s.05-1,.08-1.44c0-.24,0-.48,0-.72a2.32,2.32,0,0,0,0-.45c0-.21-.53-.32-.73-.41a14.59,14.59,0,0,0-1.45-.5A19.53,19.53,0,0,0,221.75,161.45Z"/><path class="cls-13" d="M226.81,163c-.05-.26-.39-.37-.66-.47l-.15-.05c-.45-.18-.95-.36-1.46-.51a20.84,20.84,0,0,0-2.77-.66l-.17,0v8.23a1.28,1.28,0,0,1,0,.19,1.52,1.52,0,0,0,0,.48v0a.22.22,0,0,0,.2.19l.1,0,.54.17c.29.08.58.18.87.27l1.26.44c.49.17,1,.35,1.51.51l.18.06v-.14h0l.35-5.68v0l.16-2.55s0-.08,0-.13A.83.83,0,0,0,226.81,163Zm-3.4,7.59c-.47-.16-.94-.31-1.42-.45l-.09,0v0a1.17,1.17,0,0,1,0-.38,1.48,1.48,0,0,0,0-.21v-7.88a21.13,21.13,0,0,1,2.55.63,14.87,14.87,0,0,1,1.43.5l.17.06c.12,0,.45.15.47.24a1.1,1.1,0,0,1,0,.25,1,1,0,0,0,0,.15l-.5,8-1.31-.45Z"/><path class="cls-13" d="M203.91,166.56l4.41.69,1.07.16c.2-2.64.41-5.27.61-7.91l0-.51c0-.16.05-.19-.06-.28a2.66,2.66,0,0,0-1-.41,12.26,12.26,0,0,0-1.34-.28c-.81-.12-1.63-.18-2.44-.22-.11,0-.71-.1-.79,0s0,.16,0,.2l-.18,3.64C204.08,163.27,204,164.91,203.91,166.56Z"/><path class="cls-13" d="M210.07,158.59a2.56,2.56,0,0,0-1-.41l-.12,0a12.65,12.65,0,0,0-1.37-.28,17.51,17.51,0,0,0-1.86-.18l-.6,0H205c-.47-.06-.68-.06-.78,0a.4.4,0,0,0-.06.27v0l-.14,2.82h0l-.3,5.89.13,0H204l.16,0,1.19.19h0l3,.46.52.08.55.09.16,0v-.15l.21-2.73.24-3.12c0-.69.1-1.38.16-2.08l0-.5a.25.25,0,0,0,0-.08A.3.3,0,0,0,210.07,158.59Zm-.81,8.65-.4-.06-.51-.08-4.28-.67.43-8.44v-.09a3.84,3.84,0,0,1,.5,0l.15,0a24.08,24.08,0,0,1,2.43.22,9.55,9.55,0,0,1,1.32.27l.13,0a2.47,2.47,0,0,1,.84.34l0,0a.11.11,0,0,1,0,0V159l0,.51c-.13,1.73-.27,3.47-.4,5.2Z"/><path class="cls-13" d="M185.5,166.31l4.19-.06c.17,0,.73.07.82,0s0-.19,0-.23l.12-1.17.51-4.76c.05-.51.11-1,.16-1.53a10.45,10.45,0,0,0,.14-1.36s0-.09,0-.12-.37-.17-.46-.2a6,6,0,0,0-1.51-.3,9.1,9.1,0,0,0-2.6.23l-.6.16c-.07,0-.26,0-.3.1s0,.24,0,.31c0,.51-.05,1-.08,1.52s-.07,1.19-.1,1.78l-.31,5.51Z"/><path class="cls-13" d="M191.62,157c-.05-.11-.19-.17-.48-.26h-.06a5.76,5.76,0,0,0-1.55-.31,5.24,5.24,0,0,0-.69,0h0a9.52,9.52,0,0,0-1.93.24l-.61.16-.07,0a.45.45,0,0,0-.31.14.6.6,0,0,0-.05.32.2.2,0,0,1,0,.07l-.18,3.07h0l-.33,5.89v.15l4.36-.07h.19c.43,0,.63,0,.73-.08a.19.19,0,0,0,0-.09.53.53,0,0,0,0-.19l.6-5.72v0l.19-1.75c0-.15,0-.3.06-.45a7.45,7.45,0,0,0,.09-.95A.26.26,0,0,0,191.62,157Zm-.38,1.08-.06.45-.79,7.46v.14a2.57,2.57,0,0,1-.48,0h-.22l-4,.07.49-8.81s0,0,0-.09v-.13l.12,0,.09,0,.6-.16a8.78,8.78,0,0,1,2.55-.22A5.64,5.64,0,0,1,191,157l.07,0a2.43,2.43,0,0,1,.28.1s0,0,0,.06A4.6,4.6,0,0,1,191.24,158.06Z"/><path class="cls-13" d="M169.72,167.42c.94-.2,1.89-.35,2.84-.47.49-.07,1-.12,1.48-.17.15,0,.61,0,.69-.1s0-.19,0-.26,0-.32.07-.49l.21-1.39.69-4.67c0-.31.09-.63.14-.94a5.31,5.31,0,0,0,.1-.68c0-.09,0-.05,0-.12s-.29-.15-.41-.19a6.5,6.5,0,0,0-2.45-.09c-.45,0-.9.1-1.35.17l-.58.1s-.16,0-.18,0,0,.24,0,.3l-.09.61-.21,1.57-.18,1.36-.72,5.28Z"/><path class="cls-13" d="M176.07,158a.33.33,0,0,0-.14-.12h0a1.15,1.15,0,0,0-.29-.11h0a6.69,6.69,0,0,0-2.51-.1c-.43,0-.87.09-1.36.17l-.58.1h0a.34.34,0,0,0-.24.09c-.06.06-.06.17-.07.31v.06l-.42,3.08h0l-.8,5.93v0l0,.13.21,0,1-.19h0c.58-.1,1.18-.19,1.83-.27l1.47-.16h.15c.33,0,.56,0,.66-.15s0,0,0-.05,0,0,0,0a.65.65,0,0,0,0-.2v-.06l.59-3.95v-.09l.24-1.63h0L176,159a1.55,1.55,0,0,1,0-.21,2.84,2.84,0,0,0,.06-.5v0A.2.2,0,0,0,176.07,158Zm-.24.21a2.33,2.33,0,0,1-.06.43c0,.07,0,.15,0,.22l-1.11,7.5v.09s0,.07,0,.1a1.8,1.8,0,0,1-.41,0H174l-1.48.16c-.94.12-1.81.26-2.64.43l1.18-8.75a.19.19,0,0,0,0-.08v-.11h.1l.57-.1c.49-.08.93-.14,1.34-.18a6.71,6.71,0,0,1,2.4.09l.05,0a.94.94,0,0,1,.28.12Z"/><path class="cls-13" d="M159.38,171.74c.78-.51,1.59-1,2.41-1.43.13-.07.4-.14.46-.26a1,1,0,0,0,0-.24c.06-.82.13-1.65.19-2.48.1-1.28.21-2.57.31-3.86.06-.85.13-1.7.2-2.54a5.69,5.69,0,0,0-2.16.89,4.26,4.26,0,0,0-.54.41c-.11.09-.31.22-.37.35a.42.42,0,0,0,0,.2c0,.9-.09,1.8-.14,2.7-.07,1.37-.15,2.73-.22,4.1Z"/><path class="cls-13" d="M162.94,160.78l-.09,0h0a5.65,5.65,0,0,0-2.11.88c-.18.12-.36.26-.56.42l-.08.06a1.33,1.33,0,0,0-.33.34.45.45,0,0,0,0,.22l-.2,3.6v0l-.3,5.48V172l.25-.17c.8-.52,1.61-1,2.4-1.42l.12-.05a.75.75,0,0,0,.4-.28.2.2,0,0,0,0-.11s0,0,0,0a.45.45,0,0,0,0-.11v-.06l.43-5.54v0l.28-3.52Zm-.82,9V170a.89.89,0,0,1-.26.14l-.14.07c-.72.38-1.45.81-2.18,1.27l.47-8.67v0a.25.25,0,0,1,0-.1,1.14,1.14,0,0,1,.25-.23l.09-.07a4.28,4.28,0,0,1,.52-.4,5.67,5.67,0,0,1,1.91-.83Z"/><path class="cls-13" d="M354.34,190.7v22.49h42.74V190.7Zm41.08,20.83H356V192.36h39.41Z"/><path class="cls-13" d="M569.24,202.1H566.9c-.07,0-.25,0-.31,0s-.06-.09-.07-.2,0-.17,0-.19h0l-.09-.77-.42-3.25-.18-1.38a1.75,1.75,0,0,0,0-.4c0-.1,0-.11-.08-.11h.07c-.06-.47-.13-.95-.19-1.43-.12-1-.25-2-.38-3l-.12-1A2.12,2.12,0,0,0,565,190a.24.24,0,0,0,0-.09h0c-.14-1.12-.29-2.24-.43-3.36h1.55a3.28,3.28,0,0,1,.7,0c.13,0,.06,0,.11.11a3.64,3.64,0,0,1,.09.59c0,.29.09.58.13.88l.24,1.6c0,.15,0,.2.11.21h-.08c.07.44.14.89.2,1.33.22,1.4.43,2.8.64,4.21a1.09,1.09,0,0,0,.06.36s0,0,0,0h0c.06.42.12.83.19,1.25.2,1.38.41,2.77.62,4.15a1.78,1.78,0,0,0,.07.47.05.05,0,0,0,.05,0h0C569.2,201.86,569.22,202,569.24,202.1Z"/><path class="cls-13" d="M540.6,238h-3c-.07,0-.44.06-.5,0a1.29,1.29,0,0,1,0-.34v-4.53H537a.1.1,0,0,0,.06,0,1.55,1.55,0,0,0,0-.48v-5.36s0-.05,0-.07a1.45,1.45,0,0,0,0-.36V224c0-.17-.05-.23.09-.27a4.31,4.31,0,0,1,.95,0h1.16c.21,0,.28-.07.31.13.07.63.09,1.26.13,1.89l-.09-2.45.17,3.53s0,.22,0,.27c0,.22,0,.43,0,.65,0,.67.09,1.33.14,2,.07,1,.13,1.94.2,2.91h.06c-.08.06,0,.1,0,.23s0,.39,0,.58c0,.62.08,1.23.13,1.84C540.47,236.23,540.53,237.13,540.6,238Z"/><path class="cls-13" d="M586.21,235.94H584c-.19,0-.19,0-.22-.11a4.25,4.25,0,0,1,0-.8c0-.81-.07-1.63-.11-2.44l0-.81a.38.38,0,0,0,0-.15l0-.89-.15-3.57-.06-1.25c0-.1,0-.14,0-.15h0l-.18-4.2h1.59a1.62,1.62,0,0,1,.44,0c.11,0,.07.06.08.22l.06.87.15,2.38c0,.26,0,.53.05.79a.38.38,0,0,0,0,.15c0,.27,0,.55,0,.82l.21,3.4c0,.44,0,.88.08,1.32,0,.07,0,.23,0,.3a.05.05,0,0,0,0,0h0C586,233.21,586.12,234.57,586.21,235.94Z"/><path class="cls-13" d="M168,225.77h0s0,0,0,.15l-.06,1.25-.18,4.46a.38.38,0,0,0,0,.15l0,.81c0,.81-.07,1.63-.1,2.44a5.29,5.29,0,0,1,0,.8c0,.15,0,.11-.21.11h-2.19c.09-1.37.17-2.73.26-4.1h0l0,0a.76.76,0,0,0,0-.3c0-.44,0-.88.08-1.32l.21-3.4c0-.27,0-.54.05-.81h0a.75.75,0,0,0,0-.15c0-.26,0-.53,0-.79l.15-2.38.06-.87c0-.16,0-.18.09-.22a1.55,1.55,0,0,1,.43,0h1.59Z"/><path class="cls-13" d="M214.32,237.69a1.29,1.29,0,0,1,0,.34c-.06.06-.43,0-.5,0h-3c.07-.9.13-1.8.19-2.7.05-.61.09-1.22.13-1.84,0-.19,0-.38,0-.58s0-.17,0-.23h.06c.07-1,.13-1.94.2-2.91,0-.67.09-1.33.14-2,0-.22,0-.43.05-.65a1.23,1.23,0,0,0,0-.27c0-.52.06-1,.09-1.56,0,.16,0,.32,0,.48,0-.63.06-1.26.13-1.89,0-.2.1-.13.31-.13h1.16a4.31,4.31,0,0,1,.95,0c.14,0,.09.1.09.27v2.82a1.45,1.45,0,0,0,0,.36s0,.06,0,.07v5.36a1.55,1.55,0,0,0,0,.48.1.1,0,0,0,.06,0h-.06Z"/><path class="cls-13" d="M186.44,189.89h0a.24.24,0,0,0,0,.09,2.12,2.12,0,0,0-.06.44l-.12,1c-.13,1-.26,2-.38,3-.06.48-.12,1-.19,1.43h.07c-.05,0-.05,0-.08.11a2.57,2.57,0,0,0,0,.4l-.18,1.38c-.14,1.08-.28,2.16-.41,3.25,0,.26-.07.51-.1.77h0s0,.16,0,.19,0,.17-.07.2-.24,0-.31,0h-2.34c0-.12,0-.24,0-.37h0a.05.05,0,0,0,.05,0c.07-.09,0-.36.07-.47l.63-4.15.18-1.25h0c.05-.06,0-.29.05-.36.21-1.41.42-2.81.64-4.21.06-.44.13-.89.2-1.33h-.08c.07,0,.09-.06.11-.21l.24-1.6c0-.3.09-.59.13-.88a3.64,3.64,0,0,1,.09-.59c.05-.13,0-.08.11-.11a3.28,3.28,0,0,1,.7,0h1.55C186.73,187.65,186.58,188.77,186.44,189.89Z"/><path class="cls-13" d="M632.33,388.49l-3.64.19h0l-.69,0-1.68.09-4.68.23-.4,0-.39,0-1,0-.57,0h0l-1.15.06-.6,0-3.21.14H614l-.41,0-2.44.1-1.11,0-1.31,0-.54,0h-.69l-2,.07h-.25l-2.34.08h-.53l-.56,0-2.61.08-2.45.07h-.28c-1.78.06-3.56.1-5.35.15h-.25l-4.48.1H584.3l-2.44.05-1.5,0h-.53l-2.64,0-3,0-1.31,0-3.48,0h-.85l-3,0H549.27l-3.26,0-2.45,0-3,0h-1.1l-3.72-.05-1,0c-.72,0-1.43,0-2.15,0l-3.5-.07h-.36l-.56,0h-.32l-2.53-.05h-.08l-1.79-.05-1.66,0-3.53-.09-.45,0-2.16-.06h-.46l-.46,0-.54,0h0l-.54,0h-.49l-.42,0h-.28l-.28,0-1,0-.8,0-3.8-.14-4.77-.2-.87,0h-.34l-.89,0-1.38-.07-1.18-.06h-.22l-.41,0-.4,0c-3.9-.2-7.77-.44-11.66-.68l-.43,0h0l.08-.06a.71.71,0,0,1,.15-.08,3.59,3.59,0,0,1,.41-.11l.06,0,.09,0,.39-.08.55-.1.56-.09.11,0c1.47-.22,2.95-.38,4.43-.53l2-.19h0l1-.09,1-.09.18,0,.24,0,1.68-.13h0l.16,0h.21l.59,0,2.67.11h.43l3.56.14,1.3,0,.62,0,5.62.21h0a1.67,1.67,0,0,0,.39,0h0l1.63.05h.12l1.89.06,1.57.06h0c.1.09.68,0,.82,0l.89,0,1.94.06c.66,0,1.31.05,2,.06l2,.07,3.62.1c.06.07.51,0,.66,0h0l1.13,0h1l2.86.08h.13a1.84,1.84,0,0,0,.41,0h.5l4.58.11.9,0,3.76.08,1,0H546a3.54,3.54,0,0,0,.86,0h0l.68,0,1.08,0,2.94.05h0a2.71,2.71,0,0,0,.64,0h0l1.13,0h1l2.83,0,2.28,0,2.27,0h1.09a1.09,1.09,0,0,0,.32,0h.4l1.66,0h14.52a2.18,2.18,0,0,0,.57,0h2.55l2.49,0h.06a2.1,2.1,0,0,0,.61,0h1.69l2.22,0H591c1.86,0,3.72-.05,5.58-.11h.05a2.84,2.84,0,0,0,.5,0l.57,0,1.17,0,1.68,0,1.28,0,.4,0h.24l2.54-.09,2.83-.11c1.86-.09,3.73-.19,5.59-.31h.71c1.62-.11,3.25-.24,4.87-.38h.2l.21,0,.64-.06,1.67-.17,1.11-.11h.59l.37,0,.32,0h.17l.28,0,.3,0,.31,0,.3,0,.69.1c1.77.27,3.53.63,5.28,1Z"/><path class="cls-13" d="M267.46,388.49l-.44,0c-3.88.24-7.77.48-11.66.68l-.4,0-.4,0h-.23l-1.18.06-1.38.07-.89,0h-.34l-.87,0-4.77.2c-1.53.07-3.07.12-4.6.17l-1,0-.27,0h-.29l-.42,0h-.49l-.54,0h0l-.54,0-.46,0h-.46l-2.16.06-.45,0-3.53.09-1.66,0-1.79.05h-.08l-2.53.05h-.32l-.55,0h-.37l-3.48.07c-.72,0-1.45,0-2.16,0l-1,0-3.73.05h-1.1l-3,0-2.45,0-3.25,0H185.82l-3,0H182l-3.48,0-1.31,0-3,0-2.63,0h-.54l-1.49,0-2.45-.05H165l-4.48-.1h-.25c-1.79,0-3.57-.09-5.35-.15h-.28l-2.44-.07-2.62-.08-.56,0h-.53l-2.33-.08h-.26l-2-.07h-.69l-.53,0-1.32,0-1.11,0-2.44-.1-.4,0h-.24l-3.21-.14-.59,0-1.16-.06h0l-.57,0-1,0-.4,0-.39,0-4.68-.23-1.68-.09-.7,0h0l-3.64-.19.91-.22c1.74-.41,3.5-.77,5.27-1l.7-.1.3,0,.3,0,.3,0,.28,0h.18l.31,0,.37,0h.59l1.11.11,1.67.17.64.06.21,0h.2c1.62.14,3.25.27,4.87.38l.38,0H138c1.86.12,3.73.22,5.59.31l2.83.11,2.54.09h.24l.4,0,1.28,0,1.68,0,1.17,0,.57,0a2.85,2.85,0,0,0,.5,0h.05c1.86.06,3.72.09,5.58.11h1.05l2.22,0h1.69a2.1,2.1,0,0,0,.61,0h.06l2.5,0h2.54a2.18,2.18,0,0,0,.57,0h14.53l1.65,0h.61l.12,0h1.09c1.51,0,3,0,4.54-.06l2.83,0h1l1.13,0h0l.42,0a.63.63,0,0,0,.23,0h0l2.95-.05,1.07,0,.68,0h0a3.54,3.54,0,0,0,.86,0h.06l1,0,3.76-.08.9,0,4.58-.11h.5a1.84,1.84,0,0,0,.41,0h.14l2.85-.08h1l1.13,0h0c.14,0,.59.05.65,0l3.62-.1,2-.07c.66,0,1.32,0,2-.06l1.94-.06.89,0c.14,0,.73.06.82,0h0l1.57-.06,1.9-.06h.11l1.63-.05h0a1.6,1.6,0,0,0,.38,0h0l5.62-.21.62,0,1.3,0,3.56-.14h.43l2.67-.11.59,0h.21l.16,0h0l1.68.13.24,0,.18,0,1,.09,1.05.09h0l2,.19c1.48.15,3,.31,4.43.53l.12,0,.55.09.55.1.39.08.1,0,.05,0a3.59,3.59,0,0,1,.41.11.71.71,0,0,1,.15.08Z"/><polygon class="cls-14" points="80.34 399.93 77.96 399.93 144.6 260.81 146.98 260.81 80.34 399.93"/><polygon class="cls-14" points="109.44 399.93 107.05 399.93 173.69 260.81 176.07 260.81 109.44 399.93"/><polygon class="cls-14" points="122.78 367.09 94.88 367.09 95.95 364.87 123.85 364.87 122.78 367.09"/><polygon class="cls-14" points="129.91 352.2 102.01 352.2 103.08 349.98 130.98 349.98 129.91 352.2"/><polygon class="cls-14" points="137.05 337.31 109.15 337.31 110.21 335.09 138.11 335.09 137.05 337.31"/><polygon class="cls-14" points="144.18 322.42 116.28 322.42 117.34 320.2 145.24 320.2 144.18 322.42"/><polygon class="cls-14" points="151.31 307.53 123.41 307.53 124.47 305.31 152.37 305.31 151.31 307.53"/><polygon class="cls-14" points="158.44 292.64 130.54 292.64 131.6 290.42 159.51 290.42 158.44 292.64"/><polygon class="cls-14" points="165.57 277.75 137.67 277.75 138.74 275.53 166.64 275.53 165.57 277.75"/><path class="cls-15" d="M121.71,269.63h0a5.79,5.79,0,0,1-.08-8.31l59-58.26,4.65,4.43L130,269.29A5.78,5.78,0,0,1,121.71,269.63Z"/><path class="cls-16" d="M165.5,223.13s7.76,1.31,11.92-6.88l1.42-1.59s2.74,8.86-12.61,13.49l-3.88-1.3Z"/><rect class="cls-17" x="123.64" y="309.76" width="3.22" height="5.45"/><rect class="cls-18" x="138.66" y="309.76" width="3.22" height="5.45"/><path class="cls-19" d="M124,217l.32-10.65L120.62,202l10.74-5.66s5.67,10.25,3.21,12.38-2.8-.33-2.8-.33l-.16,7.79Z"/><path class="cls-20" d="M121.51,206.87a7.7,7.7,0,0,0,5.92,1.15l-2-2.4s-2,.73-2-1.17,2-.45,2-.45l-1-4.61s9.42-2.94,7.94-3.62-7.26-1.22-7.26-1.22l-3.29,3.17-1.82,4.62Z"/><path class="cls-21" d="M111,248s8.09,8.72,11.91,10.26l-.92-6.32-9.44-8.76Z"/><path class="cls-22" d="M119.91,255.58s.52,49,3.28,55.1h4s6.05-29.19,2.08-47.5S119.89,254,119.91,255.58Z"/><path class="cls-23" d="M137.7,309.64s-5.53-36.27-10.36-48.19,8.11-9,9.49-6,7.09,44,5.88,54.23C141.84,312.58,138.15,312.5,137.7,309.64Z"/><path class="cls-24" d="M116.55,214.47s-15.19,10.49-10,26.5c.76,2.44,4.47,7,4.47,7l3.62-3.5s-.58-10.19,1.92-13.25Z"/><path class="cls-25" d="M119.22,206.8l15.35-12.39s-1.19,1.51-6.63-2c-3.54-1.89-5.62-1.83-8.72,1.27S115.43,201.86,119.22,206.8Z"/><path class="cls-26" d="M193.35,147s-7.71,23.88-27.25,36.2l42,39.86s19.37-15.06,27.2-35l-11.55-12.29-5,2.32v-7.95l-10.39-9.53-6.91,2.27.25-7.95Z"/><path class="cls-27" d="M156.14,202.31h58a0,0,0,0,1,0,0v0a5.45,5.45,0,0,1-5.45,5.45H161.59a5.45,5.45,0,0,1-5.45-5.45v0A0,0,0,0,1,156.14,202.31Z" transform="translate(192.31 -71.13) rotate(43.57)"/><path d="M123.56,313.65s.54,2.07,3.3-.15c0,0,5.3,2.59,5.3,6.4h-8.9Z"/><path d="M138.66,313.65v5.49h9.17a1.5,1.5,0,0,0,.89-2.76,21.49,21.49,0,0,0-6.84-2.73S141.18,315.69,138.66,313.65Z"/><path class="cls-28" d="M119.91,255.58s.87-10.07-1.33-15.87-6.42-22.88-2-25.24,6.36,1.91,14-.44,6.8-5,15.58,1.54,11.29,8.15,19.44,6.74c0,0-.94,5.49,1.25,6.27,0,0-14.26,6-23.35-2.19,0,0-5.48,14.78-6.3,21.6s-.38,7.42-.38,7.42Z"/><path class="cls-29" d="M195,157.06a56.08,56.08,0,0,1-22.47,27.1"/><path class="cls-29" d="M201.7,163.8a56.11,56.11,0,0,1-22.47,27.1"/><path class="cls-29" d="M208.45,170.55A56.15,56.15,0,0,1,186,197.65"/><path class="cls-29" d="M215.2,177.3a56.15,56.15,0,0,1-22.47,27.1"/><path class="cls-29" d="M221.94,184.05a56.09,56.09,0,0,1-22.46,27.1"/></g></g></svg>