<?xml version="1.0" encoding="utf-8"?>
<!-- Generator: Adobe Illustrator 24.0.1, SVG Export Plug-In . SVG Version: 6.00 Build 0)  -->
<svg version="1.1" id="Layer_1" xmlns="http://www.w3.org/2000/svg" xmlns:xlink="http://www.w3.org/1999/xlink" x="0px" y="0px"
	 viewBox="0 0 909.3 666.5" style="enable-background:new 0 0 909.3 666.5;" xml:space="preserve">
<style type="text/css">
	.st0{clip-path:url(#SVGID_2_);}
	.st1{opacity:0.1;fill:url(#SVGID_3_);enable-background:new    ;}
	.st2{fill:url(#SVGID_4_);}
	.st3{opacity:0.2;}
	.st4{fill:#FFFFFF;}
	.st5{opacity:0.7;fill:#FFFFFF;enable-background:new    ;}
	.st6{fill:#27D6FF;}
	.st7{fill:#057BCC;}
	.st8{fill:url(#SVGID_5_);}
	.st9{fill:url(#SVGID_6_);}
	.st10{fill:#0076B7;}
	.st11{fill:url(#SVGID_7_);}
	.st12{fill:#5FE8FF;}
	.st13{fill:url(#SVGID_8_);}
	.st14{fill:url(#SVGID_9_);}
	.st15{opacity:8.000000e-02;}
	.st16{fill:url(#SVGID_10_);}
	.st17{fill:#00A7DB;}
	.st18{fill:#0091E2;}
	.st19{fill:#00CDEF;}
	.st20{fill:url(#SVGID_11_);}
	.st21{fill:#ADD5D8;}
	.st22{fill:#E9FBFF;}
	.st23{fill:url(#SVGID_12_);}
	.st24{fill:url(#SVGID_13_);}
	.st25{fill:url(#SVGID_14_);}
	.st26{fill:url(#SVGID_15_);}
	.st27{fill:url(#SVGID_16_);}
	.st28{fill:url(#SVGID_17_);}
	.st29{fill:url(#SVGID_18_);}
	.st30{fill:url(#SVGID_19_);}
	.st31{fill:url(#SVGID_20_);}
	.st32{fill:url(#SVGID_21_);}
</style>
<title>6</title>
<g>
	<g id="Layer_2_1_">
		<g id="Layer_7">
			<g>
				<defs>
					<path id="SVGID_1_" d="M109,580.1c17,13.9,40.6,20.7,64.2,23.5c103.1,12.5,211.6-42.9,311.8-20c46.1,10.5,88.6,28.5,133.6,41.8
						c148.4,44.1,242.9-116.8,189.7-187c-49.5-65.4-80.8-37.1-92-107.6c-8.5-53.9,38.7-66.5,52.2-120.5
						C785.8,140.6,729.2,70.9,653.9,45s-167.3-8.2-204.5,56.3c-11.7,20.2-18.1,43.5-36.5,59.8c-32.5,28.7-85.1,23.4-130.8,24.9
						c-32.1,1-63.9,6.5-94.5,16.3c-32.3,10.3-65.6,28.4-75.2,56.8c-8.3,24.4,3.2,49.7,17.5,71s32.1,41.7,38,66.1
						c11.7,48.3-29.9,54.7-59.8,82.5C78.6,506.2,78.7,555.4,109,580.1z"/>
				</defs>
				<clipPath id="SVGID_2_">
					<use xlink:href="#SVGID_1_"  style="overflow:visible;"/>
				</clipPath>
				<g class="st0">
					
						<linearGradient id="SVGID_3_" gradientUnits="userSpaceOnUse" x1="79.6325" y1="334.2509" x2="833.4866" y2="334.2509" gradientTransform="matrix(1 0 0 -1 0 668)">
						<stop  offset="0" style="stop-color:#3841F2"/>
						<stop  offset="0.99" style="stop-color:#468AF5"/>
					</linearGradient>
					<rect x="79.6" y="29.9" class="st1" width="753.9" height="607.8"/>
					
						<linearGradient id="SVGID_4_" gradientUnits="userSpaceOnUse" x1="454.6325" y1="8.0663" x2="454.6325" y2="321.5563" gradientTransform="matrix(1 0 0 -1 0 668)">
						<stop  offset="0" style="stop-color:#B2B2B2"/>
						<stop  offset="1" style="stop-color:#E5E5E5"/>
					</linearGradient>
					<polygon class="st2" points="747.2,233.5 739,237.7 739,455.8 727.4,455.8 727.4,217.7 663.2,217.7 663.2,364.7 649.9,364.7 
						649.9,261.2 590.9,261.2 590.9,288.9 521.4,288.9 521.4,425.3 502.6,425.3 502.6,256.1 467.9,242.2 467.9,324.7 459.7,324.7 
						459.7,185.9 416.3,185.9 416.3,366.6 377.3,366.6 377.3,246.6 365.1,246.6 365.1,229 356.3,229 356.3,210.9 346.4,210.9 
						346.4,193.6 343.7,193.6 343.7,210.9 333,210.9 333,229 324.1,229 324.1,246.6 311.5,246.6 311.5,406.6 281.8,406.6 
						281.8,263.5 220.5,229.3 220.5,334.8 199.3,334.8 199.3,284.1 173.6,315.4 152.2,315.4 152.2,379.4 135.8,379.4 135.8,298 
						79.6,326.9 79.6,561.8 829.6,561.8 829.6,190.9 					"/>
					<g class="st3">
						<rect x="230.7" y="287" class="st4" width="9.9" height="8.9"/>
						<rect x="240.7" y="295.9" class="st4" width="9.9" height="8.9"/>
						<rect x="262.5" y="287" class="st4" width="9.9" height="8.9"/>
						<rect x="241.6" y="320.2" class="st4" width="9.9" height="8.9"/>
						<rect x="262.5" y="320.2" class="st4" width="9.9" height="8.9"/>
						<rect x="252.5" y="338" class="st4" width="9.9" height="8.9"/>
						<rect x="252.5" y="401.4" class="st4" width="9.9" height="8.9"/>
						<rect x="432.7" y="213.7" class="st4" width="9.9" height="8.9"/>
						<rect x="422.8" y="224.5" class="st4" width="9.9" height="8.9"/>
						<rect x="442.6" y="348.8" class="st4" width="9.9" height="8.9"/>
						<rect x="464.4" y="339.9" class="st4" width="9.9" height="8.9"/>
						<rect x="442.6" y="268.3" class="st4" width="9.9" height="8.9"/>
						<rect x="443.6" y="373.1" class="st4" width="9.9" height="8.9"/>
						<rect x="464.4" y="373.1" class="st4" width="9.9" height="8.9"/>
						<rect x="454.5" y="390.9" class="st4" width="9.9" height="8.9"/>
						<rect x="358.4" y="407.2" class="st4" width="9.9" height="8.9"/>
						<rect x="348.5" y="398.3" class="st4" width="9.9" height="8.9"/>
						<rect x="326.7" y="407.2" class="st4" width="9.9" height="8.9"/>
						<rect x="347.5" y="374" class="st4" width="9.9" height="8.9"/>
						<rect x="326.7" y="374" class="st4" width="9.9" height="8.9"/>
						<rect x="336.6" y="356.2" class="st4" width="9.9" height="8.9"/>
						<rect x="353.5" y="279.9" class="st4" width="9.9" height="8.9"/>
						<rect x="338.3" y="303.9" class="st4" width="9.9" height="8.9"/>
						<rect x="532.1" y="302.7" class="st4" width="9.9" height="8.9"/>
						<rect x="542" y="311.6" class="st4" width="9.9" height="8.9"/>
						<rect x="563.8" y="302.7" class="st4" width="9.9" height="8.9"/>
						<rect x="543" y="335.9" class="st4" width="9.9" height="8.9"/>
						<rect x="563.8" y="335.9" class="st4" width="9.9" height="8.9"/>
						<rect x="553.9" y="353.7" class="st4" width="9.9" height="8.9"/>
						<rect x="537.1" y="430" class="st4" width="9.9" height="8.9"/>
						<rect x="552.2" y="406" class="st4" width="9.9" height="8.9"/>
						<rect x="380.7" y="394.6" class="st4" width="9.9" height="8.9"/>
						<rect x="390.6" y="403.5" class="st4" width="9.9" height="8.9"/>
						<rect x="412.4" y="394.6" class="st4" width="9.9" height="8.9"/>
						<rect x="391.6" y="427.8" class="st4" width="9.9" height="8.9"/>
						<rect x="412.4" y="427.8" class="st4" width="9.9" height="8.9"/>
						<rect x="402.5" y="445.6" class="st4" width="9.9" height="8.9"/>
						<rect x="385.6" y="521.9" class="st4" width="9.9" height="8.9"/>
						<rect x="400.7" y="497.9" class="st4" width="9.9" height="8.9"/>
						<rect x="242.6" y="536.3" class="st4" width="9.9" height="8.9"/>
						<rect x="232.7" y="527.4" class="st4" width="9.9" height="8.9"/>
						<rect x="210.9" y="536.3" class="st4" width="9.9" height="8.9"/>
						<rect x="231.7" y="503.1" class="st4" width="9.9" height="8.9"/>
						<rect x="210.9" y="503.1" class="st4" width="9.9" height="8.9"/>
						<rect x="220.8" y="485.3" class="st4" width="9.9" height="8.9"/>
						<rect x="237.6" y="409" class="st4" width="9.9" height="8.9"/>
						<rect x="222.5" y="433" class="st4" width="9.9" height="8.9"/>
						<rect x="630" y="510.7" class="st4" width="9.9" height="8.9"/>
						<rect x="620.1" y="501.8" class="st4" width="9.9" height="8.9"/>
						<rect x="598.3" y="510.7" class="st4" width="9.9" height="8.9"/>
						<rect x="619.1" y="477.5" class="st4" width="9.9" height="8.9"/>
						<rect x="598.3" y="477.5" class="st4" width="9.9" height="8.9"/>
						<rect x="608.2" y="459.7" class="st4" width="9.9" height="8.9"/>
						<rect x="625" y="383.3" class="st4" width="9.9" height="8.9"/>
						<rect x="609.9" y="407.4" class="st4" width="9.9" height="8.9"/>
						<rect x="687.7" y="477.5" class="st4" width="9.9" height="8.9"/>
						<rect x="699.1" y="416.1" class="st4" width="9.9" height="8.9"/>
						<rect x="677.3" y="425" class="st4" width="9.9" height="8.9"/>
						<rect x="698.1" y="391.8" class="st4" width="9.9" height="8.9"/>
						<rect x="677.3" y="391.8" class="st4" width="9.9" height="8.9"/>
						<rect x="687.2" y="374" class="st4" width="9.9" height="8.9"/>
						<rect x="704.1" y="297.6" class="st4" width="9.9" height="8.9"/>
						<rect x="689" y="321.7" class="st4" width="9.9" height="8.9"/>
						<rect x="103.7" y="418.2" class="st4" width="9.9" height="8.9"/>
						<rect x="113.6" y="427.1" class="st4" width="9.9" height="8.9"/>
						<rect x="135.4" y="418.2" class="st4" width="9.9" height="8.9"/>
						<rect x="114.6" y="451.5" class="st4" width="9.9" height="8.9"/>
						<rect x="135.4" y="451.5" class="st4" width="9.9" height="8.9"/>
						<rect x="125.5" y="469.2" class="st4" width="9.9" height="8.9"/>
						<rect x="108.7" y="545.6" class="st4" width="9.9" height="8.9"/>
						<rect x="123.8" y="521.5" class="st4" width="9.9" height="8.9"/>
						<rect x="506.1" y="527.8" class="st4" width="9.9" height="8.9"/>
						<rect x="496.2" y="518.9" class="st4" width="9.9" height="8.9"/>
						<rect x="474.4" y="527.8" class="st4" width="9.9" height="8.9"/>
						<rect x="495.2" y="494.6" class="st4" width="9.9" height="8.9"/>
						<rect x="474.4" y="494.6" class="st4" width="9.9" height="8.9"/>
						<rect x="484.3" y="476.8" class="st4" width="9.9" height="8.9"/>
						<rect x="766.3" y="233.3" class="st4" width="9.9" height="8.9"/>
						<rect x="787.2" y="233.3" class="st4" width="9.9" height="8.9"/>
						<rect x="777.3" y="251.1" class="st4" width="9.9" height="8.9"/>
						<rect x="760.4" y="327.4" class="st4" width="9.9" height="8.9"/>
						<rect x="775.5" y="303.4" class="st4" width="9.9" height="8.9"/>
						<rect x="750.5" y="378.1" class="st4" width="9.9" height="8.9"/>
						<rect x="760.4" y="387" class="st4" width="9.9" height="8.9"/>
						<rect x="782.2" y="378.1" class="st4" width="9.9" height="8.9"/>
						<rect x="761.4" y="411.3" class="st4" width="9.9" height="8.9"/>
						<rect x="782.2" y="411.3" class="st4" width="9.9" height="8.9"/>
						<rect x="772.3" y="429.1" class="st4" width="9.9" height="8.9"/>
						<rect x="755.4" y="505.4" class="st4" width="9.9" height="8.9"/>
						<rect x="780.5" y="481.4" class="st4" width="0" height="8.9"/>
						<rect x="193.3" y="397" class="st4" width="9.9" height="8.9"/>
						<rect x="183.3" y="414.9" class="st4" width="9.9" height="8.9"/>
						<rect x="161.5" y="423.8" class="st4" width="9.9" height="8.9"/>
						<rect x="182.4" y="362.6" class="st4" width="9.9" height="8.9"/>
						<rect x="161.5" y="390.6" class="st4" width="9.9" height="8.9"/>
						<rect x="171.5" y="372.8" class="st4" width="9.9" height="8.9"/>
						<rect x="92.8" y="400.1" class="st4" width="9.9" height="8.9"/>
						<rect x="113.6" y="366.9" class="st4" width="9.9" height="8.9"/>
						<rect x="92.8" y="366.9" class="st4" width="9.9" height="8.9"/>
						<rect x="102.7" y="349.1" class="st4" width="9.9" height="8.9"/>
					</g>
					<path class="st5" d="M343.1,510.3c13.5-21.6,6.9-50-14.7-63.5c-10.6-6.6-23.5-8.7-35.7-5.6c-0.8-4.8-2.7-9.3-5.4-13.4
						c6-3.9,7.7-11.9,3.9-17.9s-11.9-7.7-17.9-3.9c-2.7,1.7-4.6,4.4-5.5,7.4c-10.4-3.1-21.6-1.2-30.4,5.1
						c-8.9-14.4-27.7-18.9-42.1-10c-9,5.6-14.5,15.4-14.5,26c0,1.3,0.1,2.7,0.3,4c-22.9-5.4-45.8,8.7-51.2,31.6
						c-0.7,2.9-1.1,5.8-1.1,8.8c-14-4.8-29.2,2.7-34,16.7c-1.6,4.7-1.9,9.8-0.8,14.7H343.1z"/>
					<path class="st5" d="M322.2,510.3c-8.5-13.6-4.4-31.6,9.3-40.1c6.7-4.2,14.8-5.5,22.5-3.5c0.5-3,1.7-5.9,3.4-8.5
						c-3.8-2.5-4.9-7.5-2.4-11.3s7.5-4.9,11.3-2.4c1.7,1.1,2.9,2.7,3.4,4.6c2.1-0.6,4.2-0.9,6.3-0.9c4.6,0,9.1,1.4,12.9,4.1
						c5.6-9.1,17.5-11.9,26.6-6.3c5.7,3.5,9.2,9.7,9.2,16.4c0,0.8-0.1,1.7-0.2,2.5c14.4-3.4,28.9,5.5,32.3,19.9
						c0.4,1.8,0.7,3.7,0.7,5.6c8.8-3,18.5,1.7,21.5,10.5c0.6,1.8,0.9,3.6,0.9,5.5c0,1.3-0.1,2.5-0.4,3.8L322.2,510.3z"/>
					<path class="st5" d="M702.9,464.3c-5.9-0.7-11.9,0.2-17.3,2.6c0.4-1.3,0.7-2.7,0.9-4.1c1.4-12.2-7.3-23.2-19.4-24.6
						c-11.6-1.4-22.3,6.5-24.4,18c-6.6-4.5-15.2-4.3-21.6,0.3c0.5-9.3-6.7-17.1-15.9-17.6c-9.3-0.5-17.1,6.7-17.6,15.9
						c-0.2,3.1,0.5,6.1,2,8.8c-15.3-5.3-32.2,1.2-40,15.4c-8.2-7.4-20.9-6.8-28.3,1.5s-6.8,20.9,1.5,28.3c7.3,6.6,18.3,6.9,26,0.7
						c7.9,16.6,27.8,23.6,44.4,15.6c2.3-1.1,4.5-2.5,6.6-4.1c11.9,9.9,29.1,10.3,41.4,0.9c10.6,15,31.4,18.6,46.4,8
						c0.4-0.3,0.7-0.5,1.1-0.8c2.1,0.7,4.3,1.2,6.6,1.5c18.2,2.4,35-10.4,37.4-28.7c2.4-18.2-10.4-35-28.7-37.4
						C703.5,464.4,703.2,464.3,702.9,464.3L702.9,464.3z"/>
					<path class="st6" d="M346.8,450.2c-6,0-10.5-4-11.7-10.7c-0.2-1.1-0.4-2.3-0.6-3.5c-1.5-8.4-3-17-8-19.1
						c-3.8-1.6-9.9,0.3-18.2,5.8c-9.1,6-24,10.6-38.8,11.8c-10,0.8-28.4,0.8-39.3-9.2c-7.8-7-13.9-21.3,0.8-49.3l4.4,2.3
						c-10.6,20.2-11.2,34.8-1.8,43.3c15.4,14,55.2,8,72.1-3.1c9.9-6.5,17.4-8.5,22.9-6.2c7.4,3.2,9.2,13.2,10.9,22.8
						c0.2,1.2,0.4,2.3,0.6,3.4c0.8,4.5,3.4,6.9,7.3,6.7c6.1-0.3,13.2-6.8,14-16.7c0.8-9.2-3.9-17.2-8.4-25
						c-4.3-7.3-8.3-14.2-7.3-21.5c2-15.1,25.5-23.4,26.5-23.7l1.6,4.7c-0.2,0.1-21.6,7.6-23.1,19.6c-0.7,5.6,2.9,11.8,6.7,18.4
						c4.7,8,10,17.2,9.1,27.9c-1.1,12.8-10.4,20.8-18.7,21.3L346.8,450.2z"/>
					<path class="st7" d="M316.6,401c0.9,2.3,2.5,4.3,4.5,5.6c3.5,2.2,6.6,3.6,8.8,4.8s-1.3,3.1-5,1.6c-3.7-1.5-11.8,1.3-13,1.7
						c-0.8-2.2-1.9-5.1-1.9-5.1L316.6,401z"/>
					
						<linearGradient id="SVGID_5_" gradientUnits="userSpaceOnUse" x1="79.3632" y1="340.1906" x2="140.9325" y2="340.1906" gradientTransform="matrix(1 0 0 -1 131.92 692.01)">
						<stop  offset="0" style="stop-color:#3841F2"/>
						<stop  offset="0.99" style="stop-color:#468AF5"/>
					</linearGradient>
					<path class="st8" d="M272.9,314.8c0,0,0-1.8-6.9-9.4s-28.3-7.7-37.2,3.5c-11.9,14.9-27.6,65.2-8.4,84.6s34.2,5.6,36.6,0.9
						S264.3,334.8,272.9,314.8z"/>
					<path class="st4" d="M239,393.6c-19.3-19.4-3.5-69.8,8.4-84.6c3.1-3.7,7.2-6.3,11.9-7.5c-9.4-3.1-23.7-1.1-30.6,7.5
						c-11.9,14.9-27.6,65.2-8.4,84.6c12.1,12.2,22.5,11.3,29.1,7.7C245.5,399.3,242,396.7,239,393.6z"/>
					<path class="st7" d="M314.2,419.2c0,0,1.7,2.6,4,3c2.3,0.4,2.6-1.1,2.6-1.1s2,1.3,3.1-0.5c1.9,0.9,3.6-0.2,3.6-1.1
						c1.2,0.4,1.2-4.4,0-5.5s-3-0.4-2.2,1.7c-1-1.2-1.7-1.9-2.2-1.9s-2,0.9-0.8,2.8c-1.3-1.5-2.6-2-3.4-1.2c-0.4,0.5-0.4,1.3,0,1.9
						c0,0-1.1-1.6-2.1-1.1s-0.6,1.9-0.6,1.9L314.2,419.2z"/>
					
						<linearGradient id="SVGID_6_" gradientUnits="userSpaceOnUse" x1="126.2246" y1="327.6685" x2="186.2512" y2="327.6685" gradientTransform="matrix(1 0 0 -1 131.92 692.01)">
						<stop  offset="0" style="stop-color:#3841F2"/>
						<stop  offset="0.99" style="stop-color:#468AF5"/>
					</linearGradient>
					<path class="st9" d="M318,401.4c0.8-4.4-2-2.2-2.4-4.8s-1-6-13-13.6c-6.6-4.2-8.2-4.6-8.4-4.3c-0.7-1.3-1.7-2.3-3-3
						c-1.2-0.6-3.4-1.9-3.4-3.2c0-1.4-1-2.5-2.4-2.6c-1.1,0.1-1.2-1.1-1.1-2.9c0.5-0.7,0.5-1.6,0.1-2.3c-0.7-1,0.6-1.7,2.6-2.7
						s0.5-3.5,3.1-8s17.9-23.8,11.8-31.2s-13.2-6.6-21.3-0.9S265,348.3,265,348.3c-2.1,2.6-12.4,21.6-3,31.2
						c3.9,7.4,14.4,16.3,18.3,19c4.1,2.9,12,4.3,15,8.4s10.2,2.3,11.6,2.7s0.8,1,2.8,1.7C311.6,412,317.2,405.8,318,401.4z"/>
					<path class="st10" d="M307.7,293.9c10.9-5.3,10.8-13.1,10.3-20c-0.5-4.9-1.4-9.8-2.8-14.5C315.1,259.4,296.4,271.2,307.7,293.9
						"/>
					
						<linearGradient id="SVGID_7_" gradientUnits="userSpaceOnUse" x1="175.0321" y1="405.5268" x2="191.3938" y2="405.5268" gradientTransform="matrix(1 0 0 -1 131.92 692.01)">
						<stop  offset="0" style="stop-color:#3841F2"/>
						<stop  offset="0.99" style="stop-color:#468AF5"/>
					</linearGradient>
					<path class="st11" d="M307,277.3c0,0,7.2,4.6,9.5,1.4s0.4-5.4,2.8-4.3s5.6,9,3.3,17.8c-2.4,8.8-13,6.8-14.3,5.7
						C306.9,296.8,307,277.3,307,277.3z"/>
					<g>
						<path class="st12" d="M319.2,274.4c-1.9-0.9-1,0.4-1.9,2.6c2.1,4.8,2.5,10.1,1.1,15.1c-0.9,3.6-3.9,6.2-7.5,6.6
							c3.7,0.5,9.9-0.1,11.6-6.6C324.9,283.4,321.6,275.5,319.2,274.4z"/>
					</g>
					
						<linearGradient id="SVGID_8_" gradientUnits="userSpaceOnUse" x1="145.2487" y1="217.1913" x2="220.5625" y2="217.1913" gradientTransform="matrix(1 0 0 -1 131.92 692.01)">
						<stop  offset="0" style="stop-color:#3841F2"/>
						<stop  offset="0.99" style="stop-color:#468AF5"/>
					</linearGradient>
					<path class="st13" d="M303.6,400.2c0,0,22.3,50.7,26.2,62.8s0,11.7,3.2,19.1s8.2,34.8,9.9,39.7c1.8,5,2.3,12.6-0.6,14.7
						c-2.8,2.1,10,10.2,10,10.2s-18.7,2.8-26.9,2.8c-1.8-9.2-2.5-22.3-7.1-27.6c-4.6-5.3-16.2-22.1-14.9-33.2
						c1.3-11.1-24.2-35.7-26.4-39.9S303.6,400.2,303.6,400.2z"/>
					
						<linearGradient id="SVGID_9_" gradientUnits="userSpaceOnUse" x1="175.6225" y1="162.1113" x2="249.0348" y2="162.1113" gradientTransform="matrix(1 0 0 -1 131.92 692.01)">
						<stop  offset="0" style="stop-color:#FFD100"/>
						<stop  offset="1" style="stop-color:#EFDE78"/>
					</linearGradient>
					<path class="st14" d="M323.7,563c0,0,45.3-0.1,57.2-12.5c0.5-6.3-6.5-12.3-18.4-7.5c-6,2.4-13.4-1.9-15.2-7.9
						c-1.9-6.3-6.6-33.6-7.9-38.3c-14.5,5-28.8,6.6-31.8,12.6c7.1,9.1,14.7,27.2,15.8,32.6c1.1,5.4,0.4,6.7-0.7,11.2
						C321.6,557.7,323.7,563,323.7,563z"/>
					<g class="st15">
						<path class="st4" d="M333.2,561.2c0,0-2.1-5.3-1.1-9.8s1.8-5.7,0.7-11.2c-1-5.3-8.2-27.3-15.1-37c-5,1.7-8.8,3.5-10.2,6.2
							c7.1,9.1,14.7,27.2,15.8,32.6c1.1,5.4,0.4,6.7-0.7,11.2c-1.1,4.5,1.1,9.8,1.1,9.8s21.7,0,39-4.2
							C352.9,560.2,343.1,561,333.2,561.2z"/>
					</g>
					
						<linearGradient id="SVGID_10_" gradientUnits="userSpaceOnUse" x1="59.8025" y1="297.6295" x2="185.9925" y2="297.6295" gradientTransform="matrix(1 0 0 -1 131.92 692.01)">
						<stop  offset="0" style="stop-color:#3841F2"/>
						<stop  offset="0.99" style="stop-color:#468AF5"/>
					</linearGradient>
					<path class="st16" d="M310.5,300.7c-2-5.6-1-9.8-1.9-18.7c-0.9-9.3,6-19.4,9.3-23.7c-0.2-0.9-2.2-3.5-11-6s-13.7,0.1-16.2,1.3
						c-2.5,1.2-2.8-1.8-5.9-1.2s-8.5,7.8-6,15.6c0.6,2,1.4,4.2,2.2,6.3c0.5,1.5-1,4.3-0.5,5.7c1.5,4.3,4.5,6.5,3.6,6.9
						c-1.6,0.9-3.9,2.5-2.3,6.5c0.5,1.6,0.6,3.2,0.1,4.8c-5,6-11.4,17.1-18.4,29.6c-10.3,18.4-10.6,45.4-4.6,57.8
						c-13.5,15.2-9.2,35.1-6.3,47.1c-4.1,6-4,25.5-4,25.5s-6.9,4-6.4,11.1c-12.3-1.4-27.4,20.3-35,33.6
						c-7.6,13.2-15.6,19.9-15.6,19.9s2.8,10.4,16.5,14.7c4.7-6.6,44-39.2,54.4-47.8c10.4-8.5,24.1-31.7,35-49.6
						c10.9-18,7.6-39.9,11-47.5s-0.3-10.6-4.1-16.5c-3.8-5.9,3.8-27,7.6-38.3c3.8-11.3,0-36.4,0-36.4S311.5,301.1,310.5,300.7z"/>
					<path class="st17" d="M204.4,522.9c0,0,8-6.6,15.6-19.9c7.6-13.2,22.7-35,35-33.6c-0.5-7.1,6.4-11.1,6.4-11.1s-0.1-19.5,4-25.5
						c-3-12-7.2-31.9,6.3-47.1c-6-12.4-5.7-39.4,4.6-57.8c7-12.5,13.3-23.6,18.4-29.6c0.5-1.6,0.4-3.2-0.1-4.8
						c-1.6-4,0.7-5.6,2.3-6.5c0.9-0.5-2.2-2.7-3.6-7c-0.5-1.4,1.1-4.1,0.5-5.7c-0.8-2.1-1.5-4.3-2.2-6.3c-2.5-7.8,3-15.1,6-15.6
						s3.4,2.5,5.9,1.2c1-0.5,2.1-1,3.2-1.4c-8.6-2.3-13.4,0.2-15.9,1.4s-2.8-1.8-5.9-1.2s-8.5,7.8-6,15.6c0.6,2,1.4,4.2,2.2,6.3
						c0.6,1.5-1,4.3-0.5,5.7c1.5,4.3,4.5,6.5,3.6,7c-1.6,0.9-3.9,2.5-2.3,6.5c0.5,1.6,0.6,3.2,0.1,4.8c-5,6-11.4,17.1-18.4,29.6
						c-10.3,18.4-10.6,45.4-4.6,57.8c-13.5,15.2-9.2,35.1-6.3,47.1c-4.1,6-4,25.5-4,25.5s-6.9,4-6.4,11.1c-12-1.4-27,19.6-35,33.6
						c-7.6,13.2-15.6,19.9-15.6,19.9s2.8,10.4,16.5,14.7c1.2-1.5,2.6-3,4-4.3C208.6,530.6,205.9,527,204.4,522.9z"/>
					<path class="st18" d="M264.1,309.3c0,0,22.9-11,37.1-8.1c14.2,2.9,17.4,19.3,9.9,39.5c-1.6-18.5-6.1-30.3-10.8-31
						c-4.7-0.7-30,5-39.5,9.2C262.7,311.3,264.1,309.3,264.1,309.3z"/>
					<path class="st18" d="M254.8,388c0,0,39.9-5.3,49.2-29.9c0.3-6.6-2.5-6.3-2.5-6.3s-13.9,24-46.7,27.8
						C254.4,382.4,254.4,385.2,254.8,388z"/>
					<path class="st19" d="M364.6,373.8c0.2-0.1,0.4-0.2,0.5-0.4L364.6,373.8z"/>
					
						<linearGradient id="SVGID_11_" gradientUnits="userSpaceOnUse" x1="44.0803" y1="163.927" x2="100.8425" y2="163.927" gradientTransform="matrix(1 0 0 -1 131.92 692.01)">
						<stop  offset="0" style="stop-color:#FFD100"/>
						<stop  offset="1" style="stop-color:#EFDE78"/>
					</linearGradient>
					<path class="st20" d="M211.7,493.5c0,0,10,20.6,21.1,23.2c-9,5.6-22.5,17.9-22.9,20.5c-0.3,2.6,4,12,9.4,13.6
						c8.3,2.4,7,9,6,10.5s-16,2.1-20.9,0s-19.2-18.1-21-20.1c-1.8-2-7.6-7-7.4-8.9c0.4-5.8,6.7-6.1,13.9-9.8
						C197.2,518.8,211.7,493.5,211.7,493.5z"/>
					<g class="st15">
						<path class="st4" d="M191.6,546.5c-1.9-2-7.6-7-7.4-8.9c0.4-5.8,6.7-6.1,14-9.8c5.4-2.8,14.8-17.4,19.2-24.8
							c-2.1-3.1-4-6.3-5.6-9.6c0,0-14.5,25.4-21.8,29.1c-7.3,3.7-13.6,4-13.9,9.8c-0.1,1.9,5.6,6.8,7.4,8.9c1.9,2,16.1,18,21,20.1
							c0.6,0.3,1.3,0.5,2,0.6C200.5,556.4,192.9,548,191.6,546.5z"/>
					</g>
					<path class="st7" d="M311.8,266.3c0,0,4.9-0.6,6.6-0.8c0.3,0,0.6,0.2,0.7,0.5c0.6,3,0.9,6,0.9,9c0,0-1.4-0.6-2.1,1.5
						c-0.7,2.1-2.1,4.3-4.3,4.8s-5.8-0.4-5.9-1.6c-0.1-1.2-0.7-10.5-0.4-11.8S311.8,266.3,311.8,266.3z"/>
					<path class="st21" d="M313.7,279.5c2.1-0.5,3.5-2.6,4.3-4.7c0.6-1.9,1.8-1.6,2-1.5c0-2.4-0.3-4.7-0.8-7
						c-1.5,0.1-6.5,0.8-6.5,0.8c-0.7,0.3-1.2,0.9-1.3,1.7c-0.3,1.3,0.3,6.6,0.4,7.8S311.5,280.1,313.7,279.5z"/>
					<path class="st22" d="M314.7,266.9l-1.8,12.7c0.2,0,0.5,0,0.7-0.1c0.6-0.1,1.1-0.4,1.6-0.8l1.5-12.1L314.7,266.9z"/>
					<path class="st22" d="M317.5,266.6l-1.4,11.4c0.5-0.5,0.9-1.1,1.2-1.7l1.1-9.8L317.5,266.6z"/>
					<polygon class="st7" points="308.3,274.1 280.5,274.1 279.6,271.3 308.3,270.5 					"/>
					
						<linearGradient id="SVGID_12_" gradientUnits="userSpaceOnUse" x1="205.5904" y1="335.5918" x2="328.0887" y2="335.5918" gradientTransform="matrix(1 0 0 -1 131.92 692.01)">
						<stop  offset="0" style="stop-color:#FFD100"/>
						<stop  offset="1" style="stop-color:#EFDE78"/>
					</linearGradient>
					<path class="st23" d="M337.6,373.5l0.5,1.8c0.4,1.4,1.9,2.2,3.3,1.8l97.7-29.4c0.8-0.2,1.5-0.9,1.8-1.7
						c0.2-0.7,0.7-1.3,1.4-1.5l16.4-5.3c0.9-0.3,1.4-1.3,1.1-2.2c-0.2-0.7-0.8-1.1-1.5-1.2c-0.3,0-0.5,0-0.8,0.1l-16.7,5.4
						c-0.6,0.2-1.3,0.1-1.9-0.2c-0.6-0.3-1.3-0.3-1.9-0.1l-97.7,29.4C338,370.6,337.2,372.1,337.6,373.5z"/>
					
						<linearGradient id="SVGID_13_" gradientUnits="userSpaceOnUse" x1="228.7847" y1="327.6786" x2="253.3148" y2="327.6786" gradientTransform="matrix(1 0 0 -1 131.92 692.01)">
						<stop  offset="0" style="stop-color:#3841F2"/>
						<stop  offset="0.99" style="stop-color:#468AF5"/>
					</linearGradient>
					<path class="st24" d="M384.8,364c-3.2,0.4-6.2-0.3-7.3-1.1c-1-0.9-1.4-2.3-1-3.6c1.5-0.2,3-0.6,4.4-1.3
						c1.4-0.8,1.7-3.2,0.4-2.8c-3.2,0.8-6.5,1.1-9.8,1.1c-4.3-0.1-7.7,3.8-7.7,3.8l0.1,0.6c-0.4,0.3-0.8,0.7-1.1,1.1
						c0,0-4,5.7-0.7,7.7s7.7,3.8,10.3,4c1.5,0.2,3.3-0.1,3.8-2.1c0.7,0.4,3.5,0.3,3.2-1.7c1.6,0.4,3.3-0.8,2.4-2.1
						C382.6,367.2,386.6,365.5,384.8,364z"/>
					
						<linearGradient id="SVGID_14_" gradientUnits="userSpaceOnUse" x1="153.1718" y1="346.1927" x2="234.2926" y2="346.1927" gradientTransform="matrix(1 0 0 -1 131.92 692.01)">
						<stop  offset="0" style="stop-color:#3841F2"/>
						<stop  offset="0.99" style="stop-color:#468AF5"/>
					</linearGradient>
					<path class="st25" d="M364.8,360.9c-2.1-4-3-0.5-4.9-2.2s-4.6-4-18.7-2.4c-7.8,0.9-9.3,1.6-9.3,1.9c-1.3-0.6-2.8-0.7-4.2-0.5
						c-1.3,0.3-3.9,0.6-4.6-0.4c-0.8-1.1-2.4-1.3-3.5-0.6c-0.8,0.7-1.6-0.1-2.7-1.6c-0.1-0.8-0.6-1.5-1.4-1.9
						c-1.2-0.4-0.7-1.7,0.3-3.7s-1.8-3.1-2.5-8.2s-0.9-29.8-10.4-31.7s-14.4,3.1-17.2,12.7c-2.7,9.5,4.5,30.4,4.5,30.4
						c0,3.3,3.9,24.6,17.2,26.2c7.7,3.3,21.5,3.7,26.2,3.4c5-0.3,12-4.1,17-2.9s9.4-4.6,10.7-5.2s1.3,0.3,3.3-0.4
						S366.9,364.9,364.8,360.9z"/>
					<path class="st19" d="M356.6,376.8c-5-1.3-12,2.5-17,2.9c-4.7,0.3-18.5-0.1-26.2-3.4c-13.4-1.5-17.2-22.9-17.2-26.2
						c0,0-7.2-20.8-4.5-30.4c1.3-4.5,3.1-8.1,5.7-10.3c-6,0.7-9.6,5.5-11.7,13c-2.7,9.5,4.5,30.4,4.5,30.4c0,3.3,3.9,24.6,17.2,26.2
						c7.7,3.3,21.4,3.7,26.2,3.4c5-0.3,12-4.1,17-2.9c2.8,0.7,5.5-0.9,7.5-2.5C357.6,377,357.1,376.9,356.6,376.8z"/>
					<path class="st5" d="M617.7,257.8c-10.5,0-20.7,3.2-29.3,9.2c-13-23.6-42.6-32.2-66.2-19.2c-15.6,8.6-25.3,24.9-25.3,42.7
						c0,2.1,0.1,4.2,0.4,6.2c-12.9,1.2-23.7,10.3-27,22.9c-8.5-2.5-17.4,2.4-19.9,10.9s2.4,17.4,10.9,19.9
						c5.3,1.6,11.1,0.2,15.2-3.5c5.2,6.2,12.6,10.1,20.7,10.8c3.4,28.1,29,48.2,57.2,44.8c23.7-2.9,42.2-21.7,44.8-45.4
						c26.5,10.1,56.2-3.1,66.3-29.6c10.1-26.5-3.1-56.2-29.6-66.3C630.2,258.9,624,257.8,617.7,257.8L617.7,257.8z"/>
					
						<linearGradient id="SVGID_15_" gradientUnits="userSpaceOnUse" x1="503.7749" y1="358.5263" x2="544.1549" y2="358.5263" gradientTransform="matrix(1 0 0 -1 131.92 692.01)">
						<stop  offset="0" style="stop-color:#DBE25B"/>
						<stop  offset="1" style="stop-color:#45B549"/>
					</linearGradient>
					<path class="st26" d="M674.4,331.8c-0.8,0-1.5,0.6-1.6,1.4h-5c0-0.8-0.1-1.5-0.3-2.3l1.3-0.3c0,0.1,0.1,0.2,0.1,0.3
						c0.5,0.8,1.5,1.1,2.3,0.6c0.8-0.5,1.1-1.5,0.6-2.3c-0.5-0.8-1.5-1.1-2.3-0.6c-0.5,0.3-0.8,0.8-0.8,1.4l-1.3,0.3
						c-0.3-0.9-0.6-1.8-1.1-2.6l4.4-2.5c0.6,0.7,1.6,0.8,2.3,0.2c0.7-0.6,0.8-1.6,0.2-2.3c-0.6-0.7-1.6-0.8-2.3-0.2
						c-0.5,0.4-0.7,1.2-0.5,1.8l-4.4,2.5c-0.3-0.4-0.6-0.9-0.9-1.3c-0.2-0.2-0.4-0.4-0.6-0.6l1.3-1.1c0.7,0.6,1.7,0.5,2.3-0.3
						c0.6-0.7,0.5-1.7-0.3-2.3c-0.7-0.6-1.7-0.5-2.3,0.3c-0.4,0.5-0.5,1.3-0.1,1.9l0,0l-1.3,1.2c-0.6-0.6-1.4-1.1-2.1-1.6l2.6-4.5
						c0.9,0.3,1.8-0.1,2.1-1s-0.1-1.8-1-2.1c-0.8-0.3-1.6,0-2,0.7c-0.4,0.7-0.3,1.6,0.4,2.1l-2.6,4.5c-0.7-0.4-1.4-0.7-2.2-0.9
						l0.6-2.4c0.3,0,0.5-0.1,0.8-0.2c0.8-0.5,1.1-1.5,0.7-2.3s-1.5-1.1-2.3-0.7c-0.8,0.5-1.1,1.5-0.7,2.3c0.2,0.4,0.6,0.7,1,0.8
						l-0.5,2.3c-0.9-0.2-1.7-0.3-2.6-0.4v-5.2c0.9-0.2,1.5-1,1.4-1.9c-0.2-0.9-1-1.5-1.9-1.4s-1.5,1-1.4,1.9
						c0.1,0.7,0.7,1.2,1.4,1.4v5.2c-1,0-1.9,0.2-2.8,0.4l-0.4-1.2c0.1,0,0.1-0.1,0.2-0.1c0.8-0.5,1.1-1.5,0.6-2.3c0,0,0,0,0,0
						c-0.5-0.8-1.5-1.1-2.3-0.6c-0.8,0.5-1.1,1.5-0.6,2.3c0.3,0.5,0.9,0.9,1.5,0.8l0.4,1.2c-0.7,0.2-1.4,0.5-2,0.8l-2.6-4.5
						c0.7-0.6,0.8-1.6,0.2-2.3c-0.5-0.6-1.4-0.8-2.1-0.4c-0.8,0.4-1.1,1.4-0.7,2.2c0.4,0.7,1.3,1.1,2.1,0.8l2.6,4.5
						c-0.9,0.5-1.7,1.1-2.4,1.9l-0.8-0.6c0.5-0.8,0.2-1.8-0.5-2.3c-0.8-0.5-1.8-0.2-2.3,0.5c-0.5,0.8-0.2,1.8,0.5,2.3
						c0.5,0.3,1.2,0.3,1.7,0c0.1,0,0.1-0.1,0.2-0.1l0.8,0.6c-0.1,0.1-0.2,0.3-0.3,0.4c-0.3,0.4-0.6,0.8-0.9,1.3l-4.4-2.5
						c0.3-0.9-0.1-1.8-1-2.1c-0.9-0.3-1.8,0.1-2.1,1c-0.3,0.9,0.1,1.8,1,2.1c0.7,0.2,1.4,0,1.8-0.5l4.4,2.5c-0.4,0.8-0.8,1.6-1,2.5
						l-0.8-0.2c0-0.3-0.1-0.6-0.2-0.8c-0.5-0.8-1.5-1.1-2.3-0.6c-0.8,0.5-1.1,1.5-0.6,2.3c0.5,0.8,1.5,1.1,2.3,0.6
						c0.4-0.2,0.6-0.5,0.7-0.9l0.7,0.2c-0.2,0.8-0.3,1.6-0.3,2.4h-5c-0.2-0.9-1-1.5-1.9-1.4c-0.9,0.2-1.5,1-1.4,1.9
						c0.2,0.9,1,1.5,1.9,1.4c0.7-0.1,1.3-0.7,1.4-1.4h5c0,0.9,0.1,1.7,0.3,2.6c-0.5-0.5-1.4-0.6-2-0.2c-0.8,0.5-1.1,1.5-0.6,2.3
						c0.5,0.8,1.5,1.1,2.3,0.6l0,0c0.4-0.2,0.7-0.6,0.8-1.1c0.2,0.5,0.4,0.9,0.6,1.3l-4.2,2.5c-0.6-0.7-1.6-0.8-2.4-0.3
						c-0.7,0.6-0.8,1.6-0.3,2.4s1.6,0.8,2.4,0.3c0.6-0.5,0.8-1.2,0.5-1.9l4.3-2.5c0.3,0.5,0.6,1,1,1.5c0.2,0.2,0.3,0.4,0.5,0.6
						l-0.4,0.4c-0.7-0.5-1.8-0.4-2.3,0.4s-0.4,1.8,0.4,2.3c0.7,0.5,1.8,0.4,2.3-0.4c0.4-0.5,0.4-1.2,0.1-1.8c0,0,0-0.1-0.1-0.1
						l0.4-0.4c0.6,0.6,1.3,1.1,2,1.6l-2.4,4.2c-0.9-0.3-1.8,0.1-2.1,1c-0.3,0.9,0.1,1.8,1,2.1s1.8-0.1,2.1-1
						c0.2-0.7,0.1-1.4-0.5-1.9l2.4-4.2c0.6,0.4,1.3,0.7,2,0.9l-0.3,0.8c-0.9-0.1-1.7,0.6-1.8,1.5c-0.1,0.9,0.6,1.7,1.5,1.8
						c0.3,0,0.7-0.1,1-0.2c0.8-0.4,1.1-1.5,0.6-2.2c0,0,0,0,0,0c-0.2-0.3-0.5-0.5-0.8-0.7l0.3-0.8c1,0.3,1.9,0.4,2.9,0.4v4.8
						c-0.9,0.2-1.5,1-1.4,1.9c0.2,0.9,1,1.5,1.9,1.4s1.5-1,1.4-1.9c-0.1-0.7-0.7-1.2-1.4-1.4v-4.8c1,0,2-0.2,2.9-0.4l0.2,0.8
						l-0.3,0.1c-0.8,0.5-1.1,1.5-0.6,2.3c0.5,0.8,1.5,1.1,2.3,0.6c0.8-0.5,1.1-1.5,0.6-2.3c-0.3-0.5-0.9-0.8-1.5-0.8l-0.2-0.8
						c0.7-0.2,1.4-0.5,2.1-0.9l2.4,4.2c-0.7,0.6-0.8,1.7-0.2,2.3c0.5,0.6,1.4,0.7,2,0.4c0.8-0.4,1.1-1.5,0.6-2.3
						c-0.4-0.7-1.3-1-2-0.7l-2.4-4.2c0.9-0.6,1.7-1.2,2.4-2l0.9,0.8c-0.5,0.8-0.3,1.8,0.4,2.3s1.8,0.3,2.3-0.4
						c0.4-0.5,0.4-1.2,0.1-1.8c-0.4-0.8-1.4-1.1-2.2-0.6c0,0,0,0,0,0c-0.1,0-0.1,0.1-0.2,0.1l-0.9-0.8c0.4-0.5,0.8-1.1,1.2-1.7
						l4.3,2.5c-0.3,0.9,0.1,1.8,1,2.2c0.9,0.3,1.8-0.1,2.2-1c0.3-0.9-0.1-1.8-1-2.2c-0.7-0.3-1.4-0.1-1.9,0.5l-4.3-2.5
						c0.5-0.9,0.8-1.9,1-2.8l1,0.3c0,0.3,0.1,0.7,0.2,0.9c0.5,0.8,1.5,1.1,2.3,0.6c0.8-0.5,1.1-1.5,0.6-2.3
						c-0.5-0.8-1.5-1.1-2.3-0.6c-0.3,0.2-0.6,0.5-0.7,0.8l-1-0.3c0.1-0.5,0.2-1,0.2-1.6l0,0v-0.5h5c0.2,0.9,1,1.5,1.9,1.4
						c0.9-0.2,1.5-1,1.4-1.9c-0.1-0.8-0.8-1.4-1.6-1.4L674.4,331.8z"/>
					
						<linearGradient id="SVGID_16_" gradientUnits="userSpaceOnUse" x1="392.9323" y1="412.9229" x2="428.1823" y2="412.9229" gradientTransform="matrix(1 0 0 -1 131.92 692.01)">
						<stop  offset="0" style="stop-color:#DBE25B"/>
						<stop  offset="1" style="stop-color:#45B549"/>
					</linearGradient>
					<path class="st27" d="M558.7,277.6c-0.7,0-1.3,0.5-1.4,1.2h-4.4c0-0.7-0.1-1.3-0.3-2l1.1-0.2c0,0.1,0.1,0.2,0.1,0.2
						c0.4,0.7,1.3,0.9,2,0.5s0.9-1.3,0.5-2c-0.4-0.7-1.3-0.9-2-0.5c-0.5,0.3-0.7,0.7-0.7,1.3l-1.1,0.2c-0.2-0.8-0.5-1.5-0.9-2.2
						l3.9-2.2c0.6,0.6,1.5,0.6,2,0.1c0.6-0.6,0.6-1.5,0.1-2c-0.6-0.6-1.5-0.6-2-0.1c-0.5,0.4-0.6,1.1-0.3,1.7l-3.9,2.2
						c-0.2-0.4-0.5-0.7-0.8-1.1c-0.2-0.2-0.3-0.4-0.5-0.6l1.1-1c0.6,0.5,1.5,0.4,2-0.2c0.5-0.6,0.4-1.5-0.2-2
						c-0.6-0.5-1.5-0.4-2,0.2c-0.4,0.5-0.4,1.1-0.1,1.6l0,0l-1.1,1c-0.6-0.5-1.2-1-1.8-1.4l2.3-3.9c0.8,0.3,1.6-0.1,1.9-0.8
						c0.3-0.8-0.1-1.6-0.8-1.9c-0.8-0.3-1.6,0.1-1.9,0.8c-0.2,0.6-0.1,1.2,0.4,1.6l-2.3,3.9c-0.6-0.3-1.3-0.6-1.9-0.8l0.5-2.1
						c0.8,0,1.4-0.7,1.4-1.5s-0.7-1.4-1.5-1.4c-0.2,0-0.5,0.1-0.7,0.2c-0.7,0.4-0.9,1.3-0.5,2c0.2,0.3,0.5,0.6,0.8,0.7l-0.5,2
						c-0.7-0.2-1.5-0.3-2.3-0.3v-4.5c0.8-0.1,1.3-0.9,1.2-1.7c-0.1-0.8-0.9-1.3-1.7-1.2c-0.8,0.1-1.3,0.9-1.2,1.7
						c0.1,0.6,0.6,1.1,1.2,1.2v4.5c-0.8,0-1.7,0.1-2.5,0.4l-0.3-1l0.2-0.1c0.7-0.4,0.9-1.3,0.5-2s-1.3-0.9-2-0.5
						c-0.7,0.4-0.9,1.3-0.5,2c0.3,0.5,0.8,0.8,1.3,0.7l0.3,1c-0.6,0.2-1.2,0.4-1.7,0.7l-2.3-3.9c0.6-0.5,0.7-1.4,0.2-2
						c-0.5-0.6-1.4-0.7-2-0.2c-0.6,0.5-0.7,1.4-0.2,2c0.4,0.5,1,0.6,1.6,0.4l2.3,3.9c-0.8,0.5-1.4,1-2.1,1.6l-0.7-0.5
						c0.3-0.5,0.3-1,0-1.5c-0.4-0.7-1.3-0.9-2-0.5c-0.7,0.4-0.9,1.3-0.5,2c0.4,0.7,1.3,0.9,2,0.5c0.1,0,0.1-0.1,0.2-0.1l0.7,0.5
						c-0.1,0.1-0.2,0.2-0.3,0.3c-0.3,0.3-0.5,0.7-0.8,1.1l-3.8-2.2c0.3-0.8-0.1-1.6-0.9-1.9c-0.8-0.3-1.6,0.1-1.9,0.9
						s0.1,1.6,0.9,1.9c0.6,0.2,1.2,0,1.6-0.4l3.8,2.2c-0.4,0.7-0.7,1.4-0.9,2.1l-0.7-0.2c0-0.2-0.1-0.5-0.2-0.7
						c-0.4-0.7-1.3-0.9-2-0.5c-0.7,0.4-0.9,1.3-0.5,2c0.4,0.7,1.3,0.9,2,0.5c0.3-0.2,0.5-0.5,0.7-0.8l0.6,0.2
						c-0.2,0.7-0.3,1.4-0.3,2.1h-4.4c-0.1-0.8-0.9-1.3-1.7-1.2c-0.8,0.1-1.3,0.9-1.2,1.7s0.9,1.3,1.7,1.2c0.6-0.1,1.1-0.6,1.2-1.2
						h4.4c0,0.8,0.1,1.5,0.3,2.3c-0.6-0.6-1.5-0.5-2.1,0.1c-0.6,0.6-0.5,1.5,0.1,2.1c0.6,0.6,1.5,0.5,2.1-0.1
						c0.2-0.2,0.3-0.4,0.4-0.7c0.1,0.4,0.3,0.8,0.5,1.1l-3.7,2.1c-0.5-0.6-1.4-0.7-2.1-0.2s-0.7,1.4-0.2,2.1s1.4,0.7,2.1,0.2
						c0.5-0.4,0.7-1.1,0.4-1.6l3.7-2.1c0.3,0.5,0.6,0.9,0.9,1.3c0.1,0.2,0.3,0.3,0.5,0.5l-0.4,0.3c-0.7-0.4-1.5-0.3-2,0.4
						c-0.4,0.7-0.3,1.5,0.4,2c0.7,0.4,1.5,0.3,2-0.4c0.3-0.5,0.3-1.1,0.1-1.5c0,0,0-0.1-0.1-0.1l0.4-0.3c0.5,0.5,1.1,1,1.8,1.4
						l-2.1,3.7c-0.8-0.3-1.6,0.2-1.8,0.9c-0.2,0.6,0,1.3,0.6,1.7c0.7,0.4,1.6,0.1,2-0.6c0.3-0.6,0.2-1.3-0.3-1.8l2.1-3.6
						c0.6,0.3,1.2,0.6,1.8,0.8l-0.2,0.7c-0.3,0-0.6,0.1-0.8,0.2c-0.7,0.4-0.9,1.3-0.5,2c0.4,0.7,1.3,0.9,2,0.5
						c0.7-0.4,0.9-1.3,0.6-2c0,0,0,0,0,0c-0.2-0.3-0.4-0.5-0.7-0.6l0.2-0.7c0.8,0.2,1.7,0.4,2.6,0.4v4.2c-0.7,0.1-1.2,0.7-1.2,1.4
						c0,0.8,0.7,1.4,1.5,1.4c0.8,0,1.4-0.6,1.4-1.4c0-0.7-0.5-1.3-1.2-1.4v-4.2c0.9,0,1.7-0.1,2.5-0.4l0.2,0.7l-0.2,0.1
						c-0.7,0.4-0.9,1.3-0.5,2c0.4,0.7,1.3,0.9,2,0.5c0.7-0.4,0.9-1.3,0.5-2c-0.3-0.5-0.7-0.7-1.3-0.7l-0.2-0.7
						c0.6-0.2,1.2-0.5,1.8-0.8l2.1,3.6c-0.6,0.5-0.7,1.4-0.2,2.1c0.5,0.6,1.4,0.7,2.1,0.2c0.6-0.5,0.7-1.4,0.2-2.1
						c-0.4-0.5-1.1-0.7-1.6-0.4l-2.1-3.7c0.8-0.5,1.5-1.1,2.1-1.7l0.8,0.7c-0.4,0.7-0.3,1.6,0.4,2s1.6,0.3,2-0.4s0.3-1.6-0.4-2
						c-0.5-0.3-1.1-0.3-1.5-0.1c0,0-0.1,0.1-0.1,0.1l-0.8-0.7c0.4-0.5,0.7-0.9,1-1.5l3.7,2.1c-0.3,0.7,0.1,1.6,0.9,1.8
						c0.7,0.3,1.6-0.1,1.8-0.9c0.3-0.7-0.1-1.6-0.9-1.8c-0.6-0.2-1.2,0-1.6,0.4l-3.7-2.1c0.4-0.8,0.7-1.6,0.9-2.5l0.9,0.3
						c0,0.3,0,0.6,0.2,0.8c0.4,0.7,1.3,0.9,2,0.5c0.7-0.4,0.9-1.2,0.5-1.9c-0.4-0.7-1.3-0.9-2-0.5c0,0,0,0,0,0
						c-0.3,0.2-0.5,0.4-0.6,0.7l-0.9-0.3c0.1-0.5,0.1-0.9,0.2-1.4l0,0c0-0.1,0-0.3,0-0.5h4.4c0.1,0.7,0.7,1.2,1.4,1.2
						c0.8,0,1.4-0.7,1.4-1.5C560.1,278.3,559.4,277.6,558.7,277.6L558.7,277.6z"/>
					
						<linearGradient id="SVGID_17_" gradientUnits="userSpaceOnUse" x1="390.9879" y1="350.9663" x2="452.7309" y2="350.9663" gradientTransform="matrix(1 0 0 -1 131.92 692.01)">
						<stop  offset="0" style="stop-color:#DBE25B"/>
						<stop  offset="1" style="stop-color:#45B549"/>
					</linearGradient>
					<path class="st28" d="M582.1,338.5c-1.2,0-2.3,0.9-2.5,2.1h-7.7c0-1.2-0.2-2.3-0.5-3.5l1.9-0.4c0.1,0.1,0.1,0.3,0.2,0.4
						c0.7,1.2,2.3,1.7,3.5,1s1.7-2.3,1-3.5s-2.3-1.7-3.5-1c-0.8,0.5-1.3,1.3-1.3,2.2l-2,0.4c-0.4-1.4-0.9-2.7-1.6-3.9l6.8-3.9
						c0.9,1.1,2.5,1.2,3.6,0.4c1.1-0.9,1.2-2.5,0.4-3.6s-2.5-1.2-3.6-0.4c-0.8,0.7-1.2,1.8-0.8,2.9l-6.8,3.9
						c-0.4-0.7-0.9-1.3-1.4-1.9c-0.3-0.3-0.6-0.7-0.9-1l2-1.8c1.1,0.9,2.7,0.7,3.5-0.4c0.9-1.1,0.7-2.7-0.4-3.5
						c-1.1-0.9-2.7-0.7-3.5,0.4c-0.7,0.8-0.7,2-0.2,2.9v0l-2,1.8c-1-0.9-2.1-1.8-3.2-2.5l4-6.9c1.3,0.5,2.8-0.2,3.2-1.5
						c0.5-1.3-0.2-2.8-1.5-3.2c-1.3-0.5-2.8,0.2-3.2,1.5c-0.4,1-0.1,2.1,0.8,2.8l-4,6.8c-1.1-0.6-2.2-1-3.4-1.4l0.8-3.6
						c0.4,0,0.8-0.1,1.2-0.3c1.2-0.7,1.7-2.3,1-3.5c-0.7-1.2-2.3-1.7-3.5-1c-1.2,0.7-1.7,2.3-1,3.5c0.3,0.6,0.8,1,1.4,1.2l-0.8,3.5
						c-1.3-0.3-2.7-0.5-4-0.5v-8c1.4-0.2,2.3-1.6,2.1-2.9c-0.2-1.4-1.6-2.3-2.9-2.1c-1.4,0.2-2.3,1.6-2.1,2.9c0.2,1.1,1,1.9,2.1,2.1
						v8c-1.5,0-2.9,0.3-4.3,0.6l-0.6-1.8c0.1,0,0.2-0.1,0.3-0.1c1.2-0.7,1.7-2.3,1-3.5c-0.7-1.2-2.3-1.7-3.5-1
						c-1.2,0.7-1.7,2.3-1,3.5c0.5,0.8,1.4,1.3,2.4,1.3l0.6,1.8c-1,0.3-2,0.8-3,1.3l-4-6.8c1.1-0.9,1.3-2.5,0.4-3.6s-2.5-1.3-3.6-0.4
						c-1.1,0.9-1.3,2.5-0.4,3.6c0.7,0.8,1.8,1.2,2.9,0.8l4,6.9c-1.3,0.8-2.5,1.7-3.6,2.8l-1.1-0.9c0.7-1.2,0.4-2.7-0.8-3.5
						s-2.7-0.4-3.5,0.8s-0.4,2.7,0.8,3.5c0.8,0.5,1.8,0.5,2.6,0c0.1-0.1,0.2-0.1,0.3-0.2l1.2,0.9c-0.2,0.2-0.4,0.4-0.5,0.6
						c-0.5,0.6-0.9,1.2-1.3,1.9l-6.8-3.9c0.5-1.3-0.2-2.8-1.5-3.3c-1.3-0.5-2.8,0.2-3.3,1.5c-0.5,1.3,0.2,2.8,1.5,3.3
						c1,0.4,2.2,0.1,2.9-0.7l6.8,3.9c-0.7,1.2-1.2,2.5-1.6,3.8l-1.2-0.3c0-0.4-0.1-0.9-0.3-1.2c-0.7-1.2-2.3-1.7-3.5-1
						c-1.2,0.7-1.7,2.3-1,3.5c0.7,1.2,2.3,1.7,3.5,1c0.6-0.3,1-0.8,1.2-1.4l1.1,0.3c-0.3,1.2-0.5,2.4-0.5,3.6H528
						c-0.2-1.4-1.6-2.3-2.9-2.1c-1.4,0.2-2.3,1.6-2.1,2.9c0.2,1.4,1.6,2.3,2.9,2.1c1.1-0.2,1.9-1,2.1-2.1h7.7c0,1.3,0.2,2.7,0.5,4
						c-1-1-2.6-0.9-3.6,0.1s-0.9,2.6,0.1,3.6c1,1,2.6,0.9,3.6-0.1c0.3-0.3,0.5-0.7,0.6-1.2c0.3,0.7,0.6,1.4,0.9,2l-6.5,3.8
						c-0.9-1.1-2.5-1.2-3.5-0.3c-1.1,0.9-1.2,2.5-0.3,3.5s2.5,1.2,3.5,0.3c0.8-0.7,1.1-1.8,0.7-2.8l6.5-3.8c0.5,0.8,1,1.6,1.6,2.3
						c0.3,0.3,0.5,0.6,0.8,0.9l-0.6,0.6c-1.1-0.8-2.7-0.5-3.5,0.6c-0.8,1.1-0.5,2.7,0.6,3.5c1.1,0.8,2.7,0.5,3.5-0.6
						c0.6-0.8,0.6-1.9,0.1-2.7l-0.1-0.2l0.6-0.6c0.9,0.9,2,1.7,3.1,2.4l-3.7,6.4c-1.3-0.5-2.8,0.2-3.3,1.5c-0.5,1.3,0.2,2.8,1.5,3.3
						c1.3,0.5,2.8-0.2,3.3-1.5c0.4-1,0.1-2.2-0.8-2.9l3.7-6.4c1,0.6,2.1,1,3.1,1.4l-0.4,1.3c-0.5,0-1,0.1-1.4,0.3
						c-1.2,0.7-1.6,2.3-0.9,3.5s2.3,1.6,3.5,0.9c1.2-0.7,1.6-2.3,0.9-3.5c-0.3-0.5-0.7-0.9-1.2-1.1l0.4-1.2c1.5,0.4,3,0.6,4.5,0.7
						v7.4c-1.4,0.2-2.3,1.5-2.1,2.9s1.5,2.3,2.9,2.1c1.4-0.2,2.3-1.5,2.1-2.9c-0.2-1.1-1-1.9-2.1-2.1v-7.4c1.5,0,3-0.3,4.4-0.7
						l0.3,1.2c-0.1,0-0.3,0.1-0.4,0.2c-1.2,0.7-1.6,2.3-0.9,3.5c0.7,1.2,2.3,1.6,3.5,0.9c1.2-0.7,1.6-2.2,0.9-3.5
						c-0.5-0.8-1.3-1.3-2.2-1.3l-0.3-1.3c1.1-0.4,2.2-0.8,3.2-1.4l3.7,6.4c-1.1,0.9-1.2,2.5-0.3,3.6s2.5,1.2,3.6,0.3
						c1.1-0.9,1.2-2.5,0.3-3.6c-0.7-0.8-1.8-1.1-2.8-0.7l-3.7-6.4c1.4-0.8,2.6-1.8,3.7-3l1.4,1.2c-0.8,1.2-0.5,2.7,0.7,3.5
						c1.2,0.8,2.7,0.5,3.5-0.7s0.5-2.7-0.7-3.5c-0.8-0.6-1.9-0.6-2.7-0.1l-0.2,0.2l-1.4-1.2c0.7-0.8,1.3-1.7,1.8-2.6l6.5,3.8
						c-0.5,1.3,0.2,2.8,1.5,3.3s2.8-0.2,3.3-1.5c0.5-1.3-0.2-2.8-1.5-3.3c-1-0.4-2.2-0.1-2.8,0.8l-6.5-3.8c0.7-1.4,1.2-2.8,1.6-4.3
						l1.6,0.5c0,0.5,0.1,1,0.3,1.4c0.7,1.2,2.3,1.6,3.5,0.9c1.2-0.7,1.6-2.3,0.9-3.5c-0.7-1.2-2.3-1.6-3.5-0.9
						c-0.5,0.3-0.8,0.7-1.1,1.2l-1.6-0.5c0.1-0.8,0.2-1.6,0.3-2.4l0,0c0-0.3,0-0.5,0-0.8h7.7c0.3,1.4,1.6,2.3,3,2
						c1.4-0.3,2.3-1.6,2-3C584.4,339.4,583.3,338.5,582.1,338.5L582.1,338.5z"/>
					
						<linearGradient id="SVGID_18_" gradientUnits="userSpaceOnUse" x1="465.9925" y1="393.8062" x2="493.5425" y2="393.8062" gradientTransform="matrix(1 0 0 -1 131.92 692.01)">
						<stop  offset="0" style="stop-color:#DBE25B"/>
						<stop  offset="1" style="stop-color:#45B549"/>
					</linearGradient>
					<path class="st29" d="M624.3,297c-0.6,0-1,0.4-1.1,1h-3.4c0-0.5-0.1-1-0.2-1.6l0.9-0.2c0,0.1,0,0.1,0.1,0.2
						c0.3,0.6,1,0.7,1.6,0.4s0.7-1,0.4-1.6c-0.3-0.5-1-0.7-1.5-0.4c-0.4,0.2-0.6,0.6-0.6,1l-0.9,0.2c-0.2-0.6-0.4-1.2-0.7-1.7l3-1.7
						c0.3,0.4,1,0.5,1.4,0.3c0.6-0.3,0.7-1,0.4-1.6c-0.3-0.6-1-0.7-1.6-0.4c-0.5,0.3-0.7,0.9-0.5,1.4l-3,1.7
						c-0.2-0.3-0.4-0.6-0.6-0.9c-0.1-0.2-0.3-0.3-0.4-0.4l0.9-0.8c0.5,0.4,1.2,0.3,1.6-0.2c0.4-0.5,0.3-1.2-0.2-1.6
						c-0.5-0.4-1.2-0.3-1.6,0.2c-0.3,0.4-0.3,0.9-0.1,1.3l0,0l-0.9,0.8c-0.4-0.4-0.9-0.8-1.4-1.1l1.8-3c0.5,0.2,1.1,0,1.4-0.5
						c0.3-0.6,0.1-1.3-0.4-1.6s-1.3-0.1-1.6,0.4c-0.3,0.5-0.2,1.1,0.3,1.4l-1.8,3c-0.5-0.3-1-0.5-1.5-0.6l0.4-1.6
						c0.2,0,0.4-0.1,0.5-0.1c0.5-0.3,0.7-1,0.4-1.5c-0.3-0.5-1-0.7-1.5-0.4c-0.5,0.3-0.7,1-0.4,1.5c0.1,0.2,0.4,0.4,0.6,0.5
						l-0.4,1.6c-0.6-0.2-1.2-0.2-1.8-0.2v-3.5c0.6-0.1,1-0.7,0.9-1.3c-0.1-0.6-0.7-1-1.3-0.9s-1,0.7-0.9,1.3
						c0.1,0.5,0.5,0.9,0.9,0.9v3.5c-0.7,0-1.3,0.1-1.9,0.3l-0.3-0.8l0.1-0.1c0.5-0.3,0.7-1,0.4-1.5c-0.3-0.5-1-0.7-1.5-0.4
						c-0.5,0.3-0.7,1-0.4,1.5c0.2,0.4,0.6,0.6,1,0.6l0.3,0.8c-0.5,0.1-0.9,0.3-1.3,0.6l-1.8-3c0.4-0.4,0.5-1,0.3-1.4
						c-0.3-0.6-1-0.7-1.6-0.4s-0.7,1-0.4,1.6c0.3,0.5,0.9,0.7,1.4,0.5l1.8,3c-0.6,0.4-1.1,0.8-1.6,1.3l-0.5-0.4
						c0.3-0.5,0.2-1.2-0.3-1.6c-0.5-0.3-1.2-0.2-1.6,0.3c-0.3,0.5-0.2,1.2,0.3,1.6c0.4,0.2,0.8,0.2,1.2,0l0.2-0.1l0.5,0.4
						c-0.1,0.1-0.2,0.2-0.2,0.3c-0.2,0.3-0.4,0.6-0.6,0.9l-3-1.7c0.2-0.5,0-1.1-0.5-1.4c-0.6-0.3-1.3-0.1-1.6,0.4
						c-0.3,0.6-0.1,1.3,0.4,1.6c0.5,0.3,1.1,0.2,1.4-0.3l3,1.7c-0.3,0.5-0.5,1.1-0.7,1.7l-0.5-0.1c0-0.2-0.1-0.4-0.2-0.5
						c-0.3-0.5-1-0.7-1.5-0.4s-0.7,1-0.4,1.5c0.3,0.5,1,0.7,1.5,0.4c0.2-0.1,0.4-0.4,0.5-0.6l0.5,0.1c-0.1,0.5-0.2,1.1-0.2,1.6h-3.5
						c-0.1-0.6-0.7-1-1.3-0.9c-0.6,0.1-1,0.7-0.9,1.3c0.1,0.6,0.7,1,1.3,0.9c0.5-0.1,0.8-0.5,0.9-0.9h3.4c0,0.6,0.1,1.2,0.2,1.8
						c-0.5-0.4-1.2-0.4-1.6,0c-0.3,0.4-0.4,0.9-0.2,1.3c0.3,0.5,1,0.7,1.5,0.4c0.3-0.2,0.5-0.4,0.6-0.8c0.1,0.3,0.3,0.6,0.4,0.9
						l-2.9,1.7c-0.3-0.4-1-0.5-1.4-0.3c-0.6,0.3-0.7,1-0.4,1.6c0.3,0.6,1,0.7,1.6,0.4l0,0c0.5-0.3,0.7-0.9,0.5-1.4l2.9-1.7
						c0.2,0.4,0.5,0.7,0.7,1c0.1,0.1,0.2,0.3,0.3,0.4l-0.3,0.3c-0.5-0.4-1.2-0.2-1.6,0.3c-0.4,0.5-0.2,1.2,0.3,1.6
						c0.4,0.3,0.8,0.3,1.2,0.1c0.5-0.3,0.7-1,0.4-1.5c0,0,0,0,0,0c0,0,0-0.1-0.1-0.1l0.3-0.3c0.4,0.4,0.9,0.8,1.4,1.1l-1.7,2.9
						c-0.6-0.2-1.2,0.1-1.4,0.7c-0.2,0.5,0,1,0.4,1.3c0.5,0.3,1.2,0.1,1.5-0.4c0.3-0.5,0.2-1.1-0.3-1.4l1.7-2.9
						c0.4,0.2,0.9,0.5,1.4,0.6l-0.2,0.6c-0.2,0-0.4,0-0.6,0.1c-0.5,0.3-0.7,1-0.4,1.5c0.3,0.5,1,0.7,1.5,0.4c0.5-0.3,0.7-1,0.4-1.5
						c-0.1-0.2-0.3-0.4-0.5-0.5l0.2-0.6c0.7,0.2,1.3,0.3,2,0.3v3.3c-0.6,0.1-1,0.7-0.9,1.3c0.1,0.6,0.7,1,1.3,0.9s1-0.7,0.9-1.3
						c-0.1-0.5-0.5-0.9-0.9-0.9v-3.3c0.7,0,1.3-0.1,2-0.3l0.1,0.5c-0.1,0-0.1,0.1-0.2,0.1c-0.5,0.3-0.7,1-0.4,1.5
						c0.3,0.5,1,0.7,1.5,0.4c0.5-0.3,0.7-1,0.4-1.5c-0.2-0.4-0.6-0.6-1-0.6l-0.1-0.6c0.5-0.2,1-0.4,1.4-0.6l1.7,2.9
						c-0.5,0.4-0.5,1.1-0.1,1.6c0.4,0.5,1.1,0.5,1.6,0.1c0.5-0.4,0.5-1.1,0.1-1.6c-0.3-0.4-0.8-0.5-1.3-0.3l-1.7-2.9
						c0.6-0.4,1.2-0.8,1.7-1.3l0.6,0.5c-0.3,0.5-0.2,1.2,0.3,1.6c0.5,0.3,1.2,0.2,1.6-0.3c0.3-0.5,0.2-1.2-0.3-1.6
						c-0.4-0.2-0.8-0.3-1.2,0l-0.1,0.1l-0.6-0.5c0.3-0.4,0.6-0.7,0.8-1.1l2.9,1.7c-0.2,0.6,0.1,1.2,0.6,1.4c0.6,0.3,1.3,0.1,1.6-0.4
						c0.3-0.6,0.1-1.3-0.4-1.6c-0.5-0.3-1.1-0.2-1.4,0.3l-2.9-1.7c0.3-0.6,0.6-1.3,0.7-1.9l0.7,0.2c0,0.2,0,0.4,0.2,0.6
						c0.3,0.5,1,0.7,1.5,0.4s0.7-1,0.4-1.5c-0.3-0.5-1-0.7-1.5-0.4c-0.2,0.1-0.4,0.3-0.5,0.5l-0.7-0.2c0.1-0.4,0.1-0.7,0.1-1.1l0,0
						c0-0.1,0-0.2,0-0.4h3.4c0.1,0.6,0.7,1,1.3,0.9c0.6-0.1,1-0.7,0.9-1.3C625.4,297.4,624.9,297,624.3,297L624.3,297z"/>
					
						<linearGradient id="SVGID_19_" gradientUnits="userSpaceOnUse" x1="345.1225" y1="437.0763" x2="363.8125" y2="437.0763" gradientTransform="matrix(1 0 0 -1 131.92 692.01)">
						<stop  offset="0" style="stop-color:#DBE25B"/>
						<stop  offset="1" style="stop-color:#45B549"/>
					</linearGradient>
					<path class="st30" d="M495,254.1c-0.4,0-0.7,0.3-0.8,0.6h-2.3c0-0.4-0.1-0.7-0.1-1.1l0.6-0.1c0,0,0,0.1,0.1,0.1
						c0.2,0.4,0.7,0.5,1,0.3c0,0,0,0,0,0c0.4-0.2,0.5-0.7,0.3-1c-0.2-0.4-0.7-0.5-1-0.3c-0.2,0.1-0.4,0.4-0.4,0.7l-0.6,0.1
						c-0.1-0.4-0.3-0.8-0.5-1.2l2-1.2c0.3,0.3,0.8,0.4,1.1,0.1c0.3-0.3,0.4-0.8,0.1-1.1c-0.2-0.3-0.7-0.4-1-0.2
						c-0.3,0.2-0.5,0.6-0.3,0.9l-2,1.2c-0.1-0.2-0.3-0.4-0.4-0.6l-0.3-0.3l0.6-0.5c0.2,0.2,0.6,0.2,0.9,0.1c0.4-0.2,0.5-0.7,0.3-1.1
						c-0.2-0.4-0.7-0.4-1.1-0.2c-0.3,0.2-0.4,0.6-0.3,1l0,0l-0.6,0.5c-0.3-0.3-0.6-0.5-1-0.7l1.2-2.1c0.4,0.1,0.7,0,0.9-0.3
						c0.2-0.4,0.1-0.8-0.3-1.1c-0.4-0.2-0.8-0.1-1.1,0.3c-0.2,0.3-0.1,0.7,0.2,1l-1.2,2.1c-0.3-0.2-0.7-0.3-1-0.4l0.3-1.1
						c0.1,0,0.3,0,0.4-0.1c0.4-0.2,0.5-0.7,0.3-1.1c-0.2-0.4-0.7-0.5-1-0.3c-0.4,0.2-0.5,0.7-0.3,1.1c0.1,0.2,0.2,0.3,0.4,0.4
						l-0.3,1.1c-0.4-0.1-0.8-0.1-1.2-0.2V247c0.4-0.1,0.7-0.5,0.6-0.9s-0.5-0.7-0.9-0.6c-0.4,0.1-0.7,0.5-0.6,0.9
						c0.1,0.3,0.3,0.6,0.6,0.6v2.4c-0.4,0-0.9,0.1-1.3,0.2l-0.2-0.5h0.1c0.3-0.2,0.5-0.6,0.3-1c-0.2-0.3-0.6-0.5-1-0.3
						c-0.3,0.2-0.5,0.6-0.3,1c0.1,0.3,0.4,0.4,0.7,0.4l0.2,0.6c-0.3,0.1-0.6,0.2-0.9,0.4l-1.2-2.1c0.3-0.3,0.4-0.8,0.1-1.1
						s-0.8-0.4-1.1-0.1c-0.3,0.3-0.4,0.8-0.1,1.1c0.2,0.2,0.5,0.3,0.9,0.2l1.2,2.1c-0.4,0.2-0.8,0.5-1.1,0.9l-0.4-0.3
						c0.1-0.2,0.1-0.5,0-0.8c-0.2-0.4-0.7-0.5-1.1-0.3s-0.5,0.7-0.3,1.1s0.7,0.5,1.1,0.3c0,0,0,0,0,0l0.1-0.1l0.4,0.3l-0.1,0.2
						c-0.2,0.2-0.3,0.4-0.4,0.6l-2-1.2c0.1-0.4-0.1-0.8-0.5-1c-0.4-0.1-0.8,0.1-1,0.5s0.1,0.8,0.5,1c0.3,0.1,0.6,0,0.8-0.2l2,1.2
						c-0.2,0.4-0.4,0.7-0.5,1.1l-0.4-0.1c0-0.1,0-0.3-0.1-0.4c-0.2-0.4-0.7-0.4-1.1-0.2c-0.3,0.2-0.4,0.6-0.3,1
						c0.2,0.4,0.7,0.5,1,0.3c0,0,0,0,0,0c0.2-0.1,0.3-0.2,0.3-0.4l0.3,0.1c-0.1,0.4-0.1,0.7-0.1,1.1h-2.3c-0.1-0.4-0.5-0.7-0.9-0.6
						c-0.4,0.1-0.7,0.5-0.6,0.9c0.1,0.4,0.5,0.7,0.9,0.6c0.3-0.1,0.6-0.3,0.6-0.6h2.3c0,0.4,0,0.8,0.1,1.2c-0.3-0.3-0.8-0.3-1.1,0.1
						c-0.2,0.2-0.3,0.6-0.1,0.9c0.2,0.4,0.7,0.5,1.1,0.3c0.2-0.1,0.3-0.3,0.4-0.5c0.1,0.2,0.2,0.4,0.3,0.6l-2,1.1
						c-0.2-0.3-0.7-0.4-1-0.2c-0.4,0.2-0.5,0.7-0.3,1c0,0,0,0,0,0c0.2,0.4,0.7,0.5,1,0.3c0.4-0.2,0.5-0.6,0.4-1l2-1.1
						c0.1,0.3,0.3,0.5,0.5,0.7c0.1,0.1,0.1,0.2,0.2,0.3l-0.2,0.2c-0.3-0.2-0.6-0.2-0.8,0c-0.4,0.2-0.4,0.7-0.2,1.1
						c0.2,0.3,0.6,0.4,1,0.3c0.3-0.2,0.5-0.6,0.3-1v-0.1l0.2-0.2c0.3,0.3,0.6,0.5,0.9,0.7l-1.1,1.9c-0.4-0.2-0.8,0-1,0.4
						c-0.2,0.4,0,0.8,0.4,1c0.4,0.1,0.8,0,0.9-0.3c0.2-0.3,0.1-0.8-0.2-1l1.1-1.9c0.3,0.2,0.6,0.3,0.9,0.4l-0.1,0.4
						c-0.2,0-0.3,0-0.4,0.1c-0.4,0.2-0.4,0.7-0.2,1.1c0.2,0.3,0.6,0.4,1,0.3c0.3-0.2,0.5-0.6,0.3-1c-0.1-0.1-0.2-0.3-0.4-0.3
						l0.1-0.4c0.4,0.1,0.9,0.2,1.4,0.2v2.2c-0.4,0.1-0.7,0.5-0.6,0.9s0.5,0.7,0.9,0.6s0.7-0.5,0.6-0.9c-0.1-0.3-0.3-0.6-0.6-0.6
						v-2.2c0.5,0,0.9-0.1,1.4-0.2l0.1,0.4c0,0-0.1,0-0.1,0.1c-0.3,0.2-0.5,0.6-0.3,1c0.2,0.4,0.7,0.5,1,0.3c0.3-0.2,0.5-0.6,0.3-1
						c-0.1-0.2-0.4-0.4-0.7-0.4l-0.1-0.4c0.3-0.1,0.7-0.2,1-0.4l1.1,1.9c-0.3,0.3-0.4,0.7-0.1,1.1c0.2,0.3,0.7,0.4,1,0.2
						c0.4-0.2,0.5-0.7,0.3-1.1c-0.2-0.3-0.6-0.5-0.9-0.3l-1.1-1.9c0.4-0.3,0.8-0.6,1.1-0.9l0.4,0.4c-0.2,0.2-0.2,0.6,0,0.8
						c0.2,0.4,0.7,0.5,1,0.3s0.5-0.7,0.3-1c0,0,0-0.1,0-0.1c-0.2-0.4-0.7-0.5-1-0.3c0,0,0,0,0,0H491l-0.4-0.4
						c0.2-0.2,0.4-0.5,0.5-0.8l2,1.1c-0.2,0.4,0,0.8,0.4,1c0.4,0.2,0.8,0,1-0.4c0.1-0.4,0-0.7-0.3-0.9c-0.3-0.2-0.8-0.1-1,0.2
						l-2-1.1c0.2-0.4,0.4-0.9,0.5-1.3l0.5,0.1c0,0.2,0,0.3,0.1,0.4c0.2,0.4,0.7,0.5,1,0.3c0.4-0.2,0.5-0.7,0.3-1c0,0,0,0,0,0
						c-0.2-0.4-0.7-0.5-1.1-0.3c-0.1,0.1-0.2,0.2-0.3,0.3l-0.5-0.1c0-0.2,0.1-0.5,0.1-0.7l0,0c0-0.1,0-0.2,0-0.3h2.3
						c0.1,0.4,0.5,0.7,0.9,0.6c0.4-0.1,0.7-0.5,0.6-0.9C495.6,254.5,495.3,254.2,495,254.1L495,254.1z"/>
					
						<linearGradient id="SVGID_20_" gradientUnits="userSpaceOnUse" x1="321.7625" y1="400.1114" x2="331.1025" y2="400.1114" gradientTransform="matrix(1 0 0 -1 131.92 692.01)">
						<stop  offset="0" style="stop-color:#DBE25B"/>
						<stop  offset="1" style="stop-color:#45B549"/>
					</linearGradient>
					<path class="st31" d="M462.6,291.5c-0.2,0-0.4,0.1-0.4,0.3h-1.1c0-0.2,0-0.4-0.1-0.5l0.3-0.1c0,0,0,0,0,0.1
						c0.1,0.2,0.3,0.3,0.5,0.2c0.2-0.1,0.3-0.3,0.2-0.5c-0.1-0.2-0.3-0.3-0.5-0.2c0,0,0,0,0,0c-0.1,0.1-0.2,0.2-0.2,0.3l-0.3,0.1
						c-0.1-0.2-0.1-0.4-0.3-0.6l1-0.6c0.1,0.2,0.4,0.2,0.5,0.1s0.2-0.4,0.1-0.5c-0.1-0.2-0.3-0.2-0.5-0.1c-0.2,0.1-0.2,0.3-0.2,0.5
						l-1,0.6c-0.1-0.1-0.1-0.2-0.2-0.3l-0.1-0.1l0.3-0.3c0.2,0.1,0.4,0.1,0.5,0c0.1-0.2,0.1-0.4,0-0.5c-0.1-0.1-0.3-0.1-0.5,0
						c-0.2,0.1-0.2,0.3-0.1,0.5l0,0l-0.3,0.3c-0.2-0.1-0.3-0.3-0.5-0.4l0.6-1c0.2,0.1,0.4,0,0.5-0.2s0-0.4-0.2-0.5
						c-0.2-0.1-0.4,0-0.5,0.2c-0.1,0.2,0,0.4,0.1,0.5l-0.6,1c-0.2-0.1-0.3-0.2-0.5-0.2l0.1-0.6c0.1,0,0.1,0,0.2,0
						c0.2-0.1,0.2-0.3,0.1-0.5c-0.1-0.2-0.3-0.2-0.5-0.1l0,0c-0.2,0.1-0.2,0.3-0.2,0.5c0,0,0,0,0,0c0,0.1,0.1,0.2,0.2,0.2l-0.1,0.5
						c-0.2,0-0.4-0.1-0.6-0.1V288c0.2,0,0.3-0.2,0.3-0.4c0-0.2-0.2-0.4-0.4-0.4l0,0c-0.2,0-0.4,0.1-0.4,0.3c0,0.2,0.1,0.4,0.3,0.4
						v1.2c-0.2,0-0.4,0-0.6,0.1l-0.1-0.3h0c0.2-0.1,0.2-0.4,0.1-0.5c-0.1-0.1-0.3-0.2-0.5-0.1c-0.2,0.1-0.2,0.4-0.1,0.5
						c0.1,0.1,0.2,0.2,0.3,0.2l0.1,0.3c-0.2,0.1-0.3,0.1-0.5,0.2l-0.6-1c0.2-0.2,0.2-0.4,0-0.6c-0.1-0.1-0.3-0.1-0.4-0.1
						c-0.2,0.1-0.2,0.4-0.1,0.5c0.1,0.2,0.3,0.2,0.5,0.2l0.6,1c-0.2,0.1-0.4,0.3-0.5,0.4l-0.2-0.1c0.1-0.1,0.1-0.3,0-0.4
						c-0.1-0.2-0.3-0.2-0.5-0.1c0,0,0,0,0,0c-0.2,0.1-0.2,0.3-0.2,0.5c0,0,0,0,0,0c0.1,0.2,0.3,0.3,0.5,0.2c0,0,0,0,0,0l0,0l0.2,0.1
						c0,0-0.1,0.1-0.1,0.1c-0.1,0.1-0.1,0.2-0.2,0.3l-1-0.6c0.1-0.2,0-0.4-0.2-0.5c-0.2-0.1-0.4-0.1-0.5,0.1
						c-0.1,0.2-0.1,0.4,0.1,0.5c0.2,0.1,0.4,0.1,0.5-0.1l1,0.6c-0.1,0.2-0.2,0.4-0.2,0.6h-0.2c0-0.1,0-0.1,0-0.2
						c-0.1-0.2-0.3-0.2-0.5-0.1c-0.2,0.1-0.2,0.4-0.1,0.5c0.1,0.1,0.3,0.2,0.4,0.1c0.1,0,0.1-0.1,0.2-0.2h0.2c0,0.2-0.1,0.4-0.1,0.6
						h-1.2c0-0.2-0.2-0.3-0.4-0.3c-0.2,0-0.3,0.2-0.3,0.4c0,0.2,0.2,0.3,0.4,0.3c0.2,0,0.3-0.2,0.3-0.3h1.2c0,0.2,0,0.4,0.1,0.6
						c-0.2-0.1-0.4-0.1-0.5,0.1c-0.1,0.1-0.1,0.3-0.1,0.4c0.1,0.2,0.3,0.2,0.5,0.1c0,0,0,0,0,0c0.1,0,0.2-0.1,0.2-0.2
						c0,0.1,0.1,0.2,0.1,0.3l-1,0.6c-0.1-0.2-0.4-0.2-0.5-0.1c-0.2,0.1-0.2,0.4-0.1,0.5c0.1,0.2,0.3,0.2,0.5,0.1
						c0.2-0.1,0.2-0.3,0.2-0.5l1-0.6c0.1,0.1,0.2,0.2,0.2,0.4l0.1,0.1l-0.1,0.1c-0.2-0.1-0.4-0.1-0.5,0.1c-0.1,0.2-0.1,0.4,0.1,0.5
						c0.1,0.1,0.3,0.1,0.4,0c0.2-0.1,0.2-0.3,0.1-0.5l0,0l0.1-0.1c0.1,0.1,0.3,0.3,0.5,0.4l-0.6,1c-0.2-0.1-0.4,0-0.5,0.2
						c-0.1,0.2,0,0.4,0.2,0.5c0.2,0.1,0.4,0,0.5-0.1c0.1-0.2,0.1-0.4-0.1-0.5l0.6-1c0.2,0.1,0.3,0.2,0.5,0.2l-0.1,0.2
						c-0.1,0-0.1,0-0.2,0c-0.2,0.1-0.2,0.3-0.1,0.5c0.1,0.2,0.4,0.2,0.5,0.1c0.1-0.1,0.2-0.3,0.1-0.5c0-0.1-0.1-0.1-0.2-0.2l0.1-0.2
						c0.2,0.1,0.4,0.1,0.7,0.1v1.1c-0.2,0-0.4,0.2-0.3,0.4s0.2,0.4,0.4,0.3c0.2,0,0.4-0.2,0.4-0.4l0,0c0-0.2-0.1-0.3-0.3-0.4v-1.2
						c0.2,0,0.5,0,0.7-0.1v0.2h-0.1c-0.2,0.1-0.2,0.3-0.1,0.5c0,0,0,0,0,0c0.1,0.2,0.3,0.2,0.5,0.1c0.2-0.1,0.2-0.3,0.1-0.5
						c-0.1-0.1-0.2-0.2-0.3-0.2v-0.2c0.2-0.1,0.3-0.1,0.5-0.2l0.6,1c-0.1,0.1-0.2,0.3-0.1,0.5c0.1,0.2,0.3,0.2,0.5,0.1
						c0.2-0.1,0.2-0.3,0.1-0.5c-0.1-0.2-0.3-0.2-0.5-0.2l-0.6-1c0.2-0.1,0.4-0.3,0.6-0.5l0.2,0.2c-0.1,0.2-0.1,0.4,0.1,0.5
						c0.1,0.1,0.3,0.1,0.4,0c0.2-0.1,0.2-0.4,0.1-0.5c-0.1-0.1-0.3-0.2-0.5-0.1l0,0l-0.2-0.2c0.1-0.1,0.2-0.3,0.3-0.4l1,0.6
						c-0.1,0.2,0,0.4,0.2,0.5c0.2,0.1,0.4,0,0.5-0.1c0.1-0.2,0.1-0.4-0.1-0.5s-0.4-0.1-0.5,0.1l-1-0.6c0.1-0.2,0.2-0.4,0.3-0.7
						l0.2,0.1c0,0.1,0,0.2,0,0.2c0.1,0.2,0.4,0.2,0.5,0.1c0.1-0.1,0.2-0.3,0.1-0.4c-0.1-0.2-0.3-0.2-0.5-0.1c0,0,0,0,0,0
						c-0.1,0-0.1,0.1-0.2,0.2l-0.2-0.1c0-0.1,0-0.2,0-0.4l0,0c0,0,0-0.1,0-0.1h1.2c0,0.2,0.2,0.3,0.4,0.3c0.2,0,0.4-0.2,0.4-0.4
						S462.9,291.4,462.6,291.5L462.6,291.5L462.6,291.5z"/>
					
						<linearGradient id="SVGID_21_" gradientUnits="userSpaceOnUse" x1="348.7125" y1="358.5464" x2="368.8325" y2="358.5464" gradientTransform="matrix(1 0 0 -1 131.92 692.01)">
						<stop  offset="0" style="stop-color:#DBE25B"/>
						<stop  offset="1" style="stop-color:#45B549"/>
					</linearGradient>
					<path class="st32" d="M499.9,332.7c-0.4,0-0.7,0.3-0.8,0.7h-2.5c0-0.4-0.1-0.8-0.2-1.1l0.6-0.1c0,0,0,0.1,0.1,0.1
						c0.2,0.4,0.7,0.5,1.1,0.3c0.4-0.2,0.5-0.7,0.3-1.1c-0.2-0.4-0.7-0.5-1.1-0.3c-0.3,0.2-0.4,0.4-0.4,0.7l-0.6,0.1
						c-0.1-0.4-0.3-0.9-0.5-1.3l2.2-1.3c0.3,0.4,0.8,0.4,1.2,0.1s0.4-0.8,0.1-1.2c-0.3-0.3-0.7-0.4-1.1-0.2c-0.3,0.2-0.5,0.6-0.4,1
						l-2.2,1.3c-0.1-0.2-0.3-0.4-0.4-0.6c-0.1-0.1-0.2-0.2-0.3-0.3l0.6-0.6c0.3,0.2,0.6,0.2,0.9,0.1c0.4-0.2,0.5-0.7,0.3-1.1
						s-0.7-0.5-1.1-0.3c-0.4,0.2-0.5,0.7-0.3,1.1l0,0l-0.6,0.6c-0.3-0.3-0.7-0.6-1-0.8l1.3-2.2c0.4,0.1,0.8,0,1-0.4
						c0.2-0.4,0.1-0.9-0.3-1.1s-0.9-0.1-1.1,0.3c-0.2,0.3-0.1,0.8,0.2,1l-1.3,2.2c-0.4-0.2-0.7-0.3-1.1-0.5l0.3-1.2
						c0.1,0,0.3,0,0.4-0.1c0.4-0.2,0.5-0.7,0.3-1.1c0,0,0,0,0,0c-0.3-0.4-0.8-0.5-1.2-0.2c-0.3,0.2-0.4,0.7-0.3,1
						c0.1,0.2,0.3,0.3,0.5,0.4l-0.3,1.1c-0.4-0.1-0.9-0.2-1.3-0.2V325c0.4-0.1,0.7-0.5,0.6-1s-0.5-0.7-1-0.6
						c-0.4,0.1-0.7,0.4-0.7,0.8c0,0.4,0.3,0.7,0.7,0.8v2.6c-0.5,0-0.9,0.1-1.4,0.2l-0.2-0.6h0.1c0.4-0.2,0.5-0.7,0.3-1.1
						c-0.2-0.4-0.7-0.5-1.1-0.3l0,0c-0.4,0.2-0.5,0.7-0.3,1.1c0,0,0,0,0,0c0.2,0.3,0.4,0.4,0.8,0.4l0.2,0.6c-0.3,0.1-0.7,0.2-1,0.4
						l-1.3-2.2c0.3-0.3,0.4-0.8,0.1-1.2c-0.3-0.3-0.7-0.3-1-0.2c-0.4,0.2-0.5,0.8-0.3,1.1c0.2,0.3,0.6,0.5,1,0.3l1.3,2.2
						c-0.4,0.3-0.8,0.6-1.2,0.9l-0.4-0.3c0.2-0.4,0.1-0.9-0.3-1.1s-0.9-0.1-1.1,0.3c-0.2,0.3-0.2,0.6,0,0.9c0.2,0.4,0.7,0.5,1.1,0.3
						c0,0,0,0,0,0c0,0,0.1,0,0.1-0.1l0.4,0.3c-0.1,0.1-0.1,0.1-0.2,0.2c-0.2,0.2-0.3,0.4-0.4,0.6l-2.2-1.3c0.2-0.4-0.1-0.9-0.5-1.1
						s-0.9,0.1-1.1,0.5s0.1,0.9,0.5,1.1c0.3,0.1,0.7,0,0.9-0.2l2.2,1.3c-0.2,0.4-0.4,0.8-0.5,1.2l-0.4-0.1c0-0.1,0-0.3-0.1-0.4
						c-0.2-0.4-0.7-0.5-1.1-0.3c-0.4,0.2-0.5,0.7-0.3,1.1c0.2,0.4,0.7,0.5,1.1,0.3c0.2-0.1,0.3-0.3,0.4-0.5l0.4,0.1
						c-0.1,0.4-0.2,0.8-0.2,1.2h-2.5c-0.1-0.4-0.4-0.7-0.8-0.7c-0.5,0.1-0.8,0.5-0.7,0.9c0,0.4,0.3,0.7,0.7,0.7
						c0.4,0,0.7-0.3,0.8-0.7h2.5c0,0.4,0.1,0.9,0.1,1.3c-0.3-0.3-0.7-0.3-1-0.1c-0.4,0.2-0.5,0.7-0.3,1.1c0.2,0.4,0.7,0.5,1.1,0.3
						c0.2-0.1,0.4-0.3,0.4-0.5c0.1,0.2,0.2,0.4,0.3,0.6l-2.1,1.2c-0.3-0.4-0.8-0.4-1.2-0.1c-0.4,0.3-0.4,0.8-0.1,1.2
						c0.3,0.4,0.8,0.4,1.2,0.1c0.3-0.2,0.4-0.6,0.2-0.9l2.1-1.2c0.2,0.3,0.3,0.5,0.5,0.8c0.1,0.1,0.2,0.2,0.3,0.3l-0.2,0.2
						c-0.3-0.2-0.6-0.2-0.9,0c-0.4,0.2-0.5,0.7-0.3,1.1c0.2,0.4,0.7,0.5,1.1,0.3l0,0c0.4-0.2,0.5-0.7,0.3-1.1v0l0.2-0.2
						c0.3,0.3,0.6,0.6,1,0.8l-1.2,2.1c-0.4-0.2-0.9,0.1-1.1,0.5s0.1,0.9,0.5,1.1c0.4,0.1,0.8,0,1-0.4c0.2-0.4,0.1-0.8-0.2-1l1.2-2.1
						c0.3,0.2,0.7,0.3,1,0.5l-0.1,0.4c-0.2,0-0.3,0-0.5,0.1c-0.4,0.2-0.5,0.7-0.3,1.1c0.2,0.4,0.7,0.5,1.1,0.3
						c0.4-0.2,0.5-0.7,0.3-1.1c-0.1-0.2-0.2-0.3-0.4-0.4l0.1-0.4c0.5,0.1,1,0.2,1.5,0.2v2.4c-0.4,0.1-0.7,0.4-0.7,0.8
						c0,0.5,0.4,0.8,0.8,0.8s0.8-0.4,0.8-0.8c0-0.4-0.3-0.7-0.7-0.8v-2.4c0.5,0,1-0.1,1.4-0.2l0.1,0.4l-0.1,0.1
						c-0.4,0.2-0.5,0.7-0.3,1.1c0.2,0.4,0.7,0.5,1.1,0.3l0,0c0.4-0.2,0.5-0.7,0.3-1.1c0,0,0,0,0,0c-0.1-0.3-0.4-0.4-0.7-0.4
						l-0.1-0.4c0.3-0.1,0.7-0.3,1-0.5l1.2,2.1c-0.4,0.3-0.4,0.8-0.1,1.2c0.3,0.3,0.7,0.4,1,0.2c0.4-0.2,0.5-0.7,0.3-1.1
						c-0.2-0.4-0.6-0.5-1-0.4l-1.2-2.1c0.4-0.3,0.8-0.6,1.2-1l0.4,0.4c-0.3,0.4-0.2,0.9,0.2,1.2c0.4,0.3,0.9,0.2,1.2-0.2
						c0.2-0.3,0.2-0.6,0-0.9c-0.2-0.4-0.7-0.5-1.1-0.3l-0.1,0l-0.5-0.4c0.2-0.3,0.4-0.5,0.6-0.8l2.1,1.2c-0.2,0.4,0.1,0.9,0.5,1.1
						c0.4,0.2,0.9-0.1,1.1-0.5c0.1-0.4,0-0.8-0.4-1c-0.4-0.2-0.8-0.1-1,0.2l-2.1-1.2c0.2-0.4,0.4-0.9,0.5-1.4l0.5,0.1
						c0,0.2,0,0.3,0.1,0.5c0.2,0.4,0.7,0.5,1.1,0.3c0.4-0.2,0.5-0.7,0.3-1.1c-0.2-0.4-0.7-0.5-1.1-0.3c-0.2,0.1-0.3,0.2-0.3,0.4
						l-0.5-0.1c0.1-0.3,0.1-0.5,0.1-0.8l0,0c0-0.1,0-0.2,0-0.3h2.6c0.1,0.4,0.4,0.7,0.8,0.7c0.5,0.1,0.9-0.3,0.9-0.7
						s-0.3-0.9-0.7-0.9C500,332.7,500,332.7,499.9,332.7L499.9,332.7z"/>
				</g>
			</g>
		</g>
	</g>
</g>
</svg>
