<svg xmlns="http://www.w3.org/2000/svg" xmlns:xlink="http://www.w3.org/1999/xlink" viewBox="0 0 806.49 636.8"><defs><style>.cls-1{isolation:isolate;}.cls-2{opacity:0.2;fill:url(#linear-gradient);}.cls-3{fill:#a9a9a9;}.cls-4{fill:#e1e1e1;}.cls-5{fill:#f5f5f5;}.cls-43,.cls-6{fill:#fff;}.cls-7{fill:url(#linear-gradient-2);}.cls-8{fill:url(#linear-gradient-3);}.cls-9{fill:url(#linear-gradient-4);}.cls-10{fill:url(#linear-gradient-5);}.cls-11{fill:url(#linear-gradient-6);}.cls-12{fill:url(#linear-gradient-7);}.cls-13{fill:url(#linear-gradient-8);}.cls-14{fill:url(#linear-gradient-9);}.cls-15{fill:#ff4f5b;}.cls-16{fill:url(#linear-gradient-10);}.cls-17{fill:url(#linear-gradient-11);}.cls-18{fill:url(#linear-gradient-12);}.cls-19{fill:url(#linear-gradient-13);}.cls-20{fill:url(#linear-gradient-14);}.cls-21{fill:url(#linear-gradient-15);}.cls-22{fill:url(#linear-gradient-16);}.cls-23{fill:url(#linear-gradient-17);}.cls-24{fill:url(#linear-gradient-18);}.cls-25{fill:url(#linear-gradient-19);}.cls-26{fill:url(#linear-gradient-20);}.cls-27{fill:url(#linear-gradient-21);}.cls-28{fill:url(#linear-gradient-22);}.cls-29{fill:url(#linear-gradient-23);}.cls-30{fill:url(#linear-gradient-24);}.cls-31{fill:url(#linear-gradient-25);}.cls-32{fill:url(#linear-gradient-26);}.cls-33{fill:url(#linear-gradient-27);}.cls-34{fill:url(#linear-gradient-28);}.cls-35{fill:url(#linear-gradient-29);}.cls-36{fill:url(#linear-gradient-30);}.cls-37{fill:url(#linear-gradient-31);}.cls-38{fill:url(#linear-gradient-32);}.cls-39{fill:url(#linear-gradient-33);}.cls-40{fill:url(#linear-gradient-34);}.cls-41{fill:url(#linear-gradient-35);}.cls-42{fill:url(#linear-gradient-36);}.cls-43{mix-blend-mode:overlay;}.cls-44{fill:url(#linear-gradient-37);}</style><linearGradient id="linear-gradient" y1="350.76" x2="775.91" y2="350.76" gradientUnits="userSpaceOnUse"><stop offset="0" stop-color="#3841f2"/><stop offset="0.99" stop-color="#468af5"/></linearGradient><linearGradient id="linear-gradient-2" x1="89.17" y1="118.14" x2="197.72" y2="118.14" xlink:href="#linear-gradient"/><linearGradient id="linear-gradient-3" x1="263.2" y1="142.99" x2="333.58" y2="142.99" xlink:href="#linear-gradient"/><linearGradient id="linear-gradient-4" x1="358.86" y1="38.76" x2="528.17" y2="38.76" xlink:href="#linear-gradient"/><linearGradient id="linear-gradient-5" x1="661.15" y1="503.76" x2="806.49" y2="503.76" gradientUnits="userSpaceOnUse"><stop offset="0" stop-color="#ff512f"/><stop offset="1" stop-color="#ef9719"/></linearGradient><linearGradient id="linear-gradient-6" x1="396.7" y1="389.12" x2="656.85" y2="389.12" xlink:href="#linear-gradient-5"/><linearGradient id="linear-gradient-7" x1="652.77" y1="298.51" x2="661.15" y2="298.51" xlink:href="#linear-gradient-5"/><linearGradient id="linear-gradient-8" x1="392.41" y1="256.51" x2="400.79" y2="256.51" xlink:href="#linear-gradient-5"/><linearGradient id="linear-gradient-9" x1="451.37" y1="298.51" x2="602.18" y2="298.51" xlink:href="#linear-gradient-5"/><linearGradient id="linear-gradient-10" x1="48.87" y1="572.88" x2="73.11" y2="572.88" xlink:href="#linear-gradient-5"/><linearGradient id="linear-gradient-11" x1="81.33" y1="594.21" x2="104.25" y2="594.21" xlink:href="#linear-gradient-5"/><linearGradient id="linear-gradient-12" x1="38.72" y1="609.27" x2="74.02" y2="609.27" xlink:href="#linear-gradient-5"/><linearGradient id="linear-gradient-13" x1="245.25" y1="464.37" x2="550.48" y2="464.37" xlink:href="#linear-gradient"/><linearGradient id="linear-gradient-14" x1="126.25" y1="257.2" x2="143.61" y2="264.68" xlink:href="#linear-gradient-5"/><linearGradient id="linear-gradient-15" x1="128.5" y1="239.4" x2="155.46" y2="250.59" xlink:href="#linear-gradient-5"/><linearGradient id="linear-gradient-16" x1="146.19" y1="340.68" x2="271.46" y2="340.68" xlink:href="#linear-gradient-5"/><linearGradient id="linear-gradient-17" x1="151.84" y1="310.71" x2="101.22" y2="319.28" xlink:href="#linear-gradient-5"/><linearGradient id="linear-gradient-18" x1="180.88" y1="279.33" x2="183.88" y2="301.61" xlink:href="#linear-gradient-5"/><linearGradient id="linear-gradient-19" x1="136.83" y1="274.61" x2="177.21" y2="272.14" gradientUnits="userSpaceOnUse"><stop offset="0" stop-color="#e7c795"/><stop offset="0.99" stop-color="#e36678"/></linearGradient><linearGradient id="linear-gradient-20" x1="177.83" y1="292.41" x2="172.94" y2="251.27" xlink:href="#linear-gradient-19"/><linearGradient id="linear-gradient-21" x1="82.6" y1="513.92" x2="315.5" y2="513.92" xlink:href="#linear-gradient"/><linearGradient id="linear-gradient-22" x1="-403.94" y1="-17.31" x2="-337.18" y2="25.33" gradientTransform="translate(627.21 391.33) rotate(4.57)" xlink:href="#linear-gradient-19"/><linearGradient id="linear-gradient-23" x1="2462.19" y1="3057" x2="2483.76" y2="3094.05" gradientTransform="matrix(0.94, -0.33, 0.33, 0.94, -3064.76, -1734.68)" gradientUnits="userSpaceOnUse"><stop offset="0" stop-color="#e89580"/><stop offset="1" stop-color="#dd6275"/></linearGradient><linearGradient id="linear-gradient-24" x1="2413.66" y1="3045.92" x2="2490.41" y2="3045.92" gradientTransform="matrix(0.94, -0.33, 0.33, 0.94, -3064.76, -1734.68)" xlink:href="#linear-gradient-19"/><linearGradient id="linear-gradient-25" x1="-478.65" y1="-58.05" x2="-441.83" y2="-41.91" gradientTransform="translate(663.96 623.74) rotate(24.58)" xlink:href="#linear-gradient-19"/><linearGradient id="linear-gradient-26" x1="231.75" y1="291.9" x2="265.11" y2="291.9" xlink:href="#linear-gradient-5"/><linearGradient id="linear-gradient-27" x1="276.47" y1="374.74" x2="326.59" y2="237.15" xlink:href="#linear-gradient-19"/><linearGradient id="linear-gradient-28" x1="46.3" y1="284.27" x2="128.53" y2="284.27" xlink:href="#linear-gradient-19"/><linearGradient id="linear-gradient-29" x1="500.36" y1="567.46" x2="515.57" y2="567.46" gradientUnits="userSpaceOnUse"><stop offset="0" stop-color="#ffd100"/><stop offset="1" stop-color="#efde78"/></linearGradient><linearGradient id="linear-gradient-30" x1="535.81" y1="561.45" x2="551.02" y2="561.45" xlink:href="#linear-gradient-29"/><linearGradient id="linear-gradient-31" x1="564.46" y1="561.45" x2="579.67" y2="561.45" xlink:href="#linear-gradient-29"/><linearGradient id="linear-gradient-32" x1="515.57" y1="567.46" x2="547.28" y2="567.46" xlink:href="#linear-gradient-29"/><linearGradient id="linear-gradient-33" x1="551.02" y1="561.45" x2="573.1" y2="561.45" xlink:href="#linear-gradient-29"/><linearGradient id="linear-gradient-34" x1="579.03" y1="561.45" x2="601.11" y2="561.45" xlink:href="#linear-gradient-29"/><linearGradient id="linear-gradient-35" x1="426.84" y1="576.38" x2="626.72" y2="576.38" xlink:href="#linear-gradient"/><linearGradient id="linear-gradient-36" x1="583.69" y1="617.3" x2="610.4" y2="617.3" xlink:href="#linear-gradient"/><linearGradient id="linear-gradient-37" x1="459.46" y1="617.3" x2="486.18" y2="617.3" xlink:href="#linear-gradient"/></defs><title>hero</title><g class="cls-1"><g id="Layer_2" data-name="Layer 2"><g id="Layer_7" data-name="Layer 7"><path class="cls-2" d="M775.89,428.08c0,1.26,0,2.52,0,3.78,0,18.84-.15,37.41-.29,55.19,0,.61,0,1.22,0,1.82q-.08,9.78-.17,19.2c-.08,8-.16,15.8-.24,23.33q-.09,7.83-.18,15.26a.49.49,0,0,1,0,.12q-.09,7.72-.19,15c-.12,9-.24,17.38-.36,25-.13,8.48-.26,16-.37,22.51-.28,16-.47,25.32-.47,25.32H34.48S-72.6,446.11,90.63,446.11c16.47,0,30.68-.17,42.92-.56,61.46-2,73.19-9.66,71.73-30.79-.66-9.55-4-21.85-6.7-37.61a230.49,230.49,0,0,1-3.48-39.22,163.82,163.82,0,0,1,13.52-64.7C234.3,214,296.74,167.93,396.7,194.9c2.69.72,5.42,1.5,8.17,2.35a323.65,323.65,0,0,1,39.64,15,126.6,126.6,0,0,0,18.93,7.65c35.63,10.86,50.16-8,57.66-34.32a230.08,230.08,0,0,0,5.68-28c.33-2.14.68-4.29,1.07-6.45q.72-4.08,1.63-8.17c8.62-38.51,31.38-75.94,114.83-76,94-.09,124.06,47.61,129.28,182.55,1.52,39.31,2.16,88.4,2.29,138.23C775.92,401.19,775.92,414.7,775.89,428.08Z"/><rect class="cls-3" x="285.71" y="440.53" width="147.37" height="194.38"/><rect class="cls-4" x="363.98" y="458.49" width="69.1" height="176.43"/><rect class="cls-5" x="316.61" y="466.85" width="13.25" height="32.19"/><rect class="cls-6" x="316.61" y="592.85" width="13.25" height="32.19"/><path class="cls-6" d="M364,511.68c0,.28-17.52.5-39.13.5s-39.14-.22-39.14-.5,17.52-.5,39.14-.5S364,511.4,364,511.68Z"/><rect class="cls-6" x="316.61" y="530.33" width="13.25" height="32.19"/><path class="cls-6" d="M364,575.16c0,.27-17.52.5-39.13.5s-39.14-.23-39.14-.5,17.52-.51,39.14-.51S364,574.88,364,575.16Z"/><rect class="cls-6" x="378.66" y="466.85" width="13.25" height="32.19"/><rect class="cls-4" x="407.41" y="466.85" width="13.25" height="32.19"/><rect class="cls-6" x="378.66" y="527.94" width="13.25" height="32.19"/><rect class="cls-4" x="407.41" y="527.94" width="13.25" height="32.19"/><rect class="cls-6" x="378.66" y="589.03" width="13.25" height="32.19"/><rect class="cls-4" x="407.41" y="589.03" width="13.25" height="32.19"/><path class="cls-7" d="M89.17,143H197.72s0-24.85-12.82-24.85c-16.92,0-19.9,15.41-19.9,15.41S165,87.16,141.66,94c-22.08,6.44-24.58,36.13-24.58,36.13s-4-14.93-15.94-6.52S89.17,143,89.17,143Z"/><path class="cls-8" d="M263.2,159.1h70.38s0-16.11-8.31-16.11a12.79,12.79,0,0,0-12.9,10s0-30.07-15.13-25.66c-14.32,4.18-15.94,23.42-15.94,23.42s-2.58-9.68-10.34-4.22S263.2,159.1,263.2,159.1Z"/><path class="cls-9" d="M358.86,77.52H528.17s0-38.76-20-38.76c-26.4,0-31,24-31,24s0-72.34-36.4-61.73c-34.45,10-38.34,56.36-38.34,56.36s-6.2-23.29-24.87-10.17S358.86,77.52,358.86,77.52Z"/><path class="cls-10" d="M804.58,473.42c3.36,10.25-14.57,24.54-29.17,34.65C766.6,514.17,759,518.75,758,520c-2.63,3.37-9,6,8.3,9.36,3.13.61,6.11,1.28,8.85,2,12.44,3.35,20,8.32,14.3,17.8-2.23,3.72-8,8.17-14.68,12.53-12.2,8-27.38,15.71-29.36,18.2-3.07,3.84,17.05,4.64,24.83,5.83a26.22,26.22,0,0,1,4.17,1c7.58,2.46,11.79,8.19,6.8,16.14-1.32,2.11-3.87,4.26-7.17,6.37-15.7,10.06-48.57,19.36-48.57,19.36l-22.13,6h-3l0-.08-13.08-20.3s-28.11-41.34-26-55.48c1.61-10.87,10.84-11.23,19.46-5.88,6.69,4.16,22.49,16.64,22.66,11.72s-15.52-39.87-13.48-52c2.25-13.3,15.12-8.68,30.47,0s12.21,2.55,12.4-1.72-19.86-56.69-5.08-65.68c0,0,6.76-3.82,14.61,6.08s12.42,9.1,14.17,2.49c1.17-4.42,7.37-43.92,19.41-66,6-10.93,13.33-17.59,22.24-13.65l-.83-.47c28.2,8.46-17.18,81.44-20.14,87.6s0,9.73,12.38,7.32S804.58,473.42,804.58,473.42Z"/><path class="cls-6" d="M775.88,431.86c-6.12,17.16-14.31,39.87-23.71,65.72h0c-.11.31-.22.62-.34.93-4.41,12.16-9.1,25-14,38.29l-6.54,17.88c-.12.32-.24.63-.35.94-11.25,30.69-21.4,58.15-29.16,78.94h-1.52l0-.08c3-8.3,6.34-17.66,10-27.87.07-.18.14-.37.2-.55h0c5.56-15.4,11.83-32.67,18.56-51.11.1-.27.19-.55.3-.82q3.21-8.85,6.57-18c4.76-13,9.39-25.63,13.77-37.57h0c.16-.4.31-.79.45-1.19h0c10.2-27.72,19.13-51.81,25.68-69.26,7-18.68,11.32-29.83,11.57-29.83S783.32,411,775.88,431.86Z"/><path class="cls-6" d="M750.48,499.42c.52-.18-1.56-7.14-5.22-15.27s-7.45-14.32-7.93-14.06,2.49,6.8,6.1,14.88S750,499.61,750.48,499.42Z"/><path class="cls-6" d="M783.68,485.46c-.12-.51-7.94,1-17,4.71s-15.8,8-15.53,8.42,7.32-3,16.28-6.56S783.83,486,783.68,485.46Z"/><path class="cls-6" d="M730.28,555.74c.42-.36-5.35-7.79-12.88-16.59s-14-15.66-14.41-15.3,5.34,7.79,12.88,16.6S729.86,556.1,730.28,555.74Z"/><path class="cls-6" d="M775,546.7c-.07-.53-10.55.35-23.27,2.85s-22.76,5.63-22.62,6.15,10.36-1.71,23-4.18S775.09,547.27,775,546.7Z"/><path class="cls-6" d="M761.14,600.65c-.08-.55-11.07.61-24.54,2.59s-24.33,4-24.25,4.57,11.07-.61,24.54-2.59S761.22,601.2,761.14,600.65Z"/><path class="cls-6" d="M711.14,606.9c.37-.48-7.1-6.47-14.85-15.26s-12.85-16.89-13.37-16.58,3.91,9,11.87,17.91S710.87,607.32,711.14,606.9Z"/><path class="cls-6" d="M648.68,188.44V589.8a37.32,37.32,0,0,1-37.28,37.28H442.15a37.32,37.32,0,0,1-37.28-37.28V188.44a37.32,37.32,0,0,1,37.28-37.28H611.4A37.32,37.32,0,0,1,648.68,188.44Z"/><path class="cls-11" d="M611.4,143H442.15a45.5,45.5,0,0,0-45.45,45.45V589.8a45.24,45.24,0,0,0,10.7,29.25c.62.75,1.27,1.47,2,2.17a45.41,45.41,0,0,0,23.73,13.12l1.22.23a45.12,45.12,0,0,0,7.85.68H611.4a45.43,45.43,0,0,0,45.45-45.45V188.44A45.5,45.5,0,0,0,611.4,143ZM648.68,589.8a37.32,37.32,0,0,1-37.28,37.28H442.15l-1.17,0-.86,0-.73,0-.79-.07c-.36,0-.71-.07-1.07-.12l-1-.13-.37,0-.92-.17c-.74-.14-1.47-.3-2.2-.48l-.24-.06-1.32-.37-.2-.06c-.51-.15-1-.31-1.5-.49s-1.26-.45-1.87-.71c-.38-.15-.76-.32-1.13-.49a5.4,5.4,0,0,1-.49-.23c-.38-.17-.76-.36-1.14-.55-.59-.3-1.17-.62-1.73-1s-.93-.55-1.39-.84h0q-.71-.45-1.38-.93l0,0-.07,0-1-.76c-.37-.28-.74-.57-1.1-.87s-.67-.57-1-.85c-.68-.6-1.34-1.23-2-1.88-.32-.32-.62-.64-.93-1h0q-.46-.5-.9-1c-.5-.59-1-1.2-1.45-1.83-.16-.21-.31-.41-.45-.62a34.54,34.54,0,0,1-1.94-3,4.91,4.91,0,0,1-.28-.5c-.15-.26-.3-.52-.43-.79s-.38-.73-.56-1.1-.43-.92-.63-1.39-.31-.73-.46-1.1l-.06-.16q-.61-1.57-1.08-3.21l0-.09c-.12-.42-.23-.85-.34-1.28a38.12,38.12,0,0,1-.9-5.18c0-.29-.05-.58-.07-.88s-.05-.63-.06-.94c0-.64-.05-1.28-.05-1.92V188.44a37.32,37.32,0,0,1,37.28-37.28H611.4a37.32,37.32,0,0,1,37.28,37.28Z"/><rect class="cls-12" x="652.77" y="276.41" width="8.38" height="44.19" rx="3.65"/><rect class="cls-13" x="392.41" y="226.17" width="8.38" height="60.68" rx="3.65"/><path class="cls-14" d="M526.78,185.41c-1.91,0-3.81.07-5.68.21a75.4,75.4,0,0,0-60.67,111l62.22,112.54a4.72,4.72,0,0,0,8.25,0L593.14,296.6a75.39,75.39,0,0,0-66.36-111.19Zm0,113.1a37.7,37.7,0,1,1,37.7-37.7A37.74,37.74,0,0,1,526.78,298.51Z"/><path class="cls-15" d="M54,549.82a17.24,17.24,0,0,1,12,6.26,30.56,30.56,0,0,1,6,12.39c2.24,8.68.73,18.89-1.81,27.48-9.35-3.43-15-13.48-17.61-18.75-4.06-8.35-6.33-25.89,1.43-27.38Z"/><path class="cls-16" d="M54,549.82a17.24,17.24,0,0,1,12,6.26,30.56,30.56,0,0,1,6,12.39c2.24,8.68.73,18.89-1.81,27.48-9.35-3.43-15-13.48-17.61-18.75-4.06-8.35-6.33-25.89,1.43-27.38Z"/><path class="cls-17" d="M83.6,606.56A14.71,14.71,0,0,1,83,591.79a19.57,19.57,0,0,1,11.86-9.37c2.29-.68,4.95-.95,6.93.39a6.3,6.3,0,0,1,2.37,5.93,12.69,12.69,0,0,1-2.75,6c-4.61,6.14-10.2,11.22-17.85,11.79Z"/><path class="cls-6" d="M83.68,636.33a6.71,6.71,0,0,1-.46-1.83c-.23-1.18-.53-2.91-.84-5a63.22,63.22,0,0,1-.44-16.92,31.66,31.66,0,0,1,6.35-15.65A20.44,20.44,0,0,1,92,593.27a5.83,5.83,0,0,1,1.61-1c.13.16-2.19,1.61-4.74,5a33.2,33.2,0,0,0-5.91,15.36,73.33,73.33,0,0,0,.15,16.7C83.53,633.65,83.83,636.31,83.68,636.33Z"/><path class="cls-6" d="M56.94,563a20,20,0,0,1,1.38,2.78c.83,1.82,2,4.47,3.39,7.75,2.8,6.57,6.51,15.71,10.37,25.91s7.11,19.51,9.36,26.29c1.12,3.39,2,6.14,2.58,8a17.54,17.54,0,0,1,.8,3,19,19,0,0,1-1.17-2.87L80.77,626c-2.42-6.71-5.78-16-9.63-26.17s-7.46-19.35-10.09-26C59.79,570.63,58.75,568,58,566A17.35,17.35,0,0,1,56.94,563Z"/><path class="cls-18" d="M73.87,615.08a34.43,34.43,0,0,0-27.66-15c-2.77,0-6.07.62-7.16,3.18s.73,5.4,2.74,7.34A29.43,29.43,0,0,0,74,615.82Z"/><path class="cls-6" d="M51,606.88a6.48,6.48,0,0,1,1.81,0,14.72,14.72,0,0,1,2.1.26,24.21,24.21,0,0,1,2.75.57,36.7,36.7,0,0,1,6.87,2.5,42.51,42.51,0,0,1,7.56,4.81,41.73,41.73,0,0,1,6.25,6.42,36.71,36.71,0,0,1,3.86,6.22,22.88,22.88,0,0,1,1.12,2.57,15.31,15.31,0,0,1,.68,2,6.62,6.62,0,0,1,.4,1.76c-.19.06-.9-2.41-2.83-6a40.46,40.46,0,0,0-4-6,45.1,45.1,0,0,0-6.17-6.21,44.09,44.09,0,0,0-7.34-4.76,40.62,40.62,0,0,0-6.64-2.65C53.53,607.27,51,607.08,51,606.88Z"/><path class="cls-19" d="M268.89,476.18s63.85,55.41,137.41,46.7,103.59-61.37,117.52-68.33,17.41.43,20,5.22,12.19,3.44,2.18-7.64-19.16-23.7-36.13-11.95S422.4,503.3,345.8,452.37c-39.18-28.29-45.71-47.44-45.71-47.44l-54.84,50.49Z"/><polygon class="cls-20" points="133.42 253.95 116.52 267.29 135.22 264.37 150.32 253.29 133.42 253.95"/><path class="cls-21" d="M150.32,253.29l12.21-5.13s1.18-11.54-16.08-11.54-20.08,12-13,17.33Z"/><path class="cls-22" d="M271.46,397.85l-44.63,12.38s-71.23-77.87-80.64-117.14c0,0,52.93-26.36,98.83-21.32,0,0-11.9,15.48,2.07,35h0C247.36,307.89,266.61,390,271.46,397.85Z"/><path class="cls-23" d="M104.41,301.32s20.89,21.37,23.35,31.94l34.79-5.64-16.36-34.53S116.45,297.38,104.41,301.32Z"/><path class="cls-24" d="M170.81,291.86s4.82,10,8.71,11.84l-.67-6.77s8.44,3.22,13.09,3.56V274.1Z"/><polygon class="cls-25" points="135.22 264.37 143.43 290.19 160.73 285.51 178.85 296.93 191.94 274.1 169.12 262.69 162.53 248.16 150.32 253.29 135.22 264.37"/><path d="M153.28,252s.88,11.43,3.49,15.34c0,0-.75-5.59,0-8.75l12.35,4.15-6.59-14.53Z"/><polygon class="cls-26" points="169.12 262.69 160.73 285.51 178.85 296.93 191.94 274.1 169.12 262.69"/><path class="cls-27" d="M308.05,409.81a39.68,39.68,0,0,0-45.27-15.21c-41.71,13.63-154.36,52.69-172,82-21.74,36.1,1.94,71.82,47,97.83,31.45,18.63,45.81,25.23,45.81,25.23s14.37,12,14,20.19,2.33,26.4,7.38,6.21-.78-24.07-6.6-26.4c0,0,7,0,4.27-7s-7.38-5.44-7.38-5.44-27.95-66.39-65.61-78c0,0,202.65-22.91,184.8-85.41A46.77,46.77,0,0,0,308.05,409.81Z"/><polygon class="cls-28" points="292.97 389.35 242.94 407.02 219.62 340.46 269.65 322.79 292.97 389.35"/><polygon class="cls-29" points="295.79 325.75 313.21 375.47 292.97 389.35 269.65 322.79 295.79 325.75"/><polygon class="cls-30" points="293.25 318.51 295.79 325.75 269.65 322.79 219.62 340.47 217.02 333.03 267.05 315.36 293.25 318.51"/><rect class="cls-31" x="243.62" y="375.84" width="34.85" height="10.38" transform="translate(-111.29 107.73) rotate(-19.31)"/><path class="cls-32" d="M265.11,312.51s-12.39,1.71-18-5.77v0c-14-19.47-15.33-35.59-15.33-35.59,6.51.72,19.95-1,32.21,4.85Z"/><path class="cls-33" d="M264.37,276S348.43,294.3,340,330.06c-10,42.71-45.85,72.74-65.35,72.73-16.85,0-29.73-4.18-16.47-4.67s17.45-2.95,12-3.44-15.48-1.72-2.94-2.95,11.54,4.18,15.72-4.17,14.73-53.37,30-66.63c0,0-35.61-1.68-49.12-9.05C263.88,311.88,259.21,288.54,264.37,276Z"/><path class="cls-34" d="M113.53,298.92s-19.48,5.32-41.09,9.49c0,0,21.07-18.8,16.86-59,0,0,6.16-6.81,4.54-11.67a8.43,8.43,0,0,0-9.76-6,5.68,5.68,0,0,0-4.8,5.34,52.76,52.76,0,0,0,.94,10.75s-51.55,83.32-27.56,87.53,63.87-.89,75.87-2.19Z"/><rect class="cls-35" x="500.36" y="550.1" width="15.21" height="34.72"/><rect class="cls-36" x="535.81" y="538.09" width="15.21" height="46.72"/><rect class="cls-37" x="564.46" y="538.09" width="15.21" height="46.72"/><rect class="cls-38" x="515.57" y="550.1" width="31.71" height="34.72"/><rect class="cls-39" x="551.02" y="538.09" width="22.08" height="46.72"/><rect class="cls-40" x="579.03" y="538.09" width="22.08" height="46.72"/><path class="cls-41" d="M495.67,584.81l0-43.17a4.4,4.4,0,0,0-4.41-4.41H448.16a4.41,4.41,0,0,0-4,2.63L429.5,573.15a31.58,31.58,0,0,0-2.66,12.68V611.1a4.42,4.42,0,0,0,4.41,4.41h64.42v0h32.66v-5.19h98.39V584.81Z"/><circle class="cls-6" cx="597.05" cy="616.28" r="17.28"/><circle class="cls-42" cx="597.05" cy="617.3" r="13.36"/><circle class="cls-6" cx="597.05" cy="617.3" r="3.78"/><path class="cls-43" d="M481.75,540.91l-31.63,1a2.24,2.24,0,0,0-2,1.48L436.3,573.19a2.24,2.24,0,0,0,2.89,2.85l43.41-14.92a2.24,2.24,0,0,0,1.46-2.1V543.15A2.25,2.25,0,0,0,481.75,540.91Z"/><path class="cls-43" d="M485.67,584.36H475.3c-.72,0-1.08-.65-.58-1l3.89-3.05a1,1,0,0,1,.58-.18h6.48a.72.72,0,0,1,.8.61v3A.73.73,0,0,1,485.67,584.36Z"/><circle class="cls-6" cx="472.82" cy="617.3" r="17.28"/><circle class="cls-44" cx="472.82" cy="617.3" r="13.36"/><circle class="cls-6" cx="472.82" cy="617.3" r="3.78"/></g></g></g></svg>