<svg xmlns="http://www.w3.org/2000/svg" xmlns:xlink="http://www.w3.org/1999/xlink" viewBox="0 0 155.22 102.69"><defs><style>.cls-1{fill:url(#linear-gradient);}.cls-2{fill:url(#linear-gradient-2);}.cls-3{fill:url(#linear-gradient-3);}.cls-4{fill:url(#linear-gradient-4);}.cls-5{fill:url(#linear-gradient-5);}.cls-6{fill:url(#linear-gradient-9);}.cls-7{fill:url(#linear-gradient-10);}.cls-8{fill:url(#linear-gradient-11);}.cls-9{fill:url(#linear-gradient-12);}.cls-10{fill:url(#linear-gradient-14);}.cls-11{fill:url(#linear-gradient-15);}.cls-12{fill:url(#linear-gradient-16);}.cls-13{fill:url(#linear-gradient-17);}.cls-14{fill:url(#linear-gradient-20);}.cls-15{fill:url(#linear-gradient-21);}.cls-16{fill:url(#linear-gradient-23);}</style><linearGradient id="linear-gradient" x1="-6.56" y1="47.89" x2="159.69" y2="47.89" gradientUnits="userSpaceOnUse"><stop offset="0" stop-color="#3841f2"/><stop offset="0.99" stop-color="#468af5"/></linearGradient><linearGradient id="linear-gradient-2" x1="-6.56" y1="50.93" x2="159.69" y2="50.93" xlink:href="#linear-gradient"/><linearGradient id="linear-gradient-3" x1="-6.56" y1="47.74" x2="159.69" y2="47.74" xlink:href="#linear-gradient"/><linearGradient id="linear-gradient-4" x1="-6.56" y1="49.38" x2="159.69" y2="49.38" xlink:href="#linear-gradient"/><linearGradient id="linear-gradient-5" x1="-6.56" y1="48.38" x2="159.69" y2="48.38" xlink:href="#linear-gradient"/><linearGradient id="linear-gradient-9" x1="-6.56" y1="51.72" x2="159.69" y2="51.72" xlink:href="#linear-gradient"/><linearGradient id="linear-gradient-10" x1="-6.56" y1="47.02" x2="159.69" y2="47.02" xlink:href="#linear-gradient"/><linearGradient id="linear-gradient-11" x1="-6.56" y1="49.37" x2="159.69" y2="49.37" xlink:href="#linear-gradient"/><linearGradient id="linear-gradient-12" x1="-6.56" y1="88.36" x2="159.69" y2="88.36" xlink:href="#linear-gradient"/><linearGradient id="linear-gradient-14" x1="-6.56" y1="58.51" x2="159.69" y2="58.51" xlink:href="#linear-gradient"/><linearGradient id="linear-gradient-15" x1="-6.56" y1="48.96" x2="159.69" y2="48.96" xlink:href="#linear-gradient"/><linearGradient id="linear-gradient-16" x1="-6.56" y1="50.15" x2="159.69" y2="50.15" xlink:href="#linear-gradient"/><linearGradient id="linear-gradient-17" x1="-6.56" y1="78.81" x2="159.69" y2="78.81" xlink:href="#linear-gradient"/><linearGradient id="linear-gradient-20" x1="-6.56" y1="21.49" x2="159.69" y2="21.49" xlink:href="#linear-gradient"/><linearGradient id="linear-gradient-21" x1="-6.56" y1="88.36" x2="159.69" y2="88.36" xlink:href="#linear-gradient"/><linearGradient id="linear-gradient-23" x1="-6.56" y1="2.39" x2="159.69" y2="2.39" xlink:href="#linear-gradient"/></defs><title>divider</title><g id="Layer_2" data-name="Layer 2"><g id="Layer_7" data-name="Layer 7"><path class="cls-1" d="M15.37,53.2l1.4-10.62a.23.23,0,0,1,.23-.19h1.56a.16.16,0,0,1,.18.19l-1.2,9.16s0,.08.07.08h3.66a.16.16,0,0,1,.18.19L21.3,53.2a.23.23,0,0,1-.23.19H15.55A.17.17,0,0,1,15.37,53.2Z"/><path class="cls-2" d="M41.52,45.36h1.56a.17.17,0,0,1,.18.19l-1,7.54c-.28,2.17-1.35,3.71-4.82,3.52-.14,0-.19-.09-.18-.2l.16-1.21a.2.2,0,0,1,.24-.18c2,0,2.48-.75,2.66-2.1l0-.17c0-.07,0-.08-.1,0a2.29,2.29,0,0,1-1.68.68c-1.55,0-2.2-1-2-2.55l.4-3.08a2.58,2.58,0,0,1,2.66-2.54,1.75,1.75,0,0,1,1.51.67c0,.06.09.05.1,0l0-.35A.22.22,0,0,1,41.52,45.36Zm-.92,5.37L41,47.92c.08-.66-.26-1.11-.88-1.11a1.2,1.2,0,0,0-1.18,1.11l-.37,2.81a.88.88,0,0,0,.89,1.1A1.17,1.17,0,0,0,40.6,50.73Z"/><path class="cls-3" d="M48.36,43.23a1.31,1.31,0,0,1,1.34-1.14,1,1,0,0,1,1,1.14,1.29,1.29,0,0,1-1.34,1.13A1,1,0,0,1,48.36,43.23Zm-1.11,10,1-7.65a.23.23,0,0,1,.23-.19h1.56a.17.17,0,0,1,.18.19l-1,7.65a.22.22,0,0,1-.23.19H47.43A.17.17,0,0,1,47.25,53.2Z"/><path class="cls-4" d="M54.24,51.27l0-.11a.22.22,0,0,1,.23-.19h1.45c.12,0,.2.05.19.13l0,.14c-.06.5.36.88,1,.88a1,1,0,0,0,1.06-.84c.09-.67-.69-.91-1.45-1.21s-2.09-.87-1.88-2.46,1.41-2.34,3.11-2.34,2.74.94,2.55,2.4a.23.23,0,0,1-.23.19H58.81c-.11,0-.19-.06-.18-.14l0-.14a.78.78,0,0,0-.87-.88,1,1,0,0,0-1.08.88c-.09.64.63.88,1.35,1.18,1,.37,2.29.91,2.09,2.45s-1.46,2.27-3.25,2.27S54.06,52.62,54.24,51.27Z"/><path class="cls-5" d="M68.69,46.65h-1a.08.08,0,0,0-.09.08L67,50.84c-.11.77.19,1,.75,1h.12a.17.17,0,0,1,.18.19L67.9,53.2a.23.23,0,0,1-.23.19h-.58c-1.37,0-2.28-.31-2.07-1.87l.63-4.79a.07.07,0,0,0-.08-.08H65a.17.17,0,0,1-.18-.19l.12-.91a.23.23,0,0,1,.23-.19h.59a.1.1,0,0,0,.1-.08l.23-1.72a.22.22,0,0,1,.22-.19h1.5a.17.17,0,0,1,.18.19l-.23,1.72s0,.08.07.08h1a.16.16,0,0,1,.18.19l-.12.91A.22.22,0,0,1,68.69,46.65Z"/><path class="cls-3" d="M73.78,43.23a1.3,1.3,0,0,1,1.33-1.14,1,1,0,0,1,1,1.14,1.28,1.28,0,0,1-1.33,1.13A1,1,0,0,1,73.78,43.23Zm-1.11,10,1-7.65a.23.23,0,0,1,.23-.19h1.56a.16.16,0,0,1,.18.19l-1,7.65a.22.22,0,0,1-.22.19H72.85A.16.16,0,0,1,72.67,53.2Z"/><path class="cls-4" d="M81.28,53.23l-1-7.66c0-.14.08-.21.21-.21h1.72a.17.17,0,0,1,.19.18l.35,5.1c0,.06.07.06.1,0l1.67-5.1a.24.24,0,0,1,.25-.18l1.73,0c.13,0,.21.06.16.2l-3.07,7.65a.25.25,0,0,1-.25.16H81.5A.19.19,0,0,1,81.28,53.23Z"/><path class="cls-4" d="M96,50.06H92.22a.1.1,0,0,0-.1.08l-.09.69A.9.9,0,0,0,92.92,52a1.26,1.26,0,0,0,1.14-.83c0-.11.13-.18.24-.16l1.52.09c.11,0,.19.08.16.21a3,3,0,0,1-3.27,2.25c-1.86,0-2.87-1-2.67-2.55l.42-3.19a3.06,3.06,0,0,1,3.34-2.54c1.89,0,2.89,1,2.69,2.54l-.28,2.09A.22.22,0,0,1,96,50.06Zm-3.57-2.14-.09.69a.07.07,0,0,0,.08.08h1.91a.09.09,0,0,0,.1-.08l.09-.69a.88.88,0,0,0-.9-1.11A1.21,1.21,0,0,0,92.41,47.92Z"/><path class="cls-6" d="M33.89,52.1l-.36-2.73-2.45,1.94.78.22a4.57,4.57,0,0,1-3.26,1.41,3.42,3.42,0,0,1-3-1.54L24.55,52a4.49,4.49,0,0,0,3.9,2A6,6,0,0,0,33,51.86Z"/><path class="cls-7" d="M26.28,47.21a4.57,4.57,0,0,1,3.26-1.41,3.42,3.42,0,0,1,3,1.51l1.08-.65a4.53,4.53,0,0,0-3.88-2,6,6,0,0,0-4.59,2.21l-.85-.24.36,2.73,2.45-1.94Z"/><path class="cls-8" d="M29.38,47.05a2.05,2.05,0,0,0-2,1.67c-.12.92,1.41,3,1.41,3s2.08-2,2.2-3A1.49,1.49,0,0,0,29.38,47.05ZM29,49.61a.82.82,0,0,1-.87-.91,1.13,1.13,0,0,1,1.11-.91.81.81,0,0,1,.86.91A1.11,1.11,0,0,1,29,49.61Z"/><path class="cls-9" d="M39,74c-8.29,0-15.57,6.43-16.22,14.33s5.55,14.33,13.84,14.33,15.56-6.43,16.21-14.33S47.29,74,39,74ZM37,97.91c-5.52,0-9.66-4.28-9.22-9.55s5.28-9.55,10.81-9.55,9.66,4.28,9.22,9.55S42.55,97.91,37,97.91Z"/><path class="cls-9" d="M124.16,74c-8.29,0-15.56,6.43-16.22,14.33s5.55,14.33,13.84,14.33S137.34,96.26,138,88.36,132.45,74,124.16,74Zm-2,23.88c-5.53,0-9.66-4.28-9.23-9.55s5.29-9.55,10.82-9.55,9.66,4.28,9.22,9.55S127.7,97.91,122.18,97.91Z"/><path class="cls-10" d="M154.92,60.8,135.15,27.37a2.28,2.28,0,0,0-2-1.1H105.59a2.71,2.71,0,0,0-2.71,2.39l-4.95,59.7a2.22,2.22,0,0,0,2.3,2.39h10l.4-4.78h-7.52l4.57-54.92h23.67l18.77,31.74L148.22,86H135.69l-.39,4.78h15a2.71,2.71,0,0,0,2.7-2.39l2.18-26.27A2.14,2.14,0,0,0,154.92,60.8Z"/><path class="cls-11" d="M115.53,57.32l1.39-16.72h20l.39-4.78H114.81a2.71,2.71,0,0,0-2.7,2.39L110.33,59.7a2.22,2.22,0,0,0,2.3,2.39H150.2l.4-4.78H115.53Z"/><path class="cls-12" d="M107,9.55H11.8a2.71,2.71,0,0,0-2.7,2.39L2.75,88.36a2.22,2.22,0,0,0,2.31,2.39h20l.4-4.78H8l6-71.64h90.16L98.12,86H50.54l-.4,4.78h50.09a2.71,2.71,0,0,0,2.71-2.39l6.34-76.42A2.22,2.22,0,0,0,107,9.55Z"/><polygon class="cls-13" points="6.25 76.42 21.27 76.42 20.88 81.2 5.85 81.2 6.25 76.42"/><polygon class="cls-13" points="56.34 76.42 98.92 76.42 98.52 81.2 55.94 81.2 56.34 76.42"/><polygon class="cls-13" points="141.5 76.42 151.51 76.42 151.12 81.2 141.1 81.2 141.5 76.42"/><polygon class="cls-14" points="18.52 19.11 106.18 19.11 105.79 23.88 18.12 23.88 18.52 19.11"/><polygon class="cls-15" points="35.51 85.97 40.52 85.97 40.12 90.75 35.11 90.75 35.51 85.97"/><polygon class="cls-15" points="120.67 85.97 125.68 85.97 125.28 90.75 120.27 90.75 120.67 85.97"/><polygon class="cls-16" points="10.41 0 45.48 0 45.08 4.78 10.02 4.78 10.41 0"/><polygon class="cls-16" points="0.4 0 5.41 0 5.01 4.78 0 4.78 0.4 0"/></g></g></svg>