<svg xmlns="http://www.w3.org/2000/svg" viewBox="0 0 347.76 67.88"><defs><style>.cls-1{fill:#123499;}.cls-2{fill:#f05a1f;}</style></defs><title>logo</title><g id="Layer_2" data-name="Layer 2"><g id="Layer_7" data-name="Layer 7"><path class="cls-1" d="M0,51.88V2.28a.85.85,0,0,1,.88-.89H7.63a.85.85,0,0,1,.88.89V45.06a.34.34,0,0,0,.37.36H24.73a.85.85,0,0,1,.88.88v5.58a.85.85,0,0,1-.88.88H.88A.85.85,0,0,1,0,51.88Z"/><path class="cls-1" d="M108.6,15.26h6.76a.85.85,0,0,1,.88.88V51.37c0,10.13-3.75,17.32-18.86,16.44a.91.91,0,0,1-.88-1V61.2a.75.75,0,0,1,1-.81c8.66.22,10.27-3.52,10.27-9.83v-.81c0-.29-.22-.36-.44-.07a8.31,8.31,0,0,1-6.89,3.16c-6.68,0-10.06-4.7-10.06-11.89V26.56c0-7.41,3.52-11.88,10.06-11.88a8.36,8.36,0,0,1,6.89,3.15c.22.3.44.22.44-.07V16.14A.85.85,0,0,1,108.6,15.26Zm-.88,25.1V27.23c0-3.09-1.76-5.21-4.4-5.21s-4.48,2.12-4.48,5.21V40.36c0,3,1.84,5.14,4.48,5.14S107.72,43.37,107.72,40.36Z"/><path class="cls-1" d="M137,5.28a5.14,5.14,0,1,1,10.28,0,5.14,5.14,0,1,1-10.28,0Zm.88,46.6V16.14a.85.85,0,0,1,.88-.88h6.76a.85.85,0,0,1,.88.88V51.88a.85.85,0,0,1-.88.88h-6.76A.85.85,0,0,1,137.88,51.88Z"/><path class="cls-1" d="M167,42.86v-.52a.85.85,0,0,1,.88-.88h6.31c.51,0,.88.22.88.59v.66c0,2.35,2,4.11,4.69,4.11a3.8,3.8,0,0,0,4.11-3.89c0-3.16-3.52-4.26-7-5.65-4-1.54-9.54-4.11-9.54-11.52,0-6.9,4.77-10.94,12.11-10.94,7.63,0,12.4,4.41,12.4,11.23a.85.85,0,0,1-.88.88h-6.16c-.52,0-.88-.29-.88-.66v-.66a4.22,4.22,0,0,0-8.44,0c0,3,3.23,4.11,6.53,5.5,4.33,1.77,10.42,4.26,10.42,11.45,0,6.53-5,10.64-12.77,10.64S167,49.17,167,42.86Z"/><path class="cls-1" d="M226.9,21.28h-4.55a.35.35,0,0,0-.37.37V40.87c0,3.6,1.39,4.55,3.81,4.48h.52a.85.85,0,0,1,.88.88v5.65a.85.85,0,0,1-.88.88h-2.5c-5.94,0-10.05-1.47-10.05-8.73V21.65a.35.35,0,0,0-.37-.37h-2.57a.85.85,0,0,1-.88-.88V16.14a.85.85,0,0,1,.88-.88h2.57a.34.34,0,0,0,.37-.36V6.82a.85.85,0,0,1,.88-.88h6.46a.85.85,0,0,1,.88.88V14.9a.34.34,0,0,0,.37.36h4.55a.85.85,0,0,1,.88.88V20.4A.85.85,0,0,1,226.9,21.28Z"/><path class="cls-1" d="M246.93,5.28a5.14,5.14,0,1,1,10.27,0,5.14,5.14,0,1,1-10.27,0Zm.88,46.6V16.14a.85.85,0,0,1,.88-.88h6.75a.85.85,0,0,1,.88.88V51.88a.85.85,0,0,1-.88.88h-6.75A.85.85,0,0,1,247.81,51.88Z"/><path class="cls-1" d="M285.09,52l-8.88-35.81c-.15-.66.22-1,.8-1h7.42a.84.84,0,0,1,.95.81l4.4,23.85c.08.29.37.29.44,0l4.33-23.85a.85.85,0,0,1,1-.81l7.48.08c.59,0,1,.29.81.95L294.92,52a1,1,0,0,1-1,.73h-7.78A1,1,0,0,1,285.09,52Z"/><path class="cls-1" d="M346.88,37.21h-16.3a.34.34,0,0,0-.36.36V40.8c0,3.08,1.83,5.28,4.47,5.28a4.7,4.7,0,0,0,4.48-3.88c.15-.52.44-.81.95-.74l6.61.44c.51.08.88.37.81,1-.74,6.53-5.07,10.49-12.85,10.49-8.07,0-13-4.55-13-11.89V26.56c0-7,4.92-11.88,13-11.88s13.07,4.84,13.07,11.88v9.76A.85.85,0,0,1,346.88,37.21Zm-16.66-10v3.22a.34.34,0,0,0,.36.37h8.3a.34.34,0,0,0,.36-.37V27.23c0-3.09-1.83-5.21-4.55-5.21S330.22,24.14,330.22,27.23Z"/><path class="cls-2" d="M79.45,46.74,76.37,34l-9.51,9,3.49,1a16.68,16.68,0,0,1-27-.58l-4.33,3a22,22,0,0,0,36.65-.85Z"/><path class="cls-2" d="M43.76,23.92a16.68,16.68,0,0,1,26.92.44l4.29-3a21.95,21.95,0,0,0-36.52,1l-3.79-1.11L37.74,34l9.51-9Z"/><path class="cls-2" d="M57.05,23.13A7.82,7.82,0,0,0,49.24,31c0,4.32,7.81,13.89,7.81,13.89S64.87,35.27,64.87,31A7.82,7.82,0,0,0,57.05,23.13Zm0,12a4.26,4.26,0,1,1,4.26-4.25A4.25,4.25,0,0,1,57.05,35.11Z"/></g></g></svg>